G04*
G04 #@! TF.GenerationSoftware,Altium Limited,Altium Designer,25.5.2 (35)*
G04*
G04 Layer_Color=65535*
%FSLAX25Y25*%
%MOIN*%
G70*
G04*
G04 #@! TF.SameCoordinates,6300AEB4-FF93-4DB6-AA59-C0BFDB2991B2*
G04*
G04*
G04 #@! TF.FilePolarity,Positive*
G04*
G01*
G75*
%ADD10C,0.00787*%
%ADD11C,0.00500*%
%ADD24C,0.00591*%
G36*
X61430Y78471D02*
X60056D01*
Y82644D01*
X57754Y78471D01*
X56305D01*
Y84457D01*
X57679D01*
Y81021D01*
X59592Y84457D01*
X61430D01*
Y78471D01*
D02*
G37*
G36*
X65048Y84573D02*
X65297Y84548D01*
X65537Y84507D01*
X65752Y84449D01*
X65959Y84383D01*
X66150Y84308D01*
X66324Y84233D01*
X66473Y84159D01*
X66613Y84076D01*
X66738Y84002D01*
X66837Y83927D01*
X66920Y83861D01*
X66986Y83811D01*
X67036Y83762D01*
X67069Y83737D01*
X67077Y83728D01*
X67226Y83563D01*
X67350Y83389D01*
X67466Y83207D01*
X67557Y83016D01*
X67640Y82826D01*
X67706Y82635D01*
X67764Y82453D01*
X67806Y82279D01*
X67847Y82114D01*
X67872Y81956D01*
X67888Y81824D01*
X67897Y81700D01*
X67905Y81600D01*
X67913Y81534D01*
Y81485D01*
Y81468D01*
X67905Y81195D01*
X67880Y80938D01*
X67839Y80698D01*
X67781Y80474D01*
X67723Y80267D01*
X67648Y80077D01*
X67574Y79903D01*
X67491Y79754D01*
X67417Y79613D01*
X67342Y79497D01*
X67268Y79390D01*
X67210Y79307D01*
X67152Y79241D01*
X67110Y79199D01*
X67085Y79166D01*
X67077Y79158D01*
X66912Y79017D01*
X66738Y78893D01*
X66556Y78785D01*
X66373Y78686D01*
X66183Y78611D01*
X66001Y78545D01*
X65819Y78487D01*
X65645Y78446D01*
X65479Y78413D01*
X65322Y78388D01*
X65181Y78371D01*
X65065Y78363D01*
X64966Y78355D01*
X64891Y78347D01*
X64833D01*
X64601Y78355D01*
X64378Y78371D01*
X64171Y78396D01*
X63980Y78421D01*
X63898Y78438D01*
X63823Y78446D01*
X63757Y78462D01*
X63699Y78471D01*
X63649Y78479D01*
X63616Y78487D01*
X63599Y78496D01*
X63591D01*
X63368Y78553D01*
X63169Y78611D01*
X62987Y78661D01*
X62838Y78711D01*
X62722Y78752D01*
X62672Y78769D01*
X62639Y78785D01*
X62606Y78794D01*
X62581Y78802D01*
X62573Y78810D01*
X62564D01*
Y81766D01*
X65181D01*
Y80640D01*
X64022D01*
Y79448D01*
X64088Y79439D01*
X64403D01*
X64568Y79448D01*
X64726Y79464D01*
X64875Y79489D01*
X65015Y79514D01*
X65140Y79555D01*
X65255Y79597D01*
X65363Y79638D01*
X65462Y79688D01*
X65554Y79738D01*
X65628Y79779D01*
X65694Y79820D01*
X65744Y79862D01*
X65785Y79887D01*
X65819Y79911D01*
X65835Y79928D01*
X65843Y79936D01*
X65934Y80036D01*
X66017Y80143D01*
X66084Y80267D01*
X66141Y80392D01*
X66191Y80516D01*
X66241Y80648D01*
X66299Y80905D01*
X66324Y81021D01*
X66340Y81129D01*
X66348Y81236D01*
X66357Y81319D01*
X66365Y81393D01*
Y81443D01*
Y81485D01*
Y81493D01*
X66357Y81667D01*
X66340Y81832D01*
X66324Y81981D01*
X66299Y82106D01*
X66274Y82213D01*
X66249Y82288D01*
X66241Y82337D01*
X66233Y82354D01*
X66175Y82486D01*
X66117Y82611D01*
X66050Y82710D01*
X65992Y82801D01*
X65934Y82867D01*
X65893Y82925D01*
X65860Y82958D01*
X65852Y82967D01*
X65752Y83058D01*
X65661Y83132D01*
X65562Y83190D01*
X65479Y83248D01*
X65404Y83290D01*
X65338Y83315D01*
X65305Y83331D01*
X65289Y83339D01*
X65164Y83381D01*
X65040Y83414D01*
X64924Y83430D01*
X64817Y83447D01*
X64726Y83455D01*
X64651Y83464D01*
X64461D01*
X64345Y83447D01*
X64245Y83430D01*
X64146Y83414D01*
X64072Y83397D01*
X64013Y83381D01*
X63980Y83372D01*
X63964Y83364D01*
X63856Y83331D01*
X63757Y83290D01*
X63666Y83257D01*
X63583Y83223D01*
X63525Y83190D01*
X63475Y83174D01*
X63442Y83157D01*
X63434Y83149D01*
X63293Y83066D01*
X63227Y83016D01*
X63169Y82975D01*
X63119Y82942D01*
X63078Y82909D01*
X63053Y82892D01*
X63045Y82884D01*
X62970Y82834D01*
X62904Y82784D01*
X62854Y82743D01*
X62813Y82710D01*
X62771Y82685D01*
X62747Y82669D01*
X62738Y82652D01*
X62589D01*
Y84051D01*
X62780Y84134D01*
X62954Y84209D01*
X63119Y84275D01*
X63268Y84333D01*
X63393Y84374D01*
X63442Y84391D01*
X63484Y84407D01*
X63517Y84416D01*
X63542Y84424D01*
X63558Y84432D01*
X63566D01*
X63757Y84482D01*
X63955Y84515D01*
X64162Y84548D01*
X64353Y84565D01*
X64444Y84573D01*
X64593D01*
X64659Y84581D01*
X64784D01*
X65048Y84573D01*
D02*
G37*
G36*
X55088Y78471D02*
X52993D01*
X52777Y78487D01*
X52579Y78496D01*
X52405Y78512D01*
X52330Y78520D01*
X52264Y78529D01*
X52206Y78537D01*
X52148D01*
X52115Y78545D01*
X52082Y78553D01*
X52057D01*
X51850Y78595D01*
X51660Y78653D01*
X51494Y78711D01*
X51337Y78777D01*
X51213Y78843D01*
X51163Y78868D01*
X51121Y78893D01*
X51088Y78918D01*
X51064Y78926D01*
X51047Y78943D01*
X51039D01*
X50840Y79092D01*
X50658Y79249D01*
X50501Y79423D01*
X50368Y79580D01*
X50260Y79729D01*
X50219Y79787D01*
X50186Y79845D01*
X50153Y79887D01*
X50136Y79928D01*
X50120Y79944D01*
Y79953D01*
X50053Y80077D01*
X49995Y80209D01*
X49904Y80466D01*
X49838Y80714D01*
X49797Y80955D01*
X49780Y81054D01*
X49764Y81153D01*
X49755Y81236D01*
Y81311D01*
X49747Y81369D01*
Y81418D01*
Y81443D01*
Y81451D01*
X49764Y81766D01*
X49805Y82056D01*
X49830Y82188D01*
X49855Y82313D01*
X49888Y82428D01*
X49921Y82528D01*
X49954Y82627D01*
X49987Y82710D01*
X50012Y82784D01*
X50037Y82842D01*
X50062Y82892D01*
X50078Y82934D01*
X50086Y82950D01*
X50095Y82958D01*
X50236Y83190D01*
X50385Y83389D01*
X50534Y83571D01*
X50683Y83712D01*
X50815Y83828D01*
X50873Y83877D01*
X50923Y83919D01*
X50964Y83944D01*
X50997Y83969D01*
X51014Y83977D01*
X51022Y83985D01*
X51204Y84093D01*
X51386Y84176D01*
X51560Y84242D01*
X51718Y84291D01*
X51859Y84333D01*
X51916Y84350D01*
X51966Y84358D01*
X51999Y84366D01*
X52032Y84374D01*
X52057D01*
X52264Y84399D01*
X52471Y84424D01*
X52670Y84440D01*
X52852Y84449D01*
X52935D01*
X53001Y84457D01*
X55088D01*
Y78471D01*
D02*
G37*
G36*
X67913Y87714D02*
X66539D01*
Y91887D01*
X64237Y87714D01*
X62788D01*
Y93701D01*
X64162D01*
Y90265D01*
X66075Y93701D01*
X67913D01*
Y87714D01*
D02*
G37*
G36*
X59244Y93817D02*
X59476Y93792D01*
X59691Y93751D01*
X59898Y93692D01*
X60089Y93626D01*
X60263Y93552D01*
X60420Y93477D01*
X60569Y93403D01*
X60693Y93320D01*
X60809Y93245D01*
X60909Y93171D01*
X60983Y93105D01*
X61049Y93055D01*
X61099Y93005D01*
X61124Y92980D01*
X61132Y92972D01*
X61273Y92807D01*
X61389Y92633D01*
X61496Y92450D01*
X61588Y92260D01*
X61662Y92070D01*
X61728Y91887D01*
X61778Y91697D01*
X61819Y91523D01*
X61852Y91358D01*
X61877Y91200D01*
X61894Y91059D01*
X61902Y90944D01*
X61910Y90844D01*
X61919Y90770D01*
Y90720D01*
Y90712D01*
Y90703D01*
X61910Y90430D01*
X61885Y90182D01*
X61844Y89942D01*
X61795Y89718D01*
X61737Y89511D01*
X61670Y89329D01*
X61596Y89155D01*
X61521Y88998D01*
X61455Y88865D01*
X61380Y88741D01*
X61314Y88642D01*
X61256Y88559D01*
X61207Y88493D01*
X61165Y88451D01*
X61140Y88418D01*
X61132Y88410D01*
X60975Y88269D01*
X60817Y88145D01*
X60644Y88037D01*
X60470Y87938D01*
X60287Y87863D01*
X60114Y87797D01*
X59940Y87739D01*
X59766Y87698D01*
X59609Y87665D01*
X59468Y87640D01*
X59335Y87623D01*
X59219Y87615D01*
X59128Y87607D01*
X59054Y87598D01*
X58847D01*
X58706Y87607D01*
X58590Y87615D01*
X58499Y87623D01*
X58425Y87632D01*
X58367Y87640D01*
X58333Y87648D01*
X58325D01*
X58135Y87681D01*
X58052Y87706D01*
X57969Y87723D01*
X57895Y87739D01*
X57845Y87756D01*
X57803Y87764D01*
X57795D01*
X57630Y87822D01*
X57555Y87847D01*
X57489Y87872D01*
X57439Y87897D01*
X57389Y87913D01*
X57365Y87930D01*
X57356D01*
X57199Y88004D01*
X57133Y88029D01*
X57075Y88062D01*
X57033Y88079D01*
X57000Y88095D01*
X56976Y88112D01*
X56967D01*
Y89519D01*
X57108D01*
X57199Y89437D01*
X57282Y89362D01*
X57323Y89329D01*
X57348Y89312D01*
X57365Y89296D01*
X57373Y89288D01*
X57489Y89196D01*
X57605Y89114D01*
X57655Y89089D01*
X57696Y89064D01*
X57721Y89047D01*
X57729Y89039D01*
X57803Y88998D01*
X57878Y88948D01*
X57952Y88915D01*
X58027Y88882D01*
X58085Y88857D01*
X58135Y88832D01*
X58176Y88824D01*
X58184Y88816D01*
X58284Y88783D01*
X58383Y88766D01*
X58482Y88749D01*
X58565Y88733D01*
X58640D01*
X58698Y88724D01*
X58747D01*
X58855Y88733D01*
X58954Y88741D01*
X59054Y88758D01*
X59137Y88774D01*
X59211Y88791D01*
X59269Y88807D01*
X59302Y88824D01*
X59319D01*
X59418Y88865D01*
X59518Y88915D01*
X59609Y88973D01*
X59683Y89023D01*
X59749Y89072D01*
X59799Y89114D01*
X59832Y89139D01*
X59840Y89147D01*
X59923Y89238D01*
X60006Y89337D01*
X60072Y89445D01*
X60122Y89544D01*
X60172Y89627D01*
X60205Y89693D01*
X60221Y89743D01*
X60229Y89759D01*
X60279Y89909D01*
X60312Y90066D01*
X60337Y90223D01*
X60354Y90372D01*
X60362Y90496D01*
Y90554D01*
X60370Y90604D01*
Y90645D01*
Y90670D01*
Y90687D01*
Y90695D01*
X60362Y90886D01*
X60346Y91059D01*
X60329Y91217D01*
X60296Y91358D01*
X60271Y91465D01*
X60254Y91548D01*
X60246Y91573D01*
X60238Y91598D01*
X60229Y91606D01*
Y91614D01*
X60172Y91755D01*
X60114Y91879D01*
X60056Y91987D01*
X59998Y92078D01*
X59940Y92144D01*
X59898Y92194D01*
X59873Y92227D01*
X59865Y92235D01*
X59774Y92326D01*
X59683Y92401D01*
X59592Y92459D01*
X59518Y92509D01*
X59451Y92550D01*
X59393Y92575D01*
X59360Y92583D01*
X59352Y92591D01*
X59244Y92624D01*
X59145Y92658D01*
X59045Y92674D01*
X58954Y92682D01*
X58872Y92691D01*
X58814Y92699D01*
X58656D01*
X58557Y92682D01*
X58474Y92674D01*
X58391Y92658D01*
X58325Y92641D01*
X58276Y92624D01*
X58242Y92616D01*
X58234Y92608D01*
X58143Y92575D01*
X58052Y92533D01*
X57977Y92500D01*
X57903Y92467D01*
X57853Y92434D01*
X57803Y92417D01*
X57779Y92401D01*
X57770Y92393D01*
X57621Y92293D01*
X57563Y92252D01*
X57505Y92210D01*
X57464Y92177D01*
X57423Y92152D01*
X57406Y92136D01*
X57398Y92128D01*
X57282Y92036D01*
X57199Y91970D01*
X57166Y91937D01*
X57141Y91921D01*
X57133Y91912D01*
X57125Y91904D01*
X56967D01*
Y93320D01*
X57025Y93353D01*
X57091Y93386D01*
X57224Y93444D01*
X57282Y93469D01*
X57323Y93485D01*
X57356Y93494D01*
X57365Y93502D01*
X57530Y93577D01*
X57605Y93601D01*
X57671Y93626D01*
X57729Y93643D01*
X57770Y93659D01*
X57795Y93668D01*
X57803D01*
X58002Y93717D01*
X58093Y93734D01*
X58176Y93751D01*
X58251Y93767D01*
X58309Y93775D01*
X58342Y93784D01*
X58358D01*
X58574Y93808D01*
X58681Y93817D01*
X58780D01*
X58872Y93825D01*
X58996D01*
X59244Y93817D01*
D02*
G37*
G36*
X59352Y103659D02*
X59584Y103634D01*
X59799Y103593D01*
X60006Y103535D01*
X60196Y103469D01*
X60370Y103394D01*
X60528Y103320D01*
X60677Y103245D01*
X60801Y103162D01*
X60917Y103088D01*
X61016Y103013D01*
X61091Y102947D01*
X61157Y102898D01*
X61207Y102848D01*
X61231Y102823D01*
X61240Y102815D01*
X61380Y102649D01*
X61496Y102475D01*
X61604Y102293D01*
X61695Y102103D01*
X61770Y101912D01*
X61836Y101730D01*
X61885Y101540D01*
X61927Y101366D01*
X61960Y101200D01*
X61985Y101043D01*
X62002Y100902D01*
X62010Y100786D01*
X62018Y100687D01*
X62026Y100612D01*
Y100563D01*
Y100554D01*
Y100546D01*
X62018Y100273D01*
X61993Y100024D01*
X61952Y99784D01*
X61902Y99561D01*
X61844Y99354D01*
X61778Y99172D01*
X61703Y98998D01*
X61629Y98840D01*
X61563Y98708D01*
X61488Y98584D01*
X61422Y98484D01*
X61364Y98401D01*
X61314Y98335D01*
X61273Y98294D01*
X61248Y98261D01*
X61240Y98252D01*
X61082Y98112D01*
X60925Y97987D01*
X60751Y97880D01*
X60577Y97780D01*
X60395Y97706D01*
X60221Y97640D01*
X60047Y97582D01*
X59873Y97540D01*
X59716Y97507D01*
X59575Y97482D01*
X59443Y97466D01*
X59327Y97457D01*
X59236Y97449D01*
X59161Y97441D01*
X58954D01*
X58814Y97449D01*
X58698Y97457D01*
X58607Y97466D01*
X58532Y97474D01*
X58474Y97482D01*
X58441Y97491D01*
X58433D01*
X58242Y97524D01*
X58160Y97549D01*
X58077Y97565D01*
X58002Y97582D01*
X57952Y97598D01*
X57911Y97607D01*
X57903D01*
X57737Y97664D01*
X57663Y97689D01*
X57596Y97714D01*
X57547Y97739D01*
X57497Y97756D01*
X57472Y97772D01*
X57464D01*
X57307Y97847D01*
X57240Y97872D01*
X57183Y97905D01*
X57141Y97921D01*
X57108Y97938D01*
X57083Y97954D01*
X57075D01*
Y99362D01*
X57216D01*
X57307Y99279D01*
X57389Y99205D01*
X57431Y99172D01*
X57456Y99155D01*
X57472Y99138D01*
X57481Y99130D01*
X57596Y99039D01*
X57712Y98956D01*
X57762Y98931D01*
X57803Y98906D01*
X57828Y98890D01*
X57837Y98882D01*
X57911Y98840D01*
X57986Y98791D01*
X58060Y98757D01*
X58135Y98724D01*
X58193Y98699D01*
X58242Y98675D01*
X58284Y98666D01*
X58292Y98658D01*
X58391Y98625D01*
X58491Y98608D01*
X58590Y98592D01*
X58673Y98575D01*
X58747D01*
X58805Y98567D01*
X58855D01*
X58963Y98575D01*
X59062Y98584D01*
X59161Y98600D01*
X59244Y98617D01*
X59319Y98633D01*
X59377Y98650D01*
X59410Y98666D01*
X59426D01*
X59526Y98708D01*
X59625Y98757D01*
X59716Y98815D01*
X59791Y98865D01*
X59857Y98915D01*
X59907Y98956D01*
X59940Y98981D01*
X59948Y98989D01*
X60031Y99080D01*
X60114Y99180D01*
X60180Y99287D01*
X60229Y99387D01*
X60279Y99470D01*
X60312Y99536D01*
X60329Y99585D01*
X60337Y99602D01*
X60387Y99751D01*
X60420Y99908D01*
X60445Y100066D01*
X60461Y100215D01*
X60470Y100339D01*
Y100397D01*
X60478Y100447D01*
Y100488D01*
Y100513D01*
Y100529D01*
Y100538D01*
X60470Y100728D01*
X60453Y100902D01*
X60436Y101059D01*
X60403Y101200D01*
X60379Y101308D01*
X60362Y101391D01*
X60354Y101415D01*
X60346Y101440D01*
X60337Y101449D01*
Y101457D01*
X60279Y101597D01*
X60221Y101722D01*
X60163Y101829D01*
X60105Y101920D01*
X60047Y101987D01*
X60006Y102036D01*
X59981Y102069D01*
X59973Y102078D01*
X59882Y102169D01*
X59791Y102243D01*
X59700Y102301D01*
X59625Y102351D01*
X59559Y102392D01*
X59501Y102417D01*
X59468Y102426D01*
X59460Y102434D01*
X59352Y102467D01*
X59253Y102500D01*
X59153Y102517D01*
X59062Y102525D01*
X58979Y102533D01*
X58921Y102541D01*
X58764D01*
X58665Y102525D01*
X58582Y102517D01*
X58499Y102500D01*
X58433Y102483D01*
X58383Y102467D01*
X58350Y102459D01*
X58342Y102450D01*
X58251Y102417D01*
X58160Y102376D01*
X58085Y102343D01*
X58011Y102310D01*
X57961Y102277D01*
X57911Y102260D01*
X57886Y102243D01*
X57878Y102235D01*
X57729Y102136D01*
X57671Y102094D01*
X57613Y102053D01*
X57572Y102020D01*
X57530Y101995D01*
X57514Y101978D01*
X57505Y101970D01*
X57389Y101879D01*
X57307Y101813D01*
X57274Y101780D01*
X57249Y101763D01*
X57240Y101755D01*
X57232Y101747D01*
X57075D01*
Y103162D01*
X57133Y103196D01*
X57199Y103229D01*
X57332Y103287D01*
X57389Y103312D01*
X57431Y103328D01*
X57464Y103336D01*
X57472Y103345D01*
X57638Y103419D01*
X57712Y103444D01*
X57779Y103469D01*
X57837Y103485D01*
X57878Y103502D01*
X57903Y103510D01*
X57911D01*
X58110Y103560D01*
X58201Y103576D01*
X58284Y103593D01*
X58358Y103610D01*
X58416Y103618D01*
X58449Y103626D01*
X58466D01*
X58681Y103651D01*
X58789Y103659D01*
X58888D01*
X58979Y103667D01*
X59104D01*
X59352Y103659D01*
D02*
G37*
G36*
X67913Y97557D02*
X65819D01*
X65603Y97573D01*
X65404Y97582D01*
X65231Y97598D01*
X65156Y97607D01*
X65090Y97615D01*
X65032Y97623D01*
X64974D01*
X64941Y97631D01*
X64908Y97640D01*
X64883D01*
X64676Y97681D01*
X64486Y97739D01*
X64320Y97797D01*
X64162Y97863D01*
X64038Y97930D01*
X63989Y97954D01*
X63947Y97979D01*
X63914Y98004D01*
X63889Y98012D01*
X63873Y98029D01*
X63864D01*
X63666Y98178D01*
X63484Y98335D01*
X63326Y98509D01*
X63194Y98666D01*
X63086Y98815D01*
X63045Y98873D01*
X63012Y98931D01*
X62979Y98973D01*
X62962Y99014D01*
X62945Y99031D01*
Y99039D01*
X62879Y99163D01*
X62821Y99296D01*
X62730Y99552D01*
X62664Y99801D01*
X62622Y100041D01*
X62606Y100140D01*
X62589Y100240D01*
X62581Y100322D01*
Y100397D01*
X62573Y100455D01*
Y100505D01*
Y100529D01*
Y100538D01*
X62589Y100852D01*
X62631Y101142D01*
X62656Y101275D01*
X62680Y101399D01*
X62713Y101515D01*
X62747Y101614D01*
X62780Y101713D01*
X62813Y101796D01*
X62838Y101871D01*
X62863Y101929D01*
X62887Y101978D01*
X62904Y102020D01*
X62912Y102036D01*
X62920Y102045D01*
X63061Y102277D01*
X63210Y102475D01*
X63359Y102657D01*
X63508Y102798D01*
X63641Y102914D01*
X63699Y102964D01*
X63749Y103005D01*
X63790Y103030D01*
X63823Y103055D01*
X63840Y103063D01*
X63848Y103071D01*
X64030Y103179D01*
X64212Y103262D01*
X64386Y103328D01*
X64543Y103378D01*
X64684Y103419D01*
X64742Y103436D01*
X64792Y103444D01*
X64825Y103452D01*
X64858Y103461D01*
X64883D01*
X65090Y103485D01*
X65297Y103510D01*
X65496Y103527D01*
X65678Y103535D01*
X65761D01*
X65827Y103543D01*
X67913D01*
Y97557D01*
D02*
G37*
G36*
X59311Y114486D02*
X59542Y114461D01*
X59758Y114420D01*
X59965Y114362D01*
X60155Y114296D01*
X60329Y114221D01*
X60486Y114146D01*
X60635Y114072D01*
X60760Y113989D01*
X60875Y113915D01*
X60975Y113840D01*
X61049Y113774D01*
X61115Y113724D01*
X61165Y113675D01*
X61190Y113650D01*
X61198Y113641D01*
X61339Y113476D01*
X61455Y113302D01*
X61563Y113120D01*
X61654Y112929D01*
X61728Y112739D01*
X61795Y112557D01*
X61844Y112366D01*
X61885Y112192D01*
X61919Y112027D01*
X61944Y111870D01*
X61960Y111729D01*
X61968Y111613D01*
X61977Y111513D01*
X61985Y111439D01*
Y111389D01*
Y111381D01*
Y111373D01*
X61977Y111100D01*
X61952Y110851D01*
X61910Y110611D01*
X61861Y110387D01*
X61803Y110180D01*
X61737Y109998D01*
X61662Y109824D01*
X61588Y109667D01*
X61521Y109535D01*
X61447Y109410D01*
X61380Y109311D01*
X61322Y109228D01*
X61273Y109162D01*
X61231Y109121D01*
X61207Y109087D01*
X61198Y109079D01*
X61041Y108938D01*
X60884Y108814D01*
X60710Y108707D01*
X60536Y108607D01*
X60354Y108533D01*
X60180Y108466D01*
X60006Y108408D01*
X59832Y108367D01*
X59675Y108334D01*
X59534Y108309D01*
X59402Y108293D01*
X59286Y108284D01*
X59194Y108276D01*
X59120Y108268D01*
X58913D01*
X58772Y108276D01*
X58656Y108284D01*
X58565Y108293D01*
X58491Y108301D01*
X58433Y108309D01*
X58400Y108317D01*
X58391D01*
X58201Y108351D01*
X58118Y108375D01*
X58035Y108392D01*
X57961Y108408D01*
X57911Y108425D01*
X57870Y108433D01*
X57862D01*
X57696Y108491D01*
X57621Y108516D01*
X57555Y108541D01*
X57505Y108566D01*
X57456Y108582D01*
X57431Y108599D01*
X57423D01*
X57265Y108673D01*
X57199Y108698D01*
X57141Y108731D01*
X57100Y108748D01*
X57067Y108765D01*
X57042Y108781D01*
X57033D01*
Y110189D01*
X57174D01*
X57265Y110106D01*
X57348Y110031D01*
X57389Y109998D01*
X57414Y109982D01*
X57431Y109965D01*
X57439Y109957D01*
X57555Y109866D01*
X57671Y109783D01*
X57721Y109758D01*
X57762Y109733D01*
X57787Y109717D01*
X57795Y109708D01*
X57870Y109667D01*
X57944Y109617D01*
X58019Y109584D01*
X58093Y109551D01*
X58151Y109526D01*
X58201Y109501D01*
X58242Y109493D01*
X58251Y109485D01*
X58350Y109452D01*
X58449Y109435D01*
X58549Y109419D01*
X58631Y109402D01*
X58706D01*
X58764Y109394D01*
X58814D01*
X58921Y109402D01*
X59021Y109410D01*
X59120Y109427D01*
X59203Y109443D01*
X59277Y109460D01*
X59335Y109477D01*
X59368Y109493D01*
X59385D01*
X59484Y109535D01*
X59584Y109584D01*
X59675Y109642D01*
X59749Y109692D01*
X59816Y109742D01*
X59865Y109783D01*
X59898Y109808D01*
X59907Y109816D01*
X59989Y109907D01*
X60072Y110006D01*
X60138Y110114D01*
X60188Y110213D01*
X60238Y110296D01*
X60271Y110363D01*
X60287Y110412D01*
X60296Y110429D01*
X60346Y110578D01*
X60379Y110735D01*
X60403Y110892D01*
X60420Y111041D01*
X60428Y111166D01*
Y111224D01*
X60436Y111273D01*
Y111315D01*
Y111340D01*
Y111356D01*
Y111364D01*
X60428Y111555D01*
X60412Y111729D01*
X60395Y111886D01*
X60362Y112027D01*
X60337Y112135D01*
X60321Y112217D01*
X60312Y112242D01*
X60304Y112267D01*
X60296Y112275D01*
Y112284D01*
X60238Y112424D01*
X60180Y112548D01*
X60122Y112656D01*
X60064Y112747D01*
X60006Y112813D01*
X59965Y112863D01*
X59940Y112896D01*
X59931Y112905D01*
X59840Y112996D01*
X59749Y113070D01*
X59658Y113128D01*
X59584Y113178D01*
X59518Y113219D01*
X59460Y113244D01*
X59426Y113252D01*
X59418Y113261D01*
X59311Y113294D01*
X59211Y113327D01*
X59112Y113343D01*
X59021Y113352D01*
X58938Y113360D01*
X58880Y113368D01*
X58723D01*
X58623Y113352D01*
X58540Y113343D01*
X58458Y113327D01*
X58391Y113310D01*
X58342Y113294D01*
X58309Y113285D01*
X58300Y113277D01*
X58209Y113244D01*
X58118Y113203D01*
X58044Y113170D01*
X57969Y113136D01*
X57919Y113103D01*
X57870Y113087D01*
X57845Y113070D01*
X57837Y113062D01*
X57688Y112962D01*
X57630Y112921D01*
X57572Y112880D01*
X57530Y112847D01*
X57489Y112822D01*
X57472Y112805D01*
X57464Y112797D01*
X57348Y112706D01*
X57265Y112640D01*
X57232Y112606D01*
X57207Y112590D01*
X57199Y112582D01*
X57191Y112573D01*
X57033D01*
Y113989D01*
X57091Y114022D01*
X57158Y114055D01*
X57290Y114113D01*
X57348Y114138D01*
X57389Y114155D01*
X57423Y114163D01*
X57431Y114171D01*
X57596Y114246D01*
X57671Y114271D01*
X57737Y114296D01*
X57795Y114312D01*
X57837Y114329D01*
X57862Y114337D01*
X57870D01*
X58069Y114387D01*
X58160Y114403D01*
X58242Y114420D01*
X58317Y114436D01*
X58375Y114445D01*
X58408Y114453D01*
X58425D01*
X58640Y114478D01*
X58747Y114486D01*
X58847D01*
X58938Y114494D01*
X59062D01*
X59311Y114486D01*
D02*
G37*
G36*
X67913Y108384D02*
X66415D01*
X66042Y109601D01*
X64154D01*
X63782Y108384D01*
X62233D01*
X64262Y114370D01*
X65893D01*
X67913Y108384D01*
D02*
G37*
G36*
X70869Y130022D02*
X70886Y129947D01*
X70902Y129872D01*
X70919Y129813D01*
X70944Y129763D01*
X70961Y129730D01*
X70969Y129705D01*
X70977Y129697D01*
X71069Y129588D01*
X71169Y129505D01*
X71210Y129480D01*
X71244Y129455D01*
X71269Y129447D01*
X71277Y129438D01*
X71344Y129413D01*
X71419Y129389D01*
X71560Y129347D01*
X71619Y129339D01*
X71669Y129330D01*
X71710Y129322D01*
X71719D01*
X71919Y129305D01*
X72010Y129297D01*
X72093D01*
X72168Y129289D01*
X72268D01*
Y128306D01*
X71002D01*
Y125124D01*
X72268D01*
Y124074D01*
X68295D01*
Y125124D01*
X69536D01*
Y130113D01*
X70861D01*
X70869Y130022D01*
D02*
G37*
G36*
X76492Y128997D02*
X75126D01*
Y126581D01*
Y126465D01*
Y126356D01*
X75134Y126257D01*
Y126165D01*
Y126098D01*
X75142Y126040D01*
Y126007D01*
Y125998D01*
X75151Y125907D01*
X75159Y125815D01*
X75176Y125740D01*
X75192Y125673D01*
X75209Y125615D01*
X75226Y125573D01*
X75234Y125548D01*
X75242Y125540D01*
X75284Y125473D01*
X75326Y125407D01*
X75384Y125348D01*
X75434Y125307D01*
X75476Y125274D01*
X75517Y125249D01*
X75542Y125232D01*
X75550Y125224D01*
X75634Y125190D01*
X75734Y125165D01*
X75834Y125140D01*
X75934Y125132D01*
X76017Y125124D01*
X76092Y125115D01*
X76267D01*
X76367Y125124D01*
X76458Y125132D01*
X76525Y125149D01*
X76583Y125157D01*
X76633Y125165D01*
X76658Y125174D01*
X76667D01*
X76808Y125224D01*
X76867Y125249D01*
X76925Y125274D01*
X76975Y125290D01*
X77008Y125307D01*
X77033Y125315D01*
X77175D01*
Y124099D01*
X77075Y124082D01*
X76967Y124066D01*
X76867Y124049D01*
X76775Y124041D01*
X76692Y124032D01*
X76625Y124024D01*
X76583Y124016D01*
X76567D01*
X76300Y123999D01*
X76167Y123991D01*
X76050D01*
X75950Y123982D01*
X75809D01*
X75617Y123991D01*
X75434Y123999D01*
X75275Y124024D01*
X75134Y124049D01*
X75026Y124066D01*
X74942Y124091D01*
X74909Y124099D01*
X74884D01*
X74876Y124107D01*
X74867D01*
X74717Y124166D01*
X74576Y124224D01*
X74459Y124299D01*
X74351Y124366D01*
X74268Y124424D01*
X74201Y124474D01*
X74168Y124507D01*
X74151Y124515D01*
X74051Y124607D01*
X73968Y124707D01*
X73901Y124807D01*
X73843Y124899D01*
X73801Y124982D01*
X73768Y125040D01*
X73751Y125082D01*
X73743Y125099D01*
X73701Y125232D01*
X73668Y125365D01*
X73643Y125490D01*
X73626Y125598D01*
X73618Y125698D01*
X73610Y125773D01*
Y125823D01*
Y125832D01*
Y125840D01*
Y130097D01*
X76492D01*
Y128997D01*
D02*
G37*
G36*
X13343Y151486D02*
X13526Y151478D01*
X13701Y151453D01*
X13860Y151428D01*
X13993Y151403D01*
X14051Y151395D01*
X14101Y151386D01*
X14143Y151378D01*
X14168Y151370D01*
X14185Y151361D01*
X14193D01*
X14385Y151311D01*
X14543Y151270D01*
X14684Y151228D01*
X14793Y151186D01*
X14876Y151161D01*
X14934Y151136D01*
X14976Y151120D01*
X14984Y151111D01*
Y149804D01*
X14868D01*
X14809Y149845D01*
X14734Y149887D01*
X14684Y149920D01*
X14668Y149937D01*
X14659D01*
X14543Y150012D01*
X14426Y150070D01*
X14376Y150095D01*
X14334Y150112D01*
X14310Y150128D01*
X14301D01*
X14151Y150187D01*
X14076Y150220D01*
X14018Y150237D01*
X13960Y150253D01*
X13918Y150270D01*
X13893Y150278D01*
X13885D01*
X13726Y150312D01*
X13660Y150320D01*
X13593Y150328D01*
X13535Y150337D01*
X13452D01*
X13293Y150328D01*
X13152Y150303D01*
X13035Y150262D01*
X12935Y150228D01*
X12852Y150187D01*
X12794Y150145D01*
X12760Y150120D01*
X12752Y150112D01*
X12668Y150020D01*
X12602Y149912D01*
X12560Y149804D01*
X12527Y149704D01*
X12510Y149612D01*
X12494Y149529D01*
Y149479D01*
Y149470D01*
Y149462D01*
X12502Y149320D01*
X12527Y149187D01*
X12560Y149071D01*
X12594Y148962D01*
X12627Y148871D01*
X12660Y148796D01*
X12685Y148754D01*
X12694Y148737D01*
X12777Y148604D01*
X12877Y148462D01*
X12985Y148329D01*
X13085Y148196D01*
X13185Y148088D01*
X13260Y147996D01*
X13293Y147963D01*
X13318Y147946D01*
X13327Y147929D01*
X13335Y147921D01*
X13468Y147788D01*
X13601Y147654D01*
X13735Y147521D01*
X13860Y147405D01*
X13968Y147305D01*
X14051Y147230D01*
X14085Y147205D01*
X14110Y147180D01*
X14118Y147171D01*
X14126Y147163D01*
X14301Y147013D01*
X14476Y146863D01*
X14643Y146721D01*
X14801Y146597D01*
X14934Y146488D01*
X14993Y146438D01*
X15043Y146397D01*
X15076Y146363D01*
X15109Y146338D01*
X15126Y146330D01*
X15134Y146322D01*
Y145347D01*
X10703D01*
Y146480D01*
X13268D01*
X13202Y146530D01*
X13127Y146588D01*
X12960Y146721D01*
X12885Y146780D01*
X12827Y146830D01*
X12785Y146863D01*
X12768Y146871D01*
X12510Y147096D01*
X12394Y147205D01*
X12285Y147305D01*
X12194Y147388D01*
X12119Y147463D01*
X12077Y147504D01*
X12060Y147521D01*
X11861Y147738D01*
X11686Y147938D01*
X11544Y148121D01*
X11427Y148288D01*
X11336Y148421D01*
X11302Y148479D01*
X11277Y148521D01*
X11252Y148562D01*
X11236Y148587D01*
X11227Y148604D01*
Y148612D01*
X11144Y148804D01*
X11078Y148996D01*
X11036Y149170D01*
X11003Y149337D01*
X10986Y149470D01*
X10977Y149529D01*
X10969Y149579D01*
Y149620D01*
Y149645D01*
Y149662D01*
Y149670D01*
X10977Y149829D01*
X10994Y149978D01*
X11019Y150120D01*
X11052Y150245D01*
X11102Y150362D01*
X11144Y150478D01*
X11194Y150578D01*
X11244Y150670D01*
X11302Y150745D01*
X11352Y150820D01*
X11394Y150878D01*
X11436Y150928D01*
X11477Y150961D01*
X11502Y150987D01*
X11519Y151003D01*
X11527Y151012D01*
X11636Y151095D01*
X11752Y151170D01*
X11877Y151236D01*
X12010Y151295D01*
X12144Y151336D01*
X12285Y151378D01*
X12544Y151436D01*
X12668Y151453D01*
X12785Y151470D01*
X12885Y151478D01*
X12977Y151486D01*
X13052Y151495D01*
X13152D01*
X13343Y151486D01*
D02*
G37*
G36*
X18300D02*
X18533Y151461D01*
X18749Y151420D01*
X18958Y151361D01*
X19149Y151295D01*
X19324Y151220D01*
X19482Y151145D01*
X19632Y151070D01*
X19757Y150987D01*
X19874Y150911D01*
X19974Y150837D01*
X20049Y150770D01*
X20116Y150720D01*
X20166Y150670D01*
X20190Y150645D01*
X20199Y150637D01*
X20340Y150470D01*
X20457Y150295D01*
X20565Y150112D01*
X20657Y149920D01*
X20732Y149729D01*
X20799Y149545D01*
X20849Y149354D01*
X20890Y149179D01*
X20924Y149012D01*
X20949Y148854D01*
X20965Y148712D01*
X20974Y148596D01*
X20982Y148496D01*
X20990Y148421D01*
Y148371D01*
Y148363D01*
Y148354D01*
X20982Y148079D01*
X20957Y147829D01*
X20915Y147588D01*
X20865Y147363D01*
X20807Y147155D01*
X20740Y146971D01*
X20665Y146797D01*
X20590Y146638D01*
X20524Y146505D01*
X20449Y146380D01*
X20382Y146280D01*
X20324Y146197D01*
X20274Y146130D01*
X20232Y146088D01*
X20207Y146055D01*
X20199Y146047D01*
X20041Y145905D01*
X19882Y145780D01*
X19707Y145672D01*
X19533Y145572D01*
X19349Y145497D01*
X19174Y145430D01*
X18999Y145372D01*
X18824Y145330D01*
X18666Y145297D01*
X18525Y145272D01*
X18391Y145255D01*
X18275Y145247D01*
X18183Y145239D01*
X18108Y145230D01*
X17900D01*
X17758Y145239D01*
X17642Y145247D01*
X17550Y145255D01*
X17475Y145264D01*
X17417Y145272D01*
X17383Y145280D01*
X17375D01*
X17183Y145314D01*
X17100Y145339D01*
X17017Y145355D01*
X16942Y145372D01*
X16892Y145389D01*
X16850Y145397D01*
X16842D01*
X16675Y145455D01*
X16600Y145480D01*
X16534Y145505D01*
X16484Y145530D01*
X16434Y145547D01*
X16409Y145564D01*
X16400D01*
X16242Y145639D01*
X16175Y145664D01*
X16117Y145697D01*
X16075Y145714D01*
X16042Y145730D01*
X16017Y145747D01*
X16009D01*
Y147163D01*
X16150D01*
X16242Y147080D01*
X16325Y147005D01*
X16367Y146971D01*
X16392Y146955D01*
X16409Y146938D01*
X16417Y146930D01*
X16534Y146838D01*
X16650Y146755D01*
X16700Y146730D01*
X16742Y146705D01*
X16767Y146688D01*
X16775Y146680D01*
X16850Y146638D01*
X16925Y146588D01*
X17000Y146555D01*
X17075Y146522D01*
X17133Y146497D01*
X17183Y146472D01*
X17225Y146463D01*
X17233Y146455D01*
X17333Y146422D01*
X17433Y146405D01*
X17533Y146388D01*
X17617Y146372D01*
X17692D01*
X17750Y146363D01*
X17800D01*
X17908Y146372D01*
X18008Y146380D01*
X18108Y146397D01*
X18191Y146413D01*
X18266Y146430D01*
X18325Y146447D01*
X18358Y146463D01*
X18375D01*
X18474Y146505D01*
X18575Y146555D01*
X18666Y146613D01*
X18741Y146663D01*
X18808Y146713D01*
X18858Y146755D01*
X18891Y146780D01*
X18899Y146788D01*
X18983Y146880D01*
X19066Y146980D01*
X19133Y147088D01*
X19183Y147188D01*
X19233Y147271D01*
X19266Y147338D01*
X19283Y147388D01*
X19291Y147405D01*
X19341Y147555D01*
X19374Y147713D01*
X19399Y147871D01*
X19416Y148021D01*
X19424Y148146D01*
Y148204D01*
X19433Y148254D01*
Y148296D01*
Y148321D01*
Y148337D01*
Y148346D01*
X19424Y148538D01*
X19408Y148712D01*
X19391Y148871D01*
X19357Y149012D01*
X19332Y149121D01*
X19316Y149204D01*
X19308Y149229D01*
X19299Y149254D01*
X19291Y149262D01*
Y149270D01*
X19233Y149412D01*
X19174Y149537D01*
X19116Y149645D01*
X19058Y149737D01*
X18999Y149804D01*
X18958Y149854D01*
X18933Y149887D01*
X18924Y149895D01*
X18833Y149987D01*
X18741Y150062D01*
X18650Y150120D01*
X18575Y150170D01*
X18508Y150212D01*
X18450Y150237D01*
X18416Y150245D01*
X18408Y150253D01*
X18300Y150287D01*
X18200Y150320D01*
X18100Y150337D01*
X18008Y150345D01*
X17925Y150353D01*
X17866Y150362D01*
X17708D01*
X17608Y150345D01*
X17525Y150337D01*
X17442Y150320D01*
X17375Y150303D01*
X17325Y150287D01*
X17292Y150278D01*
X17283Y150270D01*
X17192Y150237D01*
X17100Y150195D01*
X17025Y150162D01*
X16950Y150128D01*
X16900Y150095D01*
X16850Y150078D01*
X16825Y150062D01*
X16817Y150054D01*
X16667Y149954D01*
X16609Y149912D01*
X16550Y149870D01*
X16509Y149837D01*
X16467Y149812D01*
X16450Y149795D01*
X16442Y149787D01*
X16325Y149695D01*
X16242Y149629D01*
X16209Y149595D01*
X16184Y149579D01*
X16175Y149570D01*
X16167Y149562D01*
X16009D01*
Y150987D01*
X16067Y151020D01*
X16134Y151053D01*
X16267Y151111D01*
X16325Y151136D01*
X16367Y151153D01*
X16400Y151161D01*
X16409Y151170D01*
X16575Y151245D01*
X16650Y151270D01*
X16717Y151295D01*
X16775Y151311D01*
X16817Y151328D01*
X16842Y151336D01*
X16850D01*
X17050Y151386D01*
X17142Y151403D01*
X17225Y151420D01*
X17300Y151436D01*
X17358Y151445D01*
X17392Y151453D01*
X17408D01*
X17625Y151478D01*
X17733Y151486D01*
X17833D01*
X17925Y151495D01*
X18050D01*
X18300Y151486D01*
D02*
G37*
G36*
X18025Y72021D02*
X18258Y71996D01*
X18474Y71955D01*
X18683Y71896D01*
X18874Y71830D01*
X19049Y71755D01*
X19208Y71680D01*
X19357Y71605D01*
X19482Y71522D01*
X19599Y71447D01*
X19699Y71372D01*
X19774Y71305D01*
X19841Y71255D01*
X19891Y71205D01*
X19916Y71180D01*
X19924Y71172D01*
X20066Y71005D01*
X20182Y70830D01*
X20290Y70647D01*
X20382Y70455D01*
X20457Y70264D01*
X20524Y70081D01*
X20574Y69889D01*
X20615Y69714D01*
X20649Y69547D01*
X20674Y69389D01*
X20690Y69248D01*
X20699Y69131D01*
X20707Y69031D01*
X20715Y68956D01*
Y68906D01*
Y68898D01*
Y68889D01*
X20707Y68614D01*
X20682Y68365D01*
X20640Y68123D01*
X20590Y67898D01*
X20532Y67690D01*
X20465Y67506D01*
X20391Y67332D01*
X20315Y67173D01*
X20249Y67040D01*
X20174Y66915D01*
X20107Y66815D01*
X20049Y66732D01*
X19999Y66665D01*
X19957Y66624D01*
X19932Y66590D01*
X19924Y66582D01*
X19766Y66440D01*
X19607Y66315D01*
X19433Y66207D01*
X19258Y66107D01*
X19074Y66032D01*
X18899Y65965D01*
X18724Y65907D01*
X18550Y65865D01*
X18391Y65832D01*
X18250Y65807D01*
X18116Y65790D01*
X18000Y65782D01*
X17908Y65774D01*
X17833Y65766D01*
X17625D01*
X17483Y65774D01*
X17367Y65782D01*
X17275Y65790D01*
X17200Y65799D01*
X17142Y65807D01*
X17108Y65816D01*
X17100D01*
X16908Y65849D01*
X16825Y65874D01*
X16742Y65891D01*
X16667Y65907D01*
X16617Y65924D01*
X16575Y65932D01*
X16567D01*
X16400Y65991D01*
X16325Y66015D01*
X16259Y66040D01*
X16209Y66065D01*
X16159Y66082D01*
X16134Y66099D01*
X16126D01*
X15967Y66174D01*
X15901Y66199D01*
X15842Y66232D01*
X15801Y66249D01*
X15767Y66265D01*
X15742Y66282D01*
X15734D01*
Y67698D01*
X15876D01*
X15967Y67615D01*
X16050Y67540D01*
X16092Y67506D01*
X16117Y67490D01*
X16134Y67473D01*
X16142Y67465D01*
X16259Y67373D01*
X16375Y67290D01*
X16425Y67265D01*
X16467Y67240D01*
X16492Y67223D01*
X16500Y67215D01*
X16575Y67173D01*
X16650Y67123D01*
X16725Y67090D01*
X16800Y67057D01*
X16859Y67032D01*
X16908Y67007D01*
X16950Y66998D01*
X16959Y66990D01*
X17058Y66957D01*
X17158Y66940D01*
X17258Y66923D01*
X17342Y66907D01*
X17417D01*
X17475Y66898D01*
X17525D01*
X17633Y66907D01*
X17733Y66915D01*
X17833Y66932D01*
X17916Y66948D01*
X17991Y66965D01*
X18050Y66982D01*
X18083Y66998D01*
X18100D01*
X18200Y67040D01*
X18300Y67090D01*
X18391Y67148D01*
X18466Y67198D01*
X18533Y67248D01*
X18583Y67290D01*
X18616Y67315D01*
X18624Y67323D01*
X18708Y67415D01*
X18791Y67515D01*
X18858Y67623D01*
X18908Y67723D01*
X18958Y67806D01*
X18991Y67873D01*
X19008Y67923D01*
X19016Y67940D01*
X19066Y68090D01*
X19099Y68248D01*
X19124Y68406D01*
X19141Y68556D01*
X19149Y68681D01*
Y68739D01*
X19158Y68789D01*
Y68831D01*
Y68856D01*
Y68873D01*
Y68881D01*
X19149Y69073D01*
X19133Y69248D01*
X19116Y69406D01*
X19083Y69547D01*
X19058Y69656D01*
X19041Y69739D01*
X19033Y69764D01*
X19024Y69789D01*
X19016Y69797D01*
Y69806D01*
X18958Y69947D01*
X18899Y70072D01*
X18841Y70180D01*
X18783Y70272D01*
X18724Y70339D01*
X18683Y70389D01*
X18658Y70422D01*
X18650Y70430D01*
X18558Y70522D01*
X18466Y70597D01*
X18375Y70655D01*
X18300Y70705D01*
X18233Y70747D01*
X18175Y70772D01*
X18141Y70780D01*
X18133Y70789D01*
X18025Y70822D01*
X17925Y70855D01*
X17825Y70872D01*
X17733Y70880D01*
X17650Y70889D01*
X17592Y70897D01*
X17433D01*
X17333Y70880D01*
X17250Y70872D01*
X17167Y70855D01*
X17100Y70838D01*
X17050Y70822D01*
X17017Y70814D01*
X17008Y70805D01*
X16917Y70772D01*
X16825Y70730D01*
X16750Y70697D01*
X16675Y70664D01*
X16625Y70630D01*
X16575Y70614D01*
X16550Y70597D01*
X16542Y70589D01*
X16392Y70489D01*
X16334Y70447D01*
X16275Y70405D01*
X16234Y70372D01*
X16192Y70347D01*
X16175Y70330D01*
X16167Y70322D01*
X16050Y70230D01*
X15967Y70164D01*
X15934Y70130D01*
X15909Y70114D01*
X15901Y70105D01*
X15892Y70097D01*
X15734D01*
Y71522D01*
X15792Y71555D01*
X15859Y71588D01*
X15992Y71646D01*
X16050Y71671D01*
X16092Y71688D01*
X16126Y71697D01*
X16134Y71705D01*
X16300Y71780D01*
X16375Y71805D01*
X16442Y71830D01*
X16500Y71846D01*
X16542Y71863D01*
X16567Y71872D01*
X16575D01*
X16775Y71921D01*
X16867Y71938D01*
X16950Y71955D01*
X17025Y71971D01*
X17083Y71980D01*
X17117Y71988D01*
X17133D01*
X17350Y72013D01*
X17458Y72021D01*
X17558D01*
X17650Y72030D01*
X17775D01*
X18025Y72021D01*
D02*
G37*
G36*
X13277Y71830D02*
X13293Y71755D01*
X13310Y71680D01*
X13327Y71622D01*
X13352Y71572D01*
X13368Y71538D01*
X13377Y71513D01*
X13385Y71505D01*
X13477Y71397D01*
X13577Y71313D01*
X13618Y71288D01*
X13652Y71263D01*
X13677Y71255D01*
X13685Y71247D01*
X13751Y71222D01*
X13826Y71197D01*
X13968Y71155D01*
X14026Y71147D01*
X14076Y71138D01*
X14118Y71130D01*
X14126D01*
X14326Y71113D01*
X14418Y71105D01*
X14501D01*
X14576Y71097D01*
X14676D01*
Y70114D01*
X13410D01*
Y66932D01*
X14676D01*
Y65882D01*
X10703D01*
Y66932D01*
X11944D01*
Y71921D01*
X13268D01*
X13277Y71830D01*
D02*
G37*
%LPC*%
G36*
X53581Y83339D02*
X53233D01*
X53101Y83331D01*
X52894D01*
X52819Y83323D01*
X52761D01*
X52637Y83306D01*
X52521Y83290D01*
X52413Y83257D01*
X52314Y83223D01*
X52239Y83190D01*
X52173Y83157D01*
X52140Y83141D01*
X52123Y83132D01*
X51974Y83041D01*
X51850Y82934D01*
X51743Y82826D01*
X51652Y82718D01*
X51585Y82627D01*
X51544Y82544D01*
X51511Y82495D01*
X51502Y82486D01*
Y82478D01*
X51436Y82313D01*
X51386Y82139D01*
X51345Y81973D01*
X51320Y81816D01*
X51304Y81675D01*
Y81617D01*
X51295Y81567D01*
Y81526D01*
Y81493D01*
Y81476D01*
Y81468D01*
X51304Y81253D01*
X51328Y81062D01*
X51362Y80897D01*
X51395Y80748D01*
X51428Y80632D01*
X51445Y80582D01*
X51461Y80541D01*
X51478Y80507D01*
X51486Y80483D01*
X51494Y80474D01*
Y80466D01*
X51569Y80325D01*
X51660Y80193D01*
X51751Y80085D01*
X51842Y79994D01*
X51925Y79920D01*
X51991Y79870D01*
X52032Y79837D01*
X52041Y79829D01*
X52049D01*
X52165Y79762D01*
X52281Y79713D01*
X52397Y79671D01*
X52496Y79646D01*
X52587Y79630D01*
X52653Y79622D01*
X52695Y79613D01*
X52711D01*
X52844Y79605D01*
X53125D01*
X53258Y79597D01*
X53581D01*
Y83339D01*
D02*
G37*
G36*
X66406Y102426D02*
X66059D01*
X65926Y102417D01*
X65719D01*
X65645Y102409D01*
X65587D01*
X65462Y102392D01*
X65347Y102376D01*
X65239Y102343D01*
X65140Y102310D01*
X65065Y102277D01*
X64999Y102243D01*
X64966Y102227D01*
X64949Y102218D01*
X64800Y102127D01*
X64676Y102020D01*
X64568Y101912D01*
X64477Y101804D01*
X64411Y101713D01*
X64369Y101631D01*
X64336Y101581D01*
X64328Y101573D01*
Y101564D01*
X64262Y101399D01*
X64212Y101225D01*
X64171Y101059D01*
X64146Y100902D01*
X64129Y100761D01*
Y100703D01*
X64121Y100654D01*
Y100612D01*
Y100579D01*
Y100563D01*
Y100554D01*
X64129Y100339D01*
X64154Y100148D01*
X64187Y99983D01*
X64220Y99834D01*
X64254Y99718D01*
X64270Y99668D01*
X64287Y99627D01*
X64303Y99594D01*
X64312Y99569D01*
X64320Y99561D01*
Y99552D01*
X64394Y99412D01*
X64486Y99279D01*
X64577Y99172D01*
X64668Y99080D01*
X64750Y99006D01*
X64817Y98956D01*
X64858Y98923D01*
X64866Y98915D01*
X64875D01*
X64991Y98849D01*
X65106Y98799D01*
X65222Y98757D01*
X65322Y98733D01*
X65413Y98716D01*
X65479Y98708D01*
X65521Y98699D01*
X65537D01*
X65670Y98691D01*
X65951D01*
X66084Y98683D01*
X66406D01*
Y102426D01*
D02*
G37*
G36*
X65098Y112664D02*
X64486Y110694D01*
X65711D01*
X65098Y112664D01*
D02*
G37*
%LPD*%
D10*
X82480Y69488D02*
X81693D01*
X82480D01*
D11*
X69390Y120866D02*
X92028D01*
X69390Y72047D02*
Y120866D01*
Y72047D02*
X92028D01*
Y120866D01*
D24*
X12303Y136811D02*
X19390D01*
X17815Y143504D02*
X19390D01*
Y130118D02*
Y143504D01*
X17815Y130118D02*
X19390D01*
X12303D02*
X13878D01*
X12303D02*
Y143504D01*
X13878D01*
X13189Y57087D02*
X20276D01*
X18701Y63779D02*
X20276D01*
Y50394D02*
Y63779D01*
X18701Y50394D02*
X20276D01*
X13189D02*
X14764D01*
X13189D02*
Y63779D01*
X14764D01*
M02*
