G04*
G04 #@! TF.GenerationSoftware,Altium Limited,Altium Designer,25.5.2 (35)*
G04*
G04 Layer_Color=2752767*
%FSLAX25Y25*%
%MOIN*%
G70*
G04*
G04 #@! TF.SameCoordinates,6300AEB4-FF93-4DB6-AA59-C0BFDB2991B2*
G04*
G04*
G04 #@! TF.FilePolarity,Positive*
G04*
G01*
G75*
%ADD27C,0.00200*%
%ADD28C,0.00267*%
D27*
X27743Y126759D02*
Y128359D01*
X29343D01*
Y126759D01*
X27743D01*
X53334D02*
Y128359D01*
X54934D01*
Y126759D01*
X53334D01*
X27743Y144476D02*
Y146076D01*
X29343D01*
Y144476D01*
X27743D01*
X53334D02*
Y146076D01*
X54934D01*
Y144476D01*
X53334D01*
X27743Y46877D02*
Y48477D01*
X29343D01*
Y46877D01*
X27743D01*
X53334D02*
Y48477D01*
X54934D01*
Y46877D01*
X53334D01*
X27743Y64594D02*
Y66194D01*
X29343D01*
Y64594D01*
X27743D01*
X53334D02*
Y66194D01*
X54934D01*
Y64594D01*
X53334D01*
X81976Y90735D02*
Y92335D01*
X83576D01*
Y90735D01*
X81976D01*
Y80893D02*
Y82493D01*
X83576D01*
Y80893D01*
X81976D01*
Y100578D02*
Y102178D01*
X83576D01*
Y100578D01*
X81976D01*
Y110421D02*
Y112021D01*
X83576D01*
Y110421D01*
X81976D01*
D28*
X48831Y11457D02*
X48279Y12218D01*
X47384Y11927D01*
Y10987D01*
X48279Y10696D01*
X48831Y11457D01*
Y181457D02*
X48279Y182218D01*
X47384Y181927D01*
Y180986D01*
X48279Y180696D01*
X48831Y181457D01*
M02*
