G04*
G04 #@! TF.GenerationSoftware,Altium Limited,Altium Designer,25.5.2 (35)*
G04*
G04 Layer_Color=65535*
%FSLAX25Y25*%
%MOIN*%
G70*
G04*
G04 #@! TF.SameCoordinates,6300AEB4-FF93-4DB6-AA59-C0BFDB2991B2*
G04*
G04*
G04 #@! TF.FilePolarity,Positive*
G04*
G01*
G75*
%ADD10C,0.00787*%
%ADD11C,0.00500*%
G36*
X29695Y119432D02*
X29794D01*
X29901Y119424D01*
X30117Y119399D01*
X30133D01*
X30166Y119391D01*
X30224Y119382D01*
X30299Y119366D01*
X30382Y119349D01*
X30473Y119333D01*
X30672Y119283D01*
X30680D01*
X30705Y119275D01*
X30746Y119258D01*
X30804Y119242D01*
X30870Y119217D01*
X30945Y119192D01*
X31110Y119117D01*
X31119Y119109D01*
X31152Y119101D01*
X31193Y119084D01*
X31251Y119060D01*
X31384Y119001D01*
X31450Y118968D01*
X31508Y118935D01*
Y117519D01*
X31350D01*
X31342Y117528D01*
X31334Y117536D01*
X31309Y117552D01*
X31276Y117586D01*
X31193Y117652D01*
X31077Y117743D01*
X31069Y117751D01*
X31052Y117768D01*
X31011Y117793D01*
X30970Y117826D01*
X30912Y117867D01*
X30854Y117909D01*
X30705Y118008D01*
X30696Y118016D01*
X30672Y118033D01*
X30622Y118049D01*
X30572Y118082D01*
X30498Y118116D01*
X30423Y118149D01*
X30332Y118190D01*
X30241Y118223D01*
X30233Y118231D01*
X30200Y118240D01*
X30150Y118256D01*
X30084Y118273D01*
X30001Y118289D01*
X29918Y118298D01*
X29819Y118314D01*
X29661D01*
X29603Y118306D01*
X29521Y118298D01*
X29430Y118289D01*
X29330Y118273D01*
X29231Y118240D01*
X29123Y118207D01*
X29115Y118198D01*
X29082Y118190D01*
X29024Y118165D01*
X28958Y118124D01*
X28883Y118074D01*
X28792Y118016D01*
X28701Y117942D01*
X28610Y117851D01*
X28602Y117842D01*
X28577Y117809D01*
X28535Y117760D01*
X28477Y117693D01*
X28419Y117602D01*
X28361Y117495D01*
X28303Y117370D01*
X28245Y117230D01*
Y117221D01*
X28237Y117213D01*
X28229Y117188D01*
X28221Y117163D01*
X28204Y117081D01*
X28179Y116973D01*
X28146Y116832D01*
X28130Y116675D01*
X28113Y116501D01*
X28105Y116311D01*
Y116302D01*
Y116286D01*
Y116261D01*
Y116219D01*
X28113Y116170D01*
Y116112D01*
X28121Y115988D01*
X28138Y115839D01*
X28163Y115681D01*
X28196Y115524D01*
X28245Y115375D01*
X28254Y115358D01*
X28270Y115309D01*
X28303Y115242D01*
X28353Y115160D01*
X28403Y115060D01*
X28469Y114953D01*
X28552Y114853D01*
X28635Y114762D01*
X28643Y114754D01*
X28676Y114729D01*
X28726Y114688D01*
X28792Y114638D01*
X28866Y114588D01*
X28958Y114530D01*
X29057Y114481D01*
X29156Y114439D01*
X29173D01*
X29206Y114423D01*
X29264Y114406D01*
X29338Y114390D01*
X29421Y114373D01*
X29521Y114357D01*
X29620Y114348D01*
X29728Y114340D01*
X29777D01*
X29835Y114348D01*
X29910D01*
X29993Y114365D01*
X30092Y114381D01*
X30191Y114398D01*
X30291Y114431D01*
X30299Y114439D01*
X30340Y114447D01*
X30390Y114472D01*
X30448Y114497D01*
X30523Y114530D01*
X30597Y114564D01*
X30672Y114613D01*
X30746Y114655D01*
X30754Y114663D01*
X30779Y114679D01*
X30821Y114704D01*
X30870Y114729D01*
X30986Y114812D01*
X31102Y114903D01*
X31110Y114911D01*
X31127Y114928D01*
X31152Y114944D01*
X31193Y114978D01*
X31276Y115052D01*
X31367Y115135D01*
X31508D01*
Y113727D01*
X31499D01*
X31475Y113711D01*
X31442Y113694D01*
X31400Y113678D01*
X31342Y113644D01*
X31276Y113619D01*
X31119Y113545D01*
X31110D01*
X31086Y113529D01*
X31036Y113512D01*
X30986Y113487D01*
X30920Y113462D01*
X30845Y113437D01*
X30680Y113379D01*
X30672D01*
X30630Y113371D01*
X30580Y113355D01*
X30506Y113338D01*
X30423Y113321D01*
X30340Y113297D01*
X30150Y113263D01*
X30142D01*
X30108Y113255D01*
X30051Y113247D01*
X29976Y113239D01*
X29885Y113230D01*
X29769Y113222D01*
X29628Y113214D01*
X29421D01*
X29347Y113222D01*
X29256Y113230D01*
X29140Y113239D01*
X29007Y113255D01*
X28866Y113280D01*
X28709Y113313D01*
X28535Y113355D01*
X28361Y113412D01*
X28188Y113479D01*
X28005Y113553D01*
X27832Y113653D01*
X27658Y113760D01*
X27500Y113884D01*
X27343Y114025D01*
X27335Y114033D01*
X27310Y114067D01*
X27268Y114108D01*
X27219Y114174D01*
X27161Y114257D01*
X27095Y114357D01*
X27020Y114481D01*
X26954Y114613D01*
X26879Y114770D01*
X26805Y114944D01*
X26739Y115127D01*
X26681Y115333D01*
X26631Y115557D01*
X26590Y115797D01*
X26565Y116046D01*
X26556Y116319D01*
Y116327D01*
Y116335D01*
Y116385D01*
X26565Y116460D01*
X26573Y116559D01*
X26581Y116675D01*
X26598Y116816D01*
X26623Y116973D01*
X26656Y117139D01*
X26697Y117312D01*
X26747Y117503D01*
X26813Y117685D01*
X26888Y117876D01*
X26979Y118066D01*
X27086Y118248D01*
X27202Y118422D01*
X27343Y118588D01*
X27351Y118596D01*
X27376Y118621D01*
X27426Y118670D01*
X27492Y118720D01*
X27566Y118786D01*
X27666Y118861D01*
X27782Y118935D01*
X27906Y119018D01*
X28055Y119093D01*
X28212Y119167D01*
X28386Y119242D01*
X28577Y119308D01*
X28784Y119366D01*
X28999Y119407D01*
X29231Y119432D01*
X29479Y119440D01*
X29603D01*
X29695Y119432D01*
D02*
G37*
G36*
X60463Y117958D02*
X60521Y117950D01*
X60587Y117942D01*
X60736Y117909D01*
X60910Y117859D01*
X61084Y117784D01*
X61167Y117735D01*
X61250Y117677D01*
X61324Y117602D01*
X61399Y117528D01*
X61407Y117519D01*
X61415Y117511D01*
X61432Y117478D01*
X61457Y117445D01*
X61481Y117403D01*
X61515Y117345D01*
X61548Y117279D01*
X61589Y117205D01*
X61622Y117122D01*
X61655Y117023D01*
X61688Y116923D01*
X61713Y116807D01*
X61738Y116683D01*
X61755Y116551D01*
X61771Y116410D01*
Y116261D01*
Y113330D01*
X60364D01*
Y115565D01*
Y115582D01*
Y115615D01*
Y115665D01*
Y115739D01*
X60355Y115814D01*
Y115905D01*
X60339Y116103D01*
Y116112D01*
X60330Y116145D01*
Y116195D01*
X60322Y116261D01*
X60297Y116393D01*
X60273Y116451D01*
X60256Y116509D01*
Y116517D01*
X60239Y116534D01*
X60223Y116559D01*
X60198Y116592D01*
X60132Y116667D01*
X60041Y116725D01*
X60032D01*
X60016Y116733D01*
X59983Y116749D01*
X59950Y116766D01*
X59892Y116774D01*
X59834Y116791D01*
X59759Y116799D01*
X59618D01*
X59569Y116791D01*
X59519Y116782D01*
X59461Y116774D01*
X59329Y116733D01*
X59320D01*
X59295Y116725D01*
X59262Y116708D01*
X59221Y116683D01*
X59163Y116650D01*
X59097Y116617D01*
X58956Y116526D01*
Y113330D01*
X57548D01*
Y117842D01*
X58956D01*
Y117337D01*
X58973Y117354D01*
X59014Y117387D01*
X59080Y117437D01*
X59163Y117511D01*
X59271Y117586D01*
X59378Y117660D01*
X59494Y117735D01*
X59618Y117801D01*
X59635Y117809D01*
X59676Y117826D01*
X59743Y117851D01*
X59834Y117884D01*
X59941Y117917D01*
X60066Y117942D01*
X60198Y117958D01*
X60347Y117966D01*
X60413D01*
X60463Y117958D01*
D02*
G37*
G36*
X44557Y113330D02*
X43150D01*
Y113827D01*
X43133Y113810D01*
X43083Y113777D01*
X43017Y113719D01*
X42926Y113653D01*
X42818Y113578D01*
X42702Y113504D01*
X42586Y113429D01*
X42470Y113363D01*
X42454Y113355D01*
X42421Y113338D01*
X42355Y113313D01*
X42272Y113288D01*
X42164Y113255D01*
X42040Y113230D01*
X41899Y113214D01*
X41750Y113206D01*
X41684D01*
X41642Y113214D01*
X41585Y113222D01*
X41518Y113230D01*
X41369Y113255D01*
X41204Y113305D01*
X41030Y113388D01*
X40939Y113429D01*
X40856Y113487D01*
X40781Y113553D01*
X40707Y113628D01*
Y113636D01*
X40690Y113644D01*
X40674Y113669D01*
X40649Y113711D01*
X40624Y113752D01*
X40591Y113810D01*
X40558Y113868D01*
X40525Y113943D01*
X40483Y114033D01*
X40450Y114125D01*
X40417Y114232D01*
X40392Y114348D01*
X40367Y114472D01*
X40351Y114605D01*
X40343Y114746D01*
X40334Y114903D01*
Y117842D01*
X41742D01*
Y115598D01*
Y115582D01*
Y115541D01*
Y115474D01*
Y115400D01*
X41750Y115309D01*
Y115209D01*
Y115118D01*
X41758Y115027D01*
Y115019D01*
Y114994D01*
X41767Y114953D01*
X41775Y114895D01*
X41800Y114779D01*
X41841Y114655D01*
Y114646D01*
X41858Y114630D01*
X41866Y114605D01*
X41891Y114572D01*
X41957Y114506D01*
X42040Y114439D01*
X42048D01*
X42065Y114431D01*
X42098Y114423D01*
X42139Y114406D01*
X42189Y114398D01*
X42255Y114381D01*
X42330Y114373D01*
X42479D01*
X42520Y114381D01*
X42570Y114390D01*
X42628Y114398D01*
X42769Y114439D01*
X42777D01*
X42802Y114456D01*
X42843Y114472D01*
X42893Y114489D01*
X43017Y114555D01*
X43150Y114638D01*
Y117842D01*
X44557D01*
Y113330D01*
D02*
G37*
G36*
X37287Y119308D02*
X37445Y119300D01*
X37610Y119291D01*
X37767Y119275D01*
X37908Y119258D01*
X37925D01*
X37966Y119250D01*
X38032Y119233D01*
X38115Y119217D01*
X38215Y119184D01*
X38322Y119151D01*
X38430Y119109D01*
X38546Y119051D01*
X38562Y119043D01*
X38596Y119018D01*
X38653Y118985D01*
X38728Y118927D01*
X38802Y118861D01*
X38885Y118786D01*
X38960Y118687D01*
X39026Y118588D01*
X39034Y118571D01*
X39051Y118538D01*
X39076Y118480D01*
X39109Y118397D01*
X39142Y118298D01*
X39167Y118182D01*
X39183Y118058D01*
X39192Y117917D01*
Y117909D01*
Y117900D01*
Y117876D01*
Y117842D01*
X39183Y117760D01*
X39167Y117652D01*
X39134Y117536D01*
X39101Y117403D01*
X39043Y117271D01*
X38968Y117139D01*
X38960Y117122D01*
X38927Y117081D01*
X38877Y117023D01*
X38811Y116948D01*
X38728Y116865D01*
X38620Y116782D01*
X38504Y116700D01*
X38364Y116633D01*
Y116600D01*
X38372D01*
X38388Y116592D01*
X38413Y116584D01*
X38455Y116576D01*
X38504Y116559D01*
X38554Y116542D01*
X38687Y116501D01*
X38827Y116435D01*
X38968Y116352D01*
X39117Y116244D01*
X39250Y116120D01*
X39266Y116103D01*
X39299Y116054D01*
X39357Y115979D01*
X39423Y115863D01*
X39481Y115731D01*
X39539Y115565D01*
X39573Y115375D01*
X39589Y115160D01*
Y115151D01*
Y115143D01*
Y115118D01*
Y115085D01*
X39581Y115002D01*
X39564Y114895D01*
X39548Y114770D01*
X39515Y114638D01*
X39473Y114506D01*
X39415Y114373D01*
X39407Y114357D01*
X39382Y114315D01*
X39349Y114257D01*
X39299Y114174D01*
X39233Y114092D01*
X39150Y113992D01*
X39059Y113901D01*
X38960Y113818D01*
X38943Y113810D01*
X38902Y113777D01*
X38836Y113727D01*
X38745Y113669D01*
X38637Y113611D01*
X38513Y113545D01*
X38372Y113487D01*
X38223Y113437D01*
X38215D01*
X38206Y113429D01*
X38181D01*
X38148Y113421D01*
X38107Y113412D01*
X38066Y113404D01*
X37941Y113388D01*
X37792Y113363D01*
X37618Y113346D01*
X37420Y113338D01*
X37196Y113330D01*
X34803D01*
Y119316D01*
X37138D01*
X37287Y119308D01*
D02*
G37*
G36*
X22822D02*
X22905D01*
X23087Y119300D01*
X23286Y119283D01*
X23493Y119258D01*
X23700Y119233D01*
X23725D01*
X23758Y119225D01*
X23791Y119217D01*
X23841Y119209D01*
X23899Y119192D01*
X24039Y119151D01*
X24197Y119101D01*
X24370Y119035D01*
X24553Y118952D01*
X24735Y118844D01*
X24743Y118836D01*
X24760Y118828D01*
X24793Y118803D01*
X24834Y118778D01*
X24884Y118737D01*
X24942Y118687D01*
X25074Y118571D01*
X25223Y118430D01*
X25372Y118248D01*
X25521Y118049D01*
X25662Y117817D01*
X25670Y117809D01*
X25679Y117793D01*
X25695Y117751D01*
X25720Y117702D01*
X25745Y117644D01*
X25770Y117569D01*
X25803Y117486D01*
X25836Y117387D01*
X25869Y117288D01*
X25902Y117172D01*
X25927Y117048D01*
X25952Y116915D01*
X25993Y116625D01*
X26010Y116311D01*
Y116302D01*
Y116277D01*
Y116228D01*
X26002Y116170D01*
Y116095D01*
X25993Y116013D01*
X25977Y115913D01*
X25960Y115814D01*
X25919Y115574D01*
X25853Y115325D01*
X25762Y115068D01*
X25703Y114936D01*
X25637Y114812D01*
Y114804D01*
X25621Y114787D01*
X25604Y114746D01*
X25571Y114704D01*
X25538Y114646D01*
X25497Y114588D01*
X25389Y114439D01*
X25256Y114282D01*
X25099Y114108D01*
X24917Y113951D01*
X24718Y113802D01*
X24710D01*
X24693Y113785D01*
X24668Y113777D01*
X24635Y113752D01*
X24594Y113727D01*
X24544Y113702D01*
X24420Y113636D01*
X24263Y113570D01*
X24097Y113512D01*
X23907Y113454D01*
X23700Y113412D01*
X23675D01*
X23642Y113404D01*
X23609Y113396D01*
X23551D01*
X23493Y113388D01*
X23426Y113379D01*
X23352Y113371D01*
X23178Y113355D01*
X22979Y113346D01*
X22764Y113330D01*
X20669D01*
Y119316D01*
X22756D01*
X22822Y119308D01*
D02*
G37*
G36*
X50543Y117842D02*
X51901D01*
Y116865D01*
X50543D01*
Y115251D01*
Y115242D01*
Y115209D01*
Y115168D01*
Y115110D01*
Y115052D01*
Y114978D01*
Y114837D01*
Y114828D01*
Y114804D01*
Y114770D01*
X50552Y114729D01*
X50568Y114630D01*
X50610Y114522D01*
Y114514D01*
X50618Y114497D01*
X50635Y114472D01*
X50659Y114439D01*
X50717Y114365D01*
X50809Y114298D01*
X50817D01*
X50833Y114282D01*
X50866Y114274D01*
X50916Y114257D01*
X50974Y114241D01*
X51040Y114232D01*
X51123Y114216D01*
X51272D01*
X51305Y114224D01*
X51347D01*
X51396Y114241D01*
X51521Y114265D01*
X51529D01*
X51554Y114274D01*
X51578Y114282D01*
X51620Y114298D01*
X51703Y114323D01*
X51744Y114340D01*
X51777Y114357D01*
X51901D01*
Y113363D01*
X51893D01*
X51860Y113355D01*
X51819Y113346D01*
X51752Y113338D01*
X51678Y113321D01*
X51595Y113305D01*
X51413Y113280D01*
X51405D01*
X51363Y113272D01*
X51314Y113263D01*
X51239D01*
X51148Y113255D01*
X51032Y113247D01*
X50916Y113239D01*
X50693D01*
X50635Y113247D01*
X50560D01*
X50486Y113255D01*
X50394Y113272D01*
X50295Y113280D01*
X50088Y113321D01*
X49881Y113388D01*
X49691Y113470D01*
X49600Y113529D01*
X49525Y113586D01*
Y113595D01*
X49509Y113603D01*
X49492Y113628D01*
X49467Y113653D01*
X49434Y113694D01*
X49401Y113744D01*
X49368Y113802D01*
X49335Y113868D01*
X49293Y113943D01*
X49260Y114025D01*
X49227Y114125D01*
X49194Y114224D01*
X49169Y114340D01*
X49152Y114464D01*
X49144Y114597D01*
X49136Y114746D01*
Y116865D01*
X48598D01*
Y117842D01*
X49136D01*
Y119134D01*
X50543D01*
Y117842D01*
D02*
G37*
G36*
X47124D02*
X48482D01*
Y116865D01*
X47124D01*
Y115251D01*
Y115242D01*
Y115209D01*
Y115168D01*
Y115110D01*
Y115052D01*
Y114978D01*
Y114837D01*
Y114828D01*
Y114804D01*
Y114770D01*
X47132Y114729D01*
X47149Y114630D01*
X47190Y114522D01*
Y114514D01*
X47198Y114497D01*
X47215Y114472D01*
X47240Y114439D01*
X47298Y114365D01*
X47389Y114298D01*
X47397D01*
X47414Y114282D01*
X47447Y114274D01*
X47497Y114257D01*
X47554Y114241D01*
X47621Y114232D01*
X47703Y114216D01*
X47853D01*
X47886Y114224D01*
X47927D01*
X47977Y114241D01*
X48101Y114265D01*
X48109D01*
X48134Y114274D01*
X48159Y114282D01*
X48200Y114298D01*
X48283Y114323D01*
X48324Y114340D01*
X48358Y114357D01*
X48482D01*
Y113363D01*
X48474D01*
X48440Y113355D01*
X48399Y113346D01*
X48333Y113338D01*
X48258Y113321D01*
X48175Y113305D01*
X47993Y113280D01*
X47985D01*
X47944Y113272D01*
X47894Y113263D01*
X47819D01*
X47728Y113255D01*
X47612Y113247D01*
X47497Y113239D01*
X47273D01*
X47215Y113247D01*
X47140D01*
X47066Y113255D01*
X46975Y113272D01*
X46876Y113280D01*
X46668Y113321D01*
X46461Y113388D01*
X46271Y113470D01*
X46180Y113529D01*
X46106Y113586D01*
Y113595D01*
X46089Y113603D01*
X46072Y113628D01*
X46047Y113653D01*
X46014Y113694D01*
X45981Y113744D01*
X45948Y113802D01*
X45915Y113868D01*
X45874Y113943D01*
X45840Y114025D01*
X45807Y114125D01*
X45774Y114224D01*
X45749Y114340D01*
X45733Y114464D01*
X45725Y114597D01*
X45716Y114746D01*
Y116865D01*
X45178D01*
Y117842D01*
X45716D01*
Y119134D01*
X47124D01*
Y117842D01*
D02*
G37*
G36*
X54650Y117975D02*
X54742Y117966D01*
X54849Y117950D01*
X54973Y117925D01*
X55098Y117900D01*
X55238Y117867D01*
X55379Y117826D01*
X55520Y117776D01*
X55661Y117710D01*
X55801Y117635D01*
X55942Y117552D01*
X56075Y117453D01*
X56191Y117337D01*
X56199Y117329D01*
X56215Y117304D01*
X56248Y117271D01*
X56290Y117221D01*
X56331Y117155D01*
X56381Y117081D01*
X56439Y116981D01*
X56497Y116882D01*
X56555Y116758D01*
X56613Y116625D01*
X56662Y116484D01*
X56704Y116327D01*
X56745Y116162D01*
X56778Y115979D01*
X56795Y115789D01*
X56803Y115582D01*
Y115565D01*
Y115532D01*
Y115474D01*
X56795Y115400D01*
X56787Y115300D01*
X56770Y115193D01*
X56753Y115077D01*
X56729Y114944D01*
X56696Y114804D01*
X56654Y114663D01*
X56604Y114514D01*
X56546Y114373D01*
X56472Y114224D01*
X56389Y114083D01*
X56298Y113951D01*
X56191Y113827D01*
X56182Y113818D01*
X56166Y113802D01*
X56124Y113769D01*
X56075Y113727D01*
X56017Y113678D01*
X55942Y113628D01*
X55851Y113570D01*
X55743Y113512D01*
X55627Y113446D01*
X55503Y113388D01*
X55362Y113338D01*
X55205Y113288D01*
X55040Y113247D01*
X54857Y113214D01*
X54667Y113197D01*
X54468Y113189D01*
X54419D01*
X54361Y113197D01*
X54286D01*
X54195Y113206D01*
X54087Y113222D01*
X53971Y113239D01*
X53839Y113272D01*
X53707Y113305D01*
X53566Y113346D01*
X53425Y113396D01*
X53284Y113462D01*
X53143Y113529D01*
X53003Y113619D01*
X52878Y113711D01*
X52754Y113827D01*
X52746Y113835D01*
X52729Y113860D01*
X52696Y113893D01*
X52655Y113943D01*
X52614Y114009D01*
X52564Y114092D01*
X52506Y114183D01*
X52448Y114282D01*
X52390Y114406D01*
X52332Y114539D01*
X52282Y114679D01*
X52241Y114837D01*
X52200Y115002D01*
X52166Y115184D01*
X52150Y115375D01*
X52142Y115582D01*
Y115598D01*
Y115632D01*
X52150Y115690D01*
Y115764D01*
X52158Y115863D01*
X52175Y115971D01*
X52191Y116095D01*
X52216Y116228D01*
X52249Y116360D01*
X52291Y116509D01*
X52340Y116658D01*
X52398Y116799D01*
X52473Y116948D01*
X52556Y117089D01*
X52647Y117221D01*
X52754Y117345D01*
X52763Y117354D01*
X52779Y117370D01*
X52820Y117403D01*
X52870Y117445D01*
X52928Y117495D01*
X53003Y117544D01*
X53094Y117602D01*
X53201Y117668D01*
X53317Y117726D01*
X53442Y117784D01*
X53582Y117834D01*
X53740Y117884D01*
X53905Y117925D01*
X54079Y117958D01*
X54269Y117975D01*
X54468Y117983D01*
X54576D01*
X54650Y117975D01*
D02*
G37*
G36*
X29736Y39708D02*
X29835D01*
X29943Y39699D01*
X30158Y39675D01*
X30175D01*
X30208Y39666D01*
X30266Y39658D01*
X30340Y39641D01*
X30423Y39625D01*
X30514Y39608D01*
X30713Y39559D01*
X30721D01*
X30746Y39550D01*
X30788Y39534D01*
X30845Y39517D01*
X30912Y39492D01*
X30986Y39468D01*
X31152Y39393D01*
X31160Y39385D01*
X31193Y39377D01*
X31235Y39360D01*
X31293Y39335D01*
X31425Y39277D01*
X31491Y39244D01*
X31549Y39211D01*
Y37795D01*
X31392D01*
X31384Y37803D01*
X31375Y37812D01*
X31350Y37828D01*
X31317Y37861D01*
X31235Y37927D01*
X31119Y38019D01*
X31110Y38027D01*
X31094Y38043D01*
X31052Y38068D01*
X31011Y38101D01*
X30953Y38143D01*
X30895Y38184D01*
X30746Y38284D01*
X30738Y38292D01*
X30713Y38308D01*
X30663Y38325D01*
X30614Y38358D01*
X30539Y38391D01*
X30465Y38424D01*
X30373Y38466D01*
X30282Y38499D01*
X30274Y38507D01*
X30241Y38515D01*
X30191Y38532D01*
X30125Y38548D01*
X30042Y38565D01*
X29959Y38573D01*
X29860Y38590D01*
X29703D01*
X29645Y38582D01*
X29562Y38573D01*
X29471Y38565D01*
X29372Y38548D01*
X29272Y38515D01*
X29165Y38482D01*
X29156Y38474D01*
X29123Y38466D01*
X29065Y38441D01*
X28999Y38399D01*
X28925Y38350D01*
X28833Y38292D01*
X28742Y38217D01*
X28651Y38126D01*
X28643Y38118D01*
X28618Y38085D01*
X28577Y38035D01*
X28519Y37969D01*
X28461Y37878D01*
X28403Y37770D01*
X28345Y37646D01*
X28287Y37505D01*
Y37497D01*
X28279Y37489D01*
X28270Y37464D01*
X28262Y37439D01*
X28245Y37356D01*
X28221Y37249D01*
X28188Y37108D01*
X28171Y36950D01*
X28154Y36777D01*
X28146Y36586D01*
Y36578D01*
Y36561D01*
Y36536D01*
Y36495D01*
X28154Y36445D01*
Y36387D01*
X28163Y36263D01*
X28179Y36114D01*
X28204Y35957D01*
X28237Y35800D01*
X28287Y35651D01*
X28295Y35634D01*
X28312Y35584D01*
X28345Y35518D01*
X28394Y35435D01*
X28444Y35336D01*
X28510Y35228D01*
X28593Y35129D01*
X28676Y35038D01*
X28684Y35030D01*
X28717Y35005D01*
X28767Y34963D01*
X28833Y34914D01*
X28908Y34864D01*
X28999Y34806D01*
X29098Y34756D01*
X29198Y34715D01*
X29214D01*
X29247Y34698D01*
X29305Y34682D01*
X29380Y34665D01*
X29463Y34649D01*
X29562Y34632D01*
X29661Y34624D01*
X29769Y34615D01*
X29819D01*
X29877Y34624D01*
X29951D01*
X30034Y34640D01*
X30133Y34657D01*
X30233Y34674D01*
X30332Y34707D01*
X30340Y34715D01*
X30382Y34723D01*
X30431Y34748D01*
X30489Y34773D01*
X30564Y34806D01*
X30638Y34839D01*
X30713Y34889D01*
X30788Y34930D01*
X30796Y34938D01*
X30821Y34955D01*
X30862Y34980D01*
X30912Y35005D01*
X31028Y35087D01*
X31144Y35179D01*
X31152Y35187D01*
X31168Y35203D01*
X31193Y35220D01*
X31235Y35253D01*
X31317Y35328D01*
X31408Y35410D01*
X31549D01*
Y34003D01*
X31541D01*
X31516Y33986D01*
X31483Y33970D01*
X31442Y33953D01*
X31384Y33920D01*
X31317Y33895D01*
X31160Y33821D01*
X31152D01*
X31127Y33804D01*
X31077Y33788D01*
X31028Y33763D01*
X30961Y33738D01*
X30887Y33713D01*
X30721Y33655D01*
X30713D01*
X30672Y33647D01*
X30622Y33630D01*
X30547Y33614D01*
X30465Y33597D01*
X30382Y33572D01*
X30191Y33539D01*
X30183D01*
X30150Y33531D01*
X30092Y33522D01*
X30017Y33514D01*
X29926Y33506D01*
X29810Y33498D01*
X29670Y33489D01*
X29463D01*
X29388Y33498D01*
X29297Y33506D01*
X29181Y33514D01*
X29049Y33531D01*
X28908Y33556D01*
X28751Y33589D01*
X28577Y33630D01*
X28403Y33688D01*
X28229Y33754D01*
X28047Y33829D01*
X27873Y33928D01*
X27699Y34036D01*
X27542Y34160D01*
X27384Y34301D01*
X27376Y34309D01*
X27351Y34342D01*
X27310Y34384D01*
X27260Y34450D01*
X27202Y34533D01*
X27136Y34632D01*
X27062Y34756D01*
X26995Y34889D01*
X26921Y35046D01*
X26846Y35220D01*
X26780Y35402D01*
X26722Y35609D01*
X26672Y35833D01*
X26631Y36073D01*
X26606Y36321D01*
X26598Y36594D01*
Y36603D01*
Y36611D01*
Y36661D01*
X26606Y36735D01*
X26614Y36834D01*
X26623Y36950D01*
X26639Y37091D01*
X26664Y37249D01*
X26697Y37414D01*
X26739Y37588D01*
X26788Y37778D01*
X26855Y37961D01*
X26929Y38151D01*
X27020Y38342D01*
X27128Y38524D01*
X27244Y38697D01*
X27384Y38863D01*
X27393Y38871D01*
X27417Y38896D01*
X27467Y38946D01*
X27533Y38996D01*
X27608Y39062D01*
X27707Y39136D01*
X27823Y39211D01*
X27947Y39294D01*
X28096Y39368D01*
X28254Y39443D01*
X28428Y39517D01*
X28618Y39584D01*
X28825Y39641D01*
X29040Y39683D01*
X29272Y39708D01*
X29521Y39716D01*
X29645D01*
X29736Y39708D01*
D02*
G37*
G36*
X60504Y38234D02*
X60562Y38226D01*
X60629Y38217D01*
X60778Y38184D01*
X60952Y38135D01*
X61125Y38060D01*
X61208Y38010D01*
X61291Y37952D01*
X61365Y37878D01*
X61440Y37803D01*
X61448Y37795D01*
X61457Y37787D01*
X61473Y37754D01*
X61498Y37721D01*
X61523Y37679D01*
X61556Y37621D01*
X61589Y37555D01*
X61630Y37480D01*
X61664Y37398D01*
X61697Y37298D01*
X61730Y37199D01*
X61755Y37083D01*
X61779Y36959D01*
X61796Y36826D01*
X61813Y36685D01*
Y36536D01*
Y33605D01*
X60405D01*
Y35841D01*
Y35857D01*
Y35891D01*
Y35940D01*
Y36015D01*
X60397Y36089D01*
Y36180D01*
X60380Y36379D01*
Y36387D01*
X60372Y36421D01*
Y36470D01*
X60364Y36536D01*
X60339Y36669D01*
X60314Y36727D01*
X60297Y36785D01*
Y36793D01*
X60281Y36810D01*
X60264Y36834D01*
X60239Y36868D01*
X60173Y36942D01*
X60082Y37000D01*
X60074D01*
X60057Y37008D01*
X60024Y37025D01*
X59991Y37042D01*
X59933Y37050D01*
X59875Y37066D01*
X59801Y37075D01*
X59660D01*
X59610Y37066D01*
X59561Y37058D01*
X59503Y37050D01*
X59370Y37008D01*
X59362D01*
X59337Y37000D01*
X59304Y36984D01*
X59262Y36959D01*
X59204Y36926D01*
X59138Y36893D01*
X58997Y36801D01*
Y33605D01*
X57590D01*
Y38118D01*
X58997D01*
Y37613D01*
X59014Y37629D01*
X59055Y37663D01*
X59122Y37712D01*
X59204Y37787D01*
X59312Y37861D01*
X59420Y37936D01*
X59536Y38010D01*
X59660Y38076D01*
X59676Y38085D01*
X59718Y38101D01*
X59784Y38126D01*
X59875Y38159D01*
X59983Y38192D01*
X60107Y38217D01*
X60239Y38234D01*
X60388Y38242D01*
X60455D01*
X60504Y38234D01*
D02*
G37*
G36*
X44598Y33605D02*
X43191D01*
Y34102D01*
X43174Y34086D01*
X43125Y34052D01*
X43058Y33994D01*
X42967Y33928D01*
X42860Y33854D01*
X42744Y33779D01*
X42628Y33705D01*
X42512Y33639D01*
X42495Y33630D01*
X42462Y33614D01*
X42396Y33589D01*
X42313Y33564D01*
X42206Y33531D01*
X42081Y33506D01*
X41941Y33489D01*
X41792Y33481D01*
X41725D01*
X41684Y33489D01*
X41626Y33498D01*
X41560Y33506D01*
X41411Y33531D01*
X41245Y33580D01*
X41071Y33663D01*
X40980Y33705D01*
X40897Y33763D01*
X40823Y33829D01*
X40748Y33903D01*
Y33912D01*
X40732Y33920D01*
X40715Y33945D01*
X40690Y33986D01*
X40666Y34028D01*
X40632Y34086D01*
X40599Y34143D01*
X40566Y34218D01*
X40525Y34309D01*
X40492Y34400D01*
X40459Y34508D01*
X40434Y34624D01*
X40409Y34748D01*
X40392Y34881D01*
X40384Y35021D01*
X40376Y35179D01*
Y38118D01*
X41783D01*
Y35874D01*
Y35857D01*
Y35816D01*
Y35750D01*
Y35675D01*
X41792Y35584D01*
Y35485D01*
Y35394D01*
X41800Y35303D01*
Y35294D01*
Y35270D01*
X41808Y35228D01*
X41816Y35170D01*
X41841Y35054D01*
X41883Y34930D01*
Y34922D01*
X41899Y34905D01*
X41908Y34881D01*
X41932Y34847D01*
X41999Y34781D01*
X42081Y34715D01*
X42090D01*
X42106Y34707D01*
X42139Y34698D01*
X42181Y34682D01*
X42230Y34674D01*
X42297Y34657D01*
X42371Y34649D01*
X42520D01*
X42562Y34657D01*
X42611Y34665D01*
X42669Y34674D01*
X42810Y34715D01*
X42818D01*
X42843Y34731D01*
X42884Y34748D01*
X42934Y34765D01*
X43058Y34831D01*
X43191Y34914D01*
Y38118D01*
X44598D01*
Y33605D01*
D02*
G37*
G36*
X37329Y39584D02*
X37486Y39575D01*
X37652Y39567D01*
X37809Y39550D01*
X37950Y39534D01*
X37966D01*
X38008Y39525D01*
X38074Y39509D01*
X38157Y39492D01*
X38256Y39459D01*
X38364Y39426D01*
X38471Y39385D01*
X38587Y39327D01*
X38604Y39318D01*
X38637Y39294D01*
X38695Y39261D01*
X38769Y39203D01*
X38844Y39136D01*
X38927Y39062D01*
X39001Y38963D01*
X39068Y38863D01*
X39076Y38847D01*
X39092Y38813D01*
X39117Y38756D01*
X39150Y38673D01*
X39183Y38573D01*
X39208Y38457D01*
X39225Y38333D01*
X39233Y38192D01*
Y38184D01*
Y38176D01*
Y38151D01*
Y38118D01*
X39225Y38035D01*
X39208Y37927D01*
X39175Y37812D01*
X39142Y37679D01*
X39084Y37547D01*
X39009Y37414D01*
X39001Y37398D01*
X38968Y37356D01*
X38918Y37298D01*
X38852Y37224D01*
X38769Y37141D01*
X38662Y37058D01*
X38546Y36975D01*
X38405Y36909D01*
Y36876D01*
X38413D01*
X38430Y36868D01*
X38455Y36859D01*
X38496Y36851D01*
X38546Y36834D01*
X38596Y36818D01*
X38728Y36777D01*
X38869Y36710D01*
X39009Y36628D01*
X39158Y36520D01*
X39291Y36396D01*
X39308Y36379D01*
X39341Y36329D01*
X39399Y36255D01*
X39465Y36139D01*
X39523Y36007D01*
X39581Y35841D01*
X39614Y35651D01*
X39630Y35435D01*
Y35427D01*
Y35419D01*
Y35394D01*
Y35361D01*
X39622Y35278D01*
X39606Y35170D01*
X39589Y35046D01*
X39556Y34914D01*
X39515Y34781D01*
X39457Y34649D01*
X39448Y34632D01*
X39423Y34591D01*
X39390Y34533D01*
X39341Y34450D01*
X39274Y34367D01*
X39192Y34268D01*
X39101Y34177D01*
X39001Y34094D01*
X38985Y34086D01*
X38943Y34052D01*
X38877Y34003D01*
X38786Y33945D01*
X38678Y33887D01*
X38554Y33821D01*
X38413Y33763D01*
X38264Y33713D01*
X38256D01*
X38248Y33705D01*
X38223D01*
X38190Y33696D01*
X38148Y33688D01*
X38107Y33680D01*
X37983Y33663D01*
X37834Y33639D01*
X37660Y33622D01*
X37461Y33614D01*
X37238Y33605D01*
X34845D01*
Y39592D01*
X37180D01*
X37329Y39584D01*
D02*
G37*
G36*
X26349Y33605D02*
X24801D01*
X24428Y34822D01*
X22541D01*
X22168Y33605D01*
X20669D01*
X22690Y39592D01*
X24321D01*
X26349Y33605D01*
D02*
G37*
G36*
X50585Y38118D02*
X51943D01*
Y37141D01*
X50585D01*
Y35526D01*
Y35518D01*
Y35485D01*
Y35443D01*
Y35386D01*
Y35328D01*
Y35253D01*
Y35112D01*
Y35104D01*
Y35079D01*
Y35046D01*
X50593Y35005D01*
X50610Y34905D01*
X50651Y34798D01*
Y34789D01*
X50659Y34773D01*
X50676Y34748D01*
X50701Y34715D01*
X50759Y34640D01*
X50850Y34574D01*
X50858D01*
X50875Y34558D01*
X50908Y34549D01*
X50958Y34533D01*
X51016Y34516D01*
X51082Y34508D01*
X51165Y34491D01*
X51314D01*
X51347Y34500D01*
X51388D01*
X51438Y34516D01*
X51562Y34541D01*
X51570D01*
X51595Y34549D01*
X51620Y34558D01*
X51661Y34574D01*
X51744Y34599D01*
X51785Y34615D01*
X51819Y34632D01*
X51943D01*
Y33639D01*
X51935D01*
X51901Y33630D01*
X51860Y33622D01*
X51794Y33614D01*
X51719Y33597D01*
X51636Y33580D01*
X51454Y33556D01*
X51446D01*
X51405Y33547D01*
X51355Y33539D01*
X51280D01*
X51189Y33531D01*
X51073Y33522D01*
X50958Y33514D01*
X50734D01*
X50676Y33522D01*
X50602D01*
X50527Y33531D01*
X50436Y33547D01*
X50336Y33556D01*
X50129Y33597D01*
X49922Y33663D01*
X49732Y33746D01*
X49641Y33804D01*
X49567Y33862D01*
Y33870D01*
X49550Y33879D01*
X49533Y33903D01*
X49509Y33928D01*
X49475Y33970D01*
X49442Y34019D01*
X49409Y34077D01*
X49376Y34143D01*
X49335Y34218D01*
X49301Y34301D01*
X49268Y34400D01*
X49235Y34500D01*
X49210Y34615D01*
X49194Y34740D01*
X49186Y34872D01*
X49177Y35021D01*
Y37141D01*
X48639D01*
Y38118D01*
X49177D01*
Y39410D01*
X50585D01*
Y38118D01*
D02*
G37*
G36*
X47165D02*
X48523D01*
Y37141D01*
X47165D01*
Y35526D01*
Y35518D01*
Y35485D01*
Y35443D01*
Y35386D01*
Y35328D01*
Y35253D01*
Y35112D01*
Y35104D01*
Y35079D01*
Y35046D01*
X47174Y35005D01*
X47190Y34905D01*
X47232Y34798D01*
Y34789D01*
X47240Y34773D01*
X47256Y34748D01*
X47281Y34715D01*
X47339Y34640D01*
X47430Y34574D01*
X47438D01*
X47455Y34558D01*
X47488Y34549D01*
X47538Y34533D01*
X47596Y34516D01*
X47662Y34508D01*
X47745Y34491D01*
X47894D01*
X47927Y34500D01*
X47969D01*
X48018Y34516D01*
X48142Y34541D01*
X48151D01*
X48175Y34549D01*
X48200Y34558D01*
X48242Y34574D01*
X48324Y34599D01*
X48366Y34615D01*
X48399Y34632D01*
X48523D01*
Y33639D01*
X48515D01*
X48482Y33630D01*
X48440Y33622D01*
X48374Y33614D01*
X48300Y33597D01*
X48217Y33580D01*
X48035Y33556D01*
X48026D01*
X47985Y33547D01*
X47935Y33539D01*
X47861D01*
X47770Y33531D01*
X47654Y33522D01*
X47538Y33514D01*
X47314D01*
X47256Y33522D01*
X47182D01*
X47107Y33531D01*
X47016Y33547D01*
X46917Y33556D01*
X46710Y33597D01*
X46503Y33663D01*
X46312Y33746D01*
X46221Y33804D01*
X46147Y33862D01*
Y33870D01*
X46130Y33879D01*
X46114Y33903D01*
X46089Y33928D01*
X46056Y33970D01*
X46023Y34019D01*
X45990Y34077D01*
X45956Y34143D01*
X45915Y34218D01*
X45882Y34301D01*
X45849Y34400D01*
X45816Y34500D01*
X45791Y34615D01*
X45774Y34740D01*
X45766Y34872D01*
X45758Y35021D01*
Y37141D01*
X45219D01*
Y38118D01*
X45758D01*
Y39410D01*
X47165D01*
Y38118D01*
D02*
G37*
G36*
X54692Y38250D02*
X54783Y38242D01*
X54891Y38226D01*
X55015Y38201D01*
X55139Y38176D01*
X55280Y38143D01*
X55421Y38101D01*
X55561Y38052D01*
X55702Y37985D01*
X55843Y37911D01*
X55984Y37828D01*
X56116Y37729D01*
X56232Y37613D01*
X56240Y37605D01*
X56257Y37580D01*
X56290Y37547D01*
X56331Y37497D01*
X56373Y37431D01*
X56422Y37356D01*
X56480Y37257D01*
X56538Y37157D01*
X56596Y37033D01*
X56654Y36901D01*
X56704Y36760D01*
X56745Y36603D01*
X56787Y36437D01*
X56820Y36255D01*
X56836Y36064D01*
X56845Y35857D01*
Y35841D01*
Y35808D01*
Y35750D01*
X56836Y35675D01*
X56828Y35576D01*
X56811Y35468D01*
X56795Y35352D01*
X56770Y35220D01*
X56737Y35079D01*
X56696Y34938D01*
X56646Y34789D01*
X56588Y34649D01*
X56513Y34500D01*
X56431Y34359D01*
X56340Y34226D01*
X56232Y34102D01*
X56224Y34094D01*
X56207Y34077D01*
X56166Y34044D01*
X56116Y34003D01*
X56058Y33953D01*
X55984Y33903D01*
X55892Y33845D01*
X55785Y33788D01*
X55669Y33721D01*
X55545Y33663D01*
X55404Y33614D01*
X55247Y33564D01*
X55081Y33522D01*
X54899Y33489D01*
X54708Y33473D01*
X54510Y33465D01*
X54460D01*
X54402Y33473D01*
X54327D01*
X54236Y33481D01*
X54129Y33498D01*
X54013Y33514D01*
X53880Y33547D01*
X53748Y33580D01*
X53607Y33622D01*
X53466Y33672D01*
X53326Y33738D01*
X53185Y33804D01*
X53044Y33895D01*
X52920Y33986D01*
X52796Y34102D01*
X52787Y34110D01*
X52771Y34135D01*
X52738Y34168D01*
X52696Y34218D01*
X52655Y34284D01*
X52605Y34367D01*
X52547Y34458D01*
X52489Y34558D01*
X52431Y34682D01*
X52373Y34814D01*
X52324Y34955D01*
X52282Y35112D01*
X52241Y35278D01*
X52208Y35460D01*
X52191Y35651D01*
X52183Y35857D01*
Y35874D01*
Y35907D01*
X52191Y35965D01*
Y36040D01*
X52200Y36139D01*
X52216Y36247D01*
X52233Y36371D01*
X52258Y36503D01*
X52291Y36636D01*
X52332Y36785D01*
X52382Y36934D01*
X52440Y37075D01*
X52514Y37224D01*
X52597Y37364D01*
X52688Y37497D01*
X52796Y37621D01*
X52804Y37629D01*
X52820Y37646D01*
X52862Y37679D01*
X52912Y37721D01*
X52970Y37770D01*
X53044Y37820D01*
X53135Y37878D01*
X53243Y37944D01*
X53359Y38002D01*
X53483Y38060D01*
X53624Y38110D01*
X53781Y38159D01*
X53947Y38201D01*
X54120Y38234D01*
X54311Y38250D01*
X54510Y38259D01*
X54617D01*
X54692Y38250D01*
D02*
G37*
%LPC*%
G36*
X36857Y118223D02*
X36302D01*
Y116948D01*
X37047D01*
X37080Y116956D01*
X37122Y116965D01*
X37229Y116990D01*
X37345Y117039D01*
X37354D01*
X37378Y117056D01*
X37403Y117072D01*
X37445Y117097D01*
X37527Y117172D01*
X37560Y117221D01*
X37594Y117271D01*
Y117279D01*
X37602Y117296D01*
X37618Y117329D01*
X37635Y117370D01*
X37643Y117420D01*
X37660Y117478D01*
X37668Y117619D01*
Y117627D01*
Y117644D01*
Y117677D01*
X37660Y117710D01*
X37635Y117809D01*
X37594Y117917D01*
Y117925D01*
X37577Y117942D01*
X37560Y117966D01*
X37536Y118008D01*
X37461Y118074D01*
X37420Y118116D01*
X37362Y118140D01*
X37354D01*
X37337Y118149D01*
X37304Y118165D01*
X37262Y118174D01*
X37213Y118190D01*
X37146Y118198D01*
X37006Y118215D01*
X36923D01*
X36857Y118223D01*
D02*
G37*
G36*
X37047Y115921D02*
X36302D01*
Y114423D01*
X37229D01*
X37271Y114431D01*
X37329Y114439D01*
X37395Y114456D01*
X37478Y114472D01*
X37560Y114506D01*
X37643Y114539D01*
X37652Y114547D01*
X37676Y114555D01*
X37718Y114572D01*
X37759Y114605D01*
X37809Y114638D01*
X37859Y114679D01*
X37900Y114737D01*
X37941Y114795D01*
X37950Y114804D01*
X37958Y114828D01*
X37975Y114862D01*
X37991Y114911D01*
X38008Y114969D01*
X38024Y115035D01*
X38041Y115110D01*
Y115184D01*
Y115193D01*
Y115226D01*
X38032Y115276D01*
X38024Y115342D01*
X37991Y115482D01*
X37966Y115549D01*
X37925Y115615D01*
X37916Y115623D01*
X37900Y115640D01*
X37875Y115673D01*
X37842Y115706D01*
X37792Y115739D01*
X37734Y115781D01*
X37668Y115822D01*
X37585Y115855D01*
X37577D01*
X37560Y115863D01*
X37527Y115872D01*
X37486Y115880D01*
X37436Y115888D01*
X37370Y115905D01*
X37295D01*
X37213Y115913D01*
X37113D01*
X37047Y115921D01*
D02*
G37*
G36*
X22524Y118198D02*
X22176D01*
Y114456D01*
X22499D01*
X22632Y114464D01*
X22913D01*
X23046Y114472D01*
X23062D01*
X23104Y114481D01*
X23170Y114489D01*
X23261Y114506D01*
X23360Y114530D01*
X23476Y114572D01*
X23592Y114621D01*
X23708Y114688D01*
X23716D01*
X23725Y114696D01*
X23766Y114729D01*
X23832Y114779D01*
X23915Y114853D01*
X24006Y114944D01*
X24097Y115052D01*
X24188Y115184D01*
X24263Y115325D01*
Y115333D01*
X24271Y115342D01*
X24279Y115367D01*
X24296Y115400D01*
X24313Y115441D01*
X24329Y115491D01*
X24362Y115607D01*
X24395Y115756D01*
X24428Y115921D01*
X24453Y116112D01*
X24462Y116327D01*
Y116335D01*
Y116352D01*
Y116385D01*
Y116427D01*
X24453Y116476D01*
Y116534D01*
X24437Y116675D01*
X24412Y116832D01*
X24370Y116998D01*
X24321Y117172D01*
X24254Y117337D01*
Y117345D01*
X24246Y117354D01*
X24213Y117403D01*
X24172Y117486D01*
X24105Y117577D01*
X24014Y117685D01*
X23907Y117793D01*
X23783Y117900D01*
X23633Y117991D01*
X23617Y118000D01*
X23584Y118016D01*
X23518Y118049D01*
X23443Y118082D01*
X23344Y118116D01*
X23236Y118149D01*
X23120Y118165D01*
X22996Y118182D01*
X22938D01*
X22863Y118190D01*
X22657D01*
X22524Y118198D01*
D02*
G37*
G36*
X54468Y116973D02*
X54402D01*
X54352Y116965D01*
X54245Y116948D01*
X54120Y116907D01*
X54112D01*
X54096Y116898D01*
X54071Y116882D01*
X54029Y116857D01*
X53988Y116832D01*
X53947Y116791D01*
X53897Y116749D01*
X53847Y116691D01*
X53839Y116683D01*
X53831Y116667D01*
X53806Y116625D01*
X53773Y116576D01*
X53748Y116517D01*
X53715Y116443D01*
X53682Y116360D01*
X53649Y116261D01*
Y116253D01*
X53640Y116211D01*
X53632Y116153D01*
X53615Y116070D01*
X53607Y115971D01*
X53591Y115855D01*
X53582Y115723D01*
Y115574D01*
Y115565D01*
Y115557D01*
Y115507D01*
Y115433D01*
X53591Y115333D01*
X53599Y115226D01*
X53607Y115118D01*
X53624Y115002D01*
X53649Y114903D01*
Y114895D01*
X53657Y114862D01*
X53673Y114812D01*
X53698Y114754D01*
X53748Y114621D01*
X53781Y114555D01*
X53822Y114497D01*
X53831Y114489D01*
X53847Y114472D01*
X53872Y114447D01*
X53905Y114406D01*
X53988Y114332D01*
X54104Y114265D01*
X54112D01*
X54137Y114257D01*
X54170Y114249D01*
X54220Y114232D01*
X54269Y114224D01*
X54336Y114207D01*
X54476Y114199D01*
X54543D01*
X54584Y114207D01*
X54700Y114224D01*
X54824Y114265D01*
X54833D01*
X54857Y114282D01*
X54882Y114298D01*
X54924Y114323D01*
X55015Y114390D01*
X55106Y114481D01*
X55114Y114489D01*
X55131Y114514D01*
X55147Y114547D01*
X55180Y114597D01*
X55205Y114655D01*
X55238Y114729D01*
X55271Y114812D01*
X55296Y114895D01*
Y114903D01*
X55304Y114944D01*
X55321Y114994D01*
X55329Y115077D01*
X55346Y115168D01*
X55354Y115284D01*
X55362Y115425D01*
Y115574D01*
Y115582D01*
Y115590D01*
Y115640D01*
Y115714D01*
X55354Y115805D01*
X55346Y115913D01*
X55329Y116021D01*
X55313Y116128D01*
X55288Y116236D01*
Y116244D01*
X55280Y116277D01*
X55263Y116327D01*
X55238Y116393D01*
X55180Y116534D01*
X55147Y116600D01*
X55106Y116667D01*
X55098Y116675D01*
X55081Y116691D01*
X55056Y116725D01*
X55023Y116766D01*
X54932Y116841D01*
X54882Y116874D01*
X54824Y116907D01*
X54816D01*
X54799Y116915D01*
X54766Y116931D01*
X54725Y116940D01*
X54667Y116956D01*
X54609Y116965D01*
X54468Y116973D01*
D02*
G37*
G36*
X36898Y38499D02*
X36343D01*
Y37224D01*
X37089D01*
X37122Y37232D01*
X37163Y37240D01*
X37271Y37265D01*
X37387Y37315D01*
X37395D01*
X37420Y37331D01*
X37445Y37348D01*
X37486Y37373D01*
X37569Y37447D01*
X37602Y37497D01*
X37635Y37547D01*
Y37555D01*
X37643Y37571D01*
X37660Y37605D01*
X37676Y37646D01*
X37685Y37696D01*
X37701Y37754D01*
X37710Y37894D01*
Y37903D01*
Y37919D01*
Y37952D01*
X37701Y37985D01*
X37676Y38085D01*
X37635Y38192D01*
Y38201D01*
X37618Y38217D01*
X37602Y38242D01*
X37577Y38284D01*
X37503Y38350D01*
X37461Y38391D01*
X37403Y38416D01*
X37395D01*
X37378Y38424D01*
X37345Y38441D01*
X37304Y38449D01*
X37254Y38466D01*
X37188Y38474D01*
X37047Y38491D01*
X36964D01*
X36898Y38499D01*
D02*
G37*
G36*
X37089Y36197D02*
X36343D01*
Y34698D01*
X37271D01*
X37312Y34707D01*
X37370Y34715D01*
X37436Y34731D01*
X37519Y34748D01*
X37602Y34781D01*
X37685Y34814D01*
X37693Y34822D01*
X37718Y34831D01*
X37759Y34847D01*
X37801Y34881D01*
X37850Y34914D01*
X37900Y34955D01*
X37941Y35013D01*
X37983Y35071D01*
X37991Y35079D01*
X37999Y35104D01*
X38016Y35137D01*
X38032Y35187D01*
X38049Y35245D01*
X38066Y35311D01*
X38082Y35386D01*
Y35460D01*
Y35468D01*
Y35501D01*
X38074Y35551D01*
X38066Y35617D01*
X38032Y35758D01*
X38008Y35824D01*
X37966Y35891D01*
X37958Y35899D01*
X37941Y35915D01*
X37916Y35949D01*
X37883Y35982D01*
X37834Y36015D01*
X37776Y36056D01*
X37710Y36098D01*
X37627Y36131D01*
X37618D01*
X37602Y36139D01*
X37569Y36147D01*
X37527Y36156D01*
X37478Y36164D01*
X37411Y36180D01*
X37337D01*
X37254Y36189D01*
X37155D01*
X37089Y36197D01*
D02*
G37*
G36*
X23484Y37886D02*
X22872Y35915D01*
X24097D01*
X23484Y37886D01*
D02*
G37*
G36*
X54510Y37249D02*
X54443D01*
X54394Y37240D01*
X54286Y37224D01*
X54162Y37182D01*
X54154D01*
X54137Y37174D01*
X54112Y37157D01*
X54071Y37133D01*
X54029Y37108D01*
X53988Y37066D01*
X53938Y37025D01*
X53889Y36967D01*
X53880Y36959D01*
X53872Y36942D01*
X53847Y36901D01*
X53814Y36851D01*
X53789Y36793D01*
X53756Y36719D01*
X53723Y36636D01*
X53690Y36536D01*
Y36528D01*
X53682Y36487D01*
X53673Y36429D01*
X53657Y36346D01*
X53649Y36247D01*
X53632Y36131D01*
X53624Y35998D01*
Y35849D01*
Y35841D01*
Y35833D01*
Y35783D01*
Y35708D01*
X53632Y35609D01*
X53640Y35501D01*
X53649Y35394D01*
X53665Y35278D01*
X53690Y35179D01*
Y35170D01*
X53698Y35137D01*
X53715Y35087D01*
X53740Y35030D01*
X53789Y34897D01*
X53822Y34831D01*
X53864Y34773D01*
X53872Y34765D01*
X53889Y34748D01*
X53913Y34723D01*
X53947Y34682D01*
X54029Y34607D01*
X54145Y34541D01*
X54154D01*
X54178Y34533D01*
X54212Y34524D01*
X54261Y34508D01*
X54311Y34500D01*
X54377Y34483D01*
X54518Y34475D01*
X54584D01*
X54626Y34483D01*
X54742Y34500D01*
X54866Y34541D01*
X54874D01*
X54899Y34558D01*
X54924Y34574D01*
X54965Y34599D01*
X55056Y34665D01*
X55147Y34756D01*
X55155Y34765D01*
X55172Y34789D01*
X55189Y34822D01*
X55222Y34872D01*
X55247Y34930D01*
X55280Y35005D01*
X55313Y35087D01*
X55338Y35170D01*
Y35179D01*
X55346Y35220D01*
X55362Y35270D01*
X55371Y35352D01*
X55387Y35443D01*
X55396Y35559D01*
X55404Y35700D01*
Y35849D01*
Y35857D01*
Y35866D01*
Y35915D01*
Y35990D01*
X55396Y36081D01*
X55387Y36189D01*
X55371Y36296D01*
X55354Y36404D01*
X55329Y36512D01*
Y36520D01*
X55321Y36553D01*
X55304Y36603D01*
X55280Y36669D01*
X55222Y36810D01*
X55189Y36876D01*
X55147Y36942D01*
X55139Y36950D01*
X55122Y36967D01*
X55098Y37000D01*
X55064Y37042D01*
X54973Y37116D01*
X54924Y37149D01*
X54866Y37182D01*
X54857D01*
X54841Y37191D01*
X54808Y37207D01*
X54766Y37215D01*
X54708Y37232D01*
X54650Y37240D01*
X54510Y37249D01*
D02*
G37*
%LPD*%
D10*
X23031Y127559D02*
X22244D01*
X23031D01*
Y47677D02*
X22244D01*
X23031D01*
D11*
X32746Y124606D02*
X49931D01*
X32746Y148228D02*
X49931D01*
X29528Y131762D02*
Y141073D01*
X53150Y131762D02*
Y141073D01*
X32746Y44724D02*
X49931D01*
X32746Y68347D02*
X49931D01*
X29528Y51880D02*
Y61191D01*
X53150Y51880D02*
Y61191D01*
M02*
