G04*
G04 #@! TF.GenerationSoftware,Altium Limited,Altium Designer,25.5.2 (35)*
G04*
G04 Layer_Color=16711935*
%FSLAX25Y25*%
%MOIN*%
G70*
G04*
G04 #@! TF.SameCoordinates,C0FCB968-46A0-45D3-9917-4976AB0E3D04*
G04*
G04*
G04 #@! TF.FilePolarity,Negative*
G04*
G01*
G75*
%ADD39R,0.05906X0.05512*%
%ADD40R,0.05709X0.04921*%
%ADD42C,0.03543*%
%ADD43O,0.35827X0.18110*%
%ADD44C,0.06299*%
%ADD45R,0.06299X0.06299*%
%ADD46C,0.12205*%
%ADD47C,0.06890*%
%ADD48C,0.07087*%
%ADD49R,0.07087X0.07087*%
%ADD50R,0.10728X0.10728*%
%ADD51C,0.10728*%
%ADD52R,0.05189X0.05189*%
%ADD53C,0.05189*%
%ADD54O,0.04606X0.08819*%
%ADD55O,0.04724X0.09055*%
%ADD56C,0.07717*%
%ADD57R,0.07717X0.07717*%
%ADD58C,0.07480*%
%ADD59R,0.07480X0.07480*%
G04:AMPARAMS|DCode=60|XSize=63.94mil|YSize=63.94mil|CornerRadius=0mil|HoleSize=0mil|Usage=FLASHONLY|Rotation=90.000|XOffset=0mil|YOffset=0mil|HoleType=Round|Shape=Octagon|*
%AMOCTAGOND60*
4,1,8,0.01598,0.03197,-0.01598,0.03197,-0.03197,0.01598,-0.03197,-0.01598,-0.01598,-0.03197,0.01598,-0.03197,0.03197,-0.01598,0.03197,0.01598,0.01598,0.03197,0.0*
%
%ADD60OCTAGOND60*%

%ADD61C,0.12794*%
G04:AMPARAMS|DCode=62|XSize=127.94mil|YSize=127.94mil|CornerRadius=0mil|HoleSize=0mil|Usage=FLASHONLY|Rotation=270.000|XOffset=0mil|YOffset=0mil|HoleType=Round|Shape=Octagon|*
%AMOCTAGOND62*
4,1,8,-0.03198,-0.06397,0.03198,-0.06397,0.06397,-0.03198,0.06397,0.03198,0.03198,0.06397,-0.03198,0.06397,-0.06397,0.03198,-0.06397,-0.03198,-0.03198,-0.06397,0.0*
%
%ADD62OCTAGOND62*%

G04:AMPARAMS|DCode=63|XSize=103.94mil|YSize=103.94mil|CornerRadius=0mil|HoleSize=0mil|Usage=FLASHONLY|Rotation=270.000|XOffset=0mil|YOffset=0mil|HoleType=Round|Shape=Octagon|*
%AMOCTAGOND63*
4,1,8,-0.02598,-0.05197,0.02598,-0.05197,0.05197,-0.02598,0.05197,0.02598,0.02598,0.05197,-0.02598,0.05197,-0.05197,0.02598,-0.05197,-0.02598,-0.02598,-0.05197,0.0*
%
%ADD63OCTAGOND63*%

%ADD64C,0.10394*%
%ADD65C,0.06894*%
G04:AMPARAMS|DCode=66|XSize=68.94mil|YSize=68.94mil|CornerRadius=0mil|HoleSize=0mil|Usage=FLASHONLY|Rotation=90.000|XOffset=0mil|YOffset=0mil|HoleType=Round|Shape=Octagon|*
%AMOCTAGOND66*
4,1,8,0.01723,0.03447,-0.01723,0.03447,-0.03447,0.01723,-0.03447,-0.01723,-0.01723,-0.03447,0.01723,-0.03447,0.03447,-0.01723,0.03447,0.01723,0.01723,0.03447,0.0*
%
%ADD66OCTAGOND66*%

%ADD67O,0.11394X0.08894*%
G04:AMPARAMS|DCode=68|XSize=113.94mil|YSize=88.94mil|CornerRadius=0mil|HoleSize=0mil|Usage=FLASHONLY|Rotation=0.000|XOffset=0mil|YOffset=0mil|HoleType=Round|Shape=Octagon|*
%AMOCTAGOND68*
4,1,8,0.05697,-0.02223,0.05697,0.02223,0.03473,0.04447,-0.03473,0.04447,-0.05697,0.02223,-0.05697,-0.02223,-0.03473,-0.04447,0.03473,-0.04447,0.05697,-0.02223,0.0*
%
%ADD68OCTAGOND68*%

G04:AMPARAMS|DCode=69|XSize=180.95mil|YSize=122.05mil|CornerRadius=0mil|HoleSize=0mil|Usage=FLASHONLY|Rotation=180.000|XOffset=0mil|YOffset=0mil|HoleType=Round|Shape=Octagon|*
%AMOCTAGOND69*
4,1,8,-0.09047,0.03051,-0.09047,-0.03051,-0.05996,-0.06102,0.05996,-0.06102,0.09047,-0.03051,0.09047,0.03051,0.05996,0.06102,-0.05996,0.06102,-0.09047,0.03051,0.0*
%
%ADD69OCTAGOND69*%

%ADD70O,0.18095X0.12205*%
G04:AMPARAMS|DCode=71|XSize=63.94mil|YSize=73.94mil|CornerRadius=0mil|HoleSize=0mil|Usage=FLASHONLY|Rotation=180.000|XOffset=0mil|YOffset=0mil|HoleType=Round|Shape=Octagon|*
%AMOCTAGOND71*
4,1,8,0.01598,-0.03697,-0.01598,-0.03697,-0.03197,-0.02098,-0.03197,0.02098,-0.01598,0.03697,0.01598,0.03697,0.03197,0.02098,0.03197,-0.02098,0.01598,-0.03697,0.0*
%
%ADD71OCTAGOND71*%

%ADD72O,0.06394X0.07394*%
G04:AMPARAMS|DCode=73|XSize=88.94mil|YSize=88.94mil|CornerRadius=0mil|HoleSize=0mil|Usage=FLASHONLY|Rotation=270.000|XOffset=0mil|YOffset=0mil|HoleType=Round|Shape=Octagon|*
%AMOCTAGOND73*
4,1,8,-0.02223,-0.04447,0.02223,-0.04447,0.04447,-0.02223,0.04447,0.02223,0.02223,0.04447,-0.02223,0.04447,-0.04447,0.02223,-0.04447,-0.02223,-0.02223,-0.04447,0.0*
%
%ADD73OCTAGOND73*%

G04:AMPARAMS|DCode=74|XSize=83.94mil|YSize=63.94mil|CornerRadius=0mil|HoleSize=0mil|Usage=FLASHONLY|Rotation=90.000|XOffset=0mil|YOffset=0mil|HoleType=Round|Shape=Octagon|*
%AMOCTAGOND74*
4,1,8,0.01598,0.04197,-0.01598,0.04197,-0.03197,0.02598,-0.03197,-0.02598,-0.01598,-0.04197,0.01598,-0.04197,0.03197,-0.02598,0.03197,0.02598,0.01598,0.04197,0.0*
%
%ADD74OCTAGOND74*%

G04:AMPARAMS|DCode=75|XSize=83.94mil|YSize=83.94mil|CornerRadius=0mil|HoleSize=0mil|Usage=FLASHONLY|Rotation=0.000|XOffset=0mil|YOffset=0mil|HoleType=Round|Shape=Octagon|*
%AMOCTAGOND75*
4,1,8,0.04197,-0.02098,0.04197,0.02098,0.02098,0.04197,-0.02098,0.04197,-0.04197,0.02098,-0.04197,-0.02098,-0.02098,-0.04197,0.02098,-0.04197,0.04197,-0.02098,0.0*
%
%ADD75OCTAGOND75*%

G04:AMPARAMS|DCode=76|XSize=68.94mil|YSize=68.94mil|CornerRadius=0mil|HoleSize=0mil|Usage=FLASHONLY|Rotation=0.000|XOffset=0mil|YOffset=0mil|HoleType=Round|Shape=Octagon|*
%AMOCTAGOND76*
4,1,8,0.03447,-0.01723,0.03447,0.01723,0.01723,0.03447,-0.01723,0.03447,-0.03447,0.01723,-0.03447,-0.01723,-0.01723,-0.03447,0.01723,-0.03447,0.03447,-0.01723,0.0*
%
%ADD76OCTAGOND76*%

%ADD77C,0.06331*%
%ADD78R,0.06331X0.06331*%
G04:AMPARAMS|DCode=79|XSize=141.73mil|YSize=220.47mil|CornerRadius=36.42mil|HoleSize=0mil|Usage=FLASHONLY|Rotation=180.000|XOffset=0mil|YOffset=0mil|HoleType=Round|Shape=RoundedRectangle|*
%AMROUNDEDRECTD79*
21,1,0.14173,0.14764,0,0,180.0*
21,1,0.06890,0.22047,0,0,180.0*
1,1,0.07284,-0.03445,0.07382*
1,1,0.07284,0.03445,0.07382*
1,1,0.07284,0.03445,-0.07382*
1,1,0.07284,-0.03445,-0.07382*
%
%ADD79ROUNDEDRECTD79*%
%ADD80C,0.05594*%
%ADD81C,0.16142*%
%ADD82R,0.06331X0.06331*%
%ADD83C,0.06594*%
%ADD84R,0.06594X0.06594*%
%ADD85R,0.06299X0.06299*%
%ADD86C,0.20079*%
%ADD87C,0.14173*%
%ADD88C,0.05000*%
%ADD89R,0.05000X0.05000*%
%ADD90R,0.05543X0.05543*%
%ADD91C,0.05543*%
%ADD92R,0.06890X0.06890*%
%ADD93C,0.05906*%
%ADD94C,0.04921*%
G04:AMPARAMS|DCode=95|XSize=63.94mil|YSize=73.94mil|CornerRadius=0mil|HoleSize=0mil|Usage=FLASHONLY|Rotation=90.000|XOffset=0mil|YOffset=0mil|HoleType=Round|Shape=Octagon|*
%AMOCTAGOND95*
4,1,8,-0.03697,-0.01598,-0.03697,0.01598,-0.02098,0.03197,0.02098,0.03197,0.03697,0.01598,0.03697,-0.01598,0.02098,-0.03197,-0.02098,-0.03197,-0.03697,-0.01598,0.0*
%
%ADD95OCTAGOND95*%

%ADD96O,0.07394X0.06394*%
%ADD97R,0.06594X0.06594*%
G04:AMPARAMS|DCode=98|XSize=83.94mil|YSize=83.94mil|CornerRadius=0mil|HoleSize=0mil|Usage=FLASHONLY|Rotation=270.000|XOffset=0mil|YOffset=0mil|HoleType=Round|Shape=Octagon|*
%AMOCTAGOND98*
4,1,8,-0.02098,-0.04197,0.02098,-0.04197,0.04197,-0.02098,0.04197,0.02098,0.02098,0.04197,-0.02098,0.04197,-0.04197,0.02098,-0.04197,-0.02098,-0.02098,-0.04197,0.0*
%
%ADD98OCTAGOND98*%

%ADD99C,0.27953*%
%ADD100C,0.03150*%
%ADD106C,0.07874*%
%ADD185C,0.19685*%
%ADD187R,0.03937X0.05118*%
G04:AMPARAMS|DCode=188|XSize=81.5mil|YSize=27.56mil|CornerRadius=4.92mil|HoleSize=0mil|Usage=FLASHONLY|Rotation=0.000|XOffset=0mil|YOffset=0mil|HoleType=Round|Shape=RoundedRectangle|*
%AMROUNDEDRECTD188*
21,1,0.08150,0.01772,0,0,0.0*
21,1,0.07165,0.02756,0,0,0.0*
1,1,0.00984,0.03583,-0.00886*
1,1,0.00984,-0.03583,-0.00886*
1,1,0.00984,-0.03583,0.00886*
1,1,0.00984,0.03583,0.00886*
%
%ADD188ROUNDEDRECTD188*%
G04:AMPARAMS|DCode=189|XSize=81.5mil|YSize=27.56mil|CornerRadius=4.92mil|HoleSize=0mil|Usage=FLASHONLY|Rotation=270.000|XOffset=0mil|YOffset=0mil|HoleType=Round|Shape=RoundedRectangle|*
%AMROUNDEDRECTD189*
21,1,0.08150,0.01772,0,0,270.0*
21,1,0.07165,0.02756,0,0,270.0*
1,1,0.00984,-0.00886,-0.03583*
1,1,0.00984,-0.00886,0.03583*
1,1,0.00984,0.00886,0.03583*
1,1,0.00984,0.00886,-0.03583*
%
%ADD189ROUNDEDRECTD189*%
%ADD190R,0.03937X0.03543*%
%ADD191O,0.08661X0.05906*%
%ADD192R,0.22717X0.25276*%
%ADD193R,0.04213X0.12284*%
%ADD194R,0.07087X0.10236*%
%ADD195R,0.03543X0.03937*%
%ADD196R,0.02756X0.06890*%
%ADD197R,0.05512X0.05906*%
%ADD198O,0.05906X0.08661*%
%ADD199R,0.06890X0.02756*%
%ADD200R,0.25276X0.22717*%
%ADD201R,0.12284X0.04213*%
%ADD202R,0.04921X0.05709*%
%ADD203R,0.05118X0.03937*%
G36*
X62697Y439370D02*
X59646D01*
Y441339D01*
X62697D01*
Y439370D01*
D02*
G37*
G36*
X58465D02*
X55413D01*
Y441339D01*
X58465D01*
Y439370D01*
D02*
G37*
G36*
X62697Y429134D02*
X59646D01*
Y431102D01*
X62697D01*
Y429134D01*
D02*
G37*
G36*
X58465D02*
X55413D01*
Y431102D01*
X58465D01*
Y429134D01*
D02*
G37*
G36*
X117135Y346161D02*
X114084D01*
Y348130D01*
X117135D01*
Y346161D01*
D02*
G37*
G36*
X112903D02*
X109852D01*
Y348130D01*
X112903D01*
Y346161D01*
D02*
G37*
G36*
X117135Y335925D02*
X114084D01*
Y337894D01*
X117135D01*
Y335925D01*
D02*
G37*
G36*
X112903D02*
X109852D01*
Y337894D01*
X112903D01*
Y335925D01*
D02*
G37*
G36*
X146555Y212205D02*
X144587D01*
Y215256D01*
X146555D01*
Y212205D01*
D02*
G37*
G36*
X136319D02*
X134350D01*
Y215256D01*
X136319D01*
Y212205D01*
D02*
G37*
G36*
X146555Y207972D02*
X144587D01*
Y211024D01*
X146555D01*
Y207972D01*
D02*
G37*
G36*
X136319D02*
X134350D01*
Y211024D01*
X136319D01*
Y207972D01*
D02*
G37*
G36*
X29528Y230118D02*
X29528Y203740D01*
X26575Y200787D01*
X8858D01*
X5906Y203740D01*
X5906Y230217D01*
X8957Y233268D01*
X26378Y233268D01*
X29528Y230118D01*
D02*
G37*
G36*
X349902Y158760D02*
X355709Y152953D01*
X355709Y123031D01*
X352362Y119685D01*
X324410Y119685D01*
X321260Y122835D01*
X321260Y145374D01*
X318602Y148031D01*
X237046Y148031D01*
X229588Y144942D01*
X171063Y86417D01*
X152559Y86417D01*
X221112Y154970D01*
X230261Y158760D01*
X349902Y158760D01*
D02*
G37*
G36*
X308071Y78646D02*
X308071Y65945D01*
X300689D01*
Y78716D01*
X308071Y78646D01*
D02*
G37*
G36*
X249016Y65945D02*
X241535Y65945D01*
X241535Y78646D01*
X249016Y78646D01*
X249016Y65945D01*
D02*
G37*
G36*
X426181Y78693D02*
X426181Y60039D01*
X426181D01*
X426181Y43307D01*
X261811Y43307D01*
Y61024D01*
X359744Y61024D01*
X359744Y78669D01*
X367126Y78598D01*
X367126Y61024D01*
X418799D01*
X418799Y78764D01*
X426181Y78693D01*
D02*
G37*
G36*
X389092Y14370D02*
X387123D01*
Y17421D01*
X389092D01*
Y14370D01*
D02*
G37*
G36*
X378855D02*
X376887D01*
Y17421D01*
X378855D01*
Y14370D01*
D02*
G37*
G36*
X389092Y10138D02*
X387123D01*
Y13189D01*
X389092D01*
Y10138D01*
D02*
G37*
G36*
X378855D02*
X376887D01*
Y13189D01*
X378855D01*
Y10138D01*
D02*
G37*
G36*
X120756Y16043D02*
X334646Y16043D01*
X334646Y10827D01*
X332677Y8858D01*
X114004Y8858D01*
X28796Y94066D01*
X42311Y94488D01*
X120756Y16043D01*
D02*
G37*
D39*
X18701Y121850D02*
D03*
Y128150D02*
D03*
X130905Y371008D02*
D03*
Y377307D02*
D03*
Y353957D02*
D03*
Y347657D02*
D03*
X700787Y74606D02*
D03*
Y80905D02*
D03*
X732283Y74606D02*
D03*
Y80905D02*
D03*
X764764Y74410D02*
D03*
Y80709D02*
D03*
X700984Y105905D02*
D03*
Y112205D02*
D03*
X153073Y136024D02*
D03*
Y129724D02*
D03*
X160947Y129724D02*
D03*
Y136024D02*
D03*
X54134Y236417D02*
D03*
Y230118D02*
D03*
X153032Y150480D02*
D03*
Y144181D02*
D03*
X115157Y129724D02*
D03*
Y136024D02*
D03*
X160906Y150480D02*
D03*
Y144181D02*
D03*
D40*
X176673Y183563D02*
D03*
Y190453D02*
D03*
X103494Y335138D02*
D03*
Y342028D02*
D03*
X412402Y33957D02*
D03*
Y27067D02*
D03*
X88583Y433886D02*
D03*
Y440776D02*
D03*
X168307Y190453D02*
D03*
Y183563D02*
D03*
D42*
X107283Y84626D02*
D03*
X104134Y82185D02*
D03*
Y78051D02*
D03*
X106693Y74508D02*
D03*
X111260Y73327D02*
D03*
X116496D02*
D03*
X121732D02*
D03*
X126969D02*
D03*
X130905Y74508D02*
D03*
X134055Y78051D02*
D03*
Y82185D02*
D03*
X130905Y84626D02*
D03*
X111260Y85925D02*
D03*
X116496D02*
D03*
X121732D02*
D03*
X126969D02*
D03*
X146653Y84626D02*
D03*
X143504Y82185D02*
D03*
Y78051D02*
D03*
X146063Y74508D02*
D03*
X150630Y73327D02*
D03*
X155866D02*
D03*
X161102D02*
D03*
X166339D02*
D03*
X170276Y74508D02*
D03*
X173425Y78051D02*
D03*
Y82185D02*
D03*
X170276Y84626D02*
D03*
X150630Y85925D02*
D03*
X155866D02*
D03*
X161102D02*
D03*
X166339D02*
D03*
D43*
X119095Y79626D02*
D03*
X158465D02*
D03*
D44*
X131260Y163878D02*
D03*
X138779D02*
D03*
X433071Y74803D02*
D03*
X423071D02*
D03*
X255906D02*
D03*
X245905D02*
D03*
X314961D02*
D03*
X304961D02*
D03*
X374016D02*
D03*
X364016D02*
D03*
D45*
X146299Y163878D02*
D03*
D46*
X560039Y319882D02*
D03*
X520669D02*
D03*
X675197Y237008D02*
D03*
Y337795D02*
D03*
X560039Y332913D02*
D03*
X520669D02*
D03*
D47*
X703150Y193898D02*
D03*
Y154528D02*
D03*
X685433Y193898D02*
D03*
Y154528D02*
D03*
X287795Y310236D02*
D03*
X303543Y361417D02*
D03*
X254921Y310039D02*
D03*
X271654Y361417D02*
D03*
D48*
X498189Y415354D02*
D03*
X488189D02*
D03*
X675354D02*
D03*
X665354D02*
D03*
X616299D02*
D03*
X606299D02*
D03*
X557244D02*
D03*
X547244D02*
D03*
D49*
X478189D02*
D03*
X655354D02*
D03*
X596299D02*
D03*
X537244D02*
D03*
D50*
X765158Y410512D02*
D03*
X766732Y159606D02*
D03*
D51*
X765158Y426102D02*
D03*
X766732Y175197D02*
D03*
Y190787D02*
D03*
D52*
X589921Y83071D02*
D03*
D53*
X579921D02*
D03*
X569921D02*
D03*
D54*
X488268Y69784D02*
D03*
X483268D02*
D03*
X478268D02*
D03*
X407402Y422342D02*
D03*
X412402D02*
D03*
X417402D02*
D03*
D55*
X445945Y169291D02*
D03*
X440945D02*
D03*
X435945D02*
D03*
D56*
X325079Y415354D02*
D03*
X315079D02*
D03*
X227362D02*
D03*
X237362D02*
D03*
D57*
X305079D02*
D03*
X217362D02*
D03*
D58*
X211614Y175394D02*
D03*
X542323Y107638D02*
D03*
D59*
X211614Y185394D02*
D03*
Y195394D02*
D03*
Y205394D02*
D03*
Y215394D02*
D03*
Y225394D02*
D03*
Y235394D02*
D03*
Y245394D02*
D03*
X542323Y117638D02*
D03*
Y127638D02*
D03*
Y137638D02*
D03*
Y147638D02*
D03*
Y157638D02*
D03*
Y167638D02*
D03*
Y177638D02*
D03*
Y187638D02*
D03*
Y197638D02*
D03*
Y207638D02*
D03*
Y217638D02*
D03*
Y227638D02*
D03*
Y237638D02*
D03*
Y247638D02*
D03*
Y257638D02*
D03*
Y267638D02*
D03*
D60*
X727362Y205197D02*
D03*
Y145197D02*
D03*
D61*
X476378Y258110D02*
D03*
Y302913D02*
D03*
D62*
Y228110D02*
D03*
Y332913D02*
D03*
D63*
X76772Y95315D02*
D03*
X215551Y349252D02*
D03*
D64*
X76772Y115315D02*
D03*
X215551Y369252D02*
D03*
D65*
X166535Y334339D02*
D03*
X262795Y409449D02*
D03*
X366055D02*
D03*
X166535Y368197D02*
D03*
D66*
Y348339D02*
D03*
Y382197D02*
D03*
X488189Y115827D02*
D03*
Y155827D02*
D03*
X504921D02*
D03*
Y115827D02*
D03*
D67*
X476576Y371463D02*
D03*
X652757D02*
D03*
X593702D02*
D03*
X535632D02*
D03*
D68*
X517758D02*
D03*
X693939D02*
D03*
X634883D02*
D03*
X576813D02*
D03*
D69*
X418890Y303050D02*
D03*
X344890Y374116D02*
D03*
X418890Y350294D02*
D03*
X344890Y326872D02*
D03*
D70*
Y303150D02*
D03*
X418890Y374016D02*
D03*
X344890Y350394D02*
D03*
X418890Y326772D02*
D03*
D71*
X632953Y87598D02*
D03*
X496142Y106299D02*
D03*
X234370Y396457D02*
D03*
X220472D02*
D03*
X314882Y396654D02*
D03*
D72*
X622953Y87598D02*
D03*
X486142Y106299D02*
D03*
X244370Y396457D02*
D03*
X210472D02*
D03*
X324882Y396654D02*
D03*
D73*
X72835Y451024D02*
D03*
Y421024D02*
D03*
D74*
X107441Y407972D02*
D03*
X97441D02*
D03*
D75*
X571126Y109252D02*
D03*
X663126D02*
D03*
D76*
X406000Y97441D02*
D03*
X344000D02*
D03*
X517167Y383268D02*
D03*
X477167D02*
D03*
X276795Y409449D02*
D03*
X352055D02*
D03*
X734921Y391732D02*
D03*
X774921D02*
D03*
X647953Y75197D02*
D03*
X607953D02*
D03*
X653348Y394094D02*
D03*
X693348D02*
D03*
X594293D02*
D03*
X634293D02*
D03*
X693348Y383268D02*
D03*
X653348D02*
D03*
X634293D02*
D03*
X594293D02*
D03*
X536222Y394094D02*
D03*
X576222D02*
D03*
X477167D02*
D03*
X517167D02*
D03*
X576222Y383268D02*
D03*
X536222D02*
D03*
D77*
X78780Y237087D02*
D03*
Y247087D02*
D03*
Y257087D02*
D03*
Y267087D02*
D03*
Y277087D02*
D03*
Y287087D02*
D03*
Y297087D02*
D03*
Y307087D02*
D03*
Y317087D02*
D03*
Y327087D02*
D03*
Y337087D02*
D03*
Y347087D02*
D03*
Y357087D02*
D03*
Y367087D02*
D03*
Y377087D02*
D03*
X138779D02*
D03*
Y367087D02*
D03*
Y357087D02*
D03*
Y347087D02*
D03*
Y337087D02*
D03*
Y327087D02*
D03*
Y317087D02*
D03*
Y307087D02*
D03*
Y297087D02*
D03*
Y287087D02*
D03*
Y277087D02*
D03*
Y267087D02*
D03*
Y257087D02*
D03*
Y247087D02*
D03*
X166437Y301181D02*
D03*
Y291339D02*
D03*
Y281496D02*
D03*
D78*
X138779Y237087D02*
D03*
D79*
X78740Y183071D02*
D03*
Y150394D02*
D03*
X59055Y183071D02*
D03*
Y150394D02*
D03*
D80*
X734252Y413307D02*
D03*
Y423307D02*
D03*
D81*
X35433Y422047D02*
D03*
X15748D02*
D03*
X35433Y393701D02*
D03*
X15748D02*
D03*
X35433Y185827D02*
D03*
X15748D02*
D03*
X35433Y157480D02*
D03*
X15748D02*
D03*
X35433Y307874D02*
D03*
X15748D02*
D03*
X35433Y279528D02*
D03*
X15748D02*
D03*
X35433Y93307D02*
D03*
X15748D02*
D03*
X35433Y64961D02*
D03*
X15748D02*
D03*
D82*
X166437Y311024D02*
D03*
D83*
X142680Y407972D02*
D03*
X27805Y119685D02*
D03*
X700787Y66929D02*
D03*
X732283Y66831D02*
D03*
X764764Y66634D02*
D03*
X167421Y237205D02*
D03*
D84*
X152523Y407972D02*
D03*
X710630Y66929D02*
D03*
X742126Y66831D02*
D03*
X774606Y66634D02*
D03*
D85*
X443071Y74803D02*
D03*
X265905D02*
D03*
X324961D02*
D03*
X384016D02*
D03*
D86*
X629921Y33465D02*
D03*
X157480D02*
D03*
X157524Y457874D02*
D03*
X629965D02*
D03*
D87*
X407480Y265748D02*
D03*
X387795D02*
D03*
X368110D02*
D03*
X348425D02*
D03*
X328740D02*
D03*
X309055D02*
D03*
X289370D02*
D03*
X269685D02*
D03*
Y127953D02*
D03*
X289370D02*
D03*
X309055D02*
D03*
X328740D02*
D03*
X348425D02*
D03*
X368110D02*
D03*
X387795D02*
D03*
X407480D02*
D03*
D88*
X700984Y121811D02*
D03*
X710984D02*
D03*
X720984D02*
D03*
X730984D02*
D03*
X740984D02*
D03*
X750984D02*
D03*
X760984D02*
D03*
Y90551D02*
D03*
X750984D02*
D03*
X740984D02*
D03*
X730984D02*
D03*
X720984D02*
D03*
X710984D02*
D03*
D89*
X700984D02*
D03*
D90*
X435941Y151142D02*
D03*
D91*
Y114606D02*
D03*
D92*
X287795Y361417D02*
D03*
X303543Y310236D02*
D03*
X254921Y361221D02*
D03*
X271654Y310236D02*
D03*
D93*
X652559Y132874D02*
D03*
Y221457D02*
D03*
X602362Y132874D02*
D03*
Y221457D02*
D03*
D94*
X512795Y199721D02*
D03*
X493110D02*
D03*
X576813Y422244D02*
D03*
Y402559D02*
D03*
X331862Y97441D02*
D03*
X312177D02*
D03*
X512795Y183071D02*
D03*
X493110D02*
D03*
X695866Y402559D02*
D03*
Y422244D02*
D03*
X635827Y422244D02*
D03*
Y402559D02*
D03*
X517758Y422244D02*
D03*
Y402559D02*
D03*
D95*
X448819Y127874D02*
D03*
D96*
Y137874D02*
D03*
D97*
X27805Y129528D02*
D03*
X167421Y247047D02*
D03*
D98*
X468504Y198436D02*
D03*
Y106436D02*
D03*
D99*
X757874Y462598D02*
D03*
Y29528D02*
D03*
X29528D02*
D03*
Y462598D02*
D03*
D100*
X202756Y261811D02*
D03*
X195866Y266732D02*
D03*
X176673Y178150D02*
D03*
X147126Y200787D02*
D03*
X87982Y307087D02*
D03*
X87953Y281496D02*
D03*
X149606Y92520D02*
D03*
X175984Y119095D02*
D03*
X161102Y105315D02*
D03*
X54134Y132480D02*
D03*
X89254D02*
D03*
X127953Y103346D02*
D03*
X109252Y129724D02*
D03*
X192913Y311024D02*
D03*
X65748Y233071D02*
D03*
X154332Y326378D02*
D03*
X323622Y138288D02*
D03*
X353169D02*
D03*
Y151142D02*
D03*
X122343Y312008D02*
D03*
X52165Y305680D02*
D03*
Y295348D02*
D03*
Y284386D02*
D03*
Y274334D02*
D03*
Y262795D02*
D03*
Y253464D02*
D03*
Y245944D02*
D03*
X65748Y224803D02*
D03*
X114478Y218504D02*
D03*
X122244Y142598D02*
D03*
X65945Y245944D02*
D03*
Y253464D02*
D03*
Y262795D02*
D03*
Y274334D02*
D03*
Y284386D02*
D03*
Y295348D02*
D03*
Y305680D02*
D03*
X61024Y317913D02*
D03*
Y328598D02*
D03*
Y337500D02*
D03*
X59646Y352362D02*
D03*
Y358268D02*
D03*
Y365158D02*
D03*
X52165Y317913D02*
D03*
X69964D02*
D03*
X70110Y327896D02*
D03*
X46260Y365158D02*
D03*
X52165Y337598D02*
D03*
X70110D02*
D03*
Y352362D02*
D03*
X69882Y358268D02*
D03*
Y365158D02*
D03*
X53150D02*
D03*
X122343Y254921D02*
D03*
X125984Y250984D02*
D03*
X130118Y247047D02*
D03*
X111377Y370079D02*
D03*
X27805Y227087D02*
D03*
X17963Y204724D02*
D03*
X27805Y216535D02*
D03*
Y204724D02*
D03*
X7874D02*
D03*
Y215551D02*
D03*
X7972Y227087D02*
D03*
X16732Y239173D02*
D03*
X7972D02*
D03*
X139449Y107184D02*
D03*
X122047Y120907D02*
D03*
X7874Y328740D02*
D03*
Y337598D02*
D03*
Y346299D02*
D03*
Y356299D02*
D03*
Y365158D02*
D03*
Y374016D02*
D03*
X16732Y249016D02*
D03*
X7874D02*
D03*
Y257874D02*
D03*
Y265748D02*
D03*
X245905Y185689D02*
D03*
X227756Y198622D02*
D03*
X107087Y119685D02*
D03*
D106*
X498189Y401575D02*
Y415354D01*
X557244Y402559D02*
Y415354D01*
X606299D02*
Y428150D01*
X665354Y415354D02*
Y427165D01*
D185*
X17717Y210630D02*
X27805D01*
X91427Y210630D01*
X100394Y183071D02*
Y201663D01*
Y155315D02*
Y183071D01*
X95472Y150394D02*
X100394Y155315D01*
X83071Y150394D02*
X95472D01*
X91427Y210630D02*
X100394Y201663D01*
D187*
X182087Y281496D02*
D03*
X173819D02*
D03*
X182087Y291339D02*
D03*
X173819D02*
D03*
D188*
X25689Y236595D02*
D03*
Y241595D02*
D03*
Y246595D02*
D03*
Y251594D02*
D03*
X45177D02*
D03*
Y246595D02*
D03*
Y241595D02*
D03*
Y236595D02*
D03*
D189*
X130453Y123150D02*
D03*
X135453D02*
D03*
X140453D02*
D03*
X145453D02*
D03*
Y142598D02*
D03*
X140453D02*
D03*
X135453D02*
D03*
X130453D02*
D03*
D190*
X68898Y437008D02*
D03*
X76772Y433268D02*
D03*
Y440748D02*
D03*
D191*
X122343Y190689D02*
D03*
Y200689D02*
D03*
X158169Y190689D02*
D03*
Y200689D02*
D03*
X400689Y33937D02*
D03*
Y23937D02*
D03*
X364862Y33937D02*
D03*
Y23937D02*
D03*
D192*
X312008Y53898D02*
D03*
X252953D02*
D03*
X282480D02*
D03*
X341535D02*
D03*
D193*
X303008Y28189D02*
D03*
X321008D02*
D03*
X243953D02*
D03*
X261953D02*
D03*
X273480D02*
D03*
X291480D02*
D03*
X332535D02*
D03*
X350535D02*
D03*
D194*
X131191Y402559D02*
D03*
Y418307D02*
D03*
D195*
X171161Y213583D02*
D03*
X163681D02*
D03*
X167421Y221457D02*
D03*
D196*
X148130Y211614D02*
D03*
X132776D02*
D03*
X375312Y13780D02*
D03*
X390666D02*
D03*
D197*
X409252Y434055D02*
D03*
X415551D02*
D03*
X486417Y58071D02*
D03*
X480118D02*
D03*
X44646Y229134D02*
D03*
X38346D02*
D03*
X45472Y258858D02*
D03*
X39173D02*
D03*
D198*
X113494Y289843D02*
D03*
X103494D02*
D03*
X113494Y325669D02*
D03*
X103494D02*
D03*
D199*
X113494Y334350D02*
D03*
Y349705D02*
D03*
X59055Y427559D02*
D03*
Y442913D02*
D03*
D200*
X22973Y365158D02*
D03*
Y337598D02*
D03*
D201*
X48681Y356157D02*
D03*
Y374158D02*
D03*
Y328598D02*
D03*
Y346598D02*
D03*
D202*
X113690Y277087D02*
D03*
X106801D02*
D03*
X96791Y350886D02*
D03*
X103681D02*
D03*
X366383Y13581D02*
D03*
X359493D02*
D03*
X344707D02*
D03*
X351597D02*
D03*
X87982Y267087D02*
D03*
X94871D02*
D03*
X143701Y180118D02*
D03*
X136811D02*
D03*
X169783Y200787D02*
D03*
X176673D02*
D03*
D203*
X710630Y50984D02*
D03*
Y59252D02*
D03*
X742126Y50984D02*
D03*
Y59252D02*
D03*
X774606Y50984D02*
D03*
Y59252D02*
D03*
X710630Y81890D02*
D03*
Y73622D02*
D03*
X742126Y81890D02*
D03*
Y73622D02*
D03*
X774606Y81693D02*
D03*
Y73425D02*
D03*
X123031Y137008D02*
D03*
Y128740D02*
D03*
M02*
