G04*
G04 #@! TF.GenerationSoftware,Altium Limited,Altium Designer,25.5.2 (35)*
G04*
G04 Layer_Color=255*
%FSLAX25Y25*%
%MOIN*%
G70*
G04*
G04 #@! TF.SameCoordinates,C0FCB968-46A0-45D3-9917-4976AB0E3D04*
G04*
G04*
G04 #@! TF.FilePolarity,Positive*
G04*
G01*
G75*
%ADD48C,0.07087*%
%ADD93C,0.05906*%
%ADD100C,0.03150*%
%ADD101R,0.03740X0.03543*%
%ADD102R,0.05512X0.05118*%
%ADD103R,0.05315X0.04528*%
%ADD112O,0.35433X0.17717*%
%ADD113R,0.05906X0.05906*%
%ADD114C,0.11811*%
%ADD115C,0.06496*%
%ADD116C,0.06693*%
%ADD117R,0.06693X0.06693*%
%ADD118R,0.10335X0.10335*%
%ADD119C,0.10335*%
%ADD120R,0.04795X0.04795*%
%ADD121C,0.04795*%
%ADD122O,0.04213X0.08425*%
%ADD123O,0.04331X0.08661*%
%ADD124C,0.07323*%
%ADD125R,0.07323X0.07323*%
%ADD126R,0.07087X0.07087*%
G04:AMPARAMS|DCode=127|XSize=60mil|YSize=60mil|CornerRadius=0mil|HoleSize=0mil|Usage=FLASHONLY|Rotation=90.000|XOffset=0mil|YOffset=0mil|HoleType=Round|Shape=Octagon|*
%AMOCTAGOND127*
4,1,8,0.01500,0.03000,-0.01500,0.03000,-0.03000,0.01500,-0.03000,-0.01500,-0.01500,-0.03000,0.01500,-0.03000,0.03000,-0.01500,0.03000,0.01500,0.01500,0.03000,0.0*
%
%ADD127OCTAGOND127*%

%ADD128C,0.12400*%
G04:AMPARAMS|DCode=129|XSize=124mil|YSize=124mil|CornerRadius=0mil|HoleSize=0mil|Usage=FLASHONLY|Rotation=270.000|XOffset=0mil|YOffset=0mil|HoleType=Round|Shape=Octagon|*
%AMOCTAGOND129*
4,1,8,-0.03100,-0.06200,0.03100,-0.06200,0.06200,-0.03100,0.06200,0.03100,0.03100,0.06200,-0.03100,0.06200,-0.06200,0.03100,-0.06200,-0.03100,-0.03100,-0.06200,0.0*
%
%ADD129OCTAGOND129*%

G04:AMPARAMS|DCode=130|XSize=100mil|YSize=100mil|CornerRadius=0mil|HoleSize=0mil|Usage=FLASHONLY|Rotation=270.000|XOffset=0mil|YOffset=0mil|HoleType=Round|Shape=Octagon|*
%AMOCTAGOND130*
4,1,8,-0.02500,-0.05000,0.02500,-0.05000,0.05000,-0.02500,0.05000,0.02500,0.02500,0.05000,-0.02500,0.05000,-0.05000,0.02500,-0.05000,-0.02500,-0.02500,-0.05000,0.0*
%
%ADD130OCTAGOND130*%

%ADD131C,0.10000*%
%ADD132C,0.06500*%
G04:AMPARAMS|DCode=133|XSize=65mil|YSize=65mil|CornerRadius=0mil|HoleSize=0mil|Usage=FLASHONLY|Rotation=90.000|XOffset=0mil|YOffset=0mil|HoleType=Round|Shape=Octagon|*
%AMOCTAGOND133*
4,1,8,0.01625,0.03250,-0.01625,0.03250,-0.03250,0.01625,-0.03250,-0.01625,-0.01625,-0.03250,0.01625,-0.03250,0.03250,-0.01625,0.03250,0.01625,0.01625,0.03250,0.0*
%
%ADD133OCTAGOND133*%

%ADD134O,0.11000X0.08500*%
G04:AMPARAMS|DCode=135|XSize=110mil|YSize=85mil|CornerRadius=0mil|HoleSize=0mil|Usage=FLASHONLY|Rotation=0.000|XOffset=0mil|YOffset=0mil|HoleType=Round|Shape=Octagon|*
%AMOCTAGOND135*
4,1,8,0.05500,-0.02125,0.05500,0.02125,0.03375,0.04250,-0.03375,0.04250,-0.05500,0.02125,-0.05500,-0.02125,-0.03375,-0.04250,0.03375,-0.04250,0.05500,-0.02125,0.0*
%
%ADD135OCTAGOND135*%

G04:AMPARAMS|DCode=136|XSize=177.01mil|YSize=118.11mil|CornerRadius=0mil|HoleSize=0mil|Usage=FLASHONLY|Rotation=180.000|XOffset=0mil|YOffset=0mil|HoleType=Round|Shape=Octagon|*
%AMOCTAGOND136*
4,1,8,-0.08850,0.02953,-0.08850,-0.02953,-0.05898,-0.05906,0.05898,-0.05906,0.08850,-0.02953,0.08850,0.02953,0.05898,0.05906,-0.05898,0.05906,-0.08850,0.02953,0.0*
%
%ADD136OCTAGOND136*%

%ADD137O,0.17701X0.11811*%
G04:AMPARAMS|DCode=138|XSize=60mil|YSize=70mil|CornerRadius=0mil|HoleSize=0mil|Usage=FLASHONLY|Rotation=180.000|XOffset=0mil|YOffset=0mil|HoleType=Round|Shape=Octagon|*
%AMOCTAGOND138*
4,1,8,0.01500,-0.03500,-0.01500,-0.03500,-0.03000,-0.02000,-0.03000,0.02000,-0.01500,0.03500,0.01500,0.03500,0.03000,0.02000,0.03000,-0.02000,0.01500,-0.03500,0.0*
%
%ADD138OCTAGOND138*%

%ADD139O,0.06000X0.07000*%
G04:AMPARAMS|DCode=140|XSize=85mil|YSize=85mil|CornerRadius=0mil|HoleSize=0mil|Usage=FLASHONLY|Rotation=270.000|XOffset=0mil|YOffset=0mil|HoleType=Round|Shape=Octagon|*
%AMOCTAGOND140*
4,1,8,-0.02125,-0.04250,0.02125,-0.04250,0.04250,-0.02125,0.04250,0.02125,0.02125,0.04250,-0.02125,0.04250,-0.04250,0.02125,-0.04250,-0.02125,-0.02125,-0.04250,0.0*
%
%ADD140OCTAGOND140*%

G04:AMPARAMS|DCode=141|XSize=80mil|YSize=60mil|CornerRadius=0mil|HoleSize=0mil|Usage=FLASHONLY|Rotation=90.000|XOffset=0mil|YOffset=0mil|HoleType=Round|Shape=Octagon|*
%AMOCTAGOND141*
4,1,8,0.01500,0.04000,-0.01500,0.04000,-0.03000,0.02500,-0.03000,-0.02500,-0.01500,-0.04000,0.01500,-0.04000,0.03000,-0.02500,0.03000,0.02500,0.01500,0.04000,0.0*
%
%ADD141OCTAGOND141*%

G04:AMPARAMS|DCode=142|XSize=80mil|YSize=80mil|CornerRadius=0mil|HoleSize=0mil|Usage=FLASHONLY|Rotation=0.000|XOffset=0mil|YOffset=0mil|HoleType=Round|Shape=Octagon|*
%AMOCTAGOND142*
4,1,8,0.04000,-0.02000,0.04000,0.02000,0.02000,0.04000,-0.02000,0.04000,-0.04000,0.02000,-0.04000,-0.02000,-0.02000,-0.04000,0.02000,-0.04000,0.04000,-0.02000,0.0*
%
%ADD142OCTAGOND142*%

G04:AMPARAMS|DCode=143|XSize=65mil|YSize=65mil|CornerRadius=0mil|HoleSize=0mil|Usage=FLASHONLY|Rotation=0.000|XOffset=0mil|YOffset=0mil|HoleType=Round|Shape=Octagon|*
%AMOCTAGOND143*
4,1,8,0.03250,-0.01625,0.03250,0.01625,0.01625,0.03250,-0.01625,0.03250,-0.03250,0.01625,-0.03250,-0.01625,-0.01625,-0.03250,0.01625,-0.03250,0.03250,-0.01625,0.0*
%
%ADD143OCTAGOND143*%

%ADD144C,0.05937*%
%ADD145R,0.05937X0.05937*%
G04:AMPARAMS|DCode=146|XSize=137.8mil|YSize=216.54mil|CornerRadius=34.45mil|HoleSize=0mil|Usage=FLASHONLY|Rotation=180.000|XOffset=0mil|YOffset=0mil|HoleType=Round|Shape=RoundedRectangle|*
%AMROUNDEDRECTD146*
21,1,0.13780,0.14764,0,0,180.0*
21,1,0.06890,0.21654,0,0,180.0*
1,1,0.06890,-0.03445,0.07382*
1,1,0.06890,0.03445,0.07382*
1,1,0.06890,0.03445,-0.07382*
1,1,0.06890,-0.03445,-0.07382*
%
%ADD146ROUNDEDRECTD146*%
%ADD147C,0.05200*%
%ADD148C,0.15748*%
%ADD149R,0.05937X0.05937*%
%ADD150C,0.06201*%
%ADD151R,0.06201X0.06201*%
%ADD152R,0.05906X0.05906*%
%ADD153C,0.19685*%
%ADD154C,0.13780*%
%ADD155C,0.04606*%
%ADD156R,0.04606X0.04606*%
%ADD157R,0.05150X0.05150*%
%ADD158C,0.05150*%
%ADD159R,0.06496X0.06496*%
%ADD160C,0.05512*%
%ADD161C,0.04528*%
G04:AMPARAMS|DCode=162|XSize=60mil|YSize=70mil|CornerRadius=0mil|HoleSize=0mil|Usage=FLASHONLY|Rotation=90.000|XOffset=0mil|YOffset=0mil|HoleType=Round|Shape=Octagon|*
%AMOCTAGOND162*
4,1,8,-0.03500,-0.01500,-0.03500,0.01500,-0.02000,0.03000,0.02000,0.03000,0.03500,0.01500,0.03500,-0.01500,0.02000,-0.03000,-0.02000,-0.03000,-0.03500,-0.01500,0.0*
%
%ADD162OCTAGOND162*%

%ADD163O,0.07000X0.06000*%
%ADD164R,0.06201X0.06201*%
G04:AMPARAMS|DCode=165|XSize=80mil|YSize=80mil|CornerRadius=0mil|HoleSize=0mil|Usage=FLASHONLY|Rotation=270.000|XOffset=0mil|YOffset=0mil|HoleType=Round|Shape=Octagon|*
%AMOCTAGOND165*
4,1,8,-0.02000,-0.04000,0.02000,-0.04000,0.04000,-0.02000,0.04000,0.02000,0.02000,0.04000,-0.02000,0.04000,-0.04000,0.02000,-0.04000,-0.02000,-0.02000,-0.04000,0.0*
%
%ADD165OCTAGOND165*%

%ADD166C,0.27559*%
D48*
X211614Y175394D02*
D03*
X542323Y107638D02*
D03*
D93*
X131260Y163878D02*
D03*
X138779D02*
D03*
X433071Y74803D02*
D03*
X423071D02*
D03*
X255906D02*
D03*
X245905D02*
D03*
X314961D02*
D03*
X304961D02*
D03*
X374016D02*
D03*
X364016D02*
D03*
D100*
X107283Y84626D02*
D03*
X104134Y82185D02*
D03*
Y78051D02*
D03*
X106693Y74508D02*
D03*
X111260Y73327D02*
D03*
X116496D02*
D03*
X121732D02*
D03*
X126969D02*
D03*
X130905Y74508D02*
D03*
X134055Y78051D02*
D03*
Y82185D02*
D03*
X130905Y84626D02*
D03*
X111260Y85925D02*
D03*
X116496D02*
D03*
X121732D02*
D03*
X126969D02*
D03*
X146653Y84626D02*
D03*
X143504Y82185D02*
D03*
Y78051D02*
D03*
X146063Y74508D02*
D03*
X150630Y73327D02*
D03*
X155866D02*
D03*
X161102D02*
D03*
X166339D02*
D03*
X170276Y74508D02*
D03*
X173425Y78051D02*
D03*
Y82185D02*
D03*
X170276Y84626D02*
D03*
X150630Y85925D02*
D03*
X155866D02*
D03*
X161102D02*
D03*
X166339D02*
D03*
D101*
X103632Y168159D02*
D03*
Y155758D02*
D03*
D102*
X95469Y163878D02*
D03*
Y157579D02*
D03*
D103*
X95468Y147146D02*
D03*
Y140256D02*
D03*
X103632D02*
D03*
Y147146D02*
D03*
D112*
X119095Y79626D02*
D03*
X158465D02*
D03*
D113*
X146299Y163878D02*
D03*
D114*
X560039Y319882D02*
D03*
X520669D02*
D03*
X675197Y237008D02*
D03*
Y337795D02*
D03*
X560039Y332913D02*
D03*
X520669D02*
D03*
D115*
X703150Y193898D02*
D03*
Y154528D02*
D03*
X685433Y193898D02*
D03*
Y154528D02*
D03*
X287795Y310236D02*
D03*
X303543Y361417D02*
D03*
X254921Y310039D02*
D03*
X271654Y361417D02*
D03*
D116*
X498189Y415354D02*
D03*
X488189D02*
D03*
X675354D02*
D03*
X665354D02*
D03*
X616299D02*
D03*
X606299D02*
D03*
X557244D02*
D03*
X547244D02*
D03*
D117*
X478189D02*
D03*
X655354D02*
D03*
X596299D02*
D03*
X537244D02*
D03*
D118*
X765158Y410512D02*
D03*
X766732Y159606D02*
D03*
D119*
X765158Y426102D02*
D03*
X766732Y175197D02*
D03*
Y190787D02*
D03*
D120*
X589921Y83071D02*
D03*
D121*
X579921D02*
D03*
X569921D02*
D03*
D122*
X488268Y69784D02*
D03*
X483268D02*
D03*
X478268D02*
D03*
X407402Y422342D02*
D03*
X412402D02*
D03*
X417402D02*
D03*
D123*
X445945Y169291D02*
D03*
X440945D02*
D03*
X435945D02*
D03*
D124*
X325079Y415354D02*
D03*
X315079D02*
D03*
X227362D02*
D03*
X237362D02*
D03*
D125*
X305079D02*
D03*
X217362D02*
D03*
D126*
X211614Y185394D02*
D03*
Y195394D02*
D03*
Y205394D02*
D03*
Y215394D02*
D03*
Y225394D02*
D03*
Y235394D02*
D03*
Y245394D02*
D03*
X542323Y117638D02*
D03*
Y127638D02*
D03*
Y137638D02*
D03*
Y147638D02*
D03*
Y157638D02*
D03*
Y167638D02*
D03*
Y177638D02*
D03*
Y187638D02*
D03*
Y197638D02*
D03*
Y207638D02*
D03*
Y217638D02*
D03*
Y227638D02*
D03*
Y237638D02*
D03*
Y247638D02*
D03*
Y257638D02*
D03*
Y267638D02*
D03*
D127*
X727362Y205197D02*
D03*
Y145197D02*
D03*
D128*
X476378Y258110D02*
D03*
Y302913D02*
D03*
D129*
Y228110D02*
D03*
Y332913D02*
D03*
D130*
X76772Y95315D02*
D03*
X215551Y349252D02*
D03*
D131*
X76772Y115315D02*
D03*
X215551Y369252D02*
D03*
D132*
X166535Y334339D02*
D03*
X262795Y409449D02*
D03*
X366055D02*
D03*
X166535Y368197D02*
D03*
D133*
Y348339D02*
D03*
Y382197D02*
D03*
X488189Y115827D02*
D03*
Y155827D02*
D03*
X504921D02*
D03*
Y115827D02*
D03*
D134*
X476576Y371463D02*
D03*
X652757D02*
D03*
X593702D02*
D03*
X535632D02*
D03*
D135*
X517758D02*
D03*
X693939D02*
D03*
X634883D02*
D03*
X576813D02*
D03*
D136*
X418890Y303050D02*
D03*
X344890Y374116D02*
D03*
X418890Y350294D02*
D03*
X344890Y326872D02*
D03*
D137*
Y303150D02*
D03*
X418890Y374016D02*
D03*
X344890Y350394D02*
D03*
X418890Y326772D02*
D03*
D138*
X632953Y87598D02*
D03*
X496142Y106299D02*
D03*
X234370Y396457D02*
D03*
X220472D02*
D03*
X314882Y396654D02*
D03*
D139*
X622953Y87598D02*
D03*
X486142Y106299D02*
D03*
X244370Y396457D02*
D03*
X210472D02*
D03*
X324882Y396654D02*
D03*
D140*
X72835Y451024D02*
D03*
Y421024D02*
D03*
D141*
X107441Y407972D02*
D03*
X97441D02*
D03*
D142*
X571126Y109252D02*
D03*
X663126D02*
D03*
D143*
X406000Y97441D02*
D03*
X344000D02*
D03*
X517167Y383268D02*
D03*
X477167D02*
D03*
X276795Y409449D02*
D03*
X352055D02*
D03*
X734921Y391732D02*
D03*
X774921D02*
D03*
X647953Y75197D02*
D03*
X607953D02*
D03*
X653348Y394094D02*
D03*
X693348D02*
D03*
X594293D02*
D03*
X634293D02*
D03*
X693348Y383268D02*
D03*
X653348D02*
D03*
X634293D02*
D03*
X594293D02*
D03*
X536222Y394094D02*
D03*
X576222D02*
D03*
X477167D02*
D03*
X517167D02*
D03*
X576222Y383268D02*
D03*
X536222D02*
D03*
D144*
X78780Y237087D02*
D03*
Y247087D02*
D03*
Y257087D02*
D03*
Y267087D02*
D03*
Y277087D02*
D03*
Y287087D02*
D03*
Y297087D02*
D03*
Y307087D02*
D03*
Y317087D02*
D03*
Y327087D02*
D03*
Y337087D02*
D03*
Y347087D02*
D03*
Y357087D02*
D03*
Y367087D02*
D03*
Y377087D02*
D03*
X138779D02*
D03*
Y367087D02*
D03*
Y357087D02*
D03*
Y347087D02*
D03*
Y337087D02*
D03*
Y327087D02*
D03*
Y317087D02*
D03*
Y307087D02*
D03*
Y297087D02*
D03*
Y287087D02*
D03*
Y277087D02*
D03*
Y267087D02*
D03*
Y257087D02*
D03*
Y247087D02*
D03*
X166437Y301181D02*
D03*
Y291339D02*
D03*
Y281496D02*
D03*
D145*
X138779Y237087D02*
D03*
D146*
X78740Y183071D02*
D03*
Y150394D02*
D03*
X59055Y183071D02*
D03*
Y150394D02*
D03*
D147*
X734252Y413307D02*
D03*
Y423307D02*
D03*
D148*
X35433Y422047D02*
D03*
X15748D02*
D03*
X35433Y393701D02*
D03*
X15748D02*
D03*
X35433Y185827D02*
D03*
X15748D02*
D03*
X35433Y157480D02*
D03*
X15748D02*
D03*
X35433Y307874D02*
D03*
X15748D02*
D03*
X35433Y279528D02*
D03*
X15748D02*
D03*
X35433Y93307D02*
D03*
X15748D02*
D03*
X35433Y64961D02*
D03*
X15748D02*
D03*
D149*
X166437Y311024D02*
D03*
D150*
X142680Y407972D02*
D03*
X27805Y119685D02*
D03*
X700787Y66929D02*
D03*
X732283Y66831D02*
D03*
X764764Y66634D02*
D03*
X167421Y237205D02*
D03*
D151*
X152523Y407972D02*
D03*
X710630Y66929D02*
D03*
X742126Y66831D02*
D03*
X774606Y66634D02*
D03*
D152*
X443071Y74803D02*
D03*
X265905D02*
D03*
X324961D02*
D03*
X384016D02*
D03*
D153*
X629921Y33465D02*
D03*
X157480D02*
D03*
X157524Y457874D02*
D03*
X629965D02*
D03*
D154*
X407480Y265748D02*
D03*
X387795D02*
D03*
X368110D02*
D03*
X348425D02*
D03*
X328740D02*
D03*
X309055D02*
D03*
X289370D02*
D03*
X269685D02*
D03*
Y127953D02*
D03*
X289370D02*
D03*
X309055D02*
D03*
X328740D02*
D03*
X348425D02*
D03*
X368110D02*
D03*
X387795D02*
D03*
X407480D02*
D03*
D155*
X700984Y121811D02*
D03*
X710984D02*
D03*
X720984D02*
D03*
X730984D02*
D03*
X740984D02*
D03*
X750984D02*
D03*
X760984D02*
D03*
Y90551D02*
D03*
X750984D02*
D03*
X740984D02*
D03*
X730984D02*
D03*
X720984D02*
D03*
X710984D02*
D03*
D156*
X700984D02*
D03*
D157*
X435941Y151142D02*
D03*
D158*
Y114606D02*
D03*
D159*
X287795Y361417D02*
D03*
X303543Y310236D02*
D03*
X254921Y361221D02*
D03*
X271654Y310236D02*
D03*
D160*
X652559Y132874D02*
D03*
Y221457D02*
D03*
X602362Y132874D02*
D03*
Y221457D02*
D03*
D161*
X512795Y199721D02*
D03*
X493110D02*
D03*
X576813Y422244D02*
D03*
Y402559D02*
D03*
X331862Y97441D02*
D03*
X312177D02*
D03*
X512795Y183071D02*
D03*
X493110D02*
D03*
X695866Y402559D02*
D03*
Y422244D02*
D03*
X635827Y422244D02*
D03*
Y402559D02*
D03*
X517758Y422244D02*
D03*
Y402559D02*
D03*
D162*
X448819Y127874D02*
D03*
D163*
Y137874D02*
D03*
D164*
X27805Y129528D02*
D03*
X167421Y247047D02*
D03*
D165*
X468504Y198436D02*
D03*
Y106436D02*
D03*
D166*
X757874Y462598D02*
D03*
Y29528D02*
D03*
X29528D02*
D03*
Y462598D02*
D03*
M02*
