G04*
G04 #@! TF.GenerationSoftware,Altium Limited,Altium Designer,25.5.2 (35)*
G04*
G04 Layer_Color=8388736*
%FSLAX25Y25*%
%MOIN*%
G70*
G04*
G04 #@! TF.SameCoordinates,C0FCB968-46A0-45D3-9917-4976AB0E3D04*
G04*
G04*
G04 #@! TF.FilePolarity,Negative*
G04*
G01*
G75*
%ADD38R,0.04134X0.03937*%
%ADD39R,0.05906X0.05512*%
%ADD40R,0.05709X0.04921*%
%ADD41C,0.16535*%
%ADD42C,0.03543*%
%ADD43O,0.35827X0.18110*%
%ADD44C,0.06299*%
%ADD45R,0.06299X0.06299*%
%ADD46C,0.12205*%
%ADD47C,0.06890*%
%ADD48C,0.07087*%
%ADD49R,0.07087X0.07087*%
%ADD50R,0.10728X0.10728*%
%ADD51C,0.10728*%
%ADD52R,0.05189X0.05189*%
%ADD53C,0.05189*%
%ADD54O,0.04606X0.08819*%
%ADD55O,0.04724X0.09055*%
%ADD56C,0.07717*%
%ADD57R,0.07717X0.07717*%
%ADD58C,0.07480*%
%ADD59R,0.07480X0.07480*%
G04:AMPARAMS|DCode=60|XSize=63.94mil|YSize=63.94mil|CornerRadius=0mil|HoleSize=0mil|Usage=FLASHONLY|Rotation=90.000|XOffset=0mil|YOffset=0mil|HoleType=Round|Shape=Octagon|*
%AMOCTAGOND60*
4,1,8,0.01598,0.03197,-0.01598,0.03197,-0.03197,0.01598,-0.03197,-0.01598,-0.01598,-0.03197,0.01598,-0.03197,0.03197,-0.01598,0.03197,0.01598,0.01598,0.03197,0.0*
%
%ADD60OCTAGOND60*%

%ADD61C,0.12794*%
G04:AMPARAMS|DCode=62|XSize=127.94mil|YSize=127.94mil|CornerRadius=0mil|HoleSize=0mil|Usage=FLASHONLY|Rotation=270.000|XOffset=0mil|YOffset=0mil|HoleType=Round|Shape=Octagon|*
%AMOCTAGOND62*
4,1,8,-0.03198,-0.06397,0.03198,-0.06397,0.06397,-0.03198,0.06397,0.03198,0.03198,0.06397,-0.03198,0.06397,-0.06397,0.03198,-0.06397,-0.03198,-0.03198,-0.06397,0.0*
%
%ADD62OCTAGOND62*%

G04:AMPARAMS|DCode=63|XSize=103.94mil|YSize=103.94mil|CornerRadius=0mil|HoleSize=0mil|Usage=FLASHONLY|Rotation=270.000|XOffset=0mil|YOffset=0mil|HoleType=Round|Shape=Octagon|*
%AMOCTAGOND63*
4,1,8,-0.02598,-0.05197,0.02598,-0.05197,0.05197,-0.02598,0.05197,0.02598,0.02598,0.05197,-0.02598,0.05197,-0.05197,0.02598,-0.05197,-0.02598,-0.02598,-0.05197,0.0*
%
%ADD63OCTAGOND63*%

%ADD64C,0.10394*%
%ADD65C,0.06894*%
G04:AMPARAMS|DCode=66|XSize=68.94mil|YSize=68.94mil|CornerRadius=0mil|HoleSize=0mil|Usage=FLASHONLY|Rotation=90.000|XOffset=0mil|YOffset=0mil|HoleType=Round|Shape=Octagon|*
%AMOCTAGOND66*
4,1,8,0.01723,0.03447,-0.01723,0.03447,-0.03447,0.01723,-0.03447,-0.01723,-0.01723,-0.03447,0.01723,-0.03447,0.03447,-0.01723,0.03447,0.01723,0.01723,0.03447,0.0*
%
%ADD66OCTAGOND66*%

%ADD67O,0.11394X0.08894*%
G04:AMPARAMS|DCode=68|XSize=113.94mil|YSize=88.94mil|CornerRadius=0mil|HoleSize=0mil|Usage=FLASHONLY|Rotation=0.000|XOffset=0mil|YOffset=0mil|HoleType=Round|Shape=Octagon|*
%AMOCTAGOND68*
4,1,8,0.05697,-0.02223,0.05697,0.02223,0.03473,0.04447,-0.03473,0.04447,-0.05697,0.02223,-0.05697,-0.02223,-0.03473,-0.04447,0.03473,-0.04447,0.05697,-0.02223,0.0*
%
%ADD68OCTAGOND68*%

G04:AMPARAMS|DCode=69|XSize=180.95mil|YSize=122.05mil|CornerRadius=0mil|HoleSize=0mil|Usage=FLASHONLY|Rotation=180.000|XOffset=0mil|YOffset=0mil|HoleType=Round|Shape=Octagon|*
%AMOCTAGOND69*
4,1,8,-0.09047,0.03051,-0.09047,-0.03051,-0.05996,-0.06102,0.05996,-0.06102,0.09047,-0.03051,0.09047,0.03051,0.05996,0.06102,-0.05996,0.06102,-0.09047,0.03051,0.0*
%
%ADD69OCTAGOND69*%

%ADD70O,0.18095X0.12205*%
G04:AMPARAMS|DCode=71|XSize=63.94mil|YSize=73.94mil|CornerRadius=0mil|HoleSize=0mil|Usage=FLASHONLY|Rotation=180.000|XOffset=0mil|YOffset=0mil|HoleType=Round|Shape=Octagon|*
%AMOCTAGOND71*
4,1,8,0.01598,-0.03697,-0.01598,-0.03697,-0.03197,-0.02098,-0.03197,0.02098,-0.01598,0.03697,0.01598,0.03697,0.03197,0.02098,0.03197,-0.02098,0.01598,-0.03697,0.0*
%
%ADD71OCTAGOND71*%

%ADD72O,0.06394X0.07394*%
G04:AMPARAMS|DCode=73|XSize=88.94mil|YSize=88.94mil|CornerRadius=0mil|HoleSize=0mil|Usage=FLASHONLY|Rotation=270.000|XOffset=0mil|YOffset=0mil|HoleType=Round|Shape=Octagon|*
%AMOCTAGOND73*
4,1,8,-0.02223,-0.04447,0.02223,-0.04447,0.04447,-0.02223,0.04447,0.02223,0.02223,0.04447,-0.02223,0.04447,-0.04447,0.02223,-0.04447,-0.02223,-0.02223,-0.04447,0.0*
%
%ADD73OCTAGOND73*%

G04:AMPARAMS|DCode=74|XSize=83.94mil|YSize=63.94mil|CornerRadius=0mil|HoleSize=0mil|Usage=FLASHONLY|Rotation=90.000|XOffset=0mil|YOffset=0mil|HoleType=Round|Shape=Octagon|*
%AMOCTAGOND74*
4,1,8,0.01598,0.04197,-0.01598,0.04197,-0.03197,0.02598,-0.03197,-0.02598,-0.01598,-0.04197,0.01598,-0.04197,0.03197,-0.02598,0.03197,0.02598,0.01598,0.04197,0.0*
%
%ADD74OCTAGOND74*%

G04:AMPARAMS|DCode=75|XSize=83.94mil|YSize=83.94mil|CornerRadius=0mil|HoleSize=0mil|Usage=FLASHONLY|Rotation=0.000|XOffset=0mil|YOffset=0mil|HoleType=Round|Shape=Octagon|*
%AMOCTAGOND75*
4,1,8,0.04197,-0.02098,0.04197,0.02098,0.02098,0.04197,-0.02098,0.04197,-0.04197,0.02098,-0.04197,-0.02098,-0.02098,-0.04197,0.02098,-0.04197,0.04197,-0.02098,0.0*
%
%ADD75OCTAGOND75*%

G04:AMPARAMS|DCode=76|XSize=68.94mil|YSize=68.94mil|CornerRadius=0mil|HoleSize=0mil|Usage=FLASHONLY|Rotation=0.000|XOffset=0mil|YOffset=0mil|HoleType=Round|Shape=Octagon|*
%AMOCTAGOND76*
4,1,8,0.03447,-0.01723,0.03447,0.01723,0.01723,0.03447,-0.01723,0.03447,-0.03447,0.01723,-0.03447,-0.01723,-0.01723,-0.03447,0.01723,-0.03447,0.03447,-0.01723,0.0*
%
%ADD76OCTAGOND76*%

%ADD77C,0.06331*%
%ADD78R,0.06331X0.06331*%
G04:AMPARAMS|DCode=79|XSize=141.73mil|YSize=220.47mil|CornerRadius=36.42mil|HoleSize=0mil|Usage=FLASHONLY|Rotation=180.000|XOffset=0mil|YOffset=0mil|HoleType=Round|Shape=RoundedRectangle|*
%AMROUNDEDRECTD79*
21,1,0.14173,0.14764,0,0,180.0*
21,1,0.06890,0.22047,0,0,180.0*
1,1,0.07284,-0.03445,0.07382*
1,1,0.07284,0.03445,0.07382*
1,1,0.07284,0.03445,-0.07382*
1,1,0.07284,-0.03445,-0.07382*
%
%ADD79ROUNDEDRECTD79*%
%ADD80C,0.05594*%
%ADD81C,0.16142*%
%ADD82R,0.06331X0.06331*%
%ADD83C,0.06594*%
%ADD84R,0.06594X0.06594*%
%ADD85R,0.06299X0.06299*%
%ADD86C,0.20079*%
%ADD87C,0.14173*%
%ADD88C,0.05000*%
%ADD89R,0.05000X0.05000*%
%ADD90R,0.05543X0.05543*%
%ADD91C,0.05543*%
%ADD92R,0.06890X0.06890*%
%ADD93C,0.05906*%
%ADD94C,0.04921*%
G04:AMPARAMS|DCode=95|XSize=63.94mil|YSize=73.94mil|CornerRadius=0mil|HoleSize=0mil|Usage=FLASHONLY|Rotation=90.000|XOffset=0mil|YOffset=0mil|HoleType=Round|Shape=Octagon|*
%AMOCTAGOND95*
4,1,8,-0.03697,-0.01598,-0.03697,0.01598,-0.02098,0.03197,0.02098,0.03197,0.03697,0.01598,0.03697,-0.01598,0.02098,-0.03197,-0.02098,-0.03197,-0.03697,-0.01598,0.0*
%
%ADD95OCTAGOND95*%

%ADD96O,0.07394X0.06394*%
%ADD97R,0.06594X0.06594*%
G04:AMPARAMS|DCode=98|XSize=83.94mil|YSize=83.94mil|CornerRadius=0mil|HoleSize=0mil|Usage=FLASHONLY|Rotation=270.000|XOffset=0mil|YOffset=0mil|HoleType=Round|Shape=Octagon|*
%AMOCTAGOND98*
4,1,8,-0.02098,-0.04197,0.02098,-0.04197,0.04197,-0.02098,0.04197,0.02098,0.02098,0.04197,-0.02098,0.04197,-0.04197,0.02098,-0.04197,-0.02098,-0.02098,-0.04197,0.0*
%
%ADD98OCTAGOND98*%

%ADD99C,0.27953*%
%ADD100C,0.03150*%
G36*
X179724Y65748D02*
X196260D01*
Y75000D01*
X196216Y74957D01*
X179724D01*
X179724Y65748D01*
D02*
G37*
D38*
X103632Y168159D02*
D03*
Y155758D02*
D03*
D39*
X95469Y163878D02*
D03*
Y157579D02*
D03*
D40*
X95468Y147146D02*
D03*
Y140256D02*
D03*
X103632D02*
D03*
Y147146D02*
D03*
D41*
X63820Y205735D02*
X125365D01*
X139468Y191633D02*
X151771Y179330D01*
X187992Y74803D02*
Y143109D01*
X54134Y215422D02*
X63820Y205735D01*
X151771Y179330D02*
X160038Y171063D01*
X125365Y205735D02*
X139468Y191633D01*
X160038Y171063D02*
X187992Y143109D01*
X54134Y215422D02*
Y233071D01*
D42*
X107283Y84626D02*
D03*
X104134Y82185D02*
D03*
Y78051D02*
D03*
X106693Y74508D02*
D03*
X111260Y73327D02*
D03*
X116496D02*
D03*
X121732D02*
D03*
X126969D02*
D03*
X130905Y74508D02*
D03*
X134055Y78051D02*
D03*
Y82185D02*
D03*
X130905Y84626D02*
D03*
X111260Y85925D02*
D03*
X116496D02*
D03*
X121732D02*
D03*
X126969D02*
D03*
X146653Y84626D02*
D03*
X143504Y82185D02*
D03*
Y78051D02*
D03*
X146063Y74508D02*
D03*
X150630Y73327D02*
D03*
X155866D02*
D03*
X161102D02*
D03*
X166339D02*
D03*
X170276Y74508D02*
D03*
X173425Y78051D02*
D03*
Y82185D02*
D03*
X170276Y84626D02*
D03*
X150630Y85925D02*
D03*
X155866D02*
D03*
X161102D02*
D03*
X166339D02*
D03*
D43*
X119095Y79626D02*
D03*
X158465D02*
D03*
D44*
X131260Y163878D02*
D03*
X138779D02*
D03*
X433071Y74803D02*
D03*
X423071D02*
D03*
X255906D02*
D03*
X245905D02*
D03*
X314961D02*
D03*
X304961D02*
D03*
X374016D02*
D03*
X364016D02*
D03*
D45*
X146299Y163878D02*
D03*
D46*
X560039Y319882D02*
D03*
X520669D02*
D03*
X675197Y237008D02*
D03*
Y337795D02*
D03*
X560039Y332913D02*
D03*
X520669D02*
D03*
D47*
X703150Y193898D02*
D03*
Y154528D02*
D03*
X685433Y193898D02*
D03*
Y154528D02*
D03*
X287795Y310236D02*
D03*
X303543Y361417D02*
D03*
X254921Y310039D02*
D03*
X271654Y361417D02*
D03*
D48*
X498189Y415354D02*
D03*
X488189D02*
D03*
X675354D02*
D03*
X665354D02*
D03*
X616299D02*
D03*
X606299D02*
D03*
X557244D02*
D03*
X547244D02*
D03*
D49*
X478189D02*
D03*
X655354D02*
D03*
X596299D02*
D03*
X537244D02*
D03*
D50*
X765158Y410512D02*
D03*
X766732Y159606D02*
D03*
D51*
X765158Y426102D02*
D03*
X766732Y175197D02*
D03*
Y190787D02*
D03*
D52*
X589921Y83071D02*
D03*
D53*
X579921D02*
D03*
X569921D02*
D03*
D54*
X488268Y69784D02*
D03*
X483268D02*
D03*
X478268D02*
D03*
X407402Y422342D02*
D03*
X412402D02*
D03*
X417402D02*
D03*
D55*
X445945Y169291D02*
D03*
X440945D02*
D03*
X435945D02*
D03*
D56*
X325079Y415354D02*
D03*
X315079D02*
D03*
X227362D02*
D03*
X237362D02*
D03*
D57*
X305079D02*
D03*
X217362D02*
D03*
D58*
X211614Y175394D02*
D03*
X542323Y107638D02*
D03*
D59*
X211614Y185394D02*
D03*
Y195394D02*
D03*
Y205394D02*
D03*
Y215394D02*
D03*
Y225394D02*
D03*
Y235394D02*
D03*
Y245394D02*
D03*
X542323Y117638D02*
D03*
Y127638D02*
D03*
Y137638D02*
D03*
Y147638D02*
D03*
Y157638D02*
D03*
Y167638D02*
D03*
Y177638D02*
D03*
Y187638D02*
D03*
Y197638D02*
D03*
Y207638D02*
D03*
Y217638D02*
D03*
Y227638D02*
D03*
Y237638D02*
D03*
Y247638D02*
D03*
Y257638D02*
D03*
Y267638D02*
D03*
D60*
X727362Y205197D02*
D03*
Y145197D02*
D03*
D61*
X476378Y258110D02*
D03*
Y302913D02*
D03*
D62*
Y228110D02*
D03*
Y332913D02*
D03*
D63*
X76772Y95315D02*
D03*
X215551Y349252D02*
D03*
D64*
X76772Y115315D02*
D03*
X215551Y369252D02*
D03*
D65*
X166535Y334339D02*
D03*
X262795Y409449D02*
D03*
X366055D02*
D03*
X166535Y368197D02*
D03*
D66*
Y348339D02*
D03*
Y382197D02*
D03*
X488189Y115827D02*
D03*
Y155827D02*
D03*
X504921D02*
D03*
Y115827D02*
D03*
D67*
X476576Y371463D02*
D03*
X652757D02*
D03*
X593702D02*
D03*
X535632D02*
D03*
D68*
X517758D02*
D03*
X693939D02*
D03*
X634883D02*
D03*
X576813D02*
D03*
D69*
X418890Y303050D02*
D03*
X344890Y374116D02*
D03*
X418890Y350294D02*
D03*
X344890Y326872D02*
D03*
D70*
Y303150D02*
D03*
X418890Y374016D02*
D03*
X344890Y350394D02*
D03*
X418890Y326772D02*
D03*
D71*
X632953Y87598D02*
D03*
X496142Y106299D02*
D03*
X234370Y396457D02*
D03*
X220472D02*
D03*
X314882Y396654D02*
D03*
D72*
X622953Y87598D02*
D03*
X486142Y106299D02*
D03*
X244370Y396457D02*
D03*
X210472D02*
D03*
X324882Y396654D02*
D03*
D73*
X72835Y451024D02*
D03*
Y421024D02*
D03*
D74*
X107441Y407972D02*
D03*
X97441D02*
D03*
D75*
X571126Y109252D02*
D03*
X663126D02*
D03*
D76*
X406000Y97441D02*
D03*
X344000D02*
D03*
X517167Y383268D02*
D03*
X477167D02*
D03*
X276795Y409449D02*
D03*
X352055D02*
D03*
X734921Y391732D02*
D03*
X774921D02*
D03*
X647953Y75197D02*
D03*
X607953D02*
D03*
X653348Y394094D02*
D03*
X693348D02*
D03*
X594293D02*
D03*
X634293D02*
D03*
X693348Y383268D02*
D03*
X653348D02*
D03*
X634293D02*
D03*
X594293D02*
D03*
X536222Y394094D02*
D03*
X576222D02*
D03*
X477167D02*
D03*
X517167D02*
D03*
X576222Y383268D02*
D03*
X536222D02*
D03*
D77*
X78780Y237087D02*
D03*
Y247087D02*
D03*
Y257087D02*
D03*
Y267087D02*
D03*
Y277087D02*
D03*
Y287087D02*
D03*
Y297087D02*
D03*
Y307087D02*
D03*
Y317087D02*
D03*
Y327087D02*
D03*
Y337087D02*
D03*
Y347087D02*
D03*
Y357087D02*
D03*
Y367087D02*
D03*
Y377087D02*
D03*
X138779D02*
D03*
Y367087D02*
D03*
Y357087D02*
D03*
Y347087D02*
D03*
Y337087D02*
D03*
Y327087D02*
D03*
Y317087D02*
D03*
Y307087D02*
D03*
Y297087D02*
D03*
Y287087D02*
D03*
Y277087D02*
D03*
Y267087D02*
D03*
Y257087D02*
D03*
Y247087D02*
D03*
X166437Y301181D02*
D03*
Y291339D02*
D03*
Y281496D02*
D03*
D78*
X138779Y237087D02*
D03*
D79*
X78740Y183071D02*
D03*
Y150394D02*
D03*
X59055Y183071D02*
D03*
Y150394D02*
D03*
D80*
X734252Y413307D02*
D03*
Y423307D02*
D03*
D81*
X35433Y422047D02*
D03*
X15748D02*
D03*
X35433Y393701D02*
D03*
X15748D02*
D03*
X35433Y185827D02*
D03*
X15748D02*
D03*
X35433Y157480D02*
D03*
X15748D02*
D03*
X35433Y307874D02*
D03*
X15748D02*
D03*
X35433Y279528D02*
D03*
X15748D02*
D03*
X35433Y93307D02*
D03*
X15748D02*
D03*
X35433Y64961D02*
D03*
X15748D02*
D03*
D82*
X166437Y311024D02*
D03*
D83*
X142680Y407972D02*
D03*
X27805Y119685D02*
D03*
X700787Y66929D02*
D03*
X732283Y66831D02*
D03*
X764764Y66634D02*
D03*
X167421Y237205D02*
D03*
D84*
X152523Y407972D02*
D03*
X710630Y66929D02*
D03*
X742126Y66831D02*
D03*
X774606Y66634D02*
D03*
D85*
X443071Y74803D02*
D03*
X265905D02*
D03*
X324961D02*
D03*
X384016D02*
D03*
D86*
X629921Y33465D02*
D03*
X157480D02*
D03*
X157524Y457874D02*
D03*
X629965D02*
D03*
D87*
X407480Y265748D02*
D03*
X387795D02*
D03*
X368110D02*
D03*
X348425D02*
D03*
X328740D02*
D03*
X309055D02*
D03*
X289370D02*
D03*
X269685D02*
D03*
Y127953D02*
D03*
X289370D02*
D03*
X309055D02*
D03*
X328740D02*
D03*
X348425D02*
D03*
X368110D02*
D03*
X387795D02*
D03*
X407480D02*
D03*
D88*
X700984Y121811D02*
D03*
X710984D02*
D03*
X720984D02*
D03*
X730984D02*
D03*
X740984D02*
D03*
X750984D02*
D03*
X760984D02*
D03*
Y90551D02*
D03*
X750984D02*
D03*
X740984D02*
D03*
X730984D02*
D03*
X720984D02*
D03*
X710984D02*
D03*
D89*
X700984D02*
D03*
D90*
X435941Y151142D02*
D03*
D91*
Y114606D02*
D03*
D92*
X287795Y361417D02*
D03*
X303543Y310236D02*
D03*
X254921Y361221D02*
D03*
X271654Y310236D02*
D03*
D93*
X652559Y132874D02*
D03*
Y221457D02*
D03*
X602362Y132874D02*
D03*
Y221457D02*
D03*
D94*
X512795Y199721D02*
D03*
X493110D02*
D03*
X576813Y422244D02*
D03*
Y402559D02*
D03*
X331862Y97441D02*
D03*
X312177D02*
D03*
X512795Y183071D02*
D03*
X493110D02*
D03*
X695866Y402559D02*
D03*
Y422244D02*
D03*
X635827Y422244D02*
D03*
Y402559D02*
D03*
X517758Y422244D02*
D03*
Y402559D02*
D03*
D95*
X448819Y127874D02*
D03*
D96*
Y137874D02*
D03*
D97*
X27805Y129528D02*
D03*
X167421Y247047D02*
D03*
D98*
X468504Y198436D02*
D03*
Y106436D02*
D03*
D99*
X757874Y462598D02*
D03*
Y29528D02*
D03*
X29528D02*
D03*
Y462598D02*
D03*
D100*
X202756Y261811D02*
D03*
X195866Y266732D02*
D03*
X176673Y178150D02*
D03*
X147126Y200787D02*
D03*
X87982Y307087D02*
D03*
X87953Y281496D02*
D03*
X149606Y92520D02*
D03*
X175984Y119095D02*
D03*
X161102Y105315D02*
D03*
X54134Y132480D02*
D03*
X89254D02*
D03*
X127953Y103346D02*
D03*
X109252Y129724D02*
D03*
X192913Y311024D02*
D03*
X65748Y233071D02*
D03*
X154332Y326378D02*
D03*
X122343Y312008D02*
D03*
X52165Y305680D02*
D03*
Y295348D02*
D03*
Y284386D02*
D03*
Y274334D02*
D03*
Y262795D02*
D03*
Y253464D02*
D03*
Y245944D02*
D03*
X65748Y224803D02*
D03*
X114478Y218504D02*
D03*
X122244Y142598D02*
D03*
X65945Y245944D02*
D03*
Y253464D02*
D03*
Y262795D02*
D03*
Y274334D02*
D03*
Y284386D02*
D03*
Y295348D02*
D03*
Y305680D02*
D03*
X61024Y317913D02*
D03*
Y328598D02*
D03*
Y337500D02*
D03*
X59646Y352362D02*
D03*
Y358268D02*
D03*
Y365158D02*
D03*
X52165Y317913D02*
D03*
X69964D02*
D03*
X70110Y327896D02*
D03*
X46260Y365158D02*
D03*
X52165Y337598D02*
D03*
X70110D02*
D03*
Y352362D02*
D03*
X69882Y358268D02*
D03*
Y365158D02*
D03*
X53150D02*
D03*
X122343Y254921D02*
D03*
X125984Y250984D02*
D03*
X130118Y247047D02*
D03*
X111377Y370079D02*
D03*
X27805Y227087D02*
D03*
X17963Y204724D02*
D03*
X27805Y216535D02*
D03*
Y204724D02*
D03*
X7874D02*
D03*
Y215551D02*
D03*
X7972Y227087D02*
D03*
X16732Y239173D02*
D03*
X7972D02*
D03*
X139449Y107184D02*
D03*
X122047Y120907D02*
D03*
X7874Y328740D02*
D03*
Y337598D02*
D03*
Y346299D02*
D03*
Y356299D02*
D03*
Y365158D02*
D03*
Y374016D02*
D03*
X16732Y249016D02*
D03*
X7874D02*
D03*
Y257874D02*
D03*
Y265748D02*
D03*
X245905Y185689D02*
D03*
X227756Y198622D02*
D03*
X107087Y119685D02*
D03*
M02*
