G04*
G04 #@! TF.GenerationSoftware,Altium Limited,Altium Designer,25.5.2 (35)*
G04*
G04 Layer_Color=1930808*
%FSLAX25Y25*%
%MOIN*%
G70*
G04*
G04 #@! TF.SameCoordinates,C0FCB968-46A0-45D3-9917-4976AB0E3D04*
G04*
G04*
G04 #@! TF.FilePolarity,Positive*
G04*
G01*
G75*
%ADD11C,0.00787*%
%ADD12C,0.00500*%
%ADD205C,0.00394*%
%ADD206R,0.11496X0.02436*%
D11*
X18622Y234232D02*
X17835D01*
X18622D01*
X129272Y148779D02*
X128484D01*
X129272D01*
X321402Y19642D02*
X320614D01*
X321402D01*
X151476Y211614D02*
X150689D01*
X151476D01*
X113887Y331398D02*
X113100D01*
X113887D01*
X59449Y424606D02*
X58661D01*
X59449D01*
X372753Y13780D02*
X371966D01*
X372753D01*
X57622Y374158D02*
X56835D01*
X57622D01*
Y346598D02*
X56835D01*
X57622D01*
X262347Y19642D02*
X261559D01*
X262347D01*
X291874D02*
X291087D01*
X291874D01*
X350929D02*
X350142D01*
X350929D01*
D12*
X27559Y234252D02*
X43307D01*
X27559Y253937D02*
X43307D01*
X27559Y234252D02*
Y253937D01*
X43307Y234252D02*
Y253937D01*
X128297Y125197D02*
X147608D01*
X128297Y140551D02*
X147608D01*
Y125197D02*
Y140551D01*
X128297Y125197D02*
Y140551D01*
X298622Y36244D02*
Y60732D01*
X325394D01*
Y36244D02*
Y60732D01*
X298622Y36244D02*
X325394D01*
X147618Y208661D02*
Y214567D01*
X133287Y208661D02*
Y214567D01*
X143681Y208661D02*
Y214567D01*
X143287Y208661D02*
Y214567D01*
X133287D02*
X147618D01*
X133287Y208661D02*
X147618D01*
X110541Y334862D02*
X116446D01*
X110541Y349193D02*
X116446D01*
X110541Y338799D02*
X116446D01*
X110541Y339193D02*
X116446D01*
Y334862D02*
Y349193D01*
X110541Y334862D02*
Y349193D01*
X56102Y428071D02*
X62008D01*
X56102Y442402D02*
X62008D01*
X56102Y432008D02*
X62008D01*
X56102Y432402D02*
X62008D01*
Y428071D02*
Y442402D01*
X56102Y428071D02*
Y442402D01*
X375824Y10827D02*
Y16732D01*
X390155Y10827D02*
Y16732D01*
X379761Y10827D02*
Y16732D01*
X380155Y10827D02*
Y16732D01*
X375824Y10827D02*
X390155D01*
X375824Y16732D02*
X390155D01*
X16138Y351772D02*
X40626D01*
X16138D02*
Y378543D01*
X40626D01*
Y351772D02*
Y378543D01*
X16138Y324213D02*
X40626D01*
X16138D02*
Y350984D01*
X40626D01*
Y324213D02*
Y350984D01*
X239567Y36244D02*
Y60732D01*
X266339D01*
Y36244D02*
Y60732D01*
X239567Y36244D02*
X266339D01*
X269094D02*
Y60732D01*
X295866D01*
Y36244D02*
Y60732D01*
X269094Y36244D02*
X295866D01*
X328150D02*
Y60732D01*
X354921D01*
Y36244D02*
Y60732D01*
X328150Y36244D02*
X354921D01*
D205*
X131988Y189193D02*
X131725Y190177D01*
X131004Y190898D01*
X130020Y191161D01*
X129035Y190898D01*
X128315Y190177D01*
X128051Y189193D01*
X128315Y188209D01*
X129035Y187488D01*
X130020Y187224D01*
X131004Y187488D01*
X131725Y188209D01*
X131988Y189193D01*
X116958Y297520D02*
X116694Y298504D01*
X115974Y299224D01*
X114990Y299488D01*
X114005Y299224D01*
X113285Y298504D01*
X113021Y297520D01*
X113285Y296535D01*
X114005Y295815D01*
X114990Y295551D01*
X115974Y295815D01*
X116694Y296535D01*
X116958Y297520D01*
X394980Y35433D02*
X394717Y36417D01*
X393996Y37138D01*
X393012Y37402D01*
X392028Y37138D01*
X391307Y36417D01*
X391043Y35433D01*
X391307Y34449D01*
X392028Y33728D01*
X393012Y33465D01*
X393996Y33728D01*
X394717Y34449D01*
X394980Y35433D01*
X182283Y278839D02*
Y284154D01*
X173622Y278839D02*
Y284154D01*
X182283D01*
X173622Y278839D02*
X182283D01*
X174016Y182677D02*
X179331D01*
X174016Y191339D02*
X179331D01*
Y182677D02*
Y191339D01*
X174016Y182677D02*
Y191339D01*
X70079Y431299D02*
X75590D01*
X70079Y442717D02*
X75590D01*
X70079Y431299D02*
Y442717D01*
X75590Y431299D02*
Y442717D01*
X126476Y185650D02*
Y205728D01*
X154035Y185650D02*
Y205728D01*
X126476Y185650D02*
X154035D01*
X126476Y205728D02*
X154035D01*
X136939Y401378D02*
Y419488D01*
X125443Y401378D02*
Y419488D01*
Y401378D02*
X136939D01*
X125443Y419488D02*
X136939D01*
X161909Y214764D02*
X172933D01*
X161909Y220276D02*
X172933D01*
Y214764D02*
Y220276D01*
X161909Y214764D02*
Y220276D01*
X15945Y120669D02*
X21457D01*
X15945Y129331D02*
X21457D01*
Y120669D02*
Y129331D01*
X15945Y120669D02*
Y129331D01*
X408071Y431299D02*
Y436811D01*
X416732Y431299D02*
Y436811D01*
X408071Y431299D02*
X416732D01*
X408071Y436811D02*
X416732D01*
X487598Y55315D02*
Y60827D01*
X478937Y55315D02*
Y60827D01*
X487598D01*
X478937Y55315D02*
X487598D01*
X128150Y369827D02*
X133661D01*
X128150Y378488D02*
X133661D01*
Y369827D02*
Y378488D01*
X128150Y369827D02*
Y378488D01*
X128150Y355138D02*
X133661D01*
X128150Y346476D02*
X133661D01*
X128150D02*
Y355138D01*
X133661Y346476D02*
Y355138D01*
X698032Y73425D02*
X703543D01*
X698032Y82087D02*
X703543D01*
Y73425D02*
Y82087D01*
X698032Y73425D02*
Y82087D01*
X729528Y73425D02*
X735039D01*
X729528Y82087D02*
X735039D01*
Y73425D02*
Y82087D01*
X729528Y73425D02*
Y82087D01*
X762008Y73228D02*
X767520D01*
X762008Y81890D02*
X767520D01*
Y73228D02*
Y81890D01*
X762008Y73228D02*
Y81890D01*
X698228Y104724D02*
X703740D01*
X698228Y113386D02*
X703740D01*
Y104724D02*
Y113386D01*
X698228Y104724D02*
Y113386D01*
X150317Y137205D02*
X155829D01*
X150317Y128543D02*
X155829D01*
X150317D02*
Y137205D01*
X155829Y128543D02*
Y137205D01*
X158191Y128543D02*
X163703D01*
X158191Y137205D02*
X163703D01*
Y128543D02*
Y137205D01*
X158191Y128543D02*
Y137205D01*
X45827Y226378D02*
Y231890D01*
X37165Y226378D02*
Y231890D01*
X45827D01*
X37165Y226378D02*
X45827D01*
X51378Y237598D02*
X56890D01*
X51378Y228937D02*
X56890D01*
X51378D02*
Y237598D01*
X56890Y228937D02*
Y237598D01*
X150276Y143000D02*
Y151662D01*
X155788Y143000D02*
Y151662D01*
X150276D02*
X155788D01*
X150276Y143000D02*
X155788D01*
X112402Y128543D02*
X117913D01*
X112402Y137205D02*
X117913D01*
Y128543D02*
Y137205D01*
X112402Y128543D02*
Y137205D01*
X158150Y151662D02*
X163662D01*
X158150Y143000D02*
X163662D01*
X158150D02*
Y151662D01*
X163662Y143000D02*
Y151662D01*
X46654Y256102D02*
Y261614D01*
X37992Y256102D02*
Y261614D01*
X46654D01*
X37992Y256102D02*
X46654D01*
X98454Y293976D02*
X118533D01*
X98454Y321535D02*
X118533D01*
Y293976D02*
Y321535D01*
X98454Y293976D02*
Y321535D01*
X396555Y18898D02*
Y38976D01*
X368996Y18898D02*
Y38976D01*
X396555D01*
X368996Y18898D02*
X396555D01*
X114576Y274429D02*
Y279744D01*
X105915Y274429D02*
Y279744D01*
X114576D01*
X105915Y274429D02*
X114576D01*
X100836Y334252D02*
X106151D01*
X100836Y342913D02*
X106151D01*
Y334252D02*
Y342913D01*
X100836Y334252D02*
Y342913D01*
X95906Y348228D02*
Y353543D01*
X104567Y348228D02*
Y353543D01*
X95906Y348228D02*
X104567D01*
X95906Y353543D02*
X104567D01*
X707972Y50787D02*
X713287D01*
X707972Y59449D02*
X713287D01*
Y50787D02*
Y59449D01*
X707972Y50787D02*
Y59449D01*
X739468Y50787D02*
X744783D01*
X739468Y59449D02*
X744783D01*
Y50787D02*
Y59449D01*
X739468Y50787D02*
Y59449D01*
X771949Y50787D02*
X777264D01*
X771949Y59449D02*
X777264D01*
Y50787D02*
Y59449D01*
X771949Y50787D02*
Y59449D01*
X409744Y34843D02*
X415059D01*
X409744Y26181D02*
X415059D01*
X409744D02*
Y34843D01*
X415059Y26181D02*
Y34843D01*
X85925Y433000D02*
X91240D01*
X85925Y441662D02*
X91240D01*
Y433000D02*
Y441662D01*
X85925Y433000D02*
Y441662D01*
X707972Y82087D02*
X713287D01*
X707972Y73425D02*
X713287D01*
X707972D02*
Y82087D01*
X713287Y73425D02*
Y82087D01*
X739468Y82087D02*
X744783D01*
X739468Y73425D02*
X744783D01*
X739468D02*
Y82087D01*
X744783Y73425D02*
Y82087D01*
X771949Y81890D02*
X777264D01*
X771949Y73228D02*
X777264D01*
X771949D02*
Y81890D01*
X777264Y73228D02*
Y81890D01*
X367269Y10924D02*
Y16239D01*
X358607Y10924D02*
Y16239D01*
X367269D01*
X358607Y10924D02*
X367269D01*
X343821D02*
Y16239D01*
X352483Y10924D02*
Y16239D01*
X343821Y10924D02*
X352483D01*
X343821Y16239D02*
X352483D01*
X87096Y264429D02*
Y269744D01*
X95757Y264429D02*
Y269744D01*
X87096Y264429D02*
X95757D01*
X87096Y269744D02*
X95757D01*
X120374Y137205D02*
X125689D01*
X120374Y128543D02*
X125689D01*
X120374D02*
Y137205D01*
X125689Y128543D02*
Y137205D01*
X182283Y288681D02*
Y293996D01*
X173622Y288681D02*
Y293996D01*
X182283D01*
X173622Y288681D02*
X182283D01*
X165650Y191339D02*
X170965D01*
X165650Y182677D02*
X170965D01*
X165650D02*
Y191339D01*
X170965Y182677D02*
Y191339D01*
X144587Y177461D02*
Y182776D01*
X135925Y177461D02*
Y182776D01*
X144587D01*
X135925Y177461D02*
X144587D01*
X168898Y198130D02*
Y203445D01*
X177559Y198130D02*
Y203445D01*
X168898Y198130D02*
X177559D01*
X168898Y203445D02*
X177559D01*
D206*
X131191Y402596D02*
D03*
M02*
