G04*
G04 #@! TF.GenerationSoftware,Altium Limited,Altium Designer,25.5.2 (35)*
G04*
G04 Layer_Color=0*
%FSLAX25Y25*%
%MOIN*%
G70*
G04*
G04 #@! TF.SameCoordinates,B7780B56-17C3-4E5C-98E9-37B0E365E038*
G04*
G04*
G04 #@! TF.FilePolarity,Positive*
G04*
G01*
G75*
%ADD205C,0.00394*%
%ADD207C,0.00197*%
D205*
X481299Y80709D02*
X485236D01*
X483268Y78740D02*
Y82677D01*
X399382Y419347D02*
Y423284D01*
X397414Y421316D02*
X401351D01*
X175984Y281496D02*
X179921D01*
X177953Y279528D02*
Y283465D01*
X176673Y185039D02*
Y188976D01*
X174705Y187008D02*
X178642D01*
X72835Y435039D02*
Y438976D01*
X70866Y437008D02*
X74803D01*
X138287Y195689D02*
X142224D01*
X140256Y193720D02*
Y197658D01*
X129223Y410433D02*
X133159D01*
X131191Y408465D02*
Y412402D01*
X167421Y215551D02*
Y219488D01*
X165453Y217520D02*
X169390D01*
X18701Y123031D02*
Y126969D01*
X16732Y125000D02*
X20669D01*
X410433Y434055D02*
X414370D01*
X412402Y432087D02*
Y436024D01*
X481299Y58071D02*
X485236D01*
X483268Y56102D02*
Y60039D01*
X130905Y372189D02*
Y376126D01*
X128937Y374158D02*
X132874D01*
X130905Y348839D02*
Y352776D01*
X128937Y350807D02*
X132874D01*
X700787Y75787D02*
Y79724D01*
X698819Y77756D02*
X702756D01*
X732283Y75787D02*
Y79724D01*
X730315Y77756D02*
X734252D01*
X764764Y75590D02*
Y79528D01*
X762795Y77559D02*
X766732D01*
X700984Y107087D02*
Y111024D01*
X699016Y109055D02*
X702953D01*
X153073Y130905D02*
Y134843D01*
X151105Y132874D02*
X155042D01*
X160947Y130905D02*
Y134843D01*
X158979Y132874D02*
X162916D01*
X39528Y229134D02*
X43465D01*
X41496Y227165D02*
Y231102D01*
X54134Y231299D02*
Y235236D01*
X52165Y233268D02*
X56102D01*
X151063Y147331D02*
X155000D01*
X153032Y145362D02*
Y149299D01*
X115157Y130905D02*
Y134843D01*
X113189Y132874D02*
X117126D01*
X160906Y145362D02*
Y149299D01*
X158937Y147331D02*
X162874D01*
X40354Y258858D02*
X44291D01*
X42323Y256890D02*
Y260827D01*
X108494Y305787D02*
Y309724D01*
X106525Y307756D02*
X110462D01*
X380807Y28937D02*
X384744D01*
X382776Y26969D02*
Y30906D01*
X108277Y277087D02*
X112214D01*
X110246Y275118D02*
Y279055D01*
X103494Y336614D02*
Y340551D01*
X101525Y338583D02*
X105462D01*
X98268Y350886D02*
X102205D01*
X100236Y348917D02*
Y352854D01*
X710630Y53150D02*
Y57087D01*
X708661Y55118D02*
X712598D01*
X742126Y53150D02*
Y57087D01*
X740158Y55118D02*
X744095D01*
X774606Y53150D02*
Y57087D01*
X772638Y55118D02*
X776575D01*
X412402Y28543D02*
Y32480D01*
X410433Y30512D02*
X414370D01*
X88583Y435363D02*
Y439300D01*
X86614Y437331D02*
X90551D01*
X710630Y75787D02*
Y79724D01*
X708661Y77756D02*
X712598D01*
X742126Y75787D02*
Y79724D01*
X740158Y77756D02*
X744095D01*
X774606Y75590D02*
Y79528D01*
X772638Y77559D02*
X776575D01*
X360969Y13581D02*
X364907D01*
X362938Y11613D02*
Y15550D01*
X346184Y13581D02*
X350121D01*
X348152Y11613D02*
Y15550D01*
X89458Y267087D02*
X93395D01*
X91427Y265118D02*
Y269055D01*
X123031Y130905D02*
Y134843D01*
X121063Y132874D02*
X125000D01*
X175984Y291339D02*
X179921D01*
X177953Y289370D02*
Y293307D01*
X168307Y185039D02*
Y188976D01*
X166339Y187008D02*
X170276D01*
X138287Y180118D02*
X142224D01*
X140256Y178150D02*
Y182087D01*
X171260Y200787D02*
X175197D01*
X173228Y198819D02*
Y202756D01*
D207*
X489961Y76968D02*
Y84449D01*
X476575Y76968D02*
Y84449D01*
X489961D01*
X476575Y76968D02*
X489961D01*
X395642Y428009D02*
X403123D01*
X395642Y414623D02*
X403123D01*
X395642D02*
Y428009D01*
X403123Y414623D02*
Y428009D01*
X184646Y277953D02*
Y285039D01*
X171260Y277953D02*
Y285039D01*
X184646D01*
X171260Y277953D02*
X184646D01*
X20827Y233268D02*
X50039D01*
X20827Y254921D02*
X50039D01*
X20827Y233268D02*
Y254921D01*
X50039Y233268D02*
Y254921D01*
X127313Y118287D02*
X148592D01*
X127313Y147461D02*
X148592D01*
Y118287D02*
Y147461D01*
X127313Y118287D02*
Y147461D01*
X172933Y180315D02*
X180413D01*
X172933Y193701D02*
X180413D01*
Y180315D02*
Y193701D01*
X172933Y180315D02*
Y193701D01*
X66142Y430315D02*
X79528D01*
X66142Y443701D02*
X79528D01*
X66142Y430315D02*
Y443701D01*
X79528Y430315D02*
Y443701D01*
X117224Y184665D02*
Y206713D01*
X163287Y184665D02*
Y206713D01*
X117224Y184665D02*
X163287D01*
X117224Y206713D02*
X163287D01*
X297638Y21260D02*
Y67323D01*
Y21260D02*
X326378D01*
Y67323D01*
X297638D02*
X326378D01*
X138081Y396433D02*
Y424433D01*
X124301Y396433D02*
Y424433D01*
Y396433D02*
X138081D01*
X124301Y424433D02*
X138081D01*
X160728Y210827D02*
X174114D01*
X160728Y224213D02*
X174114D01*
Y210827D02*
Y224213D01*
X160728Y210827D02*
Y224213D01*
X150295Y207382D02*
Y215846D01*
X130610D02*
X150295D01*
X130610Y207382D02*
Y215846D01*
Y207382D02*
X150295D01*
X14961Y118307D02*
X22441D01*
X14961Y131693D02*
X22441D01*
Y118307D02*
Y131693D01*
X14961Y118307D02*
Y131693D01*
X405709Y430315D02*
Y437795D01*
X419095Y430315D02*
Y437795D01*
X405709Y430315D02*
X419095D01*
X405709Y437795D02*
X419095D01*
X489961Y54331D02*
Y61811D01*
X476575Y54331D02*
Y61811D01*
X489961D01*
X476575Y54331D02*
X489961D01*
X127165Y367465D02*
X134646D01*
X127165Y380850D02*
X134646D01*
Y367465D02*
Y380850D01*
X127165Y367465D02*
Y380850D01*
X127165Y357500D02*
X134646D01*
X127165Y344114D02*
X134646D01*
X127165D02*
Y357500D01*
X134646Y344114D02*
Y357500D01*
X697047Y71063D02*
X704528D01*
X697047Y84449D02*
X704528D01*
Y71063D02*
Y84449D01*
X697047Y71063D02*
Y84449D01*
X728543Y71063D02*
X736024D01*
X728543Y84449D02*
X736024D01*
Y71063D02*
Y84449D01*
X728543Y71063D02*
Y84449D01*
X761024Y70866D02*
X768504D01*
X761024Y84252D02*
X768504D01*
Y70866D02*
Y84252D01*
X761024Y70866D02*
Y84252D01*
X697244Y102362D02*
X704724D01*
X697244Y115748D02*
X704724D01*
Y102362D02*
Y115748D01*
X697244Y102362D02*
Y115748D01*
X149333Y139567D02*
X156813D01*
X149333Y126181D02*
X156813D01*
X149333D02*
Y139567D01*
X156813Y126181D02*
Y139567D01*
X157207Y126181D02*
X164687D01*
X157207Y139567D02*
X164687D01*
Y126181D02*
Y139567D01*
X157207Y126181D02*
Y139567D01*
X48189Y225394D02*
Y232874D01*
X34803Y225394D02*
Y232874D01*
X48189D01*
X34803Y225394D02*
X48189D01*
X50394Y239961D02*
X57874D01*
X50394Y226575D02*
X57874D01*
X50394D02*
Y239961D01*
X57874Y226575D02*
Y239961D01*
X149291Y140638D02*
Y154024D01*
X156772Y140638D02*
Y154024D01*
X149291D02*
X156772D01*
X149291Y140638D02*
X156772D01*
X111417Y126181D02*
X118898D01*
X111417Y139567D02*
X118898D01*
Y126181D02*
Y139567D01*
X111417Y126181D02*
Y139567D01*
X157165Y154024D02*
X164646D01*
X157165Y140638D02*
X164646D01*
X157165D02*
Y154024D01*
X164646Y140638D02*
Y154024D01*
X49016Y255118D02*
Y262598D01*
X35630Y255118D02*
Y262598D01*
X49016D01*
X35630Y255118D02*
X49016D01*
X97470Y284724D02*
X119517D01*
X97470Y330787D02*
X119517D01*
Y284724D02*
Y330787D01*
X97470Y284724D02*
Y330787D01*
X109261Y332185D02*
X117726D01*
Y351870D01*
X109261D02*
X117726D01*
X109261Y332185D02*
Y351870D01*
X54823Y425394D02*
X63287D01*
Y445079D01*
X54823D02*
X63287D01*
X54823Y425394D02*
Y445079D01*
X405807Y17913D02*
Y39961D01*
X359744Y17913D02*
Y39961D01*
X405807D01*
X359744Y17913D02*
X405807D01*
X373147Y9547D02*
Y18012D01*
Y9547D02*
X392832D01*
Y18012D01*
X373147D02*
X392832D01*
X9547Y350787D02*
X55610D01*
Y379528D01*
X9547D02*
X55610D01*
X9547Y350787D02*
Y379528D01*
Y323228D02*
X55610D01*
Y351969D01*
X9547D02*
X55610D01*
X9547Y323228D02*
Y351969D01*
X238583Y21260D02*
Y67323D01*
Y21260D02*
X267323D01*
Y67323D01*
X238583D02*
X267323D01*
X268110Y21260D02*
Y67323D01*
Y21260D02*
X296850D01*
Y67323D01*
X268110D02*
X296850D01*
X327165Y21260D02*
Y67323D01*
Y21260D02*
X355906D01*
Y67323D01*
X327165D02*
X355906D01*
X116938Y273346D02*
Y280827D01*
X103553Y273346D02*
Y280827D01*
X116938D01*
X103553Y273346D02*
X116938D01*
X99753Y331890D02*
X107234D01*
X99753Y345276D02*
X107234D01*
Y331890D02*
Y345276D01*
X99753Y331890D02*
Y345276D01*
X93543Y347146D02*
Y354626D01*
X106929Y347146D02*
Y354626D01*
X93543Y347146D02*
X106929D01*
X93543Y354626D02*
X106929D01*
X707087Y48425D02*
X714173D01*
X707087Y61811D02*
X714173D01*
Y48425D02*
Y61811D01*
X707087Y48425D02*
Y61811D01*
X738583Y48425D02*
X745669D01*
X738583Y61811D02*
X745669D01*
Y48425D02*
Y61811D01*
X738583Y48425D02*
Y61811D01*
X771063Y48425D02*
X778150D01*
X771063Y61811D02*
X778150D01*
Y48425D02*
Y61811D01*
X771063Y48425D02*
Y61811D01*
X408661Y37205D02*
X416142D01*
X408661Y23819D02*
X416142D01*
X408661D02*
Y37205D01*
X416142Y23819D02*
Y37205D01*
X84842Y430638D02*
X92323D01*
X84842Y444024D02*
X92323D01*
Y430638D02*
Y444024D01*
X84842Y430638D02*
Y444024D01*
X707087Y84449D02*
X714173D01*
X707087Y71063D02*
X714173D01*
X707087D02*
Y84449D01*
X714173Y71063D02*
Y84449D01*
X738583Y84449D02*
X745669D01*
X738583Y71063D02*
X745669D01*
X738583D02*
Y84449D01*
X745669Y71063D02*
Y84449D01*
X771063Y84252D02*
X778150D01*
X771063Y70866D02*
X778150D01*
X771063D02*
Y84252D01*
X778150Y70866D02*
Y84252D01*
X369631Y9841D02*
Y17321D01*
X356245Y9841D02*
Y17321D01*
X369631D01*
X356245Y9841D02*
X369631D01*
X341459D02*
Y17321D01*
X354845Y9841D02*
Y17321D01*
X341459Y9841D02*
X354845D01*
X341459Y17321D02*
X354845D01*
X84734Y263347D02*
Y270827D01*
X98120Y263347D02*
Y270827D01*
X84734Y263347D02*
X98120D01*
X84734Y270827D02*
X98120D01*
X119488Y139567D02*
X126575D01*
X119488Y126181D02*
X126575D01*
X119488D02*
Y139567D01*
X126575Y126181D02*
Y139567D01*
X184646Y287795D02*
Y294882D01*
X171260Y287795D02*
Y294882D01*
X184646D01*
X171260Y287795D02*
X184646D01*
X164567Y193701D02*
X172047D01*
X164567Y180315D02*
X172047D01*
X164567D02*
Y193701D01*
X172047Y180315D02*
Y193701D01*
X146949Y176378D02*
Y183858D01*
X133563Y176378D02*
Y183858D01*
X146949D01*
X133563Y176378D02*
X146949D01*
X166535Y197047D02*
Y204528D01*
X179921Y197047D02*
Y204528D01*
X166535Y197047D02*
X179921D01*
X166535Y204528D02*
X179921D01*
M02*
