G04*
G04 #@! TF.GenerationSoftware,Altium Limited,Altium Designer,25.5.2 (35)*
G04*
G04 Layer_Color=255*
%FSLAX25Y25*%
%MOIN*%
G70*
G04*
G04 #@! TF.SameCoordinates,B7780B56-17C3-4E5C-98E9-37B0E365E038*
G04*
G04*
G04 #@! TF.FilePolarity,Positive*
G04*
G01*
G75*
%ADD44C,0.05906*%
%ADD47C,0.07087*%
%ADD100C,0.03150*%
%ADD102R,0.05512X0.05118*%
%ADD103R,0.05315X0.04528*%
%ADD112O,0.04213X0.08425*%
%ADD113C,0.05937*%
%ADD114C,0.05512*%
%ADD115C,0.04528*%
G04:AMPARAMS|DCode=116|XSize=65mil|YSize=65mil|CornerRadius=0mil|HoleSize=0mil|Usage=FLASHONLY|Rotation=180.000|XOffset=0mil|YOffset=0mil|HoleType=Round|Shape=Octagon|*
%AMOCTAGOND116*
4,1,8,-0.03250,0.01625,-0.03250,-0.01625,-0.01625,-0.03250,0.01625,-0.03250,0.03250,-0.01625,0.03250,0.01625,0.01625,0.03250,-0.01625,0.03250,-0.03250,0.01625,0.0*
%
%ADD116OCTAGOND116*%

%ADD117C,0.06693*%
%ADD118R,0.07087X0.07087*%
%ADD119C,0.06496*%
%ADD120C,0.11811*%
G04:AMPARAMS|DCode=121|XSize=80mil|YSize=80mil|CornerRadius=0mil|HoleSize=0mil|Usage=FLASHONLY|Rotation=0.000|XOffset=0mil|YOffset=0mil|HoleType=Round|Shape=Octagon|*
%AMOCTAGOND121*
4,1,8,0.04000,-0.02000,0.04000,0.02000,0.02000,0.04000,-0.02000,0.04000,-0.04000,0.02000,-0.04000,-0.02000,-0.02000,-0.04000,0.02000,-0.04000,0.04000,-0.02000,0.0*
%
%ADD121OCTAGOND121*%

%ADD122O,0.35433X0.17717*%
%ADD123R,0.05906X0.05906*%
%ADD124R,0.06693X0.06693*%
%ADD125R,0.10335X0.10335*%
%ADD126C,0.10335*%
%ADD127R,0.04795X0.04795*%
%ADD128C,0.04795*%
%ADD129O,0.04331X0.08661*%
%ADD130C,0.07323*%
%ADD131R,0.07323X0.07323*%
G04:AMPARAMS|DCode=132|XSize=60mil|YSize=60mil|CornerRadius=0mil|HoleSize=0mil|Usage=FLASHONLY|Rotation=90.000|XOffset=0mil|YOffset=0mil|HoleType=Round|Shape=Octagon|*
%AMOCTAGOND132*
4,1,8,0.01500,0.03000,-0.01500,0.03000,-0.03000,0.01500,-0.03000,-0.01500,-0.01500,-0.03000,0.01500,-0.03000,0.03000,-0.01500,0.03000,0.01500,0.01500,0.03000,0.0*
%
%ADD132OCTAGOND132*%

%ADD133C,0.12400*%
G04:AMPARAMS|DCode=134|XSize=124mil|YSize=124mil|CornerRadius=0mil|HoleSize=0mil|Usage=FLASHONLY|Rotation=270.000|XOffset=0mil|YOffset=0mil|HoleType=Round|Shape=Octagon|*
%AMOCTAGOND134*
4,1,8,-0.03100,-0.06200,0.03100,-0.06200,0.06200,-0.03100,0.06200,0.03100,0.03100,0.06200,-0.03100,0.06200,-0.06200,0.03100,-0.06200,-0.03100,-0.03100,-0.06200,0.0*
%
%ADD134OCTAGOND134*%

G04:AMPARAMS|DCode=135|XSize=100mil|YSize=100mil|CornerRadius=0mil|HoleSize=0mil|Usage=FLASHONLY|Rotation=270.000|XOffset=0mil|YOffset=0mil|HoleType=Round|Shape=Octagon|*
%AMOCTAGOND135*
4,1,8,-0.02500,-0.05000,0.02500,-0.05000,0.05000,-0.02500,0.05000,0.02500,0.02500,0.05000,-0.02500,0.05000,-0.05000,0.02500,-0.05000,-0.02500,-0.02500,-0.05000,0.0*
%
%ADD135OCTAGOND135*%

%ADD136C,0.10000*%
%ADD137C,0.06500*%
G04:AMPARAMS|DCode=138|XSize=65mil|YSize=65mil|CornerRadius=0mil|HoleSize=0mil|Usage=FLASHONLY|Rotation=90.000|XOffset=0mil|YOffset=0mil|HoleType=Round|Shape=Octagon|*
%AMOCTAGOND138*
4,1,8,0.01625,0.03250,-0.01625,0.03250,-0.03250,0.01625,-0.03250,-0.01625,-0.01625,-0.03250,0.01625,-0.03250,0.03250,-0.01625,0.03250,0.01625,0.01625,0.03250,0.0*
%
%ADD138OCTAGOND138*%

%ADD139O,0.11000X0.08500*%
G04:AMPARAMS|DCode=140|XSize=110mil|YSize=85mil|CornerRadius=0mil|HoleSize=0mil|Usage=FLASHONLY|Rotation=0.000|XOffset=0mil|YOffset=0mil|HoleType=Round|Shape=Octagon|*
%AMOCTAGOND140*
4,1,8,0.05500,-0.02125,0.05500,0.02125,0.03375,0.04250,-0.03375,0.04250,-0.05500,0.02125,-0.05500,-0.02125,-0.03375,-0.04250,0.03375,-0.04250,0.05500,-0.02125,0.0*
%
%ADD140OCTAGOND140*%

G04:AMPARAMS|DCode=141|XSize=177.01mil|YSize=118.11mil|CornerRadius=0mil|HoleSize=0mil|Usage=FLASHONLY|Rotation=180.000|XOffset=0mil|YOffset=0mil|HoleType=Round|Shape=Octagon|*
%AMOCTAGOND141*
4,1,8,-0.08850,0.02953,-0.08850,-0.02953,-0.05898,-0.05906,0.05898,-0.05906,0.08850,-0.02953,0.08850,0.02953,0.05898,0.05906,-0.05898,0.05906,-0.08850,0.02953,0.0*
%
%ADD141OCTAGOND141*%

%ADD142O,0.17701X0.11811*%
G04:AMPARAMS|DCode=143|XSize=60mil|YSize=70mil|CornerRadius=0mil|HoleSize=0mil|Usage=FLASHONLY|Rotation=180.000|XOffset=0mil|YOffset=0mil|HoleType=Round|Shape=Octagon|*
%AMOCTAGOND143*
4,1,8,0.01500,-0.03500,-0.01500,-0.03500,-0.03000,-0.02000,-0.03000,0.02000,-0.01500,0.03500,0.01500,0.03500,0.03000,0.02000,0.03000,-0.02000,0.01500,-0.03500,0.0*
%
%ADD143OCTAGOND143*%

%ADD144O,0.06000X0.07000*%
G04:AMPARAMS|DCode=145|XSize=85mil|YSize=85mil|CornerRadius=0mil|HoleSize=0mil|Usage=FLASHONLY|Rotation=270.000|XOffset=0mil|YOffset=0mil|HoleType=Round|Shape=Octagon|*
%AMOCTAGOND145*
4,1,8,-0.02125,-0.04250,0.02125,-0.04250,0.04250,-0.02125,0.04250,0.02125,0.02125,0.04250,-0.02125,0.04250,-0.04250,0.02125,-0.04250,-0.02125,-0.02125,-0.04250,0.0*
%
%ADD145OCTAGOND145*%

G04:AMPARAMS|DCode=146|XSize=80mil|YSize=60mil|CornerRadius=0mil|HoleSize=0mil|Usage=FLASHONLY|Rotation=90.000|XOffset=0mil|YOffset=0mil|HoleType=Round|Shape=Octagon|*
%AMOCTAGOND146*
4,1,8,0.01500,0.04000,-0.01500,0.04000,-0.03000,0.02500,-0.03000,-0.02500,-0.01500,-0.04000,0.01500,-0.04000,0.03000,-0.02500,0.03000,0.02500,0.01500,0.04000,0.0*
%
%ADD146OCTAGOND146*%

%ADD147R,0.05937X0.05937*%
G04:AMPARAMS|DCode=148|XSize=137.8mil|YSize=216.54mil|CornerRadius=34.45mil|HoleSize=0mil|Usage=FLASHONLY|Rotation=180.000|XOffset=0mil|YOffset=0mil|HoleType=Round|Shape=RoundedRectangle|*
%AMROUNDEDRECTD148*
21,1,0.13780,0.14764,0,0,180.0*
21,1,0.06890,0.21654,0,0,180.0*
1,1,0.06890,-0.03445,0.07382*
1,1,0.06890,0.03445,0.07382*
1,1,0.06890,0.03445,-0.07382*
1,1,0.06890,-0.03445,-0.07382*
%
%ADD148ROUNDEDRECTD148*%
%ADD149C,0.05200*%
%ADD150C,0.15748*%
%ADD151R,0.05937X0.05937*%
%ADD152C,0.06201*%
%ADD153R,0.06201X0.06201*%
%ADD154R,0.05906X0.05906*%
%ADD155C,0.19685*%
%ADD156C,0.13780*%
%ADD157C,0.04606*%
%ADD158R,0.04606X0.04606*%
%ADD159R,0.05150X0.05150*%
%ADD160C,0.05150*%
%ADD161R,0.06496X0.06496*%
G04:AMPARAMS|DCode=162|XSize=60mil|YSize=70mil|CornerRadius=0mil|HoleSize=0mil|Usage=FLASHONLY|Rotation=90.000|XOffset=0mil|YOffset=0mil|HoleType=Round|Shape=Octagon|*
%AMOCTAGOND162*
4,1,8,-0.03500,-0.01500,-0.03500,0.01500,-0.02000,0.03000,0.02000,0.03000,0.03500,0.01500,0.03500,-0.01500,0.02000,-0.03000,-0.02000,-0.03000,-0.03500,-0.01500,0.0*
%
%ADD162OCTAGOND162*%

%ADD163O,0.07000X0.06000*%
%ADD164R,0.06201X0.06201*%
G04:AMPARAMS|DCode=165|XSize=80mil|YSize=80mil|CornerRadius=0mil|HoleSize=0mil|Usage=FLASHONLY|Rotation=270.000|XOffset=0mil|YOffset=0mil|HoleType=Round|Shape=Octagon|*
%AMOCTAGOND165*
4,1,8,-0.02000,-0.04000,0.02000,-0.04000,0.04000,-0.02000,0.04000,0.02000,0.02000,0.04000,-0.02000,0.04000,-0.04000,0.02000,-0.04000,-0.02000,-0.02000,-0.04000,0.0*
%
%ADD165OCTAGOND165*%

%ADD166C,0.27559*%
%ADD168R,0.05118X0.05512*%
%ADD169R,0.03543X0.04724*%
G04:AMPARAMS|DCode=170|XSize=77.56mil|YSize=23.62mil|CornerRadius=2.95mil|HoleSize=0mil|Usage=FLASHONLY|Rotation=0.000|XOffset=0mil|YOffset=0mil|HoleType=Round|Shape=RoundedRectangle|*
%AMROUNDEDRECTD170*
21,1,0.07756,0.01772,0,0,0.0*
21,1,0.07165,0.02362,0,0,0.0*
1,1,0.00591,0.03583,-0.00886*
1,1,0.00591,-0.03583,-0.00886*
1,1,0.00591,-0.03583,0.00886*
1,1,0.00591,0.03583,0.00886*
%
%ADD170ROUNDEDRECTD170*%
G04:AMPARAMS|DCode=171|XSize=77.56mil|YSize=23.62mil|CornerRadius=2.95mil|HoleSize=0mil|Usage=FLASHONLY|Rotation=270.000|XOffset=0mil|YOffset=0mil|HoleType=Round|Shape=RoundedRectangle|*
%AMROUNDEDRECTD171*
21,1,0.07756,0.01772,0,0,270.0*
21,1,0.07165,0.02362,0,0,270.0*
1,1,0.00591,-0.00886,-0.03583*
1,1,0.00591,-0.00886,0.03583*
1,1,0.00591,0.00886,0.03583*
1,1,0.00591,0.00886,-0.03583*
%
%ADD171ROUNDEDRECTD171*%
%ADD172R,0.03543X0.03150*%
%ADD173O,0.08268X0.05512*%
%ADD174R,0.22323X0.24882*%
%ADD175R,0.03819X0.11890*%
%ADD176R,0.06693X0.09843*%
%ADD177R,0.03150X0.03543*%
%ADD178R,0.02362X0.06496*%
%ADD179O,0.05512X0.08268*%
%ADD180R,0.06496X0.02362*%
%ADD181R,0.24882X0.22323*%
%ADD182R,0.11890X0.03819*%
%ADD183R,0.04528X0.05315*%
%ADD184R,0.04724X0.03543*%
D44*
X131260Y163878D02*
D03*
X138779D02*
D03*
X433071Y74803D02*
D03*
X423071D02*
D03*
X255906D02*
D03*
X245905D02*
D03*
X314961D02*
D03*
X304961D02*
D03*
X374016D02*
D03*
X364016D02*
D03*
D47*
X211614Y175394D02*
D03*
X542323Y107638D02*
D03*
D100*
X107283Y84626D02*
D03*
X104134Y82185D02*
D03*
Y78051D02*
D03*
X106693Y74508D02*
D03*
X111260Y73327D02*
D03*
X116496D02*
D03*
X121732D02*
D03*
X126969D02*
D03*
X130905Y74508D02*
D03*
X134055Y78051D02*
D03*
Y82185D02*
D03*
X130905Y84626D02*
D03*
X111260Y85925D02*
D03*
X116496D02*
D03*
X121732D02*
D03*
X126969D02*
D03*
X146653Y84626D02*
D03*
X143504Y82185D02*
D03*
Y78051D02*
D03*
X146063Y74508D02*
D03*
X150630Y73327D02*
D03*
X155866D02*
D03*
X161102D02*
D03*
X166339D02*
D03*
X170276Y74508D02*
D03*
X173425Y78051D02*
D03*
Y82185D02*
D03*
X170276Y84626D02*
D03*
X150630Y85925D02*
D03*
X155866D02*
D03*
X161102D02*
D03*
X166339D02*
D03*
D102*
X399382Y424465D02*
D03*
Y418166D02*
D03*
X18701Y121850D02*
D03*
Y128150D02*
D03*
X130905Y371008D02*
D03*
Y377307D02*
D03*
Y353957D02*
D03*
Y347657D02*
D03*
X700787Y74606D02*
D03*
Y80905D02*
D03*
X732283Y74606D02*
D03*
Y80905D02*
D03*
X764764Y74410D02*
D03*
Y80709D02*
D03*
X700984Y105905D02*
D03*
Y112205D02*
D03*
X153073Y136024D02*
D03*
Y129724D02*
D03*
X160947Y129724D02*
D03*
Y136024D02*
D03*
X54134Y236417D02*
D03*
Y230118D02*
D03*
X153032Y150480D02*
D03*
Y144181D02*
D03*
X115157Y129724D02*
D03*
Y136024D02*
D03*
X160906Y150480D02*
D03*
Y144181D02*
D03*
D103*
X176673Y183563D02*
D03*
Y190453D02*
D03*
X103494Y335138D02*
D03*
Y342028D02*
D03*
X412402Y33957D02*
D03*
Y27067D02*
D03*
X88583Y433886D02*
D03*
Y440776D02*
D03*
X168307Y190453D02*
D03*
Y183563D02*
D03*
D112*
X483268Y69784D02*
D03*
X488268D02*
D03*
X478268D02*
D03*
X407402Y422342D02*
D03*
X412402D02*
D03*
X417402D02*
D03*
D113*
X138779Y297087D02*
D03*
X78780Y237087D02*
D03*
Y247087D02*
D03*
Y257087D02*
D03*
Y267087D02*
D03*
Y277087D02*
D03*
Y287087D02*
D03*
Y297087D02*
D03*
Y307087D02*
D03*
Y317087D02*
D03*
Y327087D02*
D03*
Y337087D02*
D03*
Y347087D02*
D03*
Y357087D02*
D03*
Y367087D02*
D03*
Y377087D02*
D03*
X138779D02*
D03*
Y367087D02*
D03*
Y357087D02*
D03*
Y347087D02*
D03*
Y337087D02*
D03*
Y327087D02*
D03*
Y317087D02*
D03*
Y307087D02*
D03*
Y287087D02*
D03*
Y277087D02*
D03*
Y267087D02*
D03*
Y257087D02*
D03*
Y247087D02*
D03*
X166437Y301181D02*
D03*
Y291339D02*
D03*
Y281496D02*
D03*
D114*
X652559Y221457D02*
D03*
Y132874D02*
D03*
X602362D02*
D03*
Y221457D02*
D03*
D115*
X517758Y422244D02*
D03*
X635827Y402559D02*
D03*
X512795Y199721D02*
D03*
X493110D02*
D03*
X576813Y422244D02*
D03*
Y402559D02*
D03*
X331862Y97441D02*
D03*
X312177D02*
D03*
X512795Y183071D02*
D03*
X493110D02*
D03*
X695866Y402559D02*
D03*
Y422244D02*
D03*
X635827Y422244D02*
D03*
X517758Y402559D02*
D03*
D116*
X634293Y383268D02*
D03*
X406000Y97441D02*
D03*
X344000D02*
D03*
X517167Y383268D02*
D03*
X477167D02*
D03*
X276795Y409449D02*
D03*
X352055D02*
D03*
X734921Y391732D02*
D03*
X774921D02*
D03*
X647953Y75197D02*
D03*
X607953D02*
D03*
X653348Y394094D02*
D03*
X693348D02*
D03*
X594293D02*
D03*
X634293D02*
D03*
X693348Y383268D02*
D03*
X653348D02*
D03*
X594293D02*
D03*
X536222Y394094D02*
D03*
X576222D02*
D03*
X477167D02*
D03*
X517167D02*
D03*
X576222Y383268D02*
D03*
X536222D02*
D03*
D117*
X616299Y415354D02*
D03*
X488189D02*
D03*
X498189D02*
D03*
X675354D02*
D03*
X665354D02*
D03*
X606299D02*
D03*
X557244D02*
D03*
X547244D02*
D03*
D118*
X542323Y147638D02*
D03*
X211614Y185394D02*
D03*
Y195394D02*
D03*
Y205394D02*
D03*
Y215394D02*
D03*
Y225394D02*
D03*
Y235394D02*
D03*
Y245394D02*
D03*
X542323Y117638D02*
D03*
Y127638D02*
D03*
Y137638D02*
D03*
Y157638D02*
D03*
Y167638D02*
D03*
Y177638D02*
D03*
Y187638D02*
D03*
Y197638D02*
D03*
Y207638D02*
D03*
Y217638D02*
D03*
Y227638D02*
D03*
Y237638D02*
D03*
Y247638D02*
D03*
Y257638D02*
D03*
Y267638D02*
D03*
D119*
X685433Y154528D02*
D03*
Y193898D02*
D03*
X703150D02*
D03*
Y154528D02*
D03*
X287795Y310236D02*
D03*
X303543Y361417D02*
D03*
X254921Y310039D02*
D03*
X271654Y361417D02*
D03*
D120*
X675197Y237008D02*
D03*
X560039Y319882D02*
D03*
X520669D02*
D03*
X675197Y337795D02*
D03*
X560039Y332913D02*
D03*
X520669D02*
D03*
D121*
X663126Y109252D02*
D03*
X571126D02*
D03*
D122*
X119095Y79626D02*
D03*
X158465D02*
D03*
D123*
X146299Y163878D02*
D03*
D124*
X478189Y415354D02*
D03*
X655354D02*
D03*
X596299D02*
D03*
X537244D02*
D03*
D125*
X765158Y410512D02*
D03*
X766732Y159606D02*
D03*
D126*
X765158Y426102D02*
D03*
X766732Y175197D02*
D03*
Y190787D02*
D03*
D127*
X589921Y83071D02*
D03*
D128*
X579921D02*
D03*
X569921D02*
D03*
D129*
X445945Y169291D02*
D03*
X440945D02*
D03*
X435945D02*
D03*
D130*
X325079Y415354D02*
D03*
X315079D02*
D03*
X227362D02*
D03*
X237362D02*
D03*
D131*
X305079D02*
D03*
X217362D02*
D03*
D132*
X727362Y205197D02*
D03*
Y145197D02*
D03*
D133*
X476378Y258110D02*
D03*
Y302913D02*
D03*
D134*
Y228110D02*
D03*
Y332913D02*
D03*
D135*
X76772Y95315D02*
D03*
X215551Y349252D02*
D03*
D136*
X76772Y115315D02*
D03*
X215551Y369252D02*
D03*
D137*
X166535Y334339D02*
D03*
X262795Y409449D02*
D03*
X366055D02*
D03*
X166535Y368197D02*
D03*
D138*
Y348339D02*
D03*
Y382197D02*
D03*
X488189Y115827D02*
D03*
Y155827D02*
D03*
X504921D02*
D03*
Y115827D02*
D03*
D139*
X476576Y371463D02*
D03*
X652757D02*
D03*
X593702D02*
D03*
X535632D02*
D03*
D140*
X517758D02*
D03*
X693939D02*
D03*
X634883D02*
D03*
X576813D02*
D03*
D141*
X418890Y303050D02*
D03*
X344890Y374116D02*
D03*
X418890Y350294D02*
D03*
X344890Y326872D02*
D03*
D142*
Y303150D02*
D03*
X418890Y374016D02*
D03*
X344890Y350394D02*
D03*
X418890Y326772D02*
D03*
D143*
X632953Y87598D02*
D03*
X496142Y106299D02*
D03*
X234370Y396457D02*
D03*
X220472D02*
D03*
X314882Y396654D02*
D03*
D144*
X622953Y87598D02*
D03*
X486142Y106299D02*
D03*
X244370Y396457D02*
D03*
X210472D02*
D03*
X324882Y396654D02*
D03*
D145*
X72835Y451024D02*
D03*
Y421024D02*
D03*
D146*
X107441Y407972D02*
D03*
X97441D02*
D03*
D147*
X138779Y237087D02*
D03*
D148*
X78740Y183071D02*
D03*
Y150394D02*
D03*
X59055Y183071D02*
D03*
Y150394D02*
D03*
D149*
X734252Y413307D02*
D03*
Y423307D02*
D03*
D150*
X35433Y422047D02*
D03*
X15748D02*
D03*
X35433Y393701D02*
D03*
X15748D02*
D03*
X35433Y185827D02*
D03*
X15748D02*
D03*
X35433Y157480D02*
D03*
X15748D02*
D03*
X35433Y307874D02*
D03*
X15748D02*
D03*
X35433Y279528D02*
D03*
X15748D02*
D03*
X35433Y93307D02*
D03*
X15748D02*
D03*
X35433Y64961D02*
D03*
X15748D02*
D03*
D151*
X166437Y311024D02*
D03*
D152*
X142680Y407972D02*
D03*
X27805Y119685D02*
D03*
X700787Y66929D02*
D03*
X732283Y66831D02*
D03*
X764764Y66634D02*
D03*
X167421Y237205D02*
D03*
D153*
X152523Y407972D02*
D03*
X710630Y66929D02*
D03*
X742126Y66831D02*
D03*
X774606Y66634D02*
D03*
D154*
X443071Y74803D02*
D03*
X265905D02*
D03*
X324961D02*
D03*
X384016D02*
D03*
D155*
X629921Y33465D02*
D03*
X157480D02*
D03*
X157524Y457874D02*
D03*
X629965D02*
D03*
D156*
X407480Y265748D02*
D03*
X387795D02*
D03*
X368110D02*
D03*
X348425D02*
D03*
X328740D02*
D03*
X309055D02*
D03*
X289370D02*
D03*
X269685D02*
D03*
Y127953D02*
D03*
X289370D02*
D03*
X309055D02*
D03*
X328740D02*
D03*
X348425D02*
D03*
X368110D02*
D03*
X387795D02*
D03*
X407480D02*
D03*
D157*
X700984Y121811D02*
D03*
X710984D02*
D03*
X720984D02*
D03*
X730984D02*
D03*
X740984D02*
D03*
X750984D02*
D03*
X760984D02*
D03*
Y90551D02*
D03*
X750984D02*
D03*
X740984D02*
D03*
X730984D02*
D03*
X720984D02*
D03*
X710984D02*
D03*
D158*
X700984D02*
D03*
D159*
X435941Y151142D02*
D03*
D160*
Y114606D02*
D03*
D161*
X287795Y361417D02*
D03*
X303543Y310236D02*
D03*
X254921Y361221D02*
D03*
X271654Y310236D02*
D03*
D162*
X448819Y127874D02*
D03*
D163*
Y137874D02*
D03*
D164*
X27805Y129528D02*
D03*
X167421Y247047D02*
D03*
D165*
X468504Y198436D02*
D03*
Y106436D02*
D03*
D166*
X757874Y462598D02*
D03*
Y29528D02*
D03*
X29528D02*
D03*
Y462598D02*
D03*
D168*
X486417Y80709D02*
D03*
X480118D02*
D03*
X409252Y434055D02*
D03*
X415551D02*
D03*
X486417Y58071D02*
D03*
X480118D02*
D03*
X44646Y229134D02*
D03*
X38346D02*
D03*
X45472Y258858D02*
D03*
X39173D02*
D03*
D169*
X182087Y281496D02*
D03*
X173819D02*
D03*
X182087Y291339D02*
D03*
X173819D02*
D03*
D170*
X25689Y236595D02*
D03*
Y241595D02*
D03*
Y246595D02*
D03*
Y251594D02*
D03*
X45177D02*
D03*
Y246595D02*
D03*
Y241595D02*
D03*
Y236595D02*
D03*
D171*
X130453Y123150D02*
D03*
X135453D02*
D03*
X140453D02*
D03*
X145453D02*
D03*
Y142598D02*
D03*
X140453D02*
D03*
X135453D02*
D03*
X130453D02*
D03*
D172*
X68898Y437008D02*
D03*
X76772Y433268D02*
D03*
Y440748D02*
D03*
D173*
X122343Y190689D02*
D03*
Y200689D02*
D03*
X158169Y190689D02*
D03*
Y200689D02*
D03*
X400689Y33937D02*
D03*
Y23937D02*
D03*
X364862Y33937D02*
D03*
Y23937D02*
D03*
D174*
X312008Y53898D02*
D03*
X252953D02*
D03*
X282480D02*
D03*
X341535D02*
D03*
D175*
X303008Y28189D02*
D03*
X321008D02*
D03*
X243953D02*
D03*
X261953D02*
D03*
X273480D02*
D03*
X291480D02*
D03*
X332535D02*
D03*
X350535D02*
D03*
D176*
X131191Y402559D02*
D03*
Y418307D02*
D03*
D177*
X171161Y213583D02*
D03*
X163681D02*
D03*
X167421Y221457D02*
D03*
D178*
X148130Y211614D02*
D03*
X132776D02*
D03*
X375312Y13780D02*
D03*
X390666D02*
D03*
D179*
X113494Y289843D02*
D03*
X103494D02*
D03*
X113494Y325669D02*
D03*
X103494D02*
D03*
D180*
X113494Y334350D02*
D03*
Y349705D02*
D03*
X59055Y427559D02*
D03*
Y442913D02*
D03*
D181*
X22973Y365158D02*
D03*
Y337598D02*
D03*
D182*
X48681Y356157D02*
D03*
Y374158D02*
D03*
Y328598D02*
D03*
Y346598D02*
D03*
D183*
X113690Y277087D02*
D03*
X106801D02*
D03*
X96791Y350886D02*
D03*
X103681D02*
D03*
X366383Y13581D02*
D03*
X359493D02*
D03*
X344707D02*
D03*
X351597D02*
D03*
X87982Y267087D02*
D03*
X94871D02*
D03*
X143701Y180118D02*
D03*
X136811D02*
D03*
X169783Y200787D02*
D03*
X176673D02*
D03*
D184*
X710630Y50984D02*
D03*
Y59252D02*
D03*
X742126Y50984D02*
D03*
Y59252D02*
D03*
X774606Y50984D02*
D03*
Y59252D02*
D03*
X710630Y81890D02*
D03*
Y73622D02*
D03*
X742126Y81890D02*
D03*
Y73622D02*
D03*
X774606Y81693D02*
D03*
Y73425D02*
D03*
X123031Y137008D02*
D03*
Y128740D02*
D03*
M02*
