G04*
G04 #@! TF.GenerationSoftware,Altium Limited,Altium Designer,25.5.2 (35)*
G04*
G04 Layer_Color=8388736*
%FSLAX25Y25*%
%MOIN*%
G70*
G04*
G04 #@! TF.SameCoordinates,25CED6AD-D5C0-44E5-BA7F-9BEE2D6CD937*
G04*
G04*
G04 #@! TF.FilePolarity,Positive*
G04*
G01*
G75*
%ADD15C,0.01000*%
G36*
X849398Y270121D02*
X849563D01*
X849728Y270106D01*
X850118Y270075D01*
X850523Y270030D01*
X850958Y269970D01*
X851363Y269896D01*
X851378D01*
X851408Y269881D01*
X851468Y269865D01*
X851543Y269850D01*
X851633Y269835D01*
X851738Y269806D01*
X851978Y269715D01*
X852248Y269625D01*
X852548Y269491D01*
X852833Y269356D01*
X853118Y269176D01*
X853133D01*
X853148Y269161D01*
X853238Y269086D01*
X853358Y268981D01*
X853508Y268830D01*
X853688Y268651D01*
X853868Y268425D01*
X854033Y268170D01*
X854183Y267885D01*
Y267870D01*
X854198Y267856D01*
X854213Y267811D01*
X854243Y267751D01*
X854273Y267675D01*
X854303Y267585D01*
X854363Y267345D01*
X854423Y267075D01*
X854483Y266745D01*
X854528Y266371D01*
X854543Y265950D01*
Y265756D01*
X854528Y265666D01*
Y265546D01*
X854498Y265276D01*
X854453Y264976D01*
X854393Y264661D01*
X854303Y264331D01*
X854183Y264016D01*
Y264001D01*
X854168Y263985D01*
X854138Y263941D01*
X854108Y263880D01*
X854033Y263745D01*
X853913Y263550D01*
X853763Y263355D01*
X853568Y263130D01*
X853358Y262920D01*
X853103Y262725D01*
X853088D01*
X853073Y262710D01*
X853028Y262681D01*
X852983Y262650D01*
X852818Y262561D01*
X852623Y262456D01*
X852368Y262335D01*
X852068Y262215D01*
X851723Y262095D01*
X851348Y262005D01*
X851333D01*
X851303Y261990D01*
X851243D01*
X851168Y261976D01*
X851063Y261961D01*
X850943Y261930D01*
X850808Y261915D01*
X850643Y261900D01*
X850478Y261871D01*
X850283Y261856D01*
X849878Y261810D01*
X849413Y261795D01*
X848903Y261781D01*
X848888D01*
X848843D01*
X848768D01*
X848663D01*
X848543D01*
X848393Y261795D01*
X848228D01*
X848048Y261810D01*
X847673Y261825D01*
X847253Y261871D01*
X846848Y261915D01*
X846443Y261990D01*
X846428D01*
X846398Y262005D01*
X846338Y262020D01*
X846278Y262035D01*
X846188Y262066D01*
X846083Y262095D01*
X845843Y262171D01*
X845573Y262276D01*
X845273Y262396D01*
X844973Y262561D01*
X844688Y262740D01*
X844673D01*
X844658Y262771D01*
X844568Y262830D01*
X844448Y262950D01*
X844283Y263101D01*
X844103Y263281D01*
X843923Y263506D01*
X843758Y263760D01*
X843608Y264046D01*
Y264060D01*
X843593Y264075D01*
X843578Y264121D01*
X843548Y264180D01*
X843518Y264270D01*
X843488Y264360D01*
X843428Y264585D01*
X843368Y264856D01*
X843308Y265185D01*
X843263Y265546D01*
X843248Y265950D01*
Y266145D01*
X843263Y266250D01*
Y266355D01*
X843293Y266640D01*
X843338Y266940D01*
X843413Y267270D01*
X843503Y267600D01*
X843623Y267900D01*
Y267916D01*
X843638Y267931D01*
X843668Y267975D01*
X843698Y268036D01*
X843773Y268170D01*
X843893Y268351D01*
X844058Y268561D01*
X844238Y268771D01*
X844463Y268995D01*
X844718Y269191D01*
X844733D01*
X844748Y269205D01*
X844793Y269235D01*
X844853Y269266D01*
X845003Y269356D01*
X845213Y269461D01*
X845468Y269581D01*
X845768Y269701D01*
X846113Y269820D01*
X846488Y269911D01*
X846503D01*
X846533Y269925D01*
X846593D01*
X846668Y269940D01*
X846773Y269970D01*
X846893Y269986D01*
X847028Y270001D01*
X847178Y270030D01*
X847358Y270045D01*
X847538Y270060D01*
X847943Y270106D01*
X848408Y270121D01*
X848903Y270135D01*
X848918D01*
X848963D01*
X849038D01*
X849143D01*
X849263D01*
X849398Y270121D01*
D02*
G37*
G36*
Y260626D02*
X849563D01*
X849728Y260611D01*
X850118Y260580D01*
X850523Y260536D01*
X850958Y260475D01*
X851363Y260401D01*
X851378D01*
X851408Y260385D01*
X851468Y260370D01*
X851543Y260355D01*
X851633Y260340D01*
X851738Y260311D01*
X851978Y260221D01*
X852248Y260131D01*
X852548Y259996D01*
X852833Y259860D01*
X853118Y259681D01*
X853133D01*
X853148Y259665D01*
X853238Y259591D01*
X853358Y259486D01*
X853508Y259335D01*
X853688Y259156D01*
X853868Y258930D01*
X854033Y258676D01*
X854183Y258390D01*
Y258376D01*
X854198Y258361D01*
X854213Y258315D01*
X854243Y258256D01*
X854273Y258180D01*
X854303Y258090D01*
X854363Y257851D01*
X854423Y257580D01*
X854483Y257250D01*
X854528Y256875D01*
X854543Y256455D01*
Y256260D01*
X854528Y256171D01*
Y256050D01*
X854498Y255781D01*
X854453Y255481D01*
X854393Y255166D01*
X854303Y254836D01*
X854183Y254521D01*
Y254505D01*
X854168Y254490D01*
X854138Y254446D01*
X854108Y254385D01*
X854033Y254251D01*
X853913Y254056D01*
X853763Y253860D01*
X853568Y253636D01*
X853358Y253426D01*
X853103Y253231D01*
X853088D01*
X853073Y253216D01*
X853028Y253186D01*
X852983Y253155D01*
X852818Y253065D01*
X852623Y252960D01*
X852368Y252840D01*
X852068Y252720D01*
X851723Y252601D01*
X851348Y252510D01*
X851333D01*
X851303Y252496D01*
X851243D01*
X851168Y252481D01*
X851063Y252466D01*
X850943Y252435D01*
X850808Y252420D01*
X850643Y252406D01*
X850478Y252376D01*
X850283Y252361D01*
X849878Y252315D01*
X849413Y252301D01*
X848903Y252286D01*
X848888D01*
X848843D01*
X848768D01*
X848663D01*
X848543D01*
X848393Y252301D01*
X848228D01*
X848048Y252315D01*
X847673Y252330D01*
X847253Y252376D01*
X846848Y252420D01*
X846443Y252496D01*
X846428D01*
X846398Y252510D01*
X846338Y252525D01*
X846278Y252540D01*
X846188Y252571D01*
X846083Y252601D01*
X845843Y252676D01*
X845573Y252781D01*
X845273Y252901D01*
X844973Y253065D01*
X844688Y253245D01*
X844673D01*
X844658Y253275D01*
X844568Y253335D01*
X844448Y253455D01*
X844283Y253606D01*
X844103Y253785D01*
X843923Y254011D01*
X843758Y254265D01*
X843608Y254551D01*
Y254566D01*
X843593Y254580D01*
X843578Y254626D01*
X843548Y254685D01*
X843518Y254776D01*
X843488Y254866D01*
X843428Y255090D01*
X843368Y255361D01*
X843308Y255691D01*
X843263Y256050D01*
X843248Y256455D01*
Y256650D01*
X843263Y256755D01*
Y256860D01*
X843293Y257146D01*
X843338Y257446D01*
X843413Y257775D01*
X843503Y258105D01*
X843623Y258405D01*
Y258420D01*
X843638Y258436D01*
X843668Y258481D01*
X843698Y258541D01*
X843773Y258676D01*
X843893Y258856D01*
X844058Y259066D01*
X844238Y259276D01*
X844463Y259501D01*
X844718Y259696D01*
X844733D01*
X844748Y259711D01*
X844793Y259740D01*
X844853Y259770D01*
X845003Y259860D01*
X845213Y259965D01*
X845468Y260086D01*
X845768Y260206D01*
X846113Y260326D01*
X846488Y260416D01*
X846503D01*
X846533Y260431D01*
X846593D01*
X846668Y260445D01*
X846773Y260475D01*
X846893Y260490D01*
X847028Y260506D01*
X847178Y260536D01*
X847358Y260550D01*
X847538Y260565D01*
X847943Y260611D01*
X848408Y260626D01*
X848903Y260641D01*
X848918D01*
X848963D01*
X849038D01*
X849143D01*
X849263D01*
X849398Y260626D01*
D02*
G37*
G36*
X857003Y248566D02*
Y247021D01*
X851453Y248446D01*
Y251115D01*
X857003Y248566D01*
D02*
G37*
G36*
X850958Y246360D02*
X851168Y246345D01*
X851408Y246301D01*
X851663Y246255D01*
X851948Y246181D01*
X852218Y246076D01*
X852233D01*
X852248Y246060D01*
X852338Y246016D01*
X852473Y245955D01*
X852638Y245866D01*
X852833Y245745D01*
X853043Y245596D01*
X853253Y245415D01*
X853463Y245220D01*
X853493Y245191D01*
X853553Y245115D01*
X853643Y244995D01*
X853763Y244830D01*
X853898Y244636D01*
X854033Y244410D01*
X854153Y244141D01*
X854273Y243856D01*
Y243841D01*
X854288Y243826D01*
X854303Y243780D01*
X854318Y243721D01*
X854333Y243646D01*
X854363Y243555D01*
X854408Y243331D01*
X854453Y243045D01*
X854498Y242716D01*
X854528Y242340D01*
X854543Y241935D01*
Y241740D01*
X854528Y241635D01*
Y241515D01*
X854513Y241231D01*
X854483Y240900D01*
X854453Y240556D01*
X854393Y240195D01*
X854333Y239850D01*
Y239836D01*
X854318Y239806D01*
Y239760D01*
X854303Y239701D01*
X854258Y239550D01*
X854198Y239340D01*
X854138Y239116D01*
X854063Y238876D01*
X853988Y238650D01*
X853898Y238425D01*
X851528D01*
Y238681D01*
X851543Y238696D01*
X851573Y238740D01*
X851603Y238801D01*
X851693Y238950D01*
X851798Y239130D01*
Y239145D01*
X851828Y239176D01*
X851858Y239235D01*
X851888Y239311D01*
X851933Y239401D01*
X851993Y239521D01*
X852053Y239640D01*
X852113Y239791D01*
Y239806D01*
X852143Y239865D01*
X852173Y239941D01*
X852203Y240031D01*
X852248Y240150D01*
X852278Y240285D01*
X852368Y240570D01*
Y240585D01*
X852383Y240646D01*
X852398Y240721D01*
X852413Y240841D01*
X852428Y240975D01*
X852443Y241125D01*
X852458Y241290D01*
Y241635D01*
X852443Y241740D01*
X852428Y241876D01*
X852413Y242025D01*
X852353Y242371D01*
Y242386D01*
X852338Y242460D01*
X852308Y242550D01*
X852263Y242655D01*
X852143Y242911D01*
X852068Y243045D01*
X851978Y243165D01*
X851963Y243180D01*
X851933Y243211D01*
X851888Y243240D01*
X851828Y243301D01*
X851678Y243406D01*
X851483Y243511D01*
X851468D01*
X851438Y243526D01*
X851378Y243555D01*
X851288Y243585D01*
X851183Y243601D01*
X851063Y243631D01*
X850928Y243646D01*
X850763D01*
X850748D01*
X850703D01*
X850628Y243631D01*
X850538D01*
X850313Y243570D01*
X850208Y243541D01*
X850103Y243480D01*
X850088D01*
X850058Y243450D01*
X850013Y243421D01*
X849938Y243375D01*
X849803Y243240D01*
X849653Y243075D01*
X849638Y243060D01*
X849608Y243016D01*
X849578Y242926D01*
X849518Y242821D01*
X849473Y242686D01*
X849413Y242535D01*
X849368Y242371D01*
X849338Y242176D01*
Y242145D01*
X849323Y242086D01*
X849308Y241996D01*
X849293Y241861D01*
Y241725D01*
X849278Y241576D01*
X849263Y241261D01*
Y241036D01*
X849278Y240885D01*
X849293Y240705D01*
X849308Y240511D01*
X849368Y240090D01*
Y240060D01*
X849383Y240001D01*
X849398Y239896D01*
X849428Y239760D01*
X849458Y239611D01*
X849488Y239445D01*
X849563Y239116D01*
Y238891D01*
X843473D01*
Y246076D01*
X845513D01*
Y241456D01*
X847328D01*
Y241546D01*
X847313Y241605D01*
Y241756D01*
X847298Y241966D01*
Y242071D01*
X847283Y242145D01*
Y242581D01*
X847298Y242730D01*
Y242926D01*
X847328Y243135D01*
X847358Y243375D01*
X847388Y243631D01*
X847448Y243885D01*
Y243916D01*
X847478Y243990D01*
X847508Y244126D01*
X847568Y244275D01*
X847628Y244456D01*
X847718Y244666D01*
X847808Y244861D01*
X847928Y245056D01*
X847943Y245086D01*
X848003Y245161D01*
X848093Y245281D01*
X848213Y245415D01*
X848363Y245566D01*
X848558Y245730D01*
X848768Y245896D01*
X849008Y246030D01*
X849038Y246045D01*
X849128Y246091D01*
X849278Y246135D01*
X849473Y246211D01*
X849713Y246270D01*
X849983Y246316D01*
X850313Y246360D01*
X850658Y246375D01*
X850673D01*
X850688D01*
X850733D01*
X850793D01*
X850958Y246360D01*
D02*
G37*
G36*
X854318Y229155D02*
X852563D01*
X852548Y229170D01*
X852533Y229201D01*
X852488Y229260D01*
X852428Y229321D01*
X852353Y229411D01*
X852263Y229516D01*
X852068Y229755D01*
X851843Y230041D01*
X851588Y230341D01*
X851318Y230656D01*
X851048Y230971D01*
X851033Y230985D01*
X851018Y231000D01*
X850973Y231046D01*
X850928Y231105D01*
X850793Y231256D01*
X850613Y231451D01*
X850403Y231676D01*
X850163Y231915D01*
X849923Y232155D01*
X849683Y232396D01*
X849668Y232411D01*
X849638Y232425D01*
X849608Y232470D01*
X849548Y232530D01*
X849383Y232665D01*
X849188Y232845D01*
X848948Y233026D01*
X848708Y233221D01*
X848453Y233401D01*
X848213Y233551D01*
X848183Y233565D01*
X848108Y233611D01*
X847973Y233670D01*
X847808Y233731D01*
X847613Y233790D01*
X847403Y233851D01*
X847163Y233895D01*
X846908Y233910D01*
X846893D01*
X846878D01*
X846788D01*
X846638Y233880D01*
X846473Y233851D01*
X846293Y233790D01*
X846098Y233716D01*
X845903Y233595D01*
X845738Y233446D01*
X845723Y233431D01*
X845678Y233370D01*
X845603Y233265D01*
X845528Y233116D01*
X845468Y232936D01*
X845393Y232726D01*
X845348Y232470D01*
X845333Y232186D01*
Y232035D01*
X845348Y231930D01*
X845363Y231810D01*
X845378Y231691D01*
X845438Y231405D01*
Y231391D01*
X845453Y231346D01*
X845483Y231271D01*
X845513Y231166D01*
X845543Y231061D01*
X845603Y230925D01*
X845708Y230656D01*
Y230641D01*
X845738Y230595D01*
X845768Y230521D01*
X845813Y230431D01*
X845918Y230221D01*
X846053Y230011D01*
Y229995D01*
X846083Y229965D01*
X846143Y229875D01*
X846218Y229741D01*
X846293Y229636D01*
Y229426D01*
X843938D01*
X843923Y229440D01*
X843893Y229516D01*
X843848Y229621D01*
X843803Y229770D01*
X843728Y229965D01*
X843653Y230221D01*
X843578Y230505D01*
X843488Y230851D01*
Y230866D01*
X843473Y230895D01*
X843458Y230941D01*
X843443Y231015D01*
X843428Y231105D01*
X843413Y231210D01*
X843368Y231451D01*
X843323Y231735D01*
X843278Y232050D01*
X843263Y232381D01*
X843248Y232726D01*
Y232906D01*
X843263Y233040D01*
X843278Y233206D01*
X843293Y233385D01*
X843323Y233595D01*
X843353Y233821D01*
X843458Y234285D01*
X843533Y234541D01*
X843608Y234781D01*
X843713Y235020D01*
X843833Y235245D01*
X843968Y235455D01*
X844118Y235650D01*
X844133Y235665D01*
X844163Y235696D01*
X844208Y235740D01*
X844268Y235816D01*
X844358Y235891D01*
X844463Y235965D01*
X844598Y236055D01*
X844733Y236160D01*
X844898Y236250D01*
X845078Y236340D01*
X845288Y236416D01*
X845498Y236506D01*
X845723Y236565D01*
X845978Y236611D01*
X846248Y236641D01*
X846533Y236655D01*
X846548D01*
X846578D01*
X846623D01*
X846698D01*
X846788Y236641D01*
X846893Y236626D01*
X847133Y236596D01*
X847433Y236536D01*
X847748Y236460D01*
X848093Y236340D01*
X848438Y236191D01*
X848453D01*
X848483Y236175D01*
X848528Y236145D01*
X848603Y236101D01*
X848678Y236055D01*
X848783Y235996D01*
X849023Y235830D01*
X849323Y235620D01*
X849653Y235366D01*
X850013Y235051D01*
X850403Y234690D01*
X850433Y234661D01*
X850508Y234585D01*
X850643Y234451D01*
X850793Y234285D01*
X850973Y234090D01*
X851168Y233880D01*
X851573Y233416D01*
X851588Y233385D01*
X851648Y233311D01*
X851738Y233206D01*
X851843Y233070D01*
X852083Y232770D01*
X852188Y232635D01*
X852278Y232516D01*
Y237136D01*
X854318D01*
Y229155D01*
D02*
G37*
G36*
Y219990D02*
X852428D01*
Y222270D01*
X846698D01*
Y219990D01*
X844928D01*
Y220170D01*
X844913Y220305D01*
Y220456D01*
X844898Y220620D01*
X844868Y220981D01*
Y220995D01*
X844853Y221071D01*
X844838Y221161D01*
X844823Y221266D01*
X844748Y221520D01*
X844703Y221656D01*
X844658Y221776D01*
X844643Y221791D01*
X844628Y221835D01*
X844583Y221896D01*
X844538Y221971D01*
X844388Y222150D01*
X844193Y222316D01*
X844178Y222330D01*
X844133Y222345D01*
X844073Y222375D01*
X843983Y222421D01*
X843878Y222450D01*
X843743Y222481D01*
X843608Y222511D01*
X843443Y222526D01*
Y224910D01*
X852428D01*
Y227146D01*
X854318D01*
Y219990D01*
D02*
G37*
G36*
X371348Y-26334D02*
X371513Y-26349D01*
X371693Y-26364D01*
X371903Y-26394D01*
X372128Y-26424D01*
X372593Y-26529D01*
X372848Y-26604D01*
X373088Y-26679D01*
X373328Y-26784D01*
X373553Y-26904D01*
X373763Y-27039D01*
X373958Y-27189D01*
X373973Y-27204D01*
X374003Y-27234D01*
X374048Y-27279D01*
X374123Y-27339D01*
X374198Y-27429D01*
X374273Y-27534D01*
X374363Y-27669D01*
X374468Y-27804D01*
X374558Y-27969D01*
X374648Y-28149D01*
X374723Y-28359D01*
X374813Y-28569D01*
X374873Y-28794D01*
X374918Y-29049D01*
X374948Y-29319D01*
X374963Y-29604D01*
Y-29619D01*
Y-29649D01*
Y-29694D01*
Y-29769D01*
X374948Y-29859D01*
X374933Y-29964D01*
X374903Y-30204D01*
X374843Y-30504D01*
X374768Y-30819D01*
X374648Y-31164D01*
X374498Y-31509D01*
Y-31524D01*
X374483Y-31554D01*
X374453Y-31599D01*
X374408Y-31674D01*
X374363Y-31749D01*
X374303Y-31854D01*
X374138Y-32094D01*
X373928Y-32394D01*
X373673Y-32724D01*
X373358Y-33084D01*
X372998Y-33474D01*
X372968Y-33504D01*
X372893Y-33579D01*
X372758Y-33714D01*
X372593Y-33864D01*
X372398Y-34044D01*
X372188Y-34239D01*
X371723Y-34644D01*
X371693Y-34659D01*
X371618Y-34719D01*
X371513Y-34809D01*
X371378Y-34914D01*
X371078Y-35154D01*
X370943Y-35259D01*
X370823Y-35349D01*
X375443D01*
Y-37389D01*
X367463D01*
Y-35634D01*
X367478Y-35619D01*
X367508Y-35604D01*
X367568Y-35559D01*
X367628Y-35499D01*
X367718Y-35424D01*
X367823Y-35334D01*
X368063Y-35139D01*
X368348Y-34914D01*
X368648Y-34659D01*
X368963Y-34389D01*
X369278Y-34119D01*
X369293Y-34104D01*
X369308Y-34089D01*
X369353Y-34044D01*
X369413Y-33999D01*
X369563Y-33864D01*
X369758Y-33684D01*
X369983Y-33474D01*
X370223Y-33234D01*
X370463Y-32994D01*
X370703Y-32754D01*
X370718Y-32739D01*
X370733Y-32709D01*
X370778Y-32679D01*
X370838Y-32619D01*
X370973Y-32454D01*
X371153Y-32259D01*
X371333Y-32019D01*
X371528Y-31779D01*
X371708Y-31524D01*
X371858Y-31284D01*
X371873Y-31254D01*
X371918Y-31179D01*
X371978Y-31044D01*
X372038Y-30879D01*
X372098Y-30684D01*
X372158Y-30474D01*
X372203Y-30234D01*
X372218Y-29979D01*
Y-29964D01*
Y-29949D01*
Y-29859D01*
X372188Y-29709D01*
X372158Y-29544D01*
X372098Y-29364D01*
X372023Y-29169D01*
X371903Y-28974D01*
X371753Y-28809D01*
X371738Y-28794D01*
X371678Y-28749D01*
X371573Y-28674D01*
X371423Y-28599D01*
X371243Y-28539D01*
X371033Y-28464D01*
X370778Y-28419D01*
X370493Y-28404D01*
X370343D01*
X370238Y-28419D01*
X370118Y-28434D01*
X369998Y-28449D01*
X369713Y-28509D01*
X369698D01*
X369653Y-28524D01*
X369578Y-28554D01*
X369473Y-28584D01*
X369368Y-28614D01*
X369233Y-28674D01*
X368963Y-28779D01*
X368948D01*
X368903Y-28809D01*
X368828Y-28839D01*
X368738Y-28884D01*
X368528Y-28989D01*
X368318Y-29124D01*
X368303D01*
X368273Y-29154D01*
X368183Y-29214D01*
X368048Y-29289D01*
X367943Y-29364D01*
X367733D01*
Y-27009D01*
X367748Y-26994D01*
X367823Y-26964D01*
X367928Y-26919D01*
X368078Y-26874D01*
X368273Y-26799D01*
X368528Y-26724D01*
X368813Y-26649D01*
X369158Y-26559D01*
X369173D01*
X369203Y-26544D01*
X369248Y-26529D01*
X369323Y-26514D01*
X369413Y-26499D01*
X369518Y-26484D01*
X369758Y-26439D01*
X370043Y-26394D01*
X370358Y-26349D01*
X370688Y-26334D01*
X371033Y-26319D01*
X371213D01*
X371348Y-26334D01*
D02*
G37*
G36*
X414053D02*
X414158D01*
X414443Y-26364D01*
X414743Y-26409D01*
X415073Y-26484D01*
X415403Y-26574D01*
X415703Y-26694D01*
X415718D01*
X415733Y-26709D01*
X415778Y-26739D01*
X415838Y-26769D01*
X415973Y-26844D01*
X416153Y-26964D01*
X416363Y-27129D01*
X416573Y-27309D01*
X416798Y-27534D01*
X416993Y-27789D01*
Y-27804D01*
X417008Y-27819D01*
X417038Y-27864D01*
X417068Y-27924D01*
X417158Y-28074D01*
X417263Y-28284D01*
X417383Y-28539D01*
X417503Y-28839D01*
X417623Y-29184D01*
X417713Y-29559D01*
Y-29574D01*
X417728Y-29604D01*
Y-29664D01*
X417743Y-29739D01*
X417773Y-29844D01*
X417788Y-29964D01*
X417803Y-30099D01*
X417833Y-30249D01*
X417848Y-30429D01*
X417863Y-30609D01*
X417908Y-31014D01*
X417923Y-31479D01*
X417938Y-31974D01*
Y-31989D01*
Y-32034D01*
Y-32109D01*
Y-32214D01*
Y-32334D01*
X417923Y-32469D01*
Y-32634D01*
X417908Y-32799D01*
X417878Y-33189D01*
X417833Y-33594D01*
X417773Y-34029D01*
X417698Y-34434D01*
Y-34449D01*
X417683Y-34479D01*
X417668Y-34539D01*
X417653Y-34614D01*
X417638Y-34704D01*
X417608Y-34809D01*
X417518Y-35049D01*
X417428Y-35319D01*
X417293Y-35619D01*
X417158Y-35904D01*
X416978Y-36189D01*
Y-36204D01*
X416963Y-36219D01*
X416888Y-36309D01*
X416783Y-36429D01*
X416633Y-36579D01*
X416453Y-36759D01*
X416228Y-36939D01*
X415973Y-37104D01*
X415688Y-37254D01*
X415673D01*
X415658Y-37269D01*
X415613Y-37284D01*
X415553Y-37314D01*
X415478Y-37344D01*
X415388Y-37374D01*
X415148Y-37434D01*
X414878Y-37494D01*
X414548Y-37554D01*
X414173Y-37599D01*
X413753Y-37614D01*
X413558D01*
X413468Y-37599D01*
X413348D01*
X413078Y-37569D01*
X412778Y-37524D01*
X412463Y-37464D01*
X412133Y-37374D01*
X411818Y-37254D01*
X411803D01*
X411788Y-37239D01*
X411743Y-37209D01*
X411683Y-37179D01*
X411548Y-37104D01*
X411353Y-36984D01*
X411158Y-36834D01*
X410933Y-36639D01*
X410723Y-36429D01*
X410528Y-36174D01*
Y-36159D01*
X410513Y-36144D01*
X410483Y-36099D01*
X410453Y-36054D01*
X410363Y-35889D01*
X410258Y-35694D01*
X410138Y-35439D01*
X410018Y-35139D01*
X409898Y-34794D01*
X409808Y-34419D01*
Y-34404D01*
X409793Y-34374D01*
Y-34314D01*
X409778Y-34239D01*
X409763Y-34134D01*
X409733Y-34014D01*
X409718Y-33879D01*
X409703Y-33714D01*
X409673Y-33549D01*
X409658Y-33354D01*
X409613Y-32949D01*
X409598Y-32484D01*
X409583Y-31974D01*
Y-31959D01*
Y-31914D01*
Y-31839D01*
Y-31734D01*
Y-31614D01*
X409598Y-31464D01*
Y-31299D01*
X409613Y-31119D01*
X409628Y-30744D01*
X409673Y-30324D01*
X409718Y-29919D01*
X409793Y-29514D01*
Y-29499D01*
X409808Y-29469D01*
X409823Y-29409D01*
X409838Y-29349D01*
X409868Y-29259D01*
X409898Y-29154D01*
X409973Y-28914D01*
X410078Y-28644D01*
X410198Y-28344D01*
X410363Y-28044D01*
X410543Y-27759D01*
Y-27744D01*
X410573Y-27729D01*
X410633Y-27639D01*
X410753Y-27519D01*
X410903Y-27354D01*
X411083Y-27174D01*
X411308Y-26994D01*
X411563Y-26829D01*
X411848Y-26679D01*
X411863D01*
X411878Y-26664D01*
X411923Y-26649D01*
X411983Y-26619D01*
X412073Y-26589D01*
X412163Y-26559D01*
X412388Y-26499D01*
X412658Y-26439D01*
X412988Y-26379D01*
X413348Y-26334D01*
X413753Y-26319D01*
X413948D01*
X414053Y-26334D01*
D02*
G37*
G36*
X404558D02*
X404663D01*
X404948Y-26364D01*
X405248Y-26409D01*
X405578Y-26484D01*
X405908Y-26574D01*
X406208Y-26694D01*
X406223D01*
X406238Y-26709D01*
X406283Y-26739D01*
X406343Y-26769D01*
X406478Y-26844D01*
X406658Y-26964D01*
X406868Y-27129D01*
X407078Y-27309D01*
X407303Y-27534D01*
X407498Y-27789D01*
Y-27804D01*
X407513Y-27819D01*
X407543Y-27864D01*
X407573Y-27924D01*
X407663Y-28074D01*
X407768Y-28284D01*
X407888Y-28539D01*
X408008Y-28839D01*
X408128Y-29184D01*
X408218Y-29559D01*
Y-29574D01*
X408233Y-29604D01*
Y-29664D01*
X408248Y-29739D01*
X408278Y-29844D01*
X408293Y-29964D01*
X408308Y-30099D01*
X408338Y-30249D01*
X408353Y-30429D01*
X408368Y-30609D01*
X408413Y-31014D01*
X408428Y-31479D01*
X408443Y-31974D01*
Y-31989D01*
Y-32034D01*
Y-32109D01*
Y-32214D01*
Y-32334D01*
X408428Y-32469D01*
Y-32634D01*
X408413Y-32799D01*
X408383Y-33189D01*
X408338Y-33594D01*
X408278Y-34029D01*
X408203Y-34434D01*
Y-34449D01*
X408188Y-34479D01*
X408173Y-34539D01*
X408158Y-34614D01*
X408143Y-34704D01*
X408113Y-34809D01*
X408023Y-35049D01*
X407933Y-35319D01*
X407798Y-35619D01*
X407663Y-35904D01*
X407483Y-36189D01*
Y-36204D01*
X407468Y-36219D01*
X407393Y-36309D01*
X407288Y-36429D01*
X407138Y-36579D01*
X406958Y-36759D01*
X406733Y-36939D01*
X406478Y-37104D01*
X406193Y-37254D01*
X406178D01*
X406163Y-37269D01*
X406118Y-37284D01*
X406058Y-37314D01*
X405983Y-37344D01*
X405893Y-37374D01*
X405653Y-37434D01*
X405383Y-37494D01*
X405053Y-37554D01*
X404678Y-37599D01*
X404258Y-37614D01*
X404063D01*
X403973Y-37599D01*
X403853D01*
X403583Y-37569D01*
X403283Y-37524D01*
X402968Y-37464D01*
X402638Y-37374D01*
X402323Y-37254D01*
X402308D01*
X402293Y-37239D01*
X402248Y-37209D01*
X402188Y-37179D01*
X402053Y-37104D01*
X401858Y-36984D01*
X401663Y-36834D01*
X401438Y-36639D01*
X401228Y-36429D01*
X401033Y-36174D01*
Y-36159D01*
X401018Y-36144D01*
X400988Y-36099D01*
X400958Y-36054D01*
X400868Y-35889D01*
X400763Y-35694D01*
X400643Y-35439D01*
X400523Y-35139D01*
X400403Y-34794D01*
X400313Y-34419D01*
Y-34404D01*
X400298Y-34374D01*
Y-34314D01*
X400283Y-34239D01*
X400268Y-34134D01*
X400238Y-34014D01*
X400223Y-33879D01*
X400208Y-33714D01*
X400178Y-33549D01*
X400163Y-33354D01*
X400118Y-32949D01*
X400103Y-32484D01*
X400088Y-31974D01*
Y-31959D01*
Y-31914D01*
Y-31839D01*
Y-31734D01*
Y-31614D01*
X400103Y-31464D01*
Y-31299D01*
X400118Y-31119D01*
X400133Y-30744D01*
X400178Y-30324D01*
X400223Y-29919D01*
X400298Y-29514D01*
Y-29499D01*
X400313Y-29469D01*
X400328Y-29409D01*
X400343Y-29349D01*
X400373Y-29259D01*
X400403Y-29154D01*
X400478Y-28914D01*
X400583Y-28644D01*
X400703Y-28344D01*
X400868Y-28044D01*
X401048Y-27759D01*
Y-27744D01*
X401078Y-27729D01*
X401138Y-27639D01*
X401258Y-27519D01*
X401408Y-27354D01*
X401588Y-27174D01*
X401813Y-26994D01*
X402068Y-26829D01*
X402353Y-26679D01*
X402368D01*
X402383Y-26664D01*
X402428Y-26649D01*
X402488Y-26619D01*
X402578Y-26589D01*
X402668Y-26559D01*
X402893Y-26499D01*
X403163Y-26439D01*
X403493Y-26379D01*
X403853Y-26334D01*
X404258Y-26319D01*
X404453D01*
X404558Y-26334D01*
D02*
G37*
G36*
X390398D02*
X390503D01*
X390788Y-26364D01*
X391088Y-26409D01*
X391418Y-26484D01*
X391748Y-26574D01*
X392048Y-26694D01*
X392063D01*
X392078Y-26709D01*
X392123Y-26739D01*
X392183Y-26769D01*
X392318Y-26844D01*
X392498Y-26964D01*
X392708Y-27129D01*
X392918Y-27309D01*
X393143Y-27534D01*
X393338Y-27789D01*
Y-27804D01*
X393353Y-27819D01*
X393383Y-27864D01*
X393413Y-27924D01*
X393503Y-28074D01*
X393608Y-28284D01*
X393728Y-28539D01*
X393848Y-28839D01*
X393968Y-29184D01*
X394058Y-29559D01*
Y-29574D01*
X394073Y-29604D01*
Y-29664D01*
X394088Y-29739D01*
X394118Y-29844D01*
X394133Y-29964D01*
X394148Y-30099D01*
X394178Y-30249D01*
X394193Y-30429D01*
X394208Y-30609D01*
X394253Y-31014D01*
X394268Y-31479D01*
X394283Y-31974D01*
Y-31989D01*
Y-32034D01*
Y-32109D01*
Y-32214D01*
Y-32334D01*
X394268Y-32469D01*
Y-32634D01*
X394253Y-32799D01*
X394223Y-33189D01*
X394178Y-33594D01*
X394118Y-34029D01*
X394043Y-34434D01*
Y-34449D01*
X394028Y-34479D01*
X394013Y-34539D01*
X393998Y-34614D01*
X393983Y-34704D01*
X393953Y-34809D01*
X393863Y-35049D01*
X393773Y-35319D01*
X393638Y-35619D01*
X393503Y-35904D01*
X393323Y-36189D01*
Y-36204D01*
X393308Y-36219D01*
X393233Y-36309D01*
X393128Y-36429D01*
X392978Y-36579D01*
X392798Y-36759D01*
X392573Y-36939D01*
X392318Y-37104D01*
X392033Y-37254D01*
X392018D01*
X392003Y-37269D01*
X391958Y-37284D01*
X391898Y-37314D01*
X391823Y-37344D01*
X391733Y-37374D01*
X391493Y-37434D01*
X391223Y-37494D01*
X390893Y-37554D01*
X390518Y-37599D01*
X390098Y-37614D01*
X389903D01*
X389813Y-37599D01*
X389693D01*
X389423Y-37569D01*
X389123Y-37524D01*
X388808Y-37464D01*
X388478Y-37374D01*
X388163Y-37254D01*
X388148D01*
X388133Y-37239D01*
X388088Y-37209D01*
X388028Y-37179D01*
X387893Y-37104D01*
X387698Y-36984D01*
X387503Y-36834D01*
X387278Y-36639D01*
X387068Y-36429D01*
X386873Y-36174D01*
Y-36159D01*
X386858Y-36144D01*
X386828Y-36099D01*
X386798Y-36054D01*
X386708Y-35889D01*
X386603Y-35694D01*
X386483Y-35439D01*
X386363Y-35139D01*
X386243Y-34794D01*
X386153Y-34419D01*
Y-34404D01*
X386138Y-34374D01*
Y-34314D01*
X386123Y-34239D01*
X386108Y-34134D01*
X386078Y-34014D01*
X386063Y-33879D01*
X386048Y-33714D01*
X386018Y-33549D01*
X386003Y-33354D01*
X385958Y-32949D01*
X385943Y-32484D01*
X385928Y-31974D01*
Y-31959D01*
Y-31914D01*
Y-31839D01*
Y-31734D01*
Y-31614D01*
X385943Y-31464D01*
Y-31299D01*
X385958Y-31119D01*
X385973Y-30744D01*
X386018Y-30324D01*
X386063Y-29919D01*
X386138Y-29514D01*
Y-29499D01*
X386153Y-29469D01*
X386168Y-29409D01*
X386183Y-29349D01*
X386213Y-29259D01*
X386243Y-29154D01*
X386318Y-28914D01*
X386423Y-28644D01*
X386543Y-28344D01*
X386708Y-28044D01*
X386888Y-27759D01*
Y-27744D01*
X386918Y-27729D01*
X386978Y-27639D01*
X387098Y-27519D01*
X387248Y-27354D01*
X387428Y-27174D01*
X387653Y-26994D01*
X387908Y-26829D01*
X388193Y-26679D01*
X388208D01*
X388223Y-26664D01*
X388268Y-26649D01*
X388328Y-26619D01*
X388418Y-26589D01*
X388508Y-26559D01*
X388733Y-26499D01*
X389003Y-26439D01*
X389333Y-26379D01*
X389693Y-26334D01*
X390098Y-26319D01*
X390293D01*
X390398Y-26334D01*
D02*
G37*
G36*
X380903D02*
X381008D01*
X381293Y-26364D01*
X381593Y-26409D01*
X381923Y-26484D01*
X382253Y-26574D01*
X382553Y-26694D01*
X382568D01*
X382583Y-26709D01*
X382628Y-26739D01*
X382688Y-26769D01*
X382823Y-26844D01*
X383003Y-26964D01*
X383213Y-27129D01*
X383423Y-27309D01*
X383648Y-27534D01*
X383843Y-27789D01*
Y-27804D01*
X383858Y-27819D01*
X383888Y-27864D01*
X383918Y-27924D01*
X384008Y-28074D01*
X384113Y-28284D01*
X384233Y-28539D01*
X384353Y-28839D01*
X384473Y-29184D01*
X384563Y-29559D01*
Y-29574D01*
X384578Y-29604D01*
Y-29664D01*
X384593Y-29739D01*
X384623Y-29844D01*
X384638Y-29964D01*
X384653Y-30099D01*
X384683Y-30249D01*
X384698Y-30429D01*
X384713Y-30609D01*
X384758Y-31014D01*
X384773Y-31479D01*
X384788Y-31974D01*
Y-31989D01*
Y-32034D01*
Y-32109D01*
Y-32214D01*
Y-32334D01*
X384773Y-32469D01*
Y-32634D01*
X384758Y-32799D01*
X384728Y-33189D01*
X384683Y-33594D01*
X384623Y-34029D01*
X384548Y-34434D01*
Y-34449D01*
X384533Y-34479D01*
X384518Y-34539D01*
X384503Y-34614D01*
X384488Y-34704D01*
X384458Y-34809D01*
X384368Y-35049D01*
X384278Y-35319D01*
X384143Y-35619D01*
X384008Y-35904D01*
X383828Y-36189D01*
Y-36204D01*
X383813Y-36219D01*
X383738Y-36309D01*
X383633Y-36429D01*
X383483Y-36579D01*
X383303Y-36759D01*
X383078Y-36939D01*
X382823Y-37104D01*
X382538Y-37254D01*
X382523D01*
X382508Y-37269D01*
X382463Y-37284D01*
X382403Y-37314D01*
X382328Y-37344D01*
X382238Y-37374D01*
X381998Y-37434D01*
X381728Y-37494D01*
X381398Y-37554D01*
X381023Y-37599D01*
X380603Y-37614D01*
X380408D01*
X380318Y-37599D01*
X380198D01*
X379928Y-37569D01*
X379628Y-37524D01*
X379313Y-37464D01*
X378983Y-37374D01*
X378668Y-37254D01*
X378653D01*
X378638Y-37239D01*
X378593Y-37209D01*
X378533Y-37179D01*
X378398Y-37104D01*
X378203Y-36984D01*
X378008Y-36834D01*
X377783Y-36639D01*
X377573Y-36429D01*
X377378Y-36174D01*
Y-36159D01*
X377363Y-36144D01*
X377333Y-36099D01*
X377303Y-36054D01*
X377213Y-35889D01*
X377108Y-35694D01*
X376988Y-35439D01*
X376868Y-35139D01*
X376748Y-34794D01*
X376658Y-34419D01*
Y-34404D01*
X376643Y-34374D01*
Y-34314D01*
X376628Y-34239D01*
X376613Y-34134D01*
X376583Y-34014D01*
X376568Y-33879D01*
X376553Y-33714D01*
X376523Y-33549D01*
X376508Y-33354D01*
X376463Y-32949D01*
X376448Y-32484D01*
X376433Y-31974D01*
Y-31959D01*
Y-31914D01*
Y-31839D01*
Y-31734D01*
Y-31614D01*
X376448Y-31464D01*
Y-31299D01*
X376463Y-31119D01*
X376478Y-30744D01*
X376523Y-30324D01*
X376568Y-29919D01*
X376643Y-29514D01*
Y-29499D01*
X376658Y-29469D01*
X376673Y-29409D01*
X376688Y-29349D01*
X376718Y-29259D01*
X376748Y-29154D01*
X376823Y-28914D01*
X376928Y-28644D01*
X377048Y-28344D01*
X377213Y-28044D01*
X377393Y-27759D01*
Y-27744D01*
X377423Y-27729D01*
X377483Y-27639D01*
X377603Y-27519D01*
X377753Y-27354D01*
X377933Y-27174D01*
X378158Y-26994D01*
X378413Y-26829D01*
X378698Y-26679D01*
X378713D01*
X378728Y-26664D01*
X378773Y-26649D01*
X378833Y-26619D01*
X378923Y-26589D01*
X379013Y-26559D01*
X379238Y-26499D01*
X379508Y-26439D01*
X379838Y-26379D01*
X380198Y-26334D01*
X380603Y-26319D01*
X380798D01*
X380903Y-26334D01*
D02*
G37*
G36*
X396368Y-40074D02*
X394823D01*
X396248Y-34524D01*
X398918D01*
X396368Y-40074D01*
D02*
G37*
%LPC*%
G36*
X849263Y267406D02*
X848903D01*
X848873D01*
X848813D01*
X848708D01*
X848573D01*
X848408Y267390D01*
X848213D01*
X848018Y267375D01*
X847793Y267360D01*
X847313Y267316D01*
X846848Y267255D01*
X846623Y267226D01*
X846428Y267180D01*
X846233Y267121D01*
X846068Y267060D01*
X846053D01*
X846038Y267045D01*
X845933Y267001D01*
X845813Y266911D01*
X845648Y266806D01*
X845498Y266640D01*
X845378Y266460D01*
X845273Y266220D01*
X845258Y266086D01*
X845243Y265950D01*
Y265920D01*
X845258Y265830D01*
X845288Y265681D01*
X845348Y265515D01*
X845438Y265335D01*
X845588Y265156D01*
X845678Y265066D01*
X845798Y264990D01*
X845918Y264900D01*
X846068Y264841D01*
X846083D01*
X846113Y264826D01*
X846158Y264810D01*
X846233Y264795D01*
X846323Y264766D01*
X846428Y264736D01*
X846563Y264705D01*
X846728Y264675D01*
X846908Y264646D01*
X847118Y264616D01*
X847343Y264585D01*
X847598Y264556D01*
X847883Y264541D01*
X848198Y264526D01*
X848543Y264510D01*
X848903D01*
X848918D01*
X848993D01*
X849098D01*
X849233D01*
X849383Y264526D01*
X849578D01*
X849788Y264541D01*
X849998Y264556D01*
X850463Y264585D01*
X850928Y264646D01*
X851153Y264690D01*
X851363Y264736D01*
X851558Y264780D01*
X851723Y264841D01*
X851738D01*
X851753Y264856D01*
X851858Y264900D01*
X851978Y264990D01*
X852128Y265110D01*
X852293Y265261D01*
X852413Y265456D01*
X852518Y265681D01*
X852533Y265815D01*
X852548Y265950D01*
Y265981D01*
X852533Y266086D01*
X852503Y266220D01*
X852443Y266386D01*
X852353Y266565D01*
X852203Y266745D01*
X852098Y266835D01*
X851993Y266926D01*
X851873Y267001D01*
X851723Y267060D01*
X851708D01*
X851678Y267075D01*
X851633Y267091D01*
X851558Y267121D01*
X851468Y267136D01*
X851363Y267165D01*
X851213Y267196D01*
X851063Y267241D01*
X850883Y267270D01*
X850673Y267301D01*
X850448Y267331D01*
X850178Y267345D01*
X849908Y267375D01*
X849593Y267390D01*
X849263Y267406D01*
D02*
G37*
G36*
Y257910D02*
X848903D01*
X848873D01*
X848813D01*
X848708D01*
X848573D01*
X848408Y257895D01*
X848213D01*
X848018Y257880D01*
X847793Y257866D01*
X847313Y257821D01*
X846848Y257761D01*
X846623Y257731D01*
X846428Y257685D01*
X846233Y257626D01*
X846068Y257565D01*
X846053D01*
X846038Y257551D01*
X845933Y257505D01*
X845813Y257416D01*
X845648Y257311D01*
X845498Y257146D01*
X845378Y256965D01*
X845273Y256726D01*
X845258Y256591D01*
X845243Y256455D01*
Y256425D01*
X845258Y256335D01*
X845288Y256186D01*
X845348Y256020D01*
X845438Y255840D01*
X845588Y255661D01*
X845678Y255571D01*
X845798Y255496D01*
X845918Y255405D01*
X846068Y255346D01*
X846083D01*
X846113Y255330D01*
X846158Y255315D01*
X846233Y255300D01*
X846323Y255271D01*
X846428Y255241D01*
X846563Y255210D01*
X846728Y255181D01*
X846908Y255151D01*
X847118Y255120D01*
X847343Y255090D01*
X847598Y255061D01*
X847883Y255046D01*
X848198Y255030D01*
X848543Y255015D01*
X848903D01*
X848918D01*
X848993D01*
X849098D01*
X849233D01*
X849383Y255030D01*
X849578D01*
X849788Y255046D01*
X849998Y255061D01*
X850463Y255090D01*
X850928Y255151D01*
X851153Y255195D01*
X851363Y255241D01*
X851558Y255286D01*
X851723Y255346D01*
X851738D01*
X851753Y255361D01*
X851858Y255405D01*
X851978Y255496D01*
X852128Y255615D01*
X852293Y255766D01*
X852413Y255960D01*
X852518Y256186D01*
X852533Y256321D01*
X852548Y256455D01*
Y256486D01*
X852533Y256591D01*
X852503Y256726D01*
X852443Y256891D01*
X852353Y257070D01*
X852203Y257250D01*
X852098Y257341D01*
X851993Y257431D01*
X851873Y257505D01*
X851723Y257565D01*
X851708D01*
X851678Y257580D01*
X851633Y257595D01*
X851558Y257626D01*
X851468Y257641D01*
X851363Y257670D01*
X851213Y257700D01*
X851063Y257746D01*
X850883Y257775D01*
X850673Y257805D01*
X850448Y257836D01*
X850178Y257851D01*
X849908Y257880D01*
X849593Y257895D01*
X849263Y257910D01*
D02*
G37*
G36*
X413753Y-28314D02*
X413723D01*
X413633Y-28329D01*
X413483Y-28359D01*
X413318Y-28419D01*
X413138Y-28509D01*
X412958Y-28659D01*
X412868Y-28749D01*
X412793Y-28869D01*
X412703Y-28989D01*
X412643Y-29139D01*
Y-29154D01*
X412628Y-29184D01*
X412613Y-29229D01*
X412598Y-29304D01*
X412568Y-29394D01*
X412538Y-29499D01*
X412508Y-29634D01*
X412478Y-29799D01*
X412448Y-29979D01*
X412418Y-30189D01*
X412388Y-30414D01*
X412358Y-30669D01*
X412343Y-30954D01*
X412328Y-31269D01*
X412313Y-31614D01*
Y-31974D01*
Y-31989D01*
Y-32064D01*
Y-32169D01*
Y-32304D01*
X412328Y-32454D01*
Y-32649D01*
X412343Y-32859D01*
X412358Y-33069D01*
X412388Y-33534D01*
X412448Y-33999D01*
X412493Y-34224D01*
X412538Y-34434D01*
X412583Y-34629D01*
X412643Y-34794D01*
Y-34809D01*
X412658Y-34824D01*
X412703Y-34929D01*
X412793Y-35049D01*
X412913Y-35199D01*
X413063Y-35364D01*
X413258Y-35484D01*
X413483Y-35589D01*
X413618Y-35604D01*
X413753Y-35619D01*
X413783D01*
X413888Y-35604D01*
X414023Y-35574D01*
X414188Y-35514D01*
X414368Y-35424D01*
X414548Y-35274D01*
X414638Y-35169D01*
X414728Y-35064D01*
X414803Y-34944D01*
X414863Y-34794D01*
Y-34779D01*
X414878Y-34749D01*
X414893Y-34704D01*
X414923Y-34629D01*
X414938Y-34539D01*
X414968Y-34434D01*
X414998Y-34284D01*
X415043Y-34134D01*
X415073Y-33954D01*
X415103Y-33744D01*
X415133Y-33519D01*
X415148Y-33249D01*
X415178Y-32979D01*
X415193Y-32664D01*
X415208Y-32334D01*
Y-31974D01*
Y-31944D01*
Y-31884D01*
Y-31779D01*
Y-31644D01*
X415193Y-31479D01*
Y-31284D01*
X415178Y-31089D01*
X415163Y-30864D01*
X415118Y-30384D01*
X415058Y-29919D01*
X415028Y-29694D01*
X414983Y-29499D01*
X414923Y-29304D01*
X414863Y-29139D01*
Y-29124D01*
X414848Y-29109D01*
X414803Y-29004D01*
X414713Y-28884D01*
X414608Y-28719D01*
X414443Y-28569D01*
X414263Y-28449D01*
X414023Y-28344D01*
X413888Y-28329D01*
X413753Y-28314D01*
D02*
G37*
G36*
X404258D02*
X404228D01*
X404138Y-28329D01*
X403988Y-28359D01*
X403823Y-28419D01*
X403643Y-28509D01*
X403463Y-28659D01*
X403373Y-28749D01*
X403298Y-28869D01*
X403208Y-28989D01*
X403148Y-29139D01*
Y-29154D01*
X403133Y-29184D01*
X403118Y-29229D01*
X403103Y-29304D01*
X403073Y-29394D01*
X403043Y-29499D01*
X403013Y-29634D01*
X402983Y-29799D01*
X402953Y-29979D01*
X402923Y-30189D01*
X402893Y-30414D01*
X402863Y-30669D01*
X402848Y-30954D01*
X402833Y-31269D01*
X402818Y-31614D01*
Y-31974D01*
Y-31989D01*
Y-32064D01*
Y-32169D01*
Y-32304D01*
X402833Y-32454D01*
Y-32649D01*
X402848Y-32859D01*
X402863Y-33069D01*
X402893Y-33534D01*
X402953Y-33999D01*
X402998Y-34224D01*
X403043Y-34434D01*
X403088Y-34629D01*
X403148Y-34794D01*
Y-34809D01*
X403163Y-34824D01*
X403208Y-34929D01*
X403298Y-35049D01*
X403418Y-35199D01*
X403568Y-35364D01*
X403763Y-35484D01*
X403988Y-35589D01*
X404123Y-35604D01*
X404258Y-35619D01*
X404288D01*
X404393Y-35604D01*
X404528Y-35574D01*
X404693Y-35514D01*
X404873Y-35424D01*
X405053Y-35274D01*
X405143Y-35169D01*
X405233Y-35064D01*
X405308Y-34944D01*
X405368Y-34794D01*
Y-34779D01*
X405383Y-34749D01*
X405398Y-34704D01*
X405428Y-34629D01*
X405443Y-34539D01*
X405473Y-34434D01*
X405503Y-34284D01*
X405548Y-34134D01*
X405578Y-33954D01*
X405608Y-33744D01*
X405638Y-33519D01*
X405653Y-33249D01*
X405683Y-32979D01*
X405698Y-32664D01*
X405713Y-32334D01*
Y-31974D01*
Y-31944D01*
Y-31884D01*
Y-31779D01*
Y-31644D01*
X405698Y-31479D01*
Y-31284D01*
X405683Y-31089D01*
X405668Y-30864D01*
X405623Y-30384D01*
X405563Y-29919D01*
X405533Y-29694D01*
X405488Y-29499D01*
X405428Y-29304D01*
X405368Y-29139D01*
Y-29124D01*
X405353Y-29109D01*
X405308Y-29004D01*
X405218Y-28884D01*
X405113Y-28719D01*
X404948Y-28569D01*
X404768Y-28449D01*
X404528Y-28344D01*
X404393Y-28329D01*
X404258Y-28314D01*
D02*
G37*
G36*
X390098D02*
X390068D01*
X389978Y-28329D01*
X389828Y-28359D01*
X389663Y-28419D01*
X389483Y-28509D01*
X389303Y-28659D01*
X389213Y-28749D01*
X389138Y-28869D01*
X389048Y-28989D01*
X388988Y-29139D01*
Y-29154D01*
X388973Y-29184D01*
X388958Y-29229D01*
X388943Y-29304D01*
X388913Y-29394D01*
X388883Y-29499D01*
X388853Y-29634D01*
X388823Y-29799D01*
X388793Y-29979D01*
X388763Y-30189D01*
X388733Y-30414D01*
X388703Y-30669D01*
X388688Y-30954D01*
X388673Y-31269D01*
X388658Y-31614D01*
Y-31974D01*
Y-31989D01*
Y-32064D01*
Y-32169D01*
Y-32304D01*
X388673Y-32454D01*
Y-32649D01*
X388688Y-32859D01*
X388703Y-33069D01*
X388733Y-33534D01*
X388793Y-33999D01*
X388838Y-34224D01*
X388883Y-34434D01*
X388928Y-34629D01*
X388988Y-34794D01*
Y-34809D01*
X389003Y-34824D01*
X389048Y-34929D01*
X389138Y-35049D01*
X389258Y-35199D01*
X389408Y-35364D01*
X389603Y-35484D01*
X389828Y-35589D01*
X389963Y-35604D01*
X390098Y-35619D01*
X390128D01*
X390233Y-35604D01*
X390368Y-35574D01*
X390533Y-35514D01*
X390713Y-35424D01*
X390893Y-35274D01*
X390983Y-35169D01*
X391073Y-35064D01*
X391148Y-34944D01*
X391208Y-34794D01*
Y-34779D01*
X391223Y-34749D01*
X391238Y-34704D01*
X391268Y-34629D01*
X391283Y-34539D01*
X391313Y-34434D01*
X391343Y-34284D01*
X391388Y-34134D01*
X391418Y-33954D01*
X391448Y-33744D01*
X391478Y-33519D01*
X391493Y-33249D01*
X391523Y-32979D01*
X391538Y-32664D01*
X391553Y-32334D01*
Y-31974D01*
Y-31944D01*
Y-31884D01*
Y-31779D01*
Y-31644D01*
X391538Y-31479D01*
Y-31284D01*
X391523Y-31089D01*
X391508Y-30864D01*
X391463Y-30384D01*
X391403Y-29919D01*
X391373Y-29694D01*
X391328Y-29499D01*
X391268Y-29304D01*
X391208Y-29139D01*
Y-29124D01*
X391193Y-29109D01*
X391148Y-29004D01*
X391058Y-28884D01*
X390953Y-28719D01*
X390788Y-28569D01*
X390608Y-28449D01*
X390368Y-28344D01*
X390233Y-28329D01*
X390098Y-28314D01*
D02*
G37*
G36*
X380603D02*
X380573D01*
X380483Y-28329D01*
X380333Y-28359D01*
X380168Y-28419D01*
X379988Y-28509D01*
X379808Y-28659D01*
X379718Y-28749D01*
X379643Y-28869D01*
X379553Y-28989D01*
X379493Y-29139D01*
Y-29154D01*
X379478Y-29184D01*
X379463Y-29229D01*
X379448Y-29304D01*
X379418Y-29394D01*
X379388Y-29499D01*
X379358Y-29634D01*
X379328Y-29799D01*
X379298Y-29979D01*
X379268Y-30189D01*
X379238Y-30414D01*
X379208Y-30669D01*
X379193Y-30954D01*
X379178Y-31269D01*
X379163Y-31614D01*
Y-31974D01*
Y-31989D01*
Y-32064D01*
Y-32169D01*
Y-32304D01*
X379178Y-32454D01*
Y-32649D01*
X379193Y-32859D01*
X379208Y-33069D01*
X379238Y-33534D01*
X379298Y-33999D01*
X379343Y-34224D01*
X379388Y-34434D01*
X379433Y-34629D01*
X379493Y-34794D01*
Y-34809D01*
X379508Y-34824D01*
X379553Y-34929D01*
X379643Y-35049D01*
X379763Y-35199D01*
X379913Y-35364D01*
X380108Y-35484D01*
X380333Y-35589D01*
X380468Y-35604D01*
X380603Y-35619D01*
X380633D01*
X380738Y-35604D01*
X380873Y-35574D01*
X381038Y-35514D01*
X381218Y-35424D01*
X381398Y-35274D01*
X381488Y-35169D01*
X381578Y-35064D01*
X381653Y-34944D01*
X381713Y-34794D01*
Y-34779D01*
X381728Y-34749D01*
X381743Y-34704D01*
X381773Y-34629D01*
X381788Y-34539D01*
X381818Y-34434D01*
X381848Y-34284D01*
X381893Y-34134D01*
X381923Y-33954D01*
X381953Y-33744D01*
X381983Y-33519D01*
X381998Y-33249D01*
X382028Y-32979D01*
X382043Y-32664D01*
X382058Y-32334D01*
Y-31974D01*
Y-31944D01*
Y-31884D01*
Y-31779D01*
Y-31644D01*
X382043Y-31479D01*
Y-31284D01*
X382028Y-31089D01*
X382013Y-30864D01*
X381968Y-30384D01*
X381908Y-29919D01*
X381878Y-29694D01*
X381833Y-29499D01*
X381773Y-29304D01*
X381713Y-29139D01*
Y-29124D01*
X381698Y-29109D01*
X381653Y-29004D01*
X381563Y-28884D01*
X381458Y-28719D01*
X381293Y-28569D01*
X381113Y-28449D01*
X380873Y-28344D01*
X380738Y-28329D01*
X380603Y-28314D01*
D02*
G37*
%LPD*%
D15*
X847441Y492126D02*
X849441Y486126D01*
X845441D02*
X847441Y492126D01*
X845441Y6000D02*
X847441Y0D01*
X849441Y6000D01*
X847441Y271135D02*
Y492126D01*
Y0D02*
Y218990D01*
X788795Y492126D02*
X848441D01*
X788795Y0D02*
X848441D01*
X0Y-30512D02*
X6000Y-28512D01*
X0Y-30512D02*
X6000Y-32512D01*
X781402D02*
X787402Y-30512D01*
X781402Y-28512D02*
X787402Y-30512D01*
X0D02*
X366463D01*
X418938D02*
X787402D01*
X0Y-31512D02*
Y0D01*
X787402Y-31512D02*
Y-1394D01*
M02*
