G04*
G04 #@! TF.GenerationSoftware,Altium Limited,Altium Designer,25.5.2 (35)*
G04*
G04 Layer_Physical_Order=2*
G04 Layer_Color=16711680*
%FSLAX25Y25*%
%MOIN*%
G70*
G04*
G04 #@! TF.SameCoordinates,3DA33A79-F6D6-4926-9F20-4E14AA858C30*
G04*
G04*
G04 #@! TF.FilePolarity,Positive*
G04*
G01*
G75*
%ADD49C,0.07087*%
%ADD93C,0.05906*%
%ADD100C,0.03150*%
%ADD102R,0.05512X0.05118*%
%ADD103R,0.05315X0.04528*%
%ADD104C,0.01968*%
%ADD105C,0.07874*%
%ADD106C,0.15748*%
%ADD107C,0.02756*%
%ADD108C,0.03937*%
%ADD109C,0.03150*%
%ADD110C,0.01181*%
%ADD111C,0.05906*%
%ADD112R,0.05906X0.05906*%
%ADD113O,0.35433X0.17717*%
%ADD114C,0.11811*%
%ADD115C,0.06496*%
%ADD116R,0.06693X0.06693*%
%ADD117C,0.06693*%
%ADD118C,0.10335*%
%ADD119R,0.10335X0.10335*%
%ADD120C,0.04795*%
%ADD121R,0.04795X0.04795*%
%ADD122O,0.04213X0.08425*%
%ADD123O,0.04331X0.08661*%
%ADD124R,0.07323X0.07323*%
%ADD125C,0.07323*%
%ADD126R,0.07087X0.07087*%
G04:AMPARAMS|DCode=127|XSize=60mil|YSize=60mil|CornerRadius=0mil|HoleSize=0mil|Usage=FLASHONLY|Rotation=90.000|XOffset=0mil|YOffset=0mil|HoleType=Round|Shape=Octagon|*
%AMOCTAGOND127*
4,1,8,0.01500,0.03000,-0.01500,0.03000,-0.03000,0.01500,-0.03000,-0.01500,-0.01500,-0.03000,0.01500,-0.03000,0.03000,-0.01500,0.03000,0.01500,0.01500,0.03000,0.0*
%
%ADD127OCTAGOND127*%

G04:AMPARAMS|DCode=128|XSize=124mil|YSize=124mil|CornerRadius=0mil|HoleSize=0mil|Usage=FLASHONLY|Rotation=270.000|XOffset=0mil|YOffset=0mil|HoleType=Round|Shape=Octagon|*
%AMOCTAGOND128*
4,1,8,-0.03100,-0.06200,0.03100,-0.06200,0.06200,-0.03100,0.06200,0.03100,0.03100,0.06200,-0.03100,0.06200,-0.06200,0.03100,-0.06200,-0.03100,-0.03100,-0.06200,0.0*
%
%ADD128OCTAGOND128*%

%ADD129C,0.12400*%
%ADD130C,0.10000*%
G04:AMPARAMS|DCode=131|XSize=100mil|YSize=100mil|CornerRadius=0mil|HoleSize=0mil|Usage=FLASHONLY|Rotation=270.000|XOffset=0mil|YOffset=0mil|HoleType=Round|Shape=Octagon|*
%AMOCTAGOND131*
4,1,8,-0.02500,-0.05000,0.02500,-0.05000,0.05000,-0.02500,0.05000,0.02500,0.02500,0.05000,-0.02500,0.05000,-0.05000,0.02500,-0.05000,-0.02500,-0.02500,-0.05000,0.0*
%
%ADD131OCTAGOND131*%

G04:AMPARAMS|DCode=132|XSize=65mil|YSize=65mil|CornerRadius=0mil|HoleSize=0mil|Usage=FLASHONLY|Rotation=90.000|XOffset=0mil|YOffset=0mil|HoleType=Round|Shape=Octagon|*
%AMOCTAGOND132*
4,1,8,0.01625,0.03250,-0.01625,0.03250,-0.03250,0.01625,-0.03250,-0.01625,-0.01625,-0.03250,0.01625,-0.03250,0.03250,-0.01625,0.03250,0.01625,0.01625,0.03250,0.0*
%
%ADD132OCTAGOND132*%

%ADD133C,0.06500*%
G04:AMPARAMS|DCode=134|XSize=110mil|YSize=85mil|CornerRadius=0mil|HoleSize=0mil|Usage=FLASHONLY|Rotation=0.000|XOffset=0mil|YOffset=0mil|HoleType=Round|Shape=Octagon|*
%AMOCTAGOND134*
4,1,8,0.05500,-0.02125,0.05500,0.02125,0.03375,0.04250,-0.03375,0.04250,-0.05500,0.02125,-0.05500,-0.02125,-0.03375,-0.04250,0.03375,-0.04250,0.05500,-0.02125,0.0*
%
%ADD134OCTAGOND134*%

%ADD135O,0.11000X0.08500*%
%ADD136O,0.17701X0.11811*%
G04:AMPARAMS|DCode=137|XSize=177.01mil|YSize=118.11mil|CornerRadius=0mil|HoleSize=0mil|Usage=FLASHONLY|Rotation=180.000|XOffset=0mil|YOffset=0mil|HoleType=Round|Shape=Octagon|*
%AMOCTAGOND137*
4,1,8,-0.08850,0.02953,-0.08850,-0.02953,-0.05898,-0.05906,0.05898,-0.05906,0.08850,-0.02953,0.08850,0.02953,0.05898,0.05906,-0.05898,0.05906,-0.08850,0.02953,0.0*
%
%ADD137OCTAGOND137*%

%ADD138O,0.06000X0.07000*%
G04:AMPARAMS|DCode=139|XSize=60mil|YSize=70mil|CornerRadius=0mil|HoleSize=0mil|Usage=FLASHONLY|Rotation=180.000|XOffset=0mil|YOffset=0mil|HoleType=Round|Shape=Octagon|*
%AMOCTAGOND139*
4,1,8,0.01500,-0.03500,-0.01500,-0.03500,-0.03000,-0.02000,-0.03000,0.02000,-0.01500,0.03500,0.01500,0.03500,0.03000,0.02000,0.03000,-0.02000,0.01500,-0.03500,0.0*
%
%ADD139OCTAGOND139*%

G04:AMPARAMS|DCode=140|XSize=85mil|YSize=85mil|CornerRadius=0mil|HoleSize=0mil|Usage=FLASHONLY|Rotation=270.000|XOffset=0mil|YOffset=0mil|HoleType=Round|Shape=Octagon|*
%AMOCTAGOND140*
4,1,8,-0.02125,-0.04250,0.02125,-0.04250,0.04250,-0.02125,0.04250,0.02125,0.02125,0.04250,-0.02125,0.04250,-0.04250,0.02125,-0.04250,-0.02125,-0.02125,-0.04250,0.0*
%
%ADD140OCTAGOND140*%

G04:AMPARAMS|DCode=141|XSize=80mil|YSize=60mil|CornerRadius=0mil|HoleSize=0mil|Usage=FLASHONLY|Rotation=90.000|XOffset=0mil|YOffset=0mil|HoleType=Round|Shape=Octagon|*
%AMOCTAGOND141*
4,1,8,0.01500,0.04000,-0.01500,0.04000,-0.03000,0.02500,-0.03000,-0.02500,-0.01500,-0.04000,0.01500,-0.04000,0.03000,-0.02500,0.03000,0.02500,0.01500,0.04000,0.0*
%
%ADD141OCTAGOND141*%

G04:AMPARAMS|DCode=142|XSize=80mil|YSize=80mil|CornerRadius=0mil|HoleSize=0mil|Usage=FLASHONLY|Rotation=0.000|XOffset=0mil|YOffset=0mil|HoleType=Round|Shape=Octagon|*
%AMOCTAGOND142*
4,1,8,0.04000,-0.02000,0.04000,0.02000,0.02000,0.04000,-0.02000,0.04000,-0.04000,0.02000,-0.04000,-0.02000,-0.02000,-0.04000,0.02000,-0.04000,0.04000,-0.02000,0.0*
%
%ADD142OCTAGOND142*%

G04:AMPARAMS|DCode=143|XSize=65mil|YSize=65mil|CornerRadius=0mil|HoleSize=0mil|Usage=FLASHONLY|Rotation=0.000|XOffset=0mil|YOffset=0mil|HoleType=Round|Shape=Octagon|*
%AMOCTAGOND143*
4,1,8,0.03250,-0.01625,0.03250,0.01625,0.01625,0.03250,-0.01625,0.03250,-0.03250,0.01625,-0.03250,-0.01625,-0.01625,-0.03250,0.01625,-0.03250,0.03250,-0.01625,0.0*
%
%ADD143OCTAGOND143*%

%ADD144R,0.05937X0.05937*%
%ADD145C,0.05937*%
G04:AMPARAMS|DCode=146|XSize=137.8mil|YSize=216.54mil|CornerRadius=34.45mil|HoleSize=0mil|Usage=FLASHONLY|Rotation=180.000|XOffset=0mil|YOffset=0mil|HoleType=Round|Shape=RoundedRectangle|*
%AMROUNDEDRECTD146*
21,1,0.13780,0.14764,0,0,180.0*
21,1,0.06890,0.21654,0,0,180.0*
1,1,0.06890,-0.03445,0.07382*
1,1,0.06890,0.03445,0.07382*
1,1,0.06890,0.03445,-0.07382*
1,1,0.06890,-0.03445,-0.07382*
%
%ADD146ROUNDEDRECTD146*%
%ADD147C,0.05200*%
%ADD148C,0.15748*%
%ADD149R,0.05937X0.05937*%
%ADD150R,0.06201X0.06201*%
%ADD151C,0.06201*%
%ADD152R,0.05906X0.05906*%
%ADD153C,0.19685*%
%ADD154C,0.13780*%
%ADD155R,0.04606X0.04606*%
%ADD156C,0.04606*%
%ADD157C,0.05150*%
%ADD158R,0.05150X0.05150*%
%ADD159R,0.06496X0.06496*%
%ADD160C,0.05512*%
%ADD161C,0.04528*%
%ADD162O,0.07000X0.06000*%
G04:AMPARAMS|DCode=163|XSize=60mil|YSize=70mil|CornerRadius=0mil|HoleSize=0mil|Usage=FLASHONLY|Rotation=90.000|XOffset=0mil|YOffset=0mil|HoleType=Round|Shape=Octagon|*
%AMOCTAGOND163*
4,1,8,-0.03500,-0.01500,-0.03500,0.01500,-0.02000,0.03000,0.02000,0.03000,0.03500,0.01500,0.03500,-0.01500,0.02000,-0.03000,-0.02000,-0.03000,-0.03500,-0.01500,0.0*
%
%ADD163OCTAGOND163*%

%ADD164R,0.06201X0.06201*%
G04:AMPARAMS|DCode=165|XSize=80mil|YSize=80mil|CornerRadius=0mil|HoleSize=0mil|Usage=FLASHONLY|Rotation=270.000|XOffset=0mil|YOffset=0mil|HoleType=Round|Shape=Octagon|*
%AMOCTAGOND165*
4,1,8,-0.02000,-0.04000,0.02000,-0.04000,0.04000,-0.02000,0.04000,0.02000,0.02000,0.04000,-0.02000,0.04000,-0.04000,0.02000,-0.04000,-0.02000,-0.02000,-0.04000,0.0*
%
%ADD165OCTAGOND165*%

%ADD166C,0.27559*%
%ADD167C,0.02756*%
%ADD168R,0.03543X0.04724*%
G04:AMPARAMS|DCode=169|XSize=77.56mil|YSize=23.62mil|CornerRadius=2.95mil|HoleSize=0mil|Usage=FLASHONLY|Rotation=0.000|XOffset=0mil|YOffset=0mil|HoleType=Round|Shape=RoundedRectangle|*
%AMROUNDEDRECTD169*
21,1,0.07756,0.01772,0,0,0.0*
21,1,0.07165,0.02362,0,0,0.0*
1,1,0.00591,0.03583,-0.00886*
1,1,0.00591,-0.03583,-0.00886*
1,1,0.00591,-0.03583,0.00886*
1,1,0.00591,0.03583,0.00886*
%
%ADD169ROUNDEDRECTD169*%
G04:AMPARAMS|DCode=170|XSize=77.56mil|YSize=23.62mil|CornerRadius=2.95mil|HoleSize=0mil|Usage=FLASHONLY|Rotation=270.000|XOffset=0mil|YOffset=0mil|HoleType=Round|Shape=RoundedRectangle|*
%AMROUNDEDRECTD170*
21,1,0.07756,0.01772,0,0,270.0*
21,1,0.07165,0.02362,0,0,270.0*
1,1,0.00591,-0.00886,-0.03583*
1,1,0.00591,-0.00886,0.03583*
1,1,0.00591,0.00886,0.03583*
1,1,0.00591,0.00886,-0.03583*
%
%ADD170ROUNDEDRECTD170*%
%ADD171R,0.03543X0.03150*%
%ADD172O,0.08268X0.05512*%
%ADD173R,0.03819X0.11890*%
%ADD174R,0.22323X0.24882*%
%ADD175R,0.06693X0.09843*%
%ADD176R,0.03150X0.03543*%
%ADD177R,0.02362X0.06496*%
%ADD178R,0.05118X0.05512*%
%ADD179O,0.05512X0.08268*%
%ADD180R,0.06496X0.02362*%
%ADD181R,0.11890X0.03819*%
%ADD182R,0.24882X0.22323*%
%ADD183R,0.04528X0.05315*%
%ADD184R,0.04724X0.03543*%
%ADD185C,0.19685*%
%ADD186C,0.02126*%
G36*
X85016Y195866D02*
X87953Y192929D01*
X87953Y174325D01*
X84888Y171260D01*
X49213Y171260D01*
X46260Y168307D01*
Y150866D01*
X43031Y147638D01*
X7874D01*
X4921Y150591D01*
X4921Y191437D01*
X9351Y195866D01*
X46260D01*
X85016Y195866D01*
D02*
G37*
G36*
X350394Y163386D02*
X356299Y157480D01*
Y120079D01*
X352362Y116142D01*
X324803Y116142D01*
X320866Y120079D01*
X320866Y137795D01*
X314961Y143701D01*
X247654Y143701D01*
X173147Y69194D01*
X168629Y67323D01*
X145276Y67323D01*
X139796Y72803D01*
X139802Y72835D01*
Y87637D01*
X210799Y158633D01*
X222272Y163386D01*
X350394Y163386D01*
D02*
G37*
G36*
X416535Y136614D02*
X416536Y114961D01*
X437402Y94094D01*
X437401Y70866D01*
X428740Y70866D01*
X428740Y82677D01*
X424803Y86614D01*
X384252Y86614D01*
X378627Y80989D01*
X378627Y70866D01*
X370079Y70866D01*
X370079Y106338D01*
X371091Y107255D01*
X373173Y109024D01*
X375312Y110723D01*
X377505Y112353D01*
X378627Y113131D01*
X378627Y113131D01*
Y136501D01*
X382874Y140748D01*
X412402Y140748D01*
X416535Y136614D01*
D02*
G37*
G36*
X294414Y140748D02*
X298352Y136811D01*
Y117003D01*
X301181Y114173D01*
X314099Y114173D01*
X319021Y109251D01*
X319021Y70866D01*
X311147Y70866D01*
X311147Y79527D01*
X304060Y86614D01*
X266806Y86614D01*
X259966Y79774D01*
X259966Y70866D01*
X252092Y70866D01*
Y135827D01*
X257013Y140748D01*
X294414Y140748D01*
D02*
G37*
G36*
X426733Y70866D02*
X426772Y70672D01*
Y42323D01*
X424424Y39975D01*
X367224Y39975D01*
X241479Y39975D01*
X239173Y42281D01*
X239173Y78387D01*
X239527Y78740D01*
X249016Y78740D01*
X249016Y70208D01*
X251310Y67913D01*
X296555Y67913D01*
X298228Y69587D01*
X298228Y78740D01*
X308071Y78740D01*
X308071Y69488D01*
X309646Y67913D01*
X355305Y67913D01*
X357229Y69838D01*
X357229Y78740D01*
X367224Y78740D01*
X367224Y70079D01*
X369390Y67913D01*
X410961D01*
X413878Y70830D01*
X413878Y78740D01*
X413878Y78740D01*
X426733Y78740D01*
X426733Y70866D01*
D02*
G37*
G36*
X87953Y159979D02*
Y137240D01*
X133137Y104574D01*
X137795Y95458D01*
Y87638D01*
X137795Y87637D01*
Y72835D01*
X137789Y72803D01*
X137795Y72770D01*
Y72735D01*
X132284Y67223D01*
X104921Y67223D01*
X98426Y73719D01*
X98425Y93405D01*
X84645Y107184D01*
X53150Y107184D01*
X50197Y110137D01*
Y159349D01*
X53150Y162302D01*
X85630Y162302D01*
X87953Y159979D01*
D02*
G37*
G36*
X391847Y10531D02*
X387517D01*
Y12795D01*
X389485D01*
Y14764D01*
X387517D01*
Y17028D01*
X391847D01*
Y10531D01*
D02*
G37*
G36*
X378462Y14764D02*
X376493D01*
Y12795D01*
X378462D01*
Y10531D01*
X374170D01*
Y17028D01*
X378462D01*
Y14764D01*
D02*
G37*
G36*
X80617Y103346D02*
X93504Y90847D01*
X93504Y68898D01*
X103347Y59055D01*
X205118Y59055D01*
X229724Y34449D01*
X246924D01*
X246924Y18701D01*
X270669Y18701D01*
X270669Y34449D01*
X276575Y34449D01*
X276575Y18701D01*
X300246Y18701D01*
X300246Y34914D01*
X306099D01*
X306102Y18701D01*
X329724Y18701D01*
Y34914D01*
X335630D01*
Y18701D01*
X335630Y8858D01*
X331693Y4921D01*
X236221Y4921D01*
X91774Y4921D01*
X76245Y11353D01*
X32479Y55118D01*
X6890Y55118D01*
X4921Y55118D01*
Y103347D01*
X9843D01*
X80617Y103346D01*
D02*
G37*
G36*
X62303Y439764D02*
X60039D01*
Y441732D01*
X58071D01*
Y439764D01*
X55807D01*
Y444095D01*
X62303D01*
Y439764D01*
D02*
G37*
G36*
Y426417D02*
X55807D01*
Y430709D01*
X58071D01*
Y428740D01*
X60039D01*
Y430709D01*
X62303D01*
Y426417D01*
D02*
G37*
G36*
X116742Y346555D02*
X114478D01*
Y348524D01*
X112509D01*
Y346555D01*
X110246D01*
Y350886D01*
X116742D01*
Y346555D01*
D02*
G37*
G36*
Y333209D02*
X110246D01*
Y337500D01*
X112509D01*
Y335531D01*
X114478D01*
Y337500D01*
X116742D01*
Y333209D01*
D02*
G37*
G36*
X43307Y432087D02*
X46260Y429134D01*
X46260Y386811D01*
X43307Y383858D01*
X38386Y383858D01*
Y328740D01*
X35945Y326299D01*
X7362Y326299D01*
X4921Y328740D01*
X4921Y429134D01*
X7874Y432087D01*
X43307Y432087D01*
D02*
G37*
G36*
X46260Y315945D02*
X46260Y271752D01*
X44193Y269685D01*
X33465Y269685D01*
X31496Y267717D01*
X31496Y247047D01*
X29528Y245079D01*
X6890D01*
X4921Y247047D01*
X4921Y316929D01*
X5906Y317913D01*
X44291D01*
X46260Y315945D01*
D02*
G37*
G36*
X66270Y380444D02*
X63046Y377219D01*
X62563Y376497D01*
X62541Y376384D01*
X55826D01*
Y377267D01*
X46475D01*
X46260Y377310D01*
X46045Y377267D01*
X41536D01*
Y371048D01*
X55826D01*
Y371931D01*
X62394D01*
Y349839D01*
X61381Y348826D01*
X55826D01*
Y349708D01*
X41536D01*
Y343489D01*
X55826D01*
Y344371D01*
X62303D01*
X62303Y344371D01*
X63155Y344541D01*
X63878Y345024D01*
X66196Y347341D01*
X66196Y347341D01*
X66678Y348064D01*
X66848Y348916D01*
X66848Y348916D01*
Y374158D01*
Y374722D01*
X71683Y379557D01*
X72215Y379557D01*
X72835Y378937D01*
X72835Y312621D01*
X68591Y308378D01*
X68195Y307785D01*
X68056Y307087D01*
X68056Y307087D01*
Y243866D01*
X67610Y243420D01*
X49930D01*
X49838Y243558D01*
X49451Y243817D01*
X49412Y243992D01*
Y244197D01*
X49451Y244372D01*
X49838Y244631D01*
X50168Y245125D01*
X50284Y245709D01*
Y247480D01*
X50168Y248064D01*
X49838Y248558D01*
X49343Y248889D01*
X48760Y249005D01*
X41938D01*
X41400Y249543D01*
Y254902D01*
X42932D01*
Y262814D01*
X35414D01*
Y254902D01*
X36946D01*
Y248621D01*
X36946Y248621D01*
X37116Y247768D01*
X37598Y247046D01*
X39624Y245020D01*
X39625Y245020D01*
X40347Y244537D01*
X40788Y244449D01*
X40903Y244372D01*
X40942Y244197D01*
Y243992D01*
X40903Y243817D01*
X40516Y243558D01*
X40186Y243064D01*
X40070Y242480D01*
Y240709D01*
X40186Y240125D01*
X40516Y239631D01*
X40903Y239372D01*
X40915Y239320D01*
X40829Y239091D01*
X40652Y238806D01*
X39876Y238652D01*
X39154Y238169D01*
X39154Y238169D01*
X36772Y235787D01*
X36289Y235065D01*
X36119Y234213D01*
X36119Y234213D01*
Y233090D01*
X34587D01*
X34449Y233532D01*
X34449Y264252D01*
X37875Y267678D01*
X44193Y267678D01*
X44387Y267717D01*
X46752D01*
X49213Y270177D01*
X49213Y318898D01*
X47244Y320866D01*
X43307Y320866D01*
X40846Y323327D01*
X40846Y378445D01*
X43307Y380905D01*
X66079Y380906D01*
X66270Y380444D01*
D02*
G37*
G36*
X72835Y236804D02*
Y224459D01*
X70428Y222052D01*
X36806Y222052D01*
X34570Y224289D01*
X34583Y224854D01*
X34949Y225178D01*
X42105D01*
Y233090D01*
X41080D01*
X40873Y233590D01*
X41489Y234205D01*
X41594Y234184D01*
X48760D01*
X49343Y234300D01*
X49444Y234367D01*
X50178D01*
Y232658D01*
X58090D01*
Y234592D01*
X69213D01*
X69213Y234592D01*
X69911Y234731D01*
X70503Y235126D01*
X72373Y236996D01*
X72835Y236804D01*
D02*
G37*
G36*
X149272Y208366D02*
X144980D01*
Y210630D01*
X146949D01*
Y212598D01*
X144980D01*
Y214862D01*
X149272D01*
Y208366D01*
D02*
G37*
G36*
X135925Y212598D02*
X133957D01*
Y210630D01*
X135925D01*
Y208366D01*
X131595D01*
Y214862D01*
X135925D01*
Y212598D01*
D02*
G37*
G36*
X6890Y243072D02*
X29035D01*
X31496Y240610D01*
Y200787D01*
X8011Y200787D01*
X4921Y203877D01*
X4921Y241142D01*
X6858Y243078D01*
X6890Y243072D01*
D02*
G37*
%LPC*%
G36*
X157480Y44541D02*
X155748Y44405D01*
X154057Y43999D01*
X152452Y43334D01*
X150970Y42426D01*
X149648Y41297D01*
X148519Y39975D01*
X147611Y38493D01*
X146946Y36887D01*
X146540Y35197D01*
X146404Y33465D01*
X146540Y31732D01*
X146946Y30042D01*
X147611Y28436D01*
X148519Y26954D01*
X149648Y25632D01*
X150970Y24503D01*
X152452Y23595D01*
X154057Y22930D01*
X155748Y22524D01*
X157480Y22388D01*
X159213Y22524D01*
X160903Y22930D01*
X162509Y23595D01*
X163991Y24503D01*
X165313Y25632D01*
X166442Y26954D01*
X167350Y28436D01*
X168015Y30042D01*
X168421Y31732D01*
X168557Y33465D01*
X168421Y35197D01*
X168015Y36887D01*
X167350Y38493D01*
X166442Y39975D01*
X165313Y41297D01*
X163991Y42426D01*
X162509Y43334D01*
X160903Y43999D01*
X159213Y44405D01*
X157480Y44541D01*
D02*
G37*
%LPD*%
D49*
X211614Y175394D02*
D03*
X542323Y107638D02*
D03*
D93*
X138779Y163878D02*
D03*
X131260D02*
D03*
X423071Y74803D02*
D03*
X433071D02*
D03*
X245905D02*
D03*
X255906D02*
D03*
X304961D02*
D03*
X314961D02*
D03*
X364016D02*
D03*
X374016D02*
D03*
D100*
X166339Y85925D02*
D03*
X161102D02*
D03*
X155866D02*
D03*
X150630D02*
D03*
X170276Y84626D02*
D03*
X173425Y82185D02*
D03*
Y78051D02*
D03*
X170276Y74508D02*
D03*
X166339Y73327D02*
D03*
X161102D02*
D03*
X155866D02*
D03*
X150630D02*
D03*
X146063Y74508D02*
D03*
X143504Y78051D02*
D03*
Y82185D02*
D03*
X146653Y84626D02*
D03*
X126969Y85925D02*
D03*
X121732D02*
D03*
X116496D02*
D03*
X111260D02*
D03*
X130905Y84626D02*
D03*
X134055Y82185D02*
D03*
Y78051D02*
D03*
X130905Y74508D02*
D03*
X126969Y73327D02*
D03*
X121732D02*
D03*
X116496D02*
D03*
X111260D02*
D03*
X106693Y74508D02*
D03*
X104134Y78051D02*
D03*
Y82185D02*
D03*
X107283Y84626D02*
D03*
D102*
X130905Y377307D02*
D03*
Y371008D02*
D03*
Y347657D02*
D03*
Y353957D02*
D03*
X701083Y81496D02*
D03*
Y75197D02*
D03*
X720984Y98425D02*
D03*
Y104724D02*
D03*
X751279Y81496D02*
D03*
Y75197D02*
D03*
X700984Y112205D02*
D03*
Y105905D02*
D03*
X153073Y129724D02*
D03*
Y136024D02*
D03*
X160947Y136024D02*
D03*
Y129724D02*
D03*
X54134Y230118D02*
D03*
Y236417D02*
D03*
X153032Y144181D02*
D03*
Y150480D02*
D03*
X115157Y136024D02*
D03*
Y129724D02*
D03*
X160906Y144181D02*
D03*
Y150480D02*
D03*
X18701Y128150D02*
D03*
Y121850D02*
D03*
X399382Y418166D02*
D03*
Y424465D02*
D03*
D103*
X176673Y190453D02*
D03*
Y183563D02*
D03*
X103494Y342028D02*
D03*
Y335138D02*
D03*
X412402Y27067D02*
D03*
Y33957D02*
D03*
X88583Y440776D02*
D03*
Y433886D02*
D03*
X168307Y183563D02*
D03*
Y190453D02*
D03*
D104*
X732283Y57087D02*
Y64961D01*
Y71868D01*
X720965Y67511D02*
Y74213D01*
Y67511D02*
X722441Y66035D01*
Y64961D02*
Y66035D01*
X710925Y67627D02*
Y74213D01*
X712598Y57559D02*
Y65954D01*
X710925Y67627D02*
X712598Y65954D01*
X734628Y74213D02*
X741043D01*
X732283Y71868D02*
X734628Y74213D01*
X720984Y90551D02*
Y98425D01*
X720965Y82480D02*
Y84352D01*
X720984Y84372D02*
Y90551D01*
X720965Y84352D02*
X720984Y84372D01*
X766732Y64764D02*
Y92520D01*
X751181Y49213D02*
X766732Y64764D01*
X747047Y112205D02*
X766732Y92520D01*
X760984Y75197D02*
Y90551D01*
Y70039D02*
Y75197D01*
X751279D02*
X760984D01*
X755905Y64961D02*
X760984Y70039D01*
X742126Y64961D02*
X755905D01*
X734628Y49213D02*
X751181D01*
X734549Y49291D02*
X734628Y49213D01*
X732087Y49291D02*
X734549D01*
X750295Y82480D02*
X751279Y81496D01*
X741043Y82480D02*
X750295D01*
X740984D02*
Y90551D01*
X722441Y64961D02*
X722441Y64961D01*
Y57559D02*
Y64961D01*
X701083Y81496D02*
X702067Y82480D01*
X710925D01*
X700984D02*
Y90551D01*
X694095Y104752D02*
X695248Y105905D01*
X694095Y75197D02*
X701083D01*
X489467Y52165D02*
X671654D01*
X694095Y74606D01*
X695248Y105905D02*
X700984D01*
X694095Y74606D02*
Y104752D01*
X700984Y105905D02*
X745630D01*
X486417Y55215D02*
X489467Y52165D01*
X486042Y49291D02*
X712598D01*
X480118Y55215D02*
X486042Y49291D01*
X486417Y55215D02*
Y58071D01*
X722441Y49291D02*
X732087D01*
X712598D02*
X722441D01*
X67421Y421260D02*
X72835D01*
X700984Y112205D02*
X747047D01*
X416972Y422772D02*
Y432634D01*
Y422772D02*
X417402Y422342D01*
X415551Y434055D02*
X416972Y432634D01*
X193098Y157017D02*
Y164524D01*
X192710Y164522D02*
X193098Y164524D01*
X180118Y311024D02*
X182087Y309055D01*
X192913Y268252D02*
Y311024D01*
X182087Y291339D02*
Y309055D01*
X166437Y311024D02*
X166535Y311122D01*
Y334339D01*
X166437Y311024D02*
X180118D01*
X192704Y268042D02*
X192913Y268252D01*
X192704Y213337D02*
Y268042D01*
X193098Y167294D02*
X193098Y164524D01*
X192704Y213337D02*
X193098Y167294D01*
X182087Y281496D02*
Y291339D01*
X168124Y130783D02*
X193098Y157017D01*
X700984Y112205D02*
Y121811D01*
X478268Y69784D02*
X478697Y69354D01*
Y59492D02*
Y69354D01*
X167594Y130253D02*
X168124Y130783D01*
X166871Y130195D02*
X167594Y130253D01*
X478697Y59492D02*
X480118Y58071D01*
Y55215D02*
Y58071D01*
X131191Y347372D02*
X138494D01*
X130905Y347657D02*
X131191Y347372D01*
X130905Y283514D02*
Y347657D01*
X153787Y347087D02*
X166535Y334339D01*
X138494Y347372D02*
X138779Y347087D01*
X153787D01*
X114478Y267087D02*
X130905Y283514D01*
X59055Y427559D02*
X61122D01*
X67421Y421260D01*
X94871Y267087D02*
X114478D01*
X153032Y150480D02*
X160906D01*
X152835D02*
X153032D01*
X160906D02*
X160906Y150480D01*
X146299Y164173D02*
X192710Y164522D01*
X146299Y157016D02*
X152835Y150480D01*
X160947Y129724D02*
X160947Y129724D01*
X153073Y129724D02*
X160947D01*
X160947Y129724D02*
X166871Y130195D01*
X153073Y117747D02*
Y129724D01*
X150641Y115315D02*
X153073Y117747D01*
X131606Y115315D02*
X150641D01*
X53957Y236595D02*
X54134Y236417D01*
X45177Y236595D02*
X53957D01*
X40728D02*
X45177D01*
X38346Y234213D02*
X40728Y236595D01*
X146299Y157016D02*
Y163878D01*
Y164173D01*
X130453Y116468D02*
X131606Y115315D01*
X130453Y116468D02*
Y123150D01*
X38346Y229134D02*
Y234213D01*
X474409Y87598D02*
X485264D01*
X486417Y86445D01*
Y80709D02*
Y86445D01*
X480118Y76968D02*
Y80709D01*
X483268Y69784D02*
Y73819D01*
X480118Y76968D02*
X483268Y73819D01*
X488268Y69784D02*
Y76002D01*
X486417Y77853D02*
X488268Y76002D01*
X486417Y77853D02*
Y80709D01*
X400536Y412402D02*
X411248D01*
X412402Y413555D01*
Y422342D01*
X399382Y413555D02*
Y418166D01*
Y413555D02*
X400536Y412402D01*
X406365Y424465D02*
X407402Y423429D01*
Y422342D02*
Y423429D01*
X399382Y424465D02*
X406365D01*
X439173Y13976D02*
X467520Y42323D01*
Y80709D02*
X474409Y87598D01*
X467520Y42323D02*
Y80709D01*
X400689Y13976D02*
X439173D01*
X487838Y69354D02*
X488268Y69784D01*
X639764Y402559D02*
X643701Y398622D01*
X635827Y402559D02*
X639764D01*
X643701Y386221D02*
Y398622D01*
X640748Y383268D02*
X643701Y386221D01*
X634293Y383268D02*
X640748D01*
X490158Y424213D02*
X515789D01*
X488189Y415354D02*
Y422244D01*
X515789Y424213D02*
X517758Y422244D01*
X488189Y422244D02*
X490158Y424213D01*
X39370Y129404D02*
X39493Y129528D01*
X524606Y383268D02*
X527559Y386221D01*
X524606Y402559D02*
X527559Y399606D01*
Y386221D02*
Y399606D01*
X665354Y405512D02*
Y415354D01*
Y405512D02*
X668307Y402559D01*
X695866D01*
X635827Y422244D02*
Y437008D01*
X517167Y383268D02*
X524606D01*
X576222D02*
X583661D01*
X585630Y385236D02*
Y399729D01*
X583661Y383268D02*
X585630Y385236D01*
X576813Y402559D02*
X582800D01*
X585630Y399729D01*
X517758Y402559D02*
X524606D01*
X390666Y13780D02*
X400689D01*
X412402Y27067D02*
X417658D01*
X423071Y32480D01*
X445945Y152480D02*
X482598Y115827D01*
X488189D01*
X445945Y152480D02*
Y169291D01*
X440945D02*
Y178150D01*
X445866Y183071D02*
X488189D01*
X440945Y178150D02*
X445866Y183071D01*
X123031Y62008D02*
X215551D01*
X226378Y51181D01*
X139449Y107184D02*
X152952D01*
X198819Y153051D02*
Y257874D01*
X152952Y107184D02*
X198819Y153051D01*
Y257874D02*
X202756Y261811D01*
X195866Y154549D02*
Y266732D01*
X152537Y111221D02*
X195866Y154549D01*
X176673Y178150D02*
Y183563D01*
X504921Y114842D02*
X509313D01*
X488189Y109136D02*
Y115827D01*
X486142Y106299D02*
Y107089D01*
X488189Y109136D01*
X504921Y154842D02*
X516063D01*
X537165Y257638D02*
X542323D01*
X521654Y242126D02*
X537165Y257638D01*
X521654Y160433D02*
Y242126D01*
X516063Y154842D02*
X521654Y160433D01*
X528976Y237638D02*
X542323D01*
X524606Y233268D02*
X528976Y237638D01*
X524606Y130136D02*
Y233268D01*
X509313Y114842D02*
X524606Y130136D01*
X87953Y307057D02*
X87982Y307087D01*
X87953Y281496D02*
Y307057D01*
X78780Y277087D02*
X106801D01*
X138779Y155382D02*
Y168630D01*
X168071Y190689D02*
X168307Y190453D01*
X158169Y190689D02*
X168071D01*
X145650Y144181D02*
X153032D01*
X145453Y143984D02*
X145650Y144181D01*
X145453Y142598D02*
Y143984D01*
X129921Y111221D02*
X152537D01*
X122047Y119095D02*
X129921Y111221D01*
X122047Y119095D02*
Y120907D01*
X137953Y129528D02*
X140453Y132028D01*
X123031Y129528D02*
X137953D01*
X140453Y132028D02*
Y142598D01*
X116142Y137008D02*
X123031D01*
X115157Y136024D02*
X116142Y137008D01*
X137626Y169783D02*
X138779Y168630D01*
X120571Y169783D02*
X137626D01*
X109252Y146081D02*
X119095Y155923D01*
Y168307D02*
X120571Y169783D01*
X119095Y155923D02*
Y168307D01*
X114941Y147854D02*
X130965Y163878D01*
X131260D01*
X114941Y136221D02*
Y147854D01*
X138779Y155382D02*
X145453Y148709D01*
Y143984D02*
Y148709D01*
X121732Y63307D02*
X123031Y62008D01*
X121732Y63307D02*
Y73327D01*
X109252Y129724D02*
Y146081D01*
X435941Y151142D02*
Y169293D01*
X441260Y137874D02*
X448819D01*
X435941Y143193D02*
X441260Y137874D01*
X435941Y143193D02*
Y151142D01*
X486073Y106368D02*
X486142Y106299D01*
X468572Y106368D02*
X486073D01*
X468504Y106436D02*
X468572Y106368D01*
X435941Y114606D02*
X445422D01*
X448819Y118003D01*
Y127874D01*
X435941Y169295D02*
X435945Y169291D01*
X47185Y374158D02*
X48681D01*
X46260Y375083D02*
X47185Y374158D01*
X407831Y432634D02*
X409252Y434055D01*
X407831Y422772D02*
Y432634D01*
X407402Y422342D02*
X407831Y422772D01*
X496142Y100472D02*
Y106299D01*
X493110Y97441D02*
X496142Y100472D01*
X462587Y97441D02*
X493110D01*
X445422Y114606D02*
X462587Y97441D01*
X126398Y350988D02*
Y353957D01*
X126365Y350956D02*
X126398Y350988D01*
X126365Y344359D02*
Y350956D01*
Y344359D02*
X126398Y344327D01*
Y311437D02*
Y344327D01*
X122835Y307874D02*
X126398Y311437D01*
X115068Y307874D02*
X122835D01*
X104123Y296929D02*
X115068Y307874D01*
X165354Y281496D02*
X166437D01*
X139764Y307087D02*
X165354Y281496D01*
X138779Y307087D02*
X139764D01*
X152523Y407972D02*
Y421024D01*
X145593Y427953D02*
X152523Y421024D01*
X124894Y427953D02*
X145593D01*
X120866Y423924D02*
X124894Y427953D01*
X120866Y328058D02*
Y423924D01*
X131191Y418307D02*
X138398D01*
X142680Y414026D01*
Y407972D02*
Y414026D01*
X161256Y407972D02*
X188976Y380252D01*
X152523Y407972D02*
X161256D01*
X188976Y257087D02*
Y380252D01*
X166535Y382197D02*
X174409Y374323D01*
Y356213D02*
Y374323D01*
X166535Y348339D02*
X174409Y356213D01*
X154220Y326266D02*
X154332Y326378D01*
X154220Y313398D02*
Y326266D01*
X166437Y291339D02*
X173819D01*
X154220Y313398D02*
X166437Y301181D01*
Y281496D02*
X173819D01*
X138779Y317087D02*
X139734D01*
X165482Y291339D01*
X166437D01*
X130905Y367087D02*
X138779D01*
X147787D01*
X157646Y377087D02*
X166535Y368197D01*
X138779Y377087D02*
X157646D01*
X147787Y367087D02*
X166535Y348339D01*
X114478Y190755D02*
Y218504D01*
Y190755D02*
X125115Y180118D01*
X136811D01*
X126398Y353957D02*
X130905D01*
X104123Y290473D02*
Y296929D01*
X103494Y289843D02*
X104123Y290473D01*
X167421Y247047D02*
X178937D01*
X188976Y257087D01*
X118477Y325669D02*
X120866Y328058D01*
X113494Y325669D02*
X118477D01*
X97441Y388937D02*
X107441Y378937D01*
Y360009D02*
Y378937D01*
Y360009D02*
X113494Y353957D01*
Y349705D02*
Y353957D01*
X97441Y388937D02*
Y407972D01*
X132776Y211614D02*
Y218110D01*
X176673Y200787D02*
Y205301D01*
X171161Y210813D02*
X176673Y205301D01*
X171161Y210813D02*
Y213583D01*
X109252Y129724D02*
X115157D01*
X154135Y247047D02*
X167421D01*
X151575Y244488D02*
X154135Y247047D01*
X151575Y224429D02*
Y244488D01*
X130905Y367087D02*
Y371008D01*
Y353957D02*
Y367087D01*
X70110Y347087D02*
X78780D01*
X90551Y350886D02*
X96791D01*
X86752Y347087D02*
X90551Y350886D01*
X78780Y347087D02*
X86752D01*
X76772Y429134D02*
X97441Y408465D01*
Y407972D02*
Y408465D01*
X76772Y429134D02*
Y433268D01*
X97968Y222052D02*
X149198D01*
X91427Y215511D02*
X97968Y222052D01*
X91427Y210630D02*
Y215511D01*
X149198Y222052D02*
X151575Y224429D01*
X122244Y142598D02*
X130453D01*
X39173Y248621D02*
Y258858D01*
Y248621D02*
X41199Y246595D01*
X93887Y254921D02*
X122343D01*
X84882Y250984D02*
X125984D01*
X78799Y247067D02*
X130098D01*
X87982Y260827D02*
X93887Y254921D01*
X87982Y260827D02*
Y267087D01*
X78780Y257087D02*
X84882Y250984D01*
X130098Y247067D02*
X130118Y247047D01*
X78780Y247087D02*
X78799Y247067D01*
X400689Y33937D02*
X400709Y33957D01*
X412402D01*
X143701Y180118D02*
Y185689D01*
X138701Y190689D02*
X143701Y185689D01*
X122343Y190689D02*
X138701D01*
X168307Y179035D02*
Y183563D01*
X162064Y172792D02*
X168307Y179035D01*
X110672Y172792D02*
X162064D01*
X100394Y183071D02*
X110672Y172792D01*
X120965Y190689D02*
X122343D01*
X156053Y211614D02*
X158169Y209498D01*
Y200689D02*
Y209498D01*
X148130Y211614D02*
X156053D01*
X176673Y190453D02*
Y200787D01*
X158169Y200689D02*
X158268Y200787D01*
X169783D01*
X114220Y421024D02*
X117126Y418118D01*
Y375827D02*
Y418118D01*
X111377Y370079D02*
X117126Y375827D01*
X91535Y421024D02*
X114220D01*
X88583Y423976D02*
X91535Y421024D01*
X88583Y423976D02*
Y433886D01*
X113690Y277087D02*
Y289646D01*
X113494Y289843D02*
X113690Y289646D01*
X103494Y325669D02*
Y335138D01*
X78780Y267087D02*
X87982D01*
X113095Y289444D02*
X113494Y289843D01*
X130905Y379966D02*
X131191Y380252D01*
X130905Y377307D02*
Y379966D01*
X131191Y380252D02*
Y402559D01*
X745630Y105905D02*
X760984Y90551D01*
X344000Y23622D02*
X350673D01*
X130905Y377307D02*
X138559D01*
X138779Y377087D01*
X105157Y334350D02*
X113494D01*
X104370Y335138D02*
X105157Y334350D01*
X103494Y335138D02*
X104370D01*
X103494Y342028D02*
X103681Y342215D01*
Y350886D01*
X64621Y374158D02*
Y375644D01*
X70816Y381839D01*
X100444D01*
X64621Y348916D02*
Y374158D01*
X48681D02*
X64621D01*
X62303Y346598D02*
X64621Y348916D01*
X48681Y346598D02*
X62303D01*
X100444Y381839D02*
X103681Y378602D01*
Y350886D02*
Y378602D01*
X59055Y442913D02*
Y447835D01*
X62480Y451260D01*
X72835D01*
X486417Y58071D02*
X487838Y59492D01*
Y69354D01*
X41199Y246595D02*
X45177D01*
X85797Y440748D02*
X85825Y440776D01*
X76772Y440748D02*
X85797D01*
X85825Y440776D02*
X88583D01*
X66760Y442913D02*
X68898Y440776D01*
X59055Y442913D02*
X66760D01*
X68898Y437008D02*
Y440776D01*
X400689Y33937D02*
X400728Y33898D01*
X130453Y142598D02*
X135453D01*
X160906Y138724D02*
Y144181D01*
Y138724D02*
X160947Y138683D01*
Y136024D02*
Y138683D01*
X153032Y138724D02*
Y144181D01*
Y138724D02*
X153073Y138683D01*
Y136024D02*
Y138683D01*
X153073Y136024D02*
X160947D01*
X153073Y136024D02*
X153073Y136024D01*
X377815Y33898D02*
X377854Y33858D01*
X364902Y33898D02*
X377815D01*
X364862Y33937D02*
X364902Y33898D01*
X366383Y13581D02*
Y23937D01*
X366581Y13780D02*
X374031D01*
X350847Y14961D02*
Y23447D01*
X350673Y23622D02*
X350847Y23447D01*
X351597Y13581D02*
X359493D01*
X350535Y24547D02*
Y28189D01*
X313976Y23622D02*
X320083D01*
X321008Y24547D01*
Y28189D01*
X284449Y23622D02*
X290555D01*
X291480Y24547D01*
Y28189D01*
X253937Y23595D02*
X261028D01*
X261953Y24520D01*
Y28189D01*
X284449Y23622D02*
X284646Y23819D01*
D105*
X755000Y426102D02*
X765158D01*
X694882Y486221D02*
X755000Y426102D01*
X224449Y486221D02*
X694882D01*
X560039Y383268D02*
X575760D01*
X498189D02*
X516700D01*
X498189Y401575D02*
Y415354D01*
X557244Y402559D02*
Y415354D01*
X606299D02*
Y428150D01*
X665354Y415354D02*
Y427165D01*
X215607Y349308D02*
X222441D01*
X272736D01*
X687992Y474409D02*
X736713Y425689D01*
X276795Y409449D02*
Y433835D01*
X317370Y474409D01*
X687992D01*
X254921Y360236D02*
Y361221D01*
X287795Y360236D02*
Y361417D01*
X254095Y369252D02*
X257874Y373031D01*
X201575Y463346D02*
X224449Y486221D01*
X276795Y409449D02*
X290846Y395398D01*
X734252Y423307D02*
X736634Y425689D01*
X736713D01*
X303543Y361417D02*
Y382701D01*
Y354626D02*
Y361417D01*
X271654Y350394D02*
X272736Y349311D01*
X254921Y361221D02*
Y369009D01*
X287795Y361417D02*
Y368504D01*
X271654Y350394D02*
Y361417D01*
X298228Y349311D02*
X303543Y354626D01*
X272736Y349311D02*
X298228D01*
X204232Y369252D02*
X215551D01*
X201575Y371909D02*
X204232Y369252D01*
X257874Y373031D02*
X283268D01*
X215551Y369252D02*
X254095D01*
X283268Y373031D02*
X287795Y368504D01*
X736713Y425689D02*
X751890Y410512D01*
X760827D01*
X271654Y310236D02*
X287795D01*
X270669D02*
X271654D01*
X303543D02*
Y317717D01*
Y308661D02*
Y310236D01*
X287795D02*
X289370Y308661D01*
Y265748D02*
Y308661D01*
X201575Y415354D02*
Y463346D01*
Y396457D02*
Y415354D01*
Y371909D02*
Y396457D01*
X297118Y389126D02*
X303543Y382701D01*
X290846Y395398D02*
X297118Y389126D01*
X296850Y324410D02*
X303543Y317717D01*
X261417Y324410D02*
X296850D01*
X254921Y317913D02*
X261417Y324410D01*
X254921Y310039D02*
Y317913D01*
Y280512D02*
Y310039D01*
Y280512D02*
X269685Y265748D01*
D106*
X602362Y132874D02*
X652559D01*
Y237008D02*
X675197D01*
X652559Y221457D02*
Y237008D01*
X612992D02*
X652559D01*
X602362Y221457D02*
Y226378D01*
X612992Y237008D01*
X674950Y204381D02*
X682283Y197047D01*
X674950Y204381D02*
Y236761D01*
X756691Y205197D02*
X766732Y195156D01*
X727362Y205197D02*
X756691D01*
X706693Y193898D02*
X716063D01*
X727362Y205197D01*
X766732Y190787D02*
Y195156D01*
X727362Y145197D02*
X752323D01*
X712480D02*
X727362D01*
X705905Y151772D02*
X712480Y145197D01*
X752323D02*
X766732Y159606D01*
X406784Y302913D02*
X476378D01*
X635827Y437008D02*
X665354D01*
X498189Y383268D02*
Y401575D01*
Y361587D02*
Y383268D01*
X507414Y352362D02*
X560039D01*
Y386221D01*
X498189Y361587D02*
X507414Y352362D01*
X560074Y386221D02*
Y399729D01*
X560039Y319882D02*
Y352362D01*
X432704Y396457D02*
X441929Y405682D01*
X399382Y396457D02*
X432704D01*
X441929Y405682D02*
Y427783D01*
X390158Y387232D02*
X399382Y396457D01*
X390158Y350394D02*
Y387232D01*
X441929Y427783D02*
X451154Y437008D01*
X665354Y427165D02*
Y437008D01*
X606299D02*
X635827D01*
X606299Y428150D02*
Y437008D01*
X451154D02*
X606299D01*
X476378Y258110D02*
Y302913D01*
X390158Y350394D02*
X422244D01*
X390158Y319540D02*
Y350394D01*
Y319540D02*
X406784Y302913D01*
X443110Y326772D02*
X448032Y331693D01*
X418890Y326772D02*
X443110D01*
X415551Y374016D02*
X418890D01*
X415354Y326772D02*
X418890D01*
X476378Y228110D02*
X490630D01*
X448032Y331693D02*
Y357087D01*
X490630Y228110D02*
X520669Y258150D01*
Y319882D01*
X393753Y286365D02*
X407480Y272638D01*
Y265748D02*
Y272638D01*
X360091Y286365D02*
X393753D01*
X343307Y303150D02*
X360091Y286365D01*
X328740Y265748D02*
Y276575D01*
X320866Y284449D02*
Y350294D01*
Y284449D02*
X328740Y276575D01*
X520669Y332913D02*
X520669D01*
X510827D02*
X520669D01*
Y319882D02*
Y332913D01*
X418890Y374016D02*
X431102D01*
X344094Y303945D02*
X344890Y304740D01*
X431102Y374016D02*
X448032Y357087D01*
X450039Y332913D02*
X476378D01*
X509842D01*
X344890Y374116D02*
X348425D01*
X330091D02*
X344890D01*
X320866Y364891D02*
X330091Y374116D01*
X320866Y350294D02*
Y364891D01*
X344890Y350394D02*
X348425D01*
X344790Y350294D02*
X344890Y350394D01*
X320866Y350294D02*
X344790D01*
X344890Y304740D02*
Y324410D01*
X344094Y303945D02*
X344890Y303150D01*
D107*
X19645Y120907D02*
X25651D01*
X26873Y119685D01*
X18701Y121850D02*
X19645Y120907D01*
X26873Y119685D02*
X27805D01*
X18701Y128150D02*
X26427D01*
X27805Y129528D01*
X122343Y200689D02*
Y211910D01*
X132776Y218110D02*
X133169Y218504D01*
X159232Y213583D02*
X163681D01*
X154311Y218504D02*
X159232Y213583D01*
X133169Y218504D02*
X154311D01*
X128937D02*
X133169D01*
X122343Y211910D02*
X128937Y218504D01*
X167421Y221457D02*
Y237205D01*
D108*
X542323Y147638D02*
X592520D01*
X597276Y142882D01*
Y137960D02*
X602362Y132874D01*
X597276Y137960D02*
Y142882D01*
X663126Y109252D02*
X671997Y118123D01*
Y186761D01*
X682283Y197047D01*
X571126Y101118D02*
X579921Y92323D01*
X571126Y101118D02*
Y109252D01*
X579921Y83071D02*
Y92323D01*
X772287Y426102D02*
X777559Y420830D01*
X774921Y391732D02*
X777559Y394370D01*
Y420830D01*
X765158Y426102D02*
X772287D01*
X681102Y375000D02*
Y390748D01*
X684449Y394094D01*
X693348D01*
X625394D02*
X634293D01*
X624354Y371463D02*
X634883D01*
X622047Y373769D02*
X624354Y371463D01*
X622047Y373769D02*
Y390748D01*
X625394Y394094D01*
X476576Y371463D02*
X476872Y371758D01*
Y382972D01*
X477167Y383268D01*
X652757Y371463D02*
X653053Y371758D01*
Y382972D01*
X653348Y383268D01*
X477167D02*
Y394094D01*
X653348Y383268D02*
Y394094D01*
X536222Y383268D02*
Y394094D01*
X593702Y371463D02*
X593998Y371758D01*
Y382972D01*
X594293Y383268D01*
X535632Y371463D02*
X535927Y371758D01*
Y382972D01*
X536222Y383268D01*
X594293D02*
Y394094D01*
X536733Y394605D02*
Y414843D01*
X536222Y394094D02*
X536733Y394605D01*
Y414843D02*
X537244Y415354D01*
X683655Y372447D02*
X692954D01*
X693939Y371463D01*
X654158Y394904D02*
Y414158D01*
X653348Y394094D02*
X654158Y394904D01*
Y414158D02*
X655354Y415354D01*
X595103Y394904D02*
Y414158D01*
X594293Y394094D02*
X595103Y394904D01*
Y414158D02*
X596299Y415354D01*
X681102Y375000D02*
X683655Y372447D01*
X477678Y394605D02*
Y414843D01*
X477167Y394094D02*
X477678Y394605D01*
Y414843D02*
X478189Y415354D01*
X576813Y349369D02*
Y371463D01*
Y349369D02*
X583661Y342520D01*
Y342520D02*
Y342520D01*
Y342520D02*
X606299Y319882D01*
X463228Y258110D02*
X476378D01*
X451772Y215168D02*
Y246654D01*
Y215168D02*
X468504Y198436D01*
X451772Y246654D02*
X463228Y258110D01*
X573819Y198228D02*
Y270669D01*
X640945Y337795D01*
X542323Y187638D02*
X563228D01*
X573819Y198228D01*
X640945Y337795D02*
X675197D01*
X487089Y228110D02*
X488189Y229210D01*
Y183071D02*
X493110D01*
X488189Y199721D02*
X493110D01*
X488189Y183071D02*
Y199721D01*
Y229210D01*
Y155827D02*
Y183071D01*
X487379Y156636D02*
X496142Y147874D01*
Y106299D02*
Y147874D01*
X222441Y238582D02*
Y349308D01*
X222441Y349308D01*
X219253Y235394D02*
X222441Y238582D01*
X211614Y235394D02*
X219253D01*
X585630Y166339D02*
Y264764D01*
X579724Y187874D02*
Y267717D01*
X542323Y177638D02*
X569488D01*
X579724Y187874D01*
Y267717D02*
X619095Y307087D01*
X542323Y157638D02*
X576929D01*
X585630Y166339D01*
Y264764D02*
X624016Y303150D01*
X567913Y207677D02*
Y273622D01*
X542913Y198228D02*
X558465D01*
X567913Y207677D01*
X542323Y197638D02*
X542913Y198228D01*
X567913Y273622D02*
X639764Y345472D01*
X352055Y409449D02*
Y415606D01*
X318033Y423622D02*
X344040D01*
X352055Y415606D01*
X366055Y402669D02*
Y409449D01*
X325079Y396457D02*
X359842D01*
X366055Y402669D01*
X315098Y396870D02*
Y415335D01*
X314882Y396654D02*
X315098Y396870D01*
X315727Y421316D02*
X318033Y423622D01*
X324980Y396752D02*
Y415256D01*
X324882Y396654D02*
X324980Y396752D01*
X315079Y415354D02*
X315098Y415335D01*
X315079Y415354D02*
X315727Y416002D01*
Y421316D01*
X324980Y415256D02*
X325079Y415354D01*
X237362D02*
X256196D01*
X262102Y409449D02*
X262795D01*
X256196Y415354D02*
X262102Y409449D01*
X542323Y247638D02*
X562598D01*
X579921Y83071D02*
X589921D01*
X600079D02*
X604606Y87598D01*
X589921Y83071D02*
X600079D01*
X607953Y75197D01*
X604606Y87598D02*
X622953D01*
X683655Y372447D02*
X684547Y371555D01*
X658465Y345472D02*
X684547Y371555D01*
X639764Y345472D02*
X658465D01*
X734252Y413307D02*
X734494Y413065D01*
Y392160D02*
Y413065D01*
Y392160D02*
X734921Y391732D01*
X297118Y389126D02*
X304646Y396654D01*
X314882D01*
X645984Y64961D02*
X647953Y66929D01*
X573819Y64961D02*
X645984D01*
X569921Y68858D02*
X573819Y64961D01*
X647953Y66929D02*
Y75197D01*
X569921Y68858D02*
Y83071D01*
X647143Y76007D02*
X647953Y75197D01*
X644045Y76007D02*
X647143D01*
X632953Y87098D02*
X644045Y76007D01*
X632953Y87098D02*
Y87598D01*
X508957Y106299D02*
X532185Y83071D01*
X569921D01*
X529882Y207677D02*
Y224764D01*
Y167323D02*
Y207677D01*
X529921Y207638D01*
X542323D01*
X529882Y137795D02*
Y167323D01*
X530197Y167638D01*
X542323D01*
X529882Y117697D02*
Y137795D01*
X530039Y137638D01*
X542323D01*
X529882Y224764D02*
X532756Y227638D01*
X542323D01*
X529823Y117638D02*
X542323D01*
X520295D02*
X529823D01*
X529764Y117697D02*
X529823Y117638D01*
X508957Y106299D02*
X520295Y117638D01*
X496142Y106299D02*
X508957D01*
X201575Y396457D02*
X210472D01*
X201575Y415354D02*
X217362D01*
X237795Y386614D02*
X282061D01*
X234370Y390039D02*
X237795Y386614D01*
X234370Y390039D02*
Y396457D01*
X282061Y386614D02*
X290846Y395398D01*
X237362Y403965D02*
Y415354D01*
Y403965D02*
X244370Y396957D01*
Y396457D02*
Y396957D01*
X228346Y396457D02*
X234370D01*
X220472D02*
X228346D01*
X227362Y397441D02*
X228346Y396457D01*
X227362Y397441D02*
Y415354D01*
X211951Y225057D02*
X219656D01*
X211614Y225394D02*
X211951Y225057D01*
X227756Y198622D02*
Y216957D01*
X219656Y225057D02*
X227756Y216957D01*
X211614Y185689D02*
X245905D01*
X211614D02*
Y195394D01*
Y185394D02*
Y185689D01*
Y195394D02*
Y205394D01*
Y156791D02*
X214370Y154035D01*
X211614Y156791D02*
Y175394D01*
D109*
X147028Y200689D02*
X147126Y200787D01*
X122343Y200689D02*
X147028D01*
X328740Y11811D02*
X330510Y13581D01*
X343996D01*
X400689Y13976D02*
Y23937D01*
Y8735D02*
Y13976D01*
X35433Y93307D02*
X35433Y93307D01*
X364862Y23937D02*
X366383D01*
Y13581D02*
X366581Y13780D01*
X344707Y8735D02*
Y13581D01*
Y8735D02*
X346552Y6890D01*
X398844D01*
X400689Y8735D01*
X124422Y21247D02*
X213705D01*
X67913Y77756D02*
X124422Y21247D01*
X43031Y77756D02*
X67913D01*
X245905Y60945D02*
X252953Y53898D01*
X305118Y62067D02*
X312008Y55177D01*
Y53898D02*
Y55177D01*
X304961Y74803D02*
X305118Y74646D01*
D110*
X94871Y267087D02*
Y271752D01*
X94478Y272146D02*
X94871Y271752D01*
X76181Y272146D02*
X94478D01*
X72847Y268812D02*
X76181Y272146D01*
X69213Y236417D02*
X72847Y240052D01*
Y268812D01*
X54134Y236417D02*
X69213D01*
X74803Y312008D02*
X122343D01*
X69882Y307087D02*
X74803Y312008D01*
X69882Y243110D02*
Y307087D01*
X68366Y241595D02*
X69882Y243110D01*
X45177Y241595D02*
X68366D01*
D111*
X27805Y95315D02*
Y119685D01*
Y129528D02*
X39493D01*
X51181D01*
X54134Y132480D01*
D112*
X146299Y163878D02*
D03*
D113*
X158465Y79626D02*
D03*
X119095D02*
D03*
D114*
X520669Y319882D02*
D03*
X560039D02*
D03*
X675197Y337795D02*
D03*
Y237008D02*
D03*
X520669Y332913D02*
D03*
X560039D02*
D03*
D115*
X703150Y154528D02*
D03*
Y193898D02*
D03*
X685433D02*
D03*
Y154528D02*
D03*
X287795Y310236D02*
D03*
X303543Y361417D02*
D03*
X254921Y310039D02*
D03*
X271654Y361417D02*
D03*
D116*
X478189Y415354D02*
D03*
X655354D02*
D03*
X596299D02*
D03*
X537244D02*
D03*
D117*
X498189D02*
D03*
X488189D02*
D03*
X665354D02*
D03*
X675354D02*
D03*
X606299D02*
D03*
X616299D02*
D03*
X547244D02*
D03*
X557244D02*
D03*
D118*
X765158Y426102D02*
D03*
X766732Y190787D02*
D03*
Y175197D02*
D03*
D119*
X765158Y410512D02*
D03*
X766732Y159606D02*
D03*
D120*
X569921Y83071D02*
D03*
X579921D02*
D03*
D121*
X589921D02*
D03*
D122*
X478268Y69784D02*
D03*
X488268D02*
D03*
X483268D02*
D03*
X417402Y422342D02*
D03*
X412402D02*
D03*
X407402D02*
D03*
D123*
X435945Y169291D02*
D03*
X440945D02*
D03*
X445945D02*
D03*
D124*
X305079Y415354D02*
D03*
X217362D02*
D03*
D125*
X315079D02*
D03*
X325079D02*
D03*
X237362D02*
D03*
X227362D02*
D03*
D126*
X211614Y245394D02*
D03*
Y235394D02*
D03*
Y225394D02*
D03*
Y215394D02*
D03*
Y205394D02*
D03*
Y195394D02*
D03*
Y185394D02*
D03*
X542323Y267638D02*
D03*
Y257638D02*
D03*
Y247638D02*
D03*
Y237638D02*
D03*
Y227638D02*
D03*
Y217638D02*
D03*
Y207638D02*
D03*
Y197638D02*
D03*
Y187638D02*
D03*
Y177638D02*
D03*
Y167638D02*
D03*
Y157638D02*
D03*
Y137638D02*
D03*
Y127638D02*
D03*
Y117638D02*
D03*
Y147638D02*
D03*
D127*
X727362Y145197D02*
D03*
Y205197D02*
D03*
D128*
X476378Y228110D02*
D03*
Y332913D02*
D03*
D129*
Y258110D02*
D03*
Y302913D02*
D03*
D130*
X76772Y115315D02*
D03*
X215551Y369252D02*
D03*
D131*
X76772Y95315D02*
D03*
X215551Y349252D02*
D03*
D132*
X166535Y348339D02*
D03*
Y382197D02*
D03*
X488189Y155827D02*
D03*
Y115827D02*
D03*
X504921D02*
D03*
Y155827D02*
D03*
D133*
X166535Y334339D02*
D03*
X262795Y409449D02*
D03*
X366055D02*
D03*
X166535Y368197D02*
D03*
D134*
X517758Y371463D02*
D03*
X693939D02*
D03*
X634883D02*
D03*
X576813D02*
D03*
D135*
X476576D02*
D03*
X652757D02*
D03*
X593702D02*
D03*
X535632D02*
D03*
D136*
X344890Y303150D02*
D03*
X418890Y374016D02*
D03*
X344890Y350394D02*
D03*
X418890Y326772D02*
D03*
D137*
Y303050D02*
D03*
X344890Y374116D02*
D03*
X418890Y350294D02*
D03*
X344890Y326872D02*
D03*
D138*
X622953Y87598D02*
D03*
X486142Y106299D02*
D03*
X244370Y396457D02*
D03*
X210472D02*
D03*
X324882Y396654D02*
D03*
D139*
X632953Y87598D02*
D03*
X496142Y106299D02*
D03*
X234370Y396457D02*
D03*
X220472D02*
D03*
X314882Y396654D02*
D03*
D140*
X72835Y421024D02*
D03*
Y451024D02*
D03*
D141*
X97441Y407972D02*
D03*
X107441D02*
D03*
D142*
X571126Y109252D02*
D03*
X663126D02*
D03*
D143*
X344000Y97441D02*
D03*
X406000D02*
D03*
X477167Y383268D02*
D03*
X517167D02*
D03*
X276795Y409449D02*
D03*
X352055D02*
D03*
X774921Y391732D02*
D03*
X734921D02*
D03*
X607953Y75197D02*
D03*
X647953D02*
D03*
X693348Y394094D02*
D03*
X653348D02*
D03*
X634293D02*
D03*
X594293D02*
D03*
X653348Y383268D02*
D03*
X693348D02*
D03*
X594293D02*
D03*
X634293D02*
D03*
X576222Y394094D02*
D03*
X536222D02*
D03*
X517167D02*
D03*
X477167D02*
D03*
X536222Y383268D02*
D03*
X576222D02*
D03*
D144*
X138779Y237087D02*
D03*
X742126Y64961D02*
D03*
D145*
X138779Y247087D02*
D03*
Y257087D02*
D03*
Y267087D02*
D03*
Y277087D02*
D03*
Y287087D02*
D03*
Y307087D02*
D03*
Y317087D02*
D03*
Y327087D02*
D03*
Y337087D02*
D03*
Y347087D02*
D03*
Y357087D02*
D03*
Y367087D02*
D03*
Y377087D02*
D03*
X78780D02*
D03*
Y367087D02*
D03*
Y357087D02*
D03*
Y347087D02*
D03*
Y337087D02*
D03*
Y327087D02*
D03*
Y317087D02*
D03*
Y307087D02*
D03*
Y297087D02*
D03*
Y287087D02*
D03*
Y277087D02*
D03*
Y267087D02*
D03*
Y257087D02*
D03*
Y247087D02*
D03*
Y237087D02*
D03*
X138779Y297087D02*
D03*
X166437Y281496D02*
D03*
Y291339D02*
D03*
Y301181D02*
D03*
X732283Y64961D02*
D03*
X722441D02*
D03*
X712598D02*
D03*
D146*
X78740Y150394D02*
D03*
Y183071D02*
D03*
X59055Y150394D02*
D03*
Y183071D02*
D03*
D147*
X734252Y423307D02*
D03*
Y413307D02*
D03*
D148*
X15748Y393701D02*
D03*
X35433D02*
D03*
X15748Y422047D02*
D03*
X35433D02*
D03*
X15748Y157480D02*
D03*
X35433D02*
D03*
X15748Y185827D02*
D03*
X35433D02*
D03*
X15748Y279528D02*
D03*
X35433D02*
D03*
X15748Y307874D02*
D03*
X35433D02*
D03*
X15748Y64961D02*
D03*
X35433D02*
D03*
X15748Y93307D02*
D03*
X35433D02*
D03*
D149*
X166437Y311024D02*
D03*
D150*
X152523Y407972D02*
D03*
D151*
X142680D02*
D03*
X27805Y119685D02*
D03*
X167421Y237205D02*
D03*
D152*
X443071Y74803D02*
D03*
X265905D02*
D03*
X324961D02*
D03*
X384016D02*
D03*
D153*
X157480Y33465D02*
D03*
X629921D02*
D03*
X629965Y457874D02*
D03*
X157524D02*
D03*
D154*
X407480Y127953D02*
D03*
X387795D02*
D03*
X368110D02*
D03*
X348425D02*
D03*
X328740D02*
D03*
X309055D02*
D03*
X289370D02*
D03*
X269685D02*
D03*
Y265748D02*
D03*
X289370D02*
D03*
X309055D02*
D03*
X328740D02*
D03*
X348425D02*
D03*
X368110D02*
D03*
X387795D02*
D03*
X407480D02*
D03*
D155*
X700984Y90551D02*
D03*
D156*
X710984D02*
D03*
X720984D02*
D03*
X730984D02*
D03*
X740984D02*
D03*
X750984D02*
D03*
X760984D02*
D03*
Y121811D02*
D03*
X750984D02*
D03*
X740984D02*
D03*
X730984D02*
D03*
X720984D02*
D03*
X710984D02*
D03*
X700984D02*
D03*
D157*
X435941Y114606D02*
D03*
D158*
Y151142D02*
D03*
D159*
X287795Y361417D02*
D03*
X303543Y310236D02*
D03*
X254921Y361221D02*
D03*
X271654Y310236D02*
D03*
D160*
X652559Y132874D02*
D03*
Y221457D02*
D03*
X602362D02*
D03*
Y132874D02*
D03*
D161*
X493110Y199721D02*
D03*
X512795D02*
D03*
X576813Y402559D02*
D03*
Y422244D02*
D03*
X312177Y97441D02*
D03*
X331862D02*
D03*
X493110Y183071D02*
D03*
X512795D02*
D03*
X695866Y422244D02*
D03*
Y402559D02*
D03*
X635827Y422244D02*
D03*
Y402559D02*
D03*
X517758D02*
D03*
Y422244D02*
D03*
D162*
X448819Y137874D02*
D03*
D163*
Y127874D02*
D03*
D164*
X27805Y129528D02*
D03*
X167421Y247047D02*
D03*
D165*
X468504Y106436D02*
D03*
Y198436D02*
D03*
D166*
X757874Y462598D02*
D03*
Y29528D02*
D03*
X29528D02*
D03*
Y462598D02*
D03*
D167*
X192913Y311024D02*
D03*
X226378Y51181D02*
D03*
X202756Y261811D02*
D03*
X195866Y266732D02*
D03*
X176673Y178150D02*
D03*
X147126Y200787D02*
D03*
X87982Y307087D02*
D03*
X87953Y281496D02*
D03*
X562598Y247638D02*
D03*
X149606Y92520D02*
D03*
X175984Y119095D02*
D03*
X161102Y105315D02*
D03*
X54134Y132480D02*
D03*
X89254D02*
D03*
X127953Y103346D02*
D03*
X109252Y129724D02*
D03*
X606299Y319882D02*
D03*
X624016Y303150D02*
D03*
X619095Y307087D02*
D03*
X65748Y233071D02*
D03*
X154332Y326378D02*
D03*
X323622Y138288D02*
D03*
X353169D02*
D03*
Y151142D02*
D03*
X348425Y161417D02*
D03*
X328740D02*
D03*
X312177Y145669D02*
D03*
Y161417D02*
D03*
X294390D02*
D03*
Y145669D02*
D03*
X276772D02*
D03*
Y161417D02*
D03*
X259449Y145669D02*
D03*
Y161417D02*
D03*
X423622Y103543D02*
D03*
X418799Y88976D02*
D03*
X376378Y107480D02*
D03*
X372835Y97441D02*
D03*
X429528D02*
D03*
X416535Y109843D02*
D03*
X429528Y85827D02*
D03*
X379134D02*
D03*
X284449Y88976D02*
D03*
X314961Y109843D02*
D03*
X297244Y88976D02*
D03*
X273622D02*
D03*
X254724Y110630D02*
D03*
Y95276D02*
D03*
X310236Y84886D02*
D03*
X261024D02*
D03*
X122343Y312008D02*
D03*
X52165Y305680D02*
D03*
Y295348D02*
D03*
Y284386D02*
D03*
Y274334D02*
D03*
Y262795D02*
D03*
Y253464D02*
D03*
Y245944D02*
D03*
X65748Y224803D02*
D03*
X331862Y11811D02*
D03*
X114478Y218504D02*
D03*
X122244Y142598D02*
D03*
X65945Y245944D02*
D03*
Y253464D02*
D03*
Y262795D02*
D03*
Y274334D02*
D03*
Y284386D02*
D03*
Y295348D02*
D03*
Y305680D02*
D03*
X61024Y317913D02*
D03*
Y328598D02*
D03*
Y337500D02*
D03*
X59646Y352362D02*
D03*
Y358268D02*
D03*
Y365158D02*
D03*
X52165Y317913D02*
D03*
X90551Y89567D02*
D03*
X95472Y62008D02*
D03*
X68898Y22388D02*
D03*
X47244Y44291D02*
D03*
X93504Y6890D02*
D03*
X69964Y317913D02*
D03*
X70110Y327896D02*
D03*
X46260Y365158D02*
D03*
X52165Y337598D02*
D03*
X70110D02*
D03*
Y352362D02*
D03*
X69882Y358268D02*
D03*
Y365158D02*
D03*
X53150D02*
D03*
X122343Y254921D02*
D03*
X125984Y250984D02*
D03*
X130118Y247047D02*
D03*
X423071Y32480D02*
D03*
X111377Y370079D02*
D03*
X344000Y23622D02*
D03*
X27805Y227087D02*
D03*
X17963Y204724D02*
D03*
X27805Y216535D02*
D03*
Y204724D02*
D03*
X7874D02*
D03*
Y215551D02*
D03*
X7972Y227087D02*
D03*
X16732Y239173D02*
D03*
X7972D02*
D03*
X139449Y107184D02*
D03*
X122047Y120907D02*
D03*
X7874Y328740D02*
D03*
Y337598D02*
D03*
Y346299D02*
D03*
Y356299D02*
D03*
Y365158D02*
D03*
Y374016D02*
D03*
X16732Y249016D02*
D03*
X7874D02*
D03*
Y257874D02*
D03*
Y265748D02*
D03*
X377854Y33858D02*
D03*
X245905Y185689D02*
D03*
X227756Y198622D02*
D03*
X54362Y111221D02*
D03*
X107087Y119685D02*
D03*
X97441Y98425D02*
D03*
X54362Y99410D02*
D03*
X303150Y11811D02*
D03*
X273622D02*
D03*
X235236Y6890D02*
D03*
X199803D02*
D03*
X159407D02*
D03*
X122047D02*
D03*
X198819Y57087D02*
D03*
X159407D02*
D03*
X124016D02*
D03*
X253937Y23595D02*
D03*
X313976Y23622D02*
D03*
X284449D02*
D03*
D168*
X173819Y281496D02*
D03*
X182087D02*
D03*
X173819Y291339D02*
D03*
X182087D02*
D03*
D169*
X45177Y236595D02*
D03*
Y241595D02*
D03*
Y246595D02*
D03*
Y251594D02*
D03*
X25689D02*
D03*
Y246595D02*
D03*
Y241595D02*
D03*
Y236595D02*
D03*
D170*
X130453Y142598D02*
D03*
X135453D02*
D03*
X140453D02*
D03*
X145453D02*
D03*
Y123150D02*
D03*
X140453D02*
D03*
X135453D02*
D03*
X130453D02*
D03*
D171*
X76772Y440748D02*
D03*
Y433268D02*
D03*
X68898Y437008D02*
D03*
D172*
X158169Y200689D02*
D03*
Y190689D02*
D03*
X122343Y200689D02*
D03*
Y190689D02*
D03*
X364862Y23937D02*
D03*
Y33937D02*
D03*
X400689Y23937D02*
D03*
Y33937D02*
D03*
D173*
X321008Y28189D02*
D03*
X303008D02*
D03*
X261953D02*
D03*
X243953D02*
D03*
X291480D02*
D03*
X273480D02*
D03*
X350535D02*
D03*
X332535D02*
D03*
D174*
X312008Y53898D02*
D03*
X252953D02*
D03*
X282480D02*
D03*
X341535D02*
D03*
D175*
X131191Y418307D02*
D03*
Y402559D02*
D03*
D176*
X167421Y221457D02*
D03*
X163681Y213583D02*
D03*
X171161D02*
D03*
D177*
X132776Y211614D02*
D03*
X148130D02*
D03*
X390666Y13780D02*
D03*
X375312D02*
D03*
D178*
X480118Y80709D02*
D03*
X486417D02*
D03*
X415551Y434055D02*
D03*
X409252D02*
D03*
X480118Y58071D02*
D03*
X486417D02*
D03*
X38346Y229134D02*
D03*
X44646D02*
D03*
X39173Y258858D02*
D03*
X45472D02*
D03*
D179*
X103494Y325669D02*
D03*
X113494D02*
D03*
X103494Y289843D02*
D03*
X113494D02*
D03*
D180*
Y349705D02*
D03*
Y334350D02*
D03*
X59055Y442913D02*
D03*
Y427559D02*
D03*
D181*
X48681Y374158D02*
D03*
Y356157D02*
D03*
Y346598D02*
D03*
Y328598D02*
D03*
D182*
X22973Y365158D02*
D03*
Y337598D02*
D03*
D183*
X106801Y277087D02*
D03*
X113690D02*
D03*
X103681Y350886D02*
D03*
X96791D02*
D03*
X359493Y13581D02*
D03*
X366383D02*
D03*
X351597D02*
D03*
X344707D02*
D03*
X94871Y267087D02*
D03*
X87982D02*
D03*
X136811Y180118D02*
D03*
X143701D02*
D03*
X176673Y200787D02*
D03*
X169783D02*
D03*
D184*
X712598Y57559D02*
D03*
Y49291D02*
D03*
X722441Y57559D02*
D03*
Y49291D02*
D03*
X732087Y57559D02*
D03*
Y49291D02*
D03*
X710925Y74213D02*
D03*
Y82480D02*
D03*
X720965Y74213D02*
D03*
Y82480D02*
D03*
X741043Y74213D02*
D03*
Y82480D02*
D03*
X123031Y128740D02*
D03*
Y137008D02*
D03*
D185*
X17717Y210630D02*
X27805D01*
X91427Y210630D01*
X100394Y183071D02*
Y201663D01*
Y155315D02*
Y183071D01*
X95472Y150394D02*
X100394Y155315D01*
X83071Y150394D02*
X95472D01*
X91427Y210630D02*
X100394Y201663D01*
D186*
X374031Y13780D02*
X375312D01*
M02*
