M48
;Layer_Color=9474304
;FILE_FORMAT=2:4
INCH,TZ
;TYPE=PLATED
T1F00S00C0.0280
T2F00S00C0.0307
T3F00S00C0.0315
T4F00S00C0.0331
T5F00S00C0.0394
T6F00S00C0.0400
T7F00S00C0.1299
%
T01
X7114Y15449
X8114
X9114
X12020Y15445
X13020
X14020
X18260Y11819
Y10819
Y9819
T02
X6780Y9551
X7780
X8780
X9780
X10780
X11780
Y12677
X10780
X9780
X8780
X7780
X6780
X12780
X13780
Y9551
X12780
T03
X8638Y3396
X9638
X10638
X11638
Y6494
X10638
X9638
X8638
T04
X2650Y1453
X3650
Y4453
X2650
T05
X12327Y689
X13327
X14327
X15520Y4815
Y5815
X17815Y5610
Y4610
X11327Y689
X10327
X9327
X8327
X7327
X5555Y7661
Y8661
X5413Y10630
Y11630
X9780Y13673
X10780
X10827Y8463
X11827
X15193Y7669
X16193
T06
X14780Y2264
X17390Y1673
Y3073
X20024Y4945
Y945
X13650Y4815
Y5815
X10780Y2264
X9780
X5780
X6933Y3799
X5839Y5815
X1839
X1870Y7843
X3051Y7843
X4287Y7843
X6933Y7799
X8457Y8071
X9457
X8780Y13673
X4780
X4287Y11843
X3051Y11843
X1870Y11843
X15193Y12925
X16406
X16634Y14928
Y15928
X16406Y8925
X15193
T07
X1280Y16437
X20374
M30
