G04*
G04 #@! TF.GenerationSoftware,Altium Limited,Altium Designer,19.1.8 (144)*
G04*
G04 Layer_Color=16711935*
%FSLAX25Y25*%
%MOIN*%
G70*
G01*
G75*
%ADD12C,0.00787*%
%ADD14C,0.00500*%
D12*
X96535Y154488D02*
X95748D01*
X96535D01*
X138189Y130965D02*
X137402D01*
X138189D01*
X26890Y10197D02*
X26102D01*
X26890D01*
X182992Y123189D02*
X182205D01*
X182992D01*
X145590Y154449D02*
X144803D01*
X145590D01*
D14*
X118842Y58386D02*
X118552Y59279D01*
X117792Y59831D01*
X116853D01*
X116094Y59279D01*
X115804Y58386D01*
X116094Y57493D01*
X116853Y56941D01*
X117792D01*
X118552Y57493D01*
X118842Y58386D01*
X99901Y144961D02*
Y163976D01*
X62382D02*
X99901D01*
X62382Y144961D02*
Y163976D01*
Y144961D02*
X99901D01*
X140797Y98642D02*
Y123642D01*
X64793Y98642D02*
Y123642D01*
X140797D01*
X64793Y98642D02*
X140797D01*
X82480Y36929D02*
X120276D01*
X82480Y61968D02*
X120276D01*
X22441Y16732D02*
Y42323D01*
X40551Y16732D02*
Y42323D01*
X22441Y16732D02*
X40551D01*
X22441Y42323D02*
X40551D01*
X173110Y126949D02*
X192126D01*
X173110Y89429D02*
Y126949D01*
Y89429D02*
X192126D01*
Y126949D01*
X148957Y144921D02*
Y163937D01*
X111437D02*
X148957D01*
X111437Y144921D02*
Y163937D01*
Y144921D02*
X148957D01*
M02*
