M48
;Layer_Color=9474304
;FILE_FORMAT=2:4
INCH,TZ
;TYPE=PLATED
T01F00S00C0.0138
T02F00S00C0.0197
T03F00S00C0.0280
T04F00S00C0.0295
T05F00S00C0.0303
T06F00S00C0.0315
T07F00S00C0.0320
T08F00S00C0.0327
T09F00S00C0.0335
T10F00S00C0.0354
T11F00S00C0.0394
T12F00S00C0.0400
T13F00S00C0.0413
T14F00S00C0.0433
T15F00S00C0.0472
T16F00S00C0.0488
T17F00S00C0.0512
T19F00S00C0.0591
T20F00S00C0.0689
T21F00S00C0.0787
T23F00S00C0.1260
%
T01
X28445Y2362
X31398
X30315Y1181
X33186
X34400Y2362
X37785Y3386
X42307Y3248
X27362Y1181
X25394Y2360
X23524Y689
X19980
X15941
X12205
X12402Y5709
X15941
X19882
X22638Y5118
X9547Y6201
X9350Y689
X6890Y2239
X4724Y4429
X5436Y9941
Y11122
X5413Y13248
X8925
X10925Y12972
X10709Y11968
X9744Y9843
X9055Y8957
X11448Y21850
X6575Y22480
X2781Y21654
Y20472
X1796
X787
Y21555
X14713Y20079
X17667Y17815
X17598Y11909
X16110Y10532
X13945Y10718
X12795Y10335
X12205Y12091
X12224Y14260
X14961Y9252
X25472Y9528
Y11063
X26102Y8489
X27362Y8898
X25945Y14567
Y16142
X24591Y18569
X22776Y19862
X27677Y16142
Y14567
X29439
Y16142
X31218
Y14567
X32362Y13829
X32874Y16142
X34843
X35317Y15114
Y13829
X37638Y10748
X37283Y9744
X37913Y8583
X41880Y8898
X42953Y8583
Y9744
X42362Y10354
X41654Y10984
X31496
X31024Y8489
X29724Y8898
X28445
X60630Y31988
X61909Y30709
X62402Y30315
X56260Y24764
X20276Y26181
X19587Y26673
X19291Y31102
X15433Y32638
X12234Y31201
Y25492
X12598Y25098
X13012Y24705
X6594Y24594
Y25346
Y26280
Y27433
Y28439
Y29535
Y30568
X5217
Y29535
Y28439
Y27433
Y26280
Y25346
Y24594
X6575Y23307
X2781Y22709
X797
Y23917
X1673
Y24902
X787
Y25787
Y26575
Y32874
Y33760
Y34630
Y35630
Y36516
Y37402
X4626Y36516
X5315
X5965
Y35827
Y35236
X7011
X6988Y35827
Y36516
X7011Y33760
X6102Y33750
Y32860
X7011Y32790
X6996Y31791
X6102
X5217
Y33760
X8798Y30709
X8795Y28150
X11138Y37008
T02
X10669Y7451
X11126Y7333
X11650
Y8593
X11126
X10728Y8463
X10413Y8218
Y7805
X12173Y7333
X12697
X13091Y7451
X13406Y7805
Y8218
X13091Y8463
X12697Y8593
X12173
X14350Y8218
Y7805
X14606Y7451
X15063Y7333
X15587
X16110
X16634
X17028Y7451
X17343Y7805
Y8218
X17028Y8463
X16634Y8593
X16110
X15587
X15063
X14665Y8463
T03
X56992Y8307
X57992
X58992
T04
X31218Y9744
X33186
X51776Y40256
Y42224
X57681
Y40256
X63583
Y42224
X69587Y42224
Y40256
T05
X70098Y9055
X71098
X72098
X73098
X74098
Y12181
X73098
X72098
X71098
X70098
X75098
X76098
Y9055
X75098
T06
X13126Y16388
X13878
X14630
X43594Y15114
Y11461
X49311Y18307
Y19972
X51280
Y18307
T07
X73425Y41331
Y42331
T08
X43594Y16929
X44094
X44594
T09
X47827Y6978
X48327
X48827
X41740Y42234
X41240
X40740
T10
X24591Y7480
X25591
X26591
X30496
X31496
X32496
X36402
X37402
X38402
X42307
X43307
X44307
T11
X71260Y6496
X72244
X73228
X74213
X21161Y17539
Y18539
Y19539
Y20539
Y21539
Y22539
X44882Y13787
Y12787
X48614Y10630
X49614
X54232Y10764
Y11764
Y12764
Y13764
Y14764
Y15764
Y16764
Y17764
Y18764
Y19764
Y20764
Y21764
X72736Y20520
Y14520
X63295Y8760
X62295
X54232Y22764
Y23764
Y24764
Y25764
Y26764
X21161Y24539
Y23539
X13878Y23709
Y24709
Y25709
Y26709
Y27709
Y28709
Y29709
Y30709
Y31709
Y32709
Y33709
Y34709
Y35709
Y36709
Y37709
X16644Y31102
Y30118
Y29134
Y28150
X7878Y27709
Y28709
Y29709
Y30709
Y31709
Y32709
Y33709
Y34709
Y35709
Y36709
Y37709
Y26709
Y25709
Y24709
Y23709
X9744Y40797
X10744
X7283Y42102
Y45102
X21047Y39646
X22047
X23437
X24437
X31488Y39665
X32488
T12
X7677Y9531
Y11531
X34400Y9744
X40600
X48819Y11583
X50492
Y15583
X48819
X60795Y7520
X64795
X47638Y22811
Y25811
Y30291
Y33291
X21555Y34925
Y36925
X16654Y36820
Y38220
Y34834
Y33434
X26280Y40945
X27680
X35206
X36606
X47717Y39409
Y38327
X51717
Y39409
X53622
Y38327
X57622
Y39409
X59429
Y38327
X63429
Y39409
X65335
Y38327
X69335
Y39409
X73492Y39173
X77492
T13
X2781Y11968
Y12953
X60236Y13287
X65256
Y22146
X60236
X16742Y23720
Y24705
X15252Y40797
X14268
T14
X68543Y15453
X70315
Y19390
X68543
X30354Y31024
X28780
Y36142
X30354
X27165
X25492Y36122
Y31004
X27165Y31024
X47819Y41535
X48819
X49819
X53724
X54724
X55724
X59630
X60630
X61630
X65535
X66535
X67535
T15
X59370Y37146
X63488
X65276
X69394
X57681
X53563
X51776
X47658
T16
X21736Y41535
X22736
X23736
X30508
X31508
X32508
T17
X52067Y31988
X52067Y33291
X56004
X56004Y31988
T19
X46850Y10644
Y19844
X57113Y10925
X66313
T20
X76673Y15961
Y17520
Y19079
X76516Y41051
Y42610
T21
X1575Y6496
X3543
X3543Y9331
X1575
Y15748
X3543
X3543Y18583
X1575
X26969Y12795
X28937
X30906
X32874
X34843
X36811
X38780
X40748
X67520Y23701
Y33780
X41889Y32677
Y35029
Y37402
Y30305
X40748Y26575
X38780
X36811
X34843
X32874
X30906
X28937
X34489Y30315
Y32687
Y35039
Y37412
X26969Y26575
X3543Y27953
X1575
Y30787
X3543
X3543Y39370
X1575
Y42205
X3543
T23
X75787Y2953
X62992Y3346
X15748
X2953Y2953
Y46260
X15752Y45787
X62996
X75787Y46260
M30
