G04*
G04 #@! TF.GenerationSoftware,Altium Limited,Altium Designer,25.5.2 (35)*
G04*
G04 Layer_Color=8388736*
%FSLAX25Y25*%
%MOIN*%
G70*
G04*
G04 #@! TF.SameCoordinates,1C94599F-6076-4B68-B9DB-09B2163256FA*
G04*
G04*
G04 #@! TF.FilePolarity,Negative*
G04*
G01*
G75*
G04:AMPARAMS|DCode=20|XSize=81.5mil|YSize=27.56mil|CornerRadius=4.92mil|HoleSize=0mil|Usage=FLASHONLY|Rotation=270.000|XOffset=0mil|YOffset=0mil|HoleType=Round|Shape=RoundedRectangle|*
%AMROUNDEDRECTD20*
21,1,0.08150,0.01772,0,0,270.0*
21,1,0.07165,0.02756,0,0,270.0*
1,1,0.00984,-0.00886,-0.03583*
1,1,0.00984,-0.00886,0.03583*
1,1,0.00984,0.00886,0.03583*
1,1,0.00984,0.00886,-0.03583*
%
%ADD20ROUNDEDRECTD20*%
%ADD21R,0.03543X0.03937*%
%ADD22O,0.08661X0.05906*%
%ADD23R,0.05118X0.05118*%
%ADD24R,0.07087X0.10236*%
%ADD25R,0.05906X0.05512*%
%ADD26R,0.06890X0.02756*%
%ADD27O,0.05906X0.08661*%
%ADD28R,0.02756X0.06890*%
%ADD29R,0.05118X0.05118*%
%ADD30R,0.03937X0.03543*%
%ADD31R,0.04921X0.05709*%
%ADD32R,0.05709X0.04921*%
%ADD33R,0.06594X0.06594*%
%ADD34C,0.06594*%
%ADD35C,0.11319*%
%ADD36R,0.11319X0.11319*%
%ADD37C,0.12661*%
%ADD38C,0.06890*%
G04:AMPARAMS|DCode=39|XSize=68.94mil|YSize=68.94mil|CornerRadius=0mil|HoleSize=0mil|Usage=FLASHONLY|Rotation=180.000|XOffset=0mil|YOffset=0mil|HoleType=Round|Shape=Octagon|*
%AMOCTAGOND39*
4,1,8,-0.03447,0.01723,-0.03447,-0.01723,-0.01723,-0.03447,0.01723,-0.03447,0.03447,-0.01723,0.03447,0.01723,0.01723,0.03447,-0.01723,0.03447,-0.03447,0.01723,0.0*
%
%ADD39OCTAGOND39*%

%ADD40C,0.06894*%
G04:AMPARAMS|DCode=41|XSize=88.94mil|YSize=88.94mil|CornerRadius=0mil|HoleSize=0mil|Usage=FLASHONLY|Rotation=90.000|XOffset=0mil|YOffset=0mil|HoleType=Round|Shape=Octagon|*
%AMOCTAGOND41*
4,1,8,0.02223,0.04447,-0.02223,0.04447,-0.04447,0.02223,-0.04447,-0.02223,-0.02223,-0.04447,0.02223,-0.04447,0.04447,-0.02223,0.04447,0.02223,0.02223,0.04447,0.0*
%
%ADD41OCTAGOND41*%

G04:AMPARAMS|DCode=42|XSize=83.94mil|YSize=63.94mil|CornerRadius=0mil|HoleSize=0mil|Usage=FLASHONLY|Rotation=180.000|XOffset=0mil|YOffset=0mil|HoleType=Round|Shape=Octagon|*
%AMOCTAGOND42*
4,1,8,-0.04197,0.01598,-0.04197,-0.01598,-0.02598,-0.03197,0.02598,-0.03197,0.04197,-0.01598,0.04197,0.01598,0.02598,0.03197,-0.02598,0.03197,-0.04197,0.01598,0.0*
%
%ADD42OCTAGOND42*%

%ADD43C,0.06331*%
%ADD44R,0.06331X0.06331*%
%ADD45C,0.03150*%
G36*
X249410Y171457D02*
X246358D01*
Y173425D01*
X249410D01*
Y171457D01*
D02*
G37*
G36*
Y161221D02*
X246358D01*
Y163189D01*
X249410D01*
Y161221D01*
D02*
G37*
G36*
X134646Y121653D02*
X132677D01*
Y124705D01*
X134646D01*
Y121653D01*
D02*
G37*
G36*
X124409D02*
X122441D01*
Y124705D01*
X124409D01*
Y121653D01*
D02*
G37*
G36*
X134646Y117421D02*
X132677D01*
Y120472D01*
X134646D01*
Y117421D01*
D02*
G37*
G36*
X124409D02*
X122441D01*
Y120472D01*
X124409D01*
Y117421D01*
D02*
G37*
G36*
X269783Y232677D02*
X266732D01*
Y234646D01*
X269783D01*
Y232677D01*
D02*
G37*
G36*
X265551D02*
X262500D01*
Y234646D01*
X265551D01*
Y232677D01*
D02*
G37*
G36*
X269783Y222441D02*
X266732D01*
Y224409D01*
X269783D01*
Y222441D01*
D02*
G37*
G36*
X265551D02*
X262500D01*
Y224409D01*
X265551D01*
Y222441D01*
D02*
G37*
G36*
X253642Y171457D02*
X250590D01*
Y173425D01*
X253642D01*
Y171457D01*
D02*
G37*
G36*
Y161221D02*
X250590D01*
Y163189D01*
X253642D01*
Y161221D01*
D02*
G37*
D20*
X59665Y64075D02*
D03*
X54665D02*
D03*
X49665D02*
D03*
X44665D02*
D03*
Y83563D02*
D03*
X49665D02*
D03*
X54665D02*
D03*
X59665D02*
D03*
D21*
X137008Y103347D02*
D03*
X144488D02*
D03*
X140748Y111221D02*
D03*
D22*
X288189Y201850D02*
D03*
Y191850D02*
D03*
X324016Y201850D02*
D03*
Y191850D02*
D03*
D23*
X68327Y51378D02*
D03*
Y43110D02*
D03*
X268898Y152362D02*
D03*
Y160630D02*
D03*
D24*
X270669Y108268D02*
D03*
Y124016D02*
D03*
D25*
X39980Y50394D02*
D03*
Y44094D02*
D03*
X155512Y96457D02*
D03*
Y102756D02*
D03*
X190748Y104134D02*
D03*
Y110433D02*
D03*
X243110Y107283D02*
D03*
Y113583D02*
D03*
X251969Y107283D02*
D03*
Y113583D02*
D03*
X49823Y50394D02*
D03*
Y44094D02*
D03*
D26*
X250000Y159646D02*
D03*
Y175000D02*
D03*
X266142Y220866D02*
D03*
Y236221D02*
D03*
D27*
X254016Y228543D02*
D03*
X244016D02*
D03*
X254016Y192717D02*
D03*
X244016D02*
D03*
X115236Y103543D02*
D03*
X105236D02*
D03*
X115236Y67716D02*
D03*
X105236D02*
D03*
D28*
X136221Y121063D02*
D03*
X120866D02*
D03*
D29*
X114173Y55118D02*
D03*
X105905D02*
D03*
D30*
X278543Y211277D02*
D03*
X270669Y207536D02*
D03*
Y215017D02*
D03*
X240158Y137008D02*
D03*
Y144488D02*
D03*
X232283Y140748D02*
D03*
D31*
X248917Y142520D02*
D03*
X255807D02*
D03*
X237126Y245079D02*
D03*
X244016D02*
D03*
X277067Y184055D02*
D03*
X270177D02*
D03*
X265256Y245079D02*
D03*
X258366D02*
D03*
X126476Y83563D02*
D03*
X133366D02*
D03*
Y92520D02*
D03*
X126476D02*
D03*
X323917Y211614D02*
D03*
X317028D02*
D03*
X277067Y193898D02*
D03*
X270177D02*
D03*
D32*
X275591Y230315D02*
D03*
Y223425D02*
D03*
X290354Y107776D02*
D03*
Y114665D02*
D03*
Y125000D02*
D03*
Y131890D02*
D03*
X278543Y153768D02*
D03*
Y160658D02*
D03*
X58681Y50689D02*
D03*
Y43799D02*
D03*
X135236Y50394D02*
D03*
Y57284D02*
D03*
D33*
X327756Y236713D02*
D03*
X295276D02*
D03*
X212441Y236417D02*
D03*
D34*
X327756Y226870D02*
D03*
X295276D02*
D03*
X212441Y226575D02*
D03*
D35*
X53150Y119095D02*
D03*
X316929Y156496D02*
D03*
D36*
X53150D02*
D03*
X316929Y119095D02*
D03*
D37*
X128543Y143701D02*
D03*
X163583Y213386D02*
D03*
X93504Y203543D02*
D03*
X163583Y243307D02*
D03*
D38*
X108465Y153543D02*
D03*
X148622D02*
D03*
D39*
X211394Y111221D02*
D03*
X168228Y104331D02*
D03*
D40*
X225394Y111221D02*
D03*
X178228Y104331D02*
D03*
X323110Y21654D02*
D03*
Y81653D02*
D03*
X163110Y21654D02*
D03*
Y81653D02*
D03*
D41*
X213583Y189213D02*
D03*
Y159213D02*
D03*
D42*
X146653Y55276D02*
D03*
Y45276D02*
D03*
D43*
X313110Y21654D02*
D03*
X303110D02*
D03*
X293110D02*
D03*
X283110D02*
D03*
X273110D02*
D03*
X263110D02*
D03*
X253110D02*
D03*
X243110D02*
D03*
X233110D02*
D03*
X223110D02*
D03*
X213110D02*
D03*
X203110D02*
D03*
X193110D02*
D03*
X183110D02*
D03*
X173110D02*
D03*
Y81653D02*
D03*
X183110D02*
D03*
X193110D02*
D03*
X203110D02*
D03*
X213110D02*
D03*
X223110D02*
D03*
X233110D02*
D03*
X243110D02*
D03*
X253110D02*
D03*
X263110D02*
D03*
X273110D02*
D03*
X283110D02*
D03*
X293110D02*
D03*
X303110D02*
D03*
D44*
X313110D02*
D03*
D45*
X332677Y184055D02*
D03*
X314961Y32480D02*
D03*
X312992Y36417D02*
D03*
X96850Y71260D02*
D03*
X79852Y91393D02*
D03*
X79773Y106265D02*
D03*
X79852Y119095D02*
D03*
X22133Y219291D02*
D03*
X45285Y242673D02*
D03*
X107087Y246127D02*
D03*
Y213317D02*
D03*
X66876Y69206D02*
D03*
X38583Y68487D02*
D03*
X21402D02*
D03*
X45285Y194058D02*
D03*
X65026Y211417D02*
D03*
X140122Y211811D02*
D03*
X137795Y158030D02*
D03*
X114567Y182677D02*
D03*
X326997Y140748D02*
D03*
X53355Y142263D02*
D03*
X39923Y156496D02*
D03*
X53129Y170866D02*
D03*
X307315Y140748D02*
D03*
X307172Y168898D02*
D03*
X141200Y83701D02*
D03*
X183071Y94095D02*
D03*
X236614D02*
D03*
X54665Y57087D02*
D03*
X71023Y119095D02*
D03*
Y106265D02*
D03*
Y91535D02*
D03*
X55967D02*
D03*
Y106265D02*
D03*
X65026Y132677D02*
D03*
X43715D02*
D03*
X144882Y220472D02*
D03*
X151181Y237402D02*
D03*
X107087Y220472D02*
D03*
Y238583D02*
D03*
X60630Y220472D02*
D03*
X52362Y234646D02*
D03*
X27953Y211417D02*
D03*
X38976Y200394D02*
D03*
X13093Y175984D02*
D03*
X31102D02*
D03*
X13093Y148031D02*
D03*
X31102D02*
D03*
X31890Y113751D02*
D03*
X13093Y113046D02*
D03*
X48031Y91393D02*
D03*
X21402Y77246D02*
D03*
X38583D02*
D03*
X43715Y106265D02*
D03*
M02*
