G04*
G04 #@! TF.GenerationSoftware,Altium Limited,Altium Designer,25.5.2 (35)*
G04*
G04 Layer_Color=16711935*
%FSLAX25Y25*%
%MOIN*%
G70*
G04*
G04 #@! TF.SameCoordinates,1C94599F-6076-4B68-B9DB-09B2163256FA*
G04*
G04*
G04 #@! TF.FilePolarity,Positive*
G04*
G01*
G75*
%ADD11C,0.00787*%
%ADD16C,0.00500*%
%ADD82C,0.00394*%
%ADD83R,0.11496X0.02436*%
D11*
X328150Y249272D02*
X327362D01*
X328150D01*
X73543Y157295D02*
X72756D01*
X73543D01*
X62421Y91024D02*
X61634D01*
X62421D01*
X314370Y90039D02*
X313583D01*
X314370D01*
X250394Y177953D02*
X249606D01*
X250394D01*
X266535Y239173D02*
X265748D01*
X266535D01*
X118307Y121063D02*
X117520D01*
X118307D01*
X295669Y249272D02*
X294882D01*
X295669D01*
X212835Y248976D02*
X212047D01*
X212835D01*
X297323Y118295D02*
X296535D01*
X297323D01*
D16*
X314370Y217224D02*
Y246358D01*
Y217224D02*
X337008D01*
Y246358D01*
X314370D02*
X337008D01*
X2650Y96795D02*
Y179795D01*
Y96795D02*
X68650D01*
Y179795D01*
X2650D02*
X68650D01*
X42323Y65945D02*
X62008D01*
X42323Y81693D02*
X62008D01*
X42323Y65945D02*
Y81693D01*
X62008Y65945D02*
Y81693D01*
X76181Y253937D02*
X184843D01*
Y127953D02*
Y253937D01*
X76181Y127953D02*
X184843D01*
X76181D02*
Y253937D01*
X158110Y16654D02*
Y86654D01*
Y16654D02*
X328110D01*
X158110Y86654D02*
X328110D01*
Y16654D02*
Y86654D01*
X247047Y160158D02*
Y174488D01*
X252953Y160158D02*
Y174488D01*
X247047Y170158D02*
X252953D01*
X247047Y170551D02*
X252953D01*
X247047Y160158D02*
X252953D01*
X247047Y174488D02*
X252953D01*
X263189Y221378D02*
Y235709D01*
X269094Y221378D02*
Y235709D01*
X263189Y231378D02*
X269094D01*
X263189Y231772D02*
X269094D01*
X263189Y221378D02*
X269094D01*
X263189Y235709D02*
X269094D01*
X121378Y118110D02*
X135709D01*
X121378Y124016D02*
X135709D01*
X125709Y118110D02*
Y124016D01*
X125315Y118110D02*
Y124016D01*
X135709Y118110D02*
Y124016D01*
X121378Y118110D02*
Y124016D01*
X281890Y217224D02*
Y246358D01*
Y217224D02*
X304528D01*
Y246358D01*
X281890D02*
X304528D01*
X199055Y216929D02*
Y246063D01*
Y216929D02*
X221693D01*
Y246063D01*
X199055D02*
X221693D01*
X367429Y95795D02*
Y178795D01*
X301429D02*
X367429D01*
X301429Y95795D02*
Y178795D01*
Y95795D02*
X367429D01*
D82*
X297835Y203346D02*
X297571Y204331D01*
X296850Y205051D01*
X295866Y205315D01*
X294882Y205051D01*
X294161Y204331D01*
X293898Y203346D01*
X294161Y202362D01*
X294882Y201642D01*
X295866Y201378D01*
X296850Y201642D01*
X297571Y202362D01*
X297835Y203346D01*
X244488Y200394D02*
X244225Y201378D01*
X243504Y202098D01*
X242520Y202362D01*
X241535Y202098D01*
X240815Y201378D01*
X240551Y200394D01*
X240815Y199409D01*
X241535Y198689D01*
X242520Y198425D01*
X243504Y198689D01*
X244225Y199409D01*
X244488Y200394D01*
X105709Y75394D02*
X105445Y76378D01*
X104724Y77099D01*
X103740Y77362D01*
X102756Y77099D01*
X102035Y76378D01*
X101772Y75394D01*
X102035Y74410D01*
X102756Y73689D01*
X103740Y73425D01*
X104724Y73689D01*
X105445Y74410D01*
X105709Y75394D01*
X135039Y104528D02*
X146457D01*
X135039Y110039D02*
X146457D01*
X135039Y104528D02*
Y110039D01*
X146457Y104528D02*
Y110039D01*
X292323Y186811D02*
Y206890D01*
X319882Y186811D02*
Y206890D01*
X292323D02*
X319882D01*
X292323Y186811D02*
X319882D01*
X70984Y42913D02*
Y51575D01*
X65669Y42913D02*
Y51575D01*
X70984D01*
X65669Y42913D02*
X70984D01*
X264921Y107087D02*
X276417D01*
X264921Y125197D02*
X276417D01*
X264921Y107087D02*
Y125197D01*
X276417Y107087D02*
Y125197D01*
X42736Y42913D02*
Y51575D01*
X37224Y42913D02*
Y51575D01*
X42736D01*
X37224Y42913D02*
X42736D01*
X152756Y95276D02*
Y103937D01*
X158268Y95276D02*
Y103937D01*
X152756Y95276D02*
X158268D01*
X152756Y103937D02*
X158268D01*
X187992Y102953D02*
Y111614D01*
X193504Y102953D02*
Y111614D01*
X187992Y102953D02*
X193504D01*
X187992Y111614D02*
X193504D01*
X240354Y106102D02*
Y114764D01*
X245866Y106102D02*
Y114764D01*
X240354Y106102D02*
X245866D01*
X240354Y114764D02*
X245866D01*
X249213Y106102D02*
Y114764D01*
X254724Y106102D02*
Y114764D01*
X249213Y106102D02*
X254724D01*
X249213Y114764D02*
X254724D01*
X52579Y42913D02*
Y51575D01*
X47067Y42913D02*
Y51575D01*
X52579D01*
X47067Y42913D02*
X52579D01*
X259055Y196850D02*
Y224409D01*
X238976Y196850D02*
Y224409D01*
X259055D01*
X238976Y196850D02*
X259055D01*
X120276Y71850D02*
Y99409D01*
X100197Y71850D02*
Y99409D01*
X120276D01*
X100197Y71850D02*
X120276D01*
X105709Y52461D02*
X114370D01*
X105709Y57776D02*
X114370D01*
Y52461D02*
Y57776D01*
X105709Y52461D02*
Y57776D01*
X271850Y205765D02*
X277362D01*
X271850Y216788D02*
X277362D01*
Y205765D02*
Y216788D01*
X271850Y205765D02*
Y216788D01*
X238976Y135039D02*
Y146457D01*
X233465Y135039D02*
Y146457D01*
Y135039D02*
X238976D01*
X233465Y146457D02*
X238976D01*
X248031Y145177D02*
X256693D01*
X248031Y139862D02*
X256693D01*
X248031D02*
Y145177D01*
X256693Y139862D02*
Y145177D01*
X236240Y247736D02*
X244902D01*
X236240Y242421D02*
X244902D01*
X236240D02*
Y247736D01*
X244902Y242421D02*
Y247736D01*
X269291Y181398D02*
X277953D01*
X269291Y186713D02*
X277953D01*
Y181398D02*
Y186713D01*
X269291Y181398D02*
Y186713D01*
X257480Y242421D02*
X266142D01*
X257480Y247736D02*
X266142D01*
Y242421D02*
Y247736D01*
X257480Y242421D02*
Y247736D01*
X278248Y222539D02*
Y231201D01*
X272933Y222539D02*
Y231201D01*
X278248D01*
X272933Y222539D02*
X278248D01*
X287697Y106890D02*
Y115551D01*
X293012Y106890D02*
Y115551D01*
X287697Y106890D02*
X293012D01*
X287697Y115551D02*
X293012D01*
X287697Y124114D02*
Y132776D01*
X293012Y124114D02*
Y132776D01*
X287697Y124114D02*
X293012D01*
X287697Y132776D02*
X293012D01*
X125591Y86221D02*
X134252D01*
X125591Y80905D02*
X134252D01*
X125591D02*
Y86221D01*
X134252Y80905D02*
Y86221D01*
X125591Y89862D02*
X134252D01*
X125591Y95177D02*
X134252D01*
Y89862D02*
Y95177D01*
X125591Y89862D02*
Y95177D01*
X266240Y152165D02*
Y160827D01*
X271555Y152165D02*
Y160827D01*
X266240Y152165D02*
X271555D01*
X266240Y160827D02*
X271555D01*
X275886Y152882D02*
Y161543D01*
X281201Y152882D02*
Y161543D01*
X275886Y152882D02*
X281201D01*
X275886Y161543D02*
X281201D01*
X61339Y42913D02*
Y51575D01*
X56024Y42913D02*
Y51575D01*
X61339D01*
X56024Y42913D02*
X61339D01*
X132579Y49508D02*
X137894D01*
X132579Y58169D02*
X137894D01*
X132579Y49508D02*
Y58169D01*
X137894Y49508D02*
Y58169D01*
X324803Y208957D02*
Y214272D01*
X316142Y208957D02*
Y214272D01*
Y208957D02*
X324803D01*
X316142Y214272D02*
X324803D01*
X277953Y191240D02*
Y196555D01*
X269291Y191240D02*
Y196555D01*
Y191240D02*
X277953D01*
X269291Y196555D02*
X277953D01*
D83*
X270669Y123979D02*
D03*
M02*
