G04*
G04 #@! TF.GenerationSoftware,Altium Limited,Altium Designer,25.5.2 (35)*
G04*
G04 Layer_Color=16711935*
%FSLAX25Y25*%
%MOIN*%
G70*
G04*
G04 #@! TF.SameCoordinates,1C94599F-6076-4B68-B9DB-09B2163256FA*
G04*
G04*
G04 #@! TF.FilePolarity,Negative*
G04*
G01*
G75*
%ADD26R,0.06890X0.02756*%
%ADD31R,0.04921X0.05709*%
%ADD32R,0.05709X0.04921*%
%ADD33R,0.06594X0.06594*%
%ADD34C,0.06594*%
%ADD35C,0.11319*%
%ADD36R,0.11319X0.11319*%
%ADD37C,0.12661*%
%ADD38C,0.06890*%
G04:AMPARAMS|DCode=39|XSize=68.94mil|YSize=68.94mil|CornerRadius=0mil|HoleSize=0mil|Usage=FLASHONLY|Rotation=180.000|XOffset=0mil|YOffset=0mil|HoleType=Round|Shape=Octagon|*
%AMOCTAGOND39*
4,1,8,-0.03447,0.01723,-0.03447,-0.01723,-0.01723,-0.03447,0.01723,-0.03447,0.03447,-0.01723,0.03447,0.01723,0.01723,0.03447,-0.01723,0.03447,-0.03447,0.01723,0.0*
%
%ADD39OCTAGOND39*%

%ADD40C,0.06894*%
G04:AMPARAMS|DCode=41|XSize=88.94mil|YSize=88.94mil|CornerRadius=0mil|HoleSize=0mil|Usage=FLASHONLY|Rotation=90.000|XOffset=0mil|YOffset=0mil|HoleType=Round|Shape=Octagon|*
%AMOCTAGOND41*
4,1,8,0.02223,0.04447,-0.02223,0.04447,-0.04447,0.02223,-0.04447,-0.02223,-0.02223,-0.04447,0.02223,-0.04447,0.04447,-0.02223,0.04447,0.02223,0.02223,0.04447,0.0*
%
%ADD41OCTAGOND41*%

G04:AMPARAMS|DCode=42|XSize=83.94mil|YSize=63.94mil|CornerRadius=0mil|HoleSize=0mil|Usage=FLASHONLY|Rotation=180.000|XOffset=0mil|YOffset=0mil|HoleType=Round|Shape=Octagon|*
%AMOCTAGOND42*
4,1,8,-0.04197,0.01598,-0.04197,-0.01598,-0.02598,-0.03197,0.02598,-0.03197,0.04197,-0.01598,0.04197,0.01598,0.02598,0.03197,-0.02598,0.03197,-0.04197,0.01598,0.0*
%
%ADD42OCTAGOND42*%

%ADD43C,0.06331*%
%ADD44R,0.06331X0.06331*%
%ADD45C,0.03150*%
%ADD59C,0.03937*%
%ADD62C,0.23622*%
%ADD79R,0.25276X0.22717*%
%ADD80R,0.12284X0.04213*%
G36*
X275886Y200394D02*
Y198425D01*
X278937D01*
Y200394D01*
X275886D01*
D02*
G37*
G36*
X280118D02*
Y198425D01*
X283169D01*
Y200394D01*
X280118D01*
D02*
G37*
G36*
X275886Y210630D02*
Y208661D01*
X278937D01*
Y210630D01*
X275886D01*
D02*
G37*
G36*
X280118D02*
Y208661D01*
X283169D01*
Y210630D01*
X280118D01*
D02*
G37*
D26*
X279528Y212205D02*
D03*
Y196850D02*
D03*
D31*
X302047Y187008D02*
D03*
X295158D02*
D03*
D32*
X288386Y201279D02*
D03*
Y208169D02*
D03*
D33*
X327756Y236713D02*
D03*
X295276D02*
D03*
X212441Y236417D02*
D03*
D34*
X327756Y226870D02*
D03*
X295276D02*
D03*
X212441Y226575D02*
D03*
D35*
X53150Y119095D02*
D03*
X316929Y156496D02*
D03*
D36*
X53150D02*
D03*
X316929Y119095D02*
D03*
D37*
X128543Y143701D02*
D03*
X163583Y213386D02*
D03*
X93504Y203543D02*
D03*
X163583Y243307D02*
D03*
D38*
X108465Y153543D02*
D03*
X148622D02*
D03*
D39*
X211394Y111221D02*
D03*
X168228Y104331D02*
D03*
D40*
X225394Y111221D02*
D03*
X178228Y104331D02*
D03*
X323110Y21654D02*
D03*
Y81653D02*
D03*
X163110Y21654D02*
D03*
Y81653D02*
D03*
D41*
X213583Y189213D02*
D03*
Y159213D02*
D03*
D42*
X146653Y55276D02*
D03*
Y45276D02*
D03*
D43*
X313110Y21654D02*
D03*
X303110D02*
D03*
X293110D02*
D03*
X283110D02*
D03*
X273110D02*
D03*
X263110D02*
D03*
X253110D02*
D03*
X243110D02*
D03*
X233110D02*
D03*
X223110D02*
D03*
X213110D02*
D03*
X203110D02*
D03*
X193110D02*
D03*
X183110D02*
D03*
X173110D02*
D03*
Y81653D02*
D03*
X183110D02*
D03*
X193110D02*
D03*
X203110D02*
D03*
X213110D02*
D03*
X223110D02*
D03*
X233110D02*
D03*
X243110D02*
D03*
X253110D02*
D03*
X263110D02*
D03*
X273110D02*
D03*
X283110D02*
D03*
X293110D02*
D03*
X303110D02*
D03*
D44*
X313110D02*
D03*
D45*
X332677Y184055D02*
D03*
X314961Y32480D02*
D03*
X312992Y36417D02*
D03*
X96850Y71260D02*
D03*
X79852Y91393D02*
D03*
X79773Y106265D02*
D03*
X79852Y119095D02*
D03*
X22133Y219291D02*
D03*
X45285Y242673D02*
D03*
X107087Y246127D02*
D03*
Y213317D02*
D03*
X66876Y69206D02*
D03*
X38583Y68487D02*
D03*
X21402D02*
D03*
X45285Y194058D02*
D03*
X65026Y211417D02*
D03*
X140122Y211811D02*
D03*
X137795Y158030D02*
D03*
X114567Y182677D02*
D03*
X326997Y140748D02*
D03*
X53355Y142263D02*
D03*
X39923Y156496D02*
D03*
X53129Y170866D02*
D03*
X307315Y140748D02*
D03*
X307172Y168898D02*
D03*
X141200Y83701D02*
D03*
X183071Y94095D02*
D03*
X236614D02*
D03*
X54665Y57087D02*
D03*
X71023Y119095D02*
D03*
Y106265D02*
D03*
Y91535D02*
D03*
X55967D02*
D03*
Y106265D02*
D03*
X65026Y132677D02*
D03*
X43715D02*
D03*
X144882Y220472D02*
D03*
X151181Y237402D02*
D03*
X107087Y220472D02*
D03*
Y238583D02*
D03*
X60630Y220472D02*
D03*
X52362Y234646D02*
D03*
X27953Y211417D02*
D03*
X38976Y200394D02*
D03*
X13093Y175984D02*
D03*
X31102D02*
D03*
X13093Y148031D02*
D03*
X31102D02*
D03*
X31890Y113751D02*
D03*
X13093Y113046D02*
D03*
X48031Y91393D02*
D03*
X21402Y77246D02*
D03*
X38583D02*
D03*
X43715Y106265D02*
D03*
D59*
X295276Y236713D02*
X327756D01*
X336122D01*
X347006Y225829D01*
Y149171D02*
Y225829D01*
X316929Y119095D02*
X347006Y149171D01*
X213583Y236417D02*
X294980D01*
X295276Y236713D01*
D62*
X112717Y157454D02*
X126822Y142118D01*
X93504Y178347D02*
X112717Y157454D01*
X126822Y142118D02*
X134055Y134252D01*
X22407Y194488D02*
X57446Y229528D01*
X22441Y86614D02*
Y194488D01*
X57480Y229331D02*
X147441D01*
Y229528D02*
X163583Y213386D01*
X256890Y119095D02*
X316929D01*
X241732Y134252D02*
X256890Y119095D01*
X134055Y134252D02*
X241732Y134252D01*
X93504Y178347D02*
Y203543D01*
D79*
X327756Y204724D02*
D03*
D80*
X302047Y213724D02*
D03*
Y195724D02*
D03*
M02*
