G04*
G04 #@! TF.GenerationSoftware,Altium Limited,Altium Designer,25.5.2 (35)*
G04*
G04 Layer_Color=32768*
%FSLAX25Y25*%
%MOIN*%
G70*
G04*
G04 #@! TF.SameCoordinates,1C94599F-6076-4B68-B9DB-09B2163256FA*
G04*
G04*
G04 #@! TF.FilePolarity,Positive*
G04*
G01*
G75*
%ADD82C,0.00394*%
%ADD84C,0.00197*%
D82*
X140748Y105315D02*
Y109252D01*
X138779Y107283D02*
X142717D01*
X304134Y196850D02*
X308071D01*
X306102Y194882D02*
Y198819D01*
X66358Y47244D02*
X70295D01*
X68327Y45276D02*
Y49213D01*
X270669Y114173D02*
Y118110D01*
X268701Y116142D02*
X272638D01*
X38012Y47244D02*
X41949D01*
X39980Y45276D02*
Y49213D01*
X153543Y99606D02*
X157480D01*
X155512Y97638D02*
Y101575D01*
X188779Y107283D02*
X192717D01*
X190748Y105315D02*
Y109252D01*
X241142Y110433D02*
X245079D01*
X243110Y108465D02*
Y112402D01*
X250000Y110433D02*
X253937D01*
X251969Y108465D02*
Y112402D01*
X47854Y47244D02*
X51791D01*
X49823Y45276D02*
Y49213D01*
X247047Y210630D02*
X250984D01*
X249016Y208661D02*
Y212598D01*
X108268Y85630D02*
X112205D01*
X110236Y83661D02*
Y87598D01*
X110039Y53150D02*
Y57087D01*
X108071Y55118D02*
X112008D01*
X274606Y209308D02*
Y213245D01*
X272638Y211277D02*
X276575D01*
X234252Y140748D02*
X238189D01*
X236221Y138779D02*
Y142717D01*
X252362Y140551D02*
Y144488D01*
X250394Y142520D02*
X254331D01*
X240571Y243110D02*
Y247047D01*
X238602Y245079D02*
X242539D01*
X273622Y182087D02*
Y186024D01*
X271654Y184055D02*
X275591D01*
X261811Y243110D02*
Y247047D01*
X259842Y245079D02*
X263780D01*
X273622Y226870D02*
X277559D01*
X275591Y224902D02*
Y228839D01*
X288386Y111221D02*
X292323D01*
X290354Y109252D02*
Y113189D01*
X288386Y128445D02*
X292323D01*
X290354Y126476D02*
Y130413D01*
X129921Y81595D02*
Y85532D01*
X127953Y83563D02*
X131890D01*
X129921Y90551D02*
Y94488D01*
X127953Y92520D02*
X131890D01*
X266929Y156496D02*
X270866D01*
X268898Y154528D02*
Y158465D01*
X276575Y157213D02*
X280512D01*
X278543Y155244D02*
Y159181D01*
X56713Y47244D02*
X60650D01*
X58681Y45276D02*
Y49213D01*
X135236Y51870D02*
Y55807D01*
X133268Y53839D02*
X137205D01*
X318504Y211614D02*
X322441D01*
X320472Y209646D02*
Y213583D01*
X271654Y193898D02*
X275590D01*
X273622Y191929D02*
Y195866D01*
D84*
X313386Y216240D02*
Y247342D01*
X337992D01*
Y216240D02*
Y247342D01*
X313386Y216240D02*
X337992D01*
X2650Y96795D02*
X68650D01*
X2650Y179795D02*
X68650D01*
X2650Y96795D02*
Y179795D01*
X68650Y96795D02*
Y179795D01*
X41339Y59213D02*
X62992D01*
X41339Y88425D02*
X62992D01*
X41339Y59213D02*
Y88425D01*
X62992Y59213D02*
Y88425D01*
X75197Y254921D02*
X185827D01*
Y126969D02*
Y254921D01*
X75197Y126969D02*
X185827D01*
X75197D02*
Y254921D01*
X157126Y87638D02*
X329095D01*
X157126Y15669D02*
Y87638D01*
Y15669D02*
X329095D01*
Y87638D01*
X134055Y100591D02*
X147441D01*
X134055Y113976D02*
X147441D01*
X134055Y100591D02*
Y113976D01*
X147441Y100591D02*
Y113976D01*
X283071Y185827D02*
Y207874D01*
X329134Y185827D02*
Y207874D01*
X283071D02*
X329134D01*
X283071Y185827D02*
X329134D01*
X72067Y39744D02*
Y54744D01*
X64587Y39744D02*
Y54744D01*
X72067D01*
X64587Y39744D02*
X72067D01*
X263779Y102142D02*
X277559D01*
X263779Y130142D02*
X277559D01*
X263779Y102142D02*
Y130142D01*
X277559Y102142D02*
Y130142D01*
X43720Y40551D02*
Y53937D01*
X36240Y40551D02*
Y53937D01*
X43720D01*
X36240Y40551D02*
X43720D01*
X151772Y92913D02*
Y106299D01*
X159252Y92913D02*
Y106299D01*
X151772Y92913D02*
X159252D01*
X151772Y106299D02*
X159252D01*
X187008Y100591D02*
Y113976D01*
X194488Y100591D02*
Y113976D01*
X187008Y100591D02*
X194488D01*
X187008Y113976D02*
X194488D01*
X239370Y103740D02*
Y117126D01*
X246850Y103740D02*
Y117126D01*
X239370Y103740D02*
X246850D01*
X239370Y117126D02*
X246850D01*
X248228Y103740D02*
Y117126D01*
X255709Y103740D02*
Y117126D01*
X248228Y103740D02*
X255709D01*
X248228Y117126D02*
X255709D01*
X53563Y40551D02*
Y53937D01*
X46083Y40551D02*
Y53937D01*
X53563D01*
X46083Y40551D02*
X53563D01*
X245768Y157480D02*
Y177165D01*
Y157480D02*
X254232D01*
Y177165D01*
X245768D02*
X254232D01*
X260039Y187598D02*
Y233661D01*
X237992Y187598D02*
Y233661D01*
X260039D01*
X237992Y187598D02*
X260039D01*
X261910Y218701D02*
Y238386D01*
Y218701D02*
X270374D01*
Y238386D01*
X261910D02*
X270374D01*
X118701Y116831D02*
X138386D01*
Y125295D01*
X118701D02*
X138386D01*
X118701Y116831D02*
Y125295D01*
X121260Y62598D02*
Y108661D01*
X99213Y62598D02*
Y108661D01*
X121260D01*
X99213Y62598D02*
X121260D01*
X102539Y51378D02*
X117539D01*
X102539Y58858D02*
X117539D01*
Y51378D02*
Y58858D01*
X102539Y51378D02*
Y58858D01*
X267913Y204584D02*
X281299D01*
X267913Y217969D02*
X281299D01*
Y204584D02*
Y217969D01*
X267913Y204584D02*
Y217969D01*
X280906Y216240D02*
Y247342D01*
X305512D01*
Y216240D02*
Y247342D01*
X280906Y216240D02*
X305512D01*
X198071Y215945D02*
Y247047D01*
X222677D01*
Y215945D02*
Y247047D01*
X198071Y215945D02*
X222677D01*
X301429Y178795D02*
X367429D01*
X301429Y95795D02*
X367429D01*
Y178795D01*
X301429Y95795D02*
Y178795D01*
X242913Y134055D02*
Y147441D01*
X229528Y134055D02*
Y147441D01*
Y134055D02*
X242913D01*
X229528Y147441D02*
X242913D01*
X245669Y146260D02*
X259055D01*
X245669Y138779D02*
X259055D01*
X245669D02*
Y146260D01*
X259055Y138779D02*
Y146260D01*
X233878Y248819D02*
X247264D01*
X233878Y241339D02*
X247264D01*
X233878D02*
Y248819D01*
X247264Y241339D02*
Y248819D01*
X266929Y180315D02*
X280315D01*
X266929Y187795D02*
X280315D01*
Y180315D02*
Y187795D01*
X266929Y180315D02*
Y187795D01*
X255118Y241339D02*
X268504D01*
X255118Y248819D02*
X268504D01*
Y241339D02*
Y248819D01*
X255118Y241339D02*
Y248819D01*
X279331Y220177D02*
Y233563D01*
X271850Y220177D02*
Y233563D01*
X279331D01*
X271850Y220177D02*
X279331D01*
X286614Y104527D02*
Y117913D01*
X294094Y104527D02*
Y117913D01*
X286614Y104527D02*
X294094D01*
X286614Y117913D02*
X294094D01*
X286614Y121752D02*
Y135138D01*
X294094Y121752D02*
Y135138D01*
X286614Y121752D02*
X294094D01*
X286614Y135138D02*
X294094D01*
X123228Y87303D02*
X136614D01*
X123228Y79823D02*
X136614D01*
X123228D02*
Y87303D01*
X136614Y79823D02*
Y87303D01*
X123228Y88779D02*
X136614D01*
X123228Y96260D02*
X136614D01*
Y88779D02*
Y96260D01*
X123228Y88779D02*
Y96260D01*
X265158Y148996D02*
Y163996D01*
X272638Y148996D02*
Y163996D01*
X265158Y148996D02*
X272638D01*
X265158Y163996D02*
X272638D01*
X274803Y150520D02*
Y163906D01*
X282283Y150520D02*
Y163906D01*
X274803Y150520D02*
X282283D01*
X274803Y163906D02*
X282283D01*
X62421Y40551D02*
Y53937D01*
X54941Y40551D02*
Y53937D01*
X62421D01*
X54941Y40551D02*
X62421D01*
X131496Y47146D02*
X138976D01*
X131496Y60532D02*
X138976D01*
X131496Y47146D02*
Y60532D01*
X138976Y47146D02*
Y60532D01*
X327165Y207874D02*
Y215354D01*
X313779Y207874D02*
Y215354D01*
Y207874D02*
X327165D01*
X313779Y215354D02*
X327165D01*
X280315Y190157D02*
Y197638D01*
X266929Y190157D02*
Y197638D01*
Y190157D02*
X280315D01*
X266929Y197638D02*
X280315D01*
M02*
