G04*
G04 #@! TF.GenerationSoftware,Altium Limited,Altium Designer,25.5.2 (35)*
G04*
G04 Layer_Color=255*
%FSLAX25Y25*%
%MOIN*%
G70*
G04*
G04 #@! TF.SameCoordinates,1C94599F-6076-4B68-B9DB-09B2163256FA*
G04*
G04*
G04 #@! TF.FilePolarity,Positive*
G04*
G01*
G75*
G04:AMPARAMS|DCode=46|XSize=77.56mil|YSize=23.62mil|CornerRadius=2.95mil|HoleSize=0mil|Usage=FLASHONLY|Rotation=270.000|XOffset=0mil|YOffset=0mil|HoleType=Round|Shape=RoundedRectangle|*
%AMROUNDEDRECTD46*
21,1,0.07756,0.01772,0,0,270.0*
21,1,0.07165,0.02362,0,0,270.0*
1,1,0.00591,-0.00886,-0.03583*
1,1,0.00591,-0.00886,0.03583*
1,1,0.00591,0.00886,0.03583*
1,1,0.00591,0.00886,-0.03583*
%
%ADD46ROUNDEDRECTD46*%
%ADD47R,0.03150X0.03543*%
%ADD48O,0.08268X0.05512*%
%ADD49R,0.04724X0.04724*%
%ADD50R,0.06693X0.09843*%
%ADD51R,0.05512X0.05118*%
%ADD52R,0.06496X0.02362*%
%ADD53O,0.05512X0.08268*%
%ADD54R,0.02362X0.06496*%
%ADD55R,0.04724X0.04724*%
%ADD56R,0.03543X0.03150*%
%ADD57R,0.04528X0.05315*%
%ADD58R,0.05315X0.04528*%
%ADD63R,0.06201X0.06201*%
%ADD64C,0.06201*%
%ADD65C,0.10925*%
%ADD66R,0.10925X0.10925*%
%ADD67C,0.12268*%
%ADD68C,0.06496*%
G04:AMPARAMS|DCode=69|XSize=65mil|YSize=65mil|CornerRadius=0mil|HoleSize=0mil|Usage=FLASHONLY|Rotation=180.000|XOffset=0mil|YOffset=0mil|HoleType=Round|Shape=Octagon|*
%AMOCTAGOND69*
4,1,8,-0.03250,0.01625,-0.03250,-0.01625,-0.01625,-0.03250,0.01625,-0.03250,0.03250,-0.01625,0.03250,0.01625,0.01625,0.03250,-0.01625,0.03250,-0.03250,0.01625,0.0*
%
%ADD69OCTAGOND69*%

%ADD70C,0.06500*%
G04:AMPARAMS|DCode=71|XSize=85mil|YSize=85mil|CornerRadius=0mil|HoleSize=0mil|Usage=FLASHONLY|Rotation=90.000|XOffset=0mil|YOffset=0mil|HoleType=Round|Shape=Octagon|*
%AMOCTAGOND71*
4,1,8,0.02125,0.04250,-0.02125,0.04250,-0.04250,0.02125,-0.04250,-0.02125,-0.02125,-0.04250,0.02125,-0.04250,0.04250,-0.02125,0.04250,0.02125,0.02125,0.04250,0.0*
%
%ADD71OCTAGOND71*%

G04:AMPARAMS|DCode=72|XSize=80mil|YSize=60mil|CornerRadius=0mil|HoleSize=0mil|Usage=FLASHONLY|Rotation=180.000|XOffset=0mil|YOffset=0mil|HoleType=Round|Shape=Octagon|*
%AMOCTAGOND72*
4,1,8,-0.04000,0.01500,-0.04000,-0.01500,-0.02500,-0.03000,0.02500,-0.03000,0.04000,-0.01500,0.04000,0.01500,0.02500,0.03000,-0.02500,0.03000,-0.04000,0.01500,0.0*
%
%ADD72OCTAGOND72*%

%ADD73C,0.05937*%
%ADD74R,0.05937X0.05937*%
D46*
X59665Y64075D02*
D03*
X54665D02*
D03*
X49665D02*
D03*
X44665D02*
D03*
Y83563D02*
D03*
X49665D02*
D03*
X54665D02*
D03*
X59665D02*
D03*
D47*
X137008Y103347D02*
D03*
X144488D02*
D03*
X140748Y111221D02*
D03*
D48*
X288189Y201850D02*
D03*
Y191850D02*
D03*
X324016Y201850D02*
D03*
Y191850D02*
D03*
D49*
X68327Y51378D02*
D03*
Y43110D02*
D03*
X268898Y152362D02*
D03*
Y160630D02*
D03*
D50*
X270669Y108268D02*
D03*
Y124016D02*
D03*
D51*
X39980Y50394D02*
D03*
Y44094D02*
D03*
X155512Y96457D02*
D03*
Y102756D02*
D03*
X190748Y104134D02*
D03*
Y110433D02*
D03*
X243110Y107283D02*
D03*
Y113583D02*
D03*
X251969Y107283D02*
D03*
Y113583D02*
D03*
X49823Y50394D02*
D03*
Y44094D02*
D03*
D52*
X250000Y159646D02*
D03*
Y175000D02*
D03*
X266142Y220866D02*
D03*
Y236221D02*
D03*
D53*
X254016Y228543D02*
D03*
X244016D02*
D03*
X254016Y192717D02*
D03*
X244016D02*
D03*
X115236Y103543D02*
D03*
X105236D02*
D03*
X115236Y67716D02*
D03*
X105236D02*
D03*
D54*
X136221Y121063D02*
D03*
X120866D02*
D03*
D55*
X114173Y55118D02*
D03*
X105905D02*
D03*
D56*
X278543Y211277D02*
D03*
X270669Y207536D02*
D03*
Y215017D02*
D03*
X240158Y137008D02*
D03*
Y144488D02*
D03*
X232283Y140748D02*
D03*
D57*
X248917Y142520D02*
D03*
X255807D02*
D03*
X237126Y245079D02*
D03*
X244016D02*
D03*
X277067Y184055D02*
D03*
X270177D02*
D03*
X265256Y245079D02*
D03*
X258366D02*
D03*
X126476Y83563D02*
D03*
X133366D02*
D03*
Y92520D02*
D03*
X126476D02*
D03*
X323917Y211614D02*
D03*
X317028D02*
D03*
X277067Y193898D02*
D03*
X270177D02*
D03*
D58*
X275591Y230315D02*
D03*
Y223425D02*
D03*
X290354Y107776D02*
D03*
Y114665D02*
D03*
Y125000D02*
D03*
Y131890D02*
D03*
X278543Y153768D02*
D03*
Y160658D02*
D03*
X58681Y50689D02*
D03*
Y43799D02*
D03*
X135236Y50394D02*
D03*
Y57284D02*
D03*
D63*
X327756Y236713D02*
D03*
X295276D02*
D03*
X212441Y236417D02*
D03*
D64*
X327756Y226870D02*
D03*
X295276D02*
D03*
X212441Y226575D02*
D03*
D65*
X53150Y119095D02*
D03*
X316929Y156496D02*
D03*
D66*
X53150D02*
D03*
X316929Y119095D02*
D03*
D67*
X128543Y143701D02*
D03*
X163583Y213386D02*
D03*
X93504Y203543D02*
D03*
X163583Y243307D02*
D03*
D68*
X108465Y153543D02*
D03*
X148622D02*
D03*
D69*
X211394Y111221D02*
D03*
X168228Y104331D02*
D03*
D70*
X225394Y111221D02*
D03*
X178228Y104331D02*
D03*
X323110Y21654D02*
D03*
Y81653D02*
D03*
X163110Y21654D02*
D03*
Y81653D02*
D03*
D71*
X213583Y189213D02*
D03*
Y159213D02*
D03*
D72*
X146653Y55276D02*
D03*
Y45276D02*
D03*
D73*
X313110Y21654D02*
D03*
X303110D02*
D03*
X293110D02*
D03*
X283110D02*
D03*
X273110D02*
D03*
X263110D02*
D03*
X253110D02*
D03*
X243110D02*
D03*
X233110D02*
D03*
X223110D02*
D03*
X213110D02*
D03*
X203110D02*
D03*
X193110D02*
D03*
X183110D02*
D03*
X173110D02*
D03*
Y81653D02*
D03*
X183110D02*
D03*
X193110D02*
D03*
X203110D02*
D03*
X213110D02*
D03*
X223110D02*
D03*
X233110D02*
D03*
X243110D02*
D03*
X253110D02*
D03*
X263110D02*
D03*
X273110D02*
D03*
X283110D02*
D03*
X293110D02*
D03*
X303110D02*
D03*
D74*
X313110D02*
D03*
M02*
