G04*
G04 #@! TF.GenerationSoftware,Altium Limited,Altium Designer,25.5.2 (35)*
G04*
G04 Layer_Color=65535*
%FSLAX25Y25*%
%MOIN*%
G70*
G04*
G04 #@! TF.SameCoordinates,1C94599F-6076-4B68-B9DB-09B2163256FA*
G04*
G04*
G04 #@! TF.FilePolarity,Positive*
G04*
G01*
G75*
%ADD11C,0.00787*%
%ADD16C,0.00500*%
%ADD17C,0.00591*%
G36*
X276475Y222608D02*
X276750Y222574D01*
X276875Y222558D01*
X276991Y222533D01*
X277091Y222508D01*
X277191Y222491D01*
X277283Y222466D01*
X277358Y222441D01*
X277433Y222416D01*
X277483Y222399D01*
X277533Y222383D01*
X277566Y222366D01*
X277583Y222358D01*
X277591D01*
X277799Y222258D01*
X277991Y222141D01*
X278157Y222025D01*
X278299Y221916D01*
X278407Y221816D01*
X278491Y221733D01*
X278516Y221700D01*
X278541Y221675D01*
X278549Y221667D01*
X278557Y221658D01*
X278691Y221475D01*
X278807Y221292D01*
X278899Y221108D01*
X278974Y220933D01*
X279032Y220783D01*
X279057Y220725D01*
X279074Y220667D01*
X279090Y220625D01*
X279099Y220592D01*
X279107Y220575D01*
Y220567D01*
X279166Y220334D01*
X279207Y220092D01*
X279232Y219859D01*
X279249Y219642D01*
X279257Y219542D01*
X279265Y219451D01*
Y219367D01*
X279274Y219301D01*
Y219243D01*
Y219201D01*
Y219176D01*
Y219167D01*
X279265Y218893D01*
X279249Y218643D01*
X279215Y218418D01*
X279199Y218318D01*
X279182Y218226D01*
X279174Y218143D01*
X279157Y218068D01*
X279140Y218001D01*
X279124Y217951D01*
X279116Y217910D01*
X279107Y217876D01*
X279099Y217860D01*
Y217851D01*
X279024Y217651D01*
X278941Y217477D01*
X278849Y217327D01*
X278766Y217193D01*
X278691Y217093D01*
X278632Y217018D01*
X278591Y216968D01*
X278574Y216952D01*
X278457Y216852D01*
X278341Y216760D01*
X278224Y216685D01*
X278116Y216618D01*
X278016Y216577D01*
X277941Y216535D01*
X277891Y216519D01*
X277883Y216510D01*
X277874D01*
X277716Y216460D01*
X277549Y216427D01*
X277391Y216394D01*
X277250Y216377D01*
X277125Y216369D01*
X277066D01*
X277025Y216360D01*
X276933D01*
X276741Y216369D01*
X276558Y216385D01*
X276392Y216419D01*
X276233Y216452D01*
X276083Y216502D01*
X275950Y216552D01*
X275825Y216610D01*
X275717Y216669D01*
X275617Y216719D01*
X275525Y216777D01*
X275459Y216827D01*
X275392Y216877D01*
X275342Y216910D01*
X275309Y216943D01*
X275292Y216960D01*
X275284Y216968D01*
X275175Y217085D01*
X275084Y217210D01*
X275001Y217335D01*
X274934Y217468D01*
X274875Y217601D01*
X274826Y217726D01*
X274784Y217851D01*
X274751Y217976D01*
X274726Y218093D01*
X274709Y218193D01*
X274692Y218285D01*
X274684Y218368D01*
X274676Y218435D01*
Y218484D01*
Y218518D01*
Y218526D01*
X274684Y218743D01*
X274709Y218934D01*
X274734Y219109D01*
X274767Y219251D01*
X274809Y219367D01*
X274834Y219451D01*
X274851Y219476D01*
X274859Y219501D01*
X274867Y219509D01*
Y219517D01*
X274942Y219659D01*
X275017Y219784D01*
X275100Y219892D01*
X275184Y219984D01*
X275250Y220051D01*
X275309Y220109D01*
X275342Y220142D01*
X275359Y220150D01*
X275534Y220259D01*
X275617Y220300D01*
X275700Y220342D01*
X275767Y220367D01*
X275817Y220384D01*
X275850Y220400D01*
X275867D01*
X275975Y220434D01*
X276083Y220450D01*
X276183Y220467D01*
X276275Y220484D01*
X276358D01*
X276417Y220492D01*
X276475D01*
X276617Y220484D01*
X276741Y220475D01*
X276858Y220459D01*
X276966Y220434D01*
X277050Y220409D01*
X277108Y220392D01*
X277150Y220384D01*
X277166Y220375D01*
X277383Y220284D01*
X277491Y220225D01*
X277574Y220184D01*
X277658Y220142D01*
X277716Y220109D01*
X277749Y220084D01*
X277766Y220075D01*
X277716Y220317D01*
X277649Y220534D01*
X277574Y220717D01*
X277491Y220867D01*
X277416Y220983D01*
X277383Y221033D01*
X277349Y221075D01*
X277325Y221100D01*
X277308Y221125D01*
X277291Y221142D01*
X277216Y221208D01*
X277133Y221267D01*
X276958Y221358D01*
X276775Y221425D01*
X276600Y221467D01*
X276442Y221500D01*
X276375Y221508D01*
X276317D01*
X276267Y221517D01*
X276083D01*
X275975Y221508D01*
X275883Y221500D01*
X275800Y221483D01*
X275733Y221475D01*
X275683Y221458D01*
X275650Y221450D01*
X275642D01*
X275559Y221425D01*
X275484Y221400D01*
X275425Y221383D01*
X275384Y221367D01*
X275342Y221350D01*
X275317Y221342D01*
X275309Y221333D01*
X275184D01*
Y222508D01*
X275234Y222516D01*
X275300Y222533D01*
X275434Y222550D01*
X275500Y222558D01*
X275550Y222566D01*
X275584Y222574D01*
X275600D01*
X275817Y222599D01*
X275908Y222608D01*
X276000D01*
X276075Y222616D01*
X276183D01*
X276475Y222608D01*
D02*
G37*
G36*
X290336Y216485D02*
X288828D01*
Y218693D01*
X288295D01*
X286621Y216485D01*
X284771D01*
X286804Y219042D01*
X286621Y219143D01*
X286454Y219259D01*
X286313Y219367D01*
X286188Y219476D01*
X286096Y219576D01*
X286029Y219651D01*
X286004Y219684D01*
X285988Y219709D01*
X285971Y219717D01*
Y219726D01*
X285863Y219900D01*
X285788Y220084D01*
X285730Y220275D01*
X285696Y220450D01*
X285671Y220609D01*
X285663Y220675D01*
Y220733D01*
X285654Y220783D01*
Y220817D01*
Y220842D01*
Y220850D01*
X285663Y221025D01*
X285688Y221183D01*
X285713Y221325D01*
X285746Y221442D01*
X285788Y221533D01*
X285813Y221600D01*
X285838Y221641D01*
X285846Y221658D01*
X285921Y221775D01*
X286004Y221875D01*
X286096Y221966D01*
X286179Y222041D01*
X286246Y222100D01*
X286313Y222150D01*
X286346Y222175D01*
X286363Y222183D01*
X286479Y222250D01*
X286604Y222308D01*
X286721Y222350D01*
X286829Y222383D01*
X286921Y222408D01*
X286987Y222425D01*
X287037Y222441D01*
X287054D01*
X287196Y222466D01*
X287346Y222483D01*
X287487Y222491D01*
X287620Y222499D01*
X287745Y222508D01*
X290336D01*
Y216485D01*
D02*
G37*
G36*
X282756Y222433D02*
X282772Y222358D01*
X282789Y222283D01*
X282806Y222225D01*
X282831Y222175D01*
X282847Y222141D01*
X282856Y222116D01*
X282864Y222108D01*
X282956Y222000D01*
X283056Y221916D01*
X283097Y221891D01*
X283131Y221866D01*
X283155Y221858D01*
X283164Y221850D01*
X283230Y221825D01*
X283306Y221800D01*
X283447Y221758D01*
X283505Y221750D01*
X283555Y221742D01*
X283597Y221733D01*
X283605D01*
X283805Y221716D01*
X283897Y221708D01*
X283980D01*
X284055Y221700D01*
X284155D01*
Y220717D01*
X282889D01*
Y217535D01*
X284155D01*
Y216485D01*
X280182D01*
Y217535D01*
X281423D01*
Y222524D01*
X282747D01*
X282756Y222433D01*
D02*
G37*
G36*
X278020Y186717D02*
X277895D01*
X277712Y186758D01*
X277620Y186775D01*
X277537Y186792D01*
X277462Y186808D01*
X277404Y186817D01*
X277370Y186825D01*
X277354D01*
X277120Y186858D01*
X277012Y186867D01*
X276912Y186875D01*
X276829Y186883D01*
X276704D01*
X276529Y186875D01*
X276446Y186867D01*
X276371D01*
X276296Y186858D01*
X276246Y186850D01*
X276213Y186842D01*
X276196D01*
X276088Y186825D01*
X275996Y186800D01*
X275913Y186767D01*
X275838Y186742D01*
X275779Y186708D01*
X275729Y186692D01*
X275704Y186675D01*
X275696Y186667D01*
X275604Y186583D01*
X275530Y186509D01*
X275504Y186467D01*
X275488Y186442D01*
X275471Y186425D01*
Y186417D01*
X275438Y186359D01*
X275421Y186300D01*
X275388Y186175D01*
Y186125D01*
X275379Y186084D01*
Y186059D01*
Y186050D01*
Y185959D01*
X275388Y185884D01*
X275405Y185817D01*
X275413Y185759D01*
X275430Y185709D01*
X275446Y185676D01*
X275454Y185659D01*
Y185651D01*
X275513Y185542D01*
X275571Y185459D01*
X275604Y185426D01*
X275621Y185401D01*
X275638Y185384D01*
X275646Y185376D01*
X275713Y185326D01*
X275788Y185284D01*
X275929Y185217D01*
X275988Y185192D01*
X276038Y185176D01*
X276079Y185167D01*
X276088D01*
X276279Y185134D01*
X276362Y185126D01*
X276437Y185117D01*
X276496Y185109D01*
X276687D01*
X276779Y185117D01*
X276862Y185126D01*
X276937Y185134D01*
X277004Y185142D01*
X277045Y185151D01*
X277079Y185159D01*
X277087D01*
X277245Y185209D01*
X277320Y185226D01*
X277387Y185251D01*
X277437Y185267D01*
X277479Y185284D01*
X277512Y185301D01*
X277520D01*
X277604Y185334D01*
X277670Y185367D01*
X277737Y185401D01*
X277787Y185426D01*
X277829Y185442D01*
X277862Y185459D01*
X277878Y185476D01*
X277887D01*
X277987Y185534D01*
X278070Y185584D01*
X278103Y185601D01*
X278128Y185617D01*
X278137Y185626D01*
X278278D01*
Y184309D01*
X278153Y184259D01*
X278028Y184218D01*
X277895Y184176D01*
X277770Y184143D01*
X277654Y184109D01*
X277570Y184084D01*
X277537Y184076D01*
X277512D01*
X277495Y184068D01*
X277487D01*
X277295Y184035D01*
X277096Y184001D01*
X276904Y183985D01*
X276721Y183968D01*
X276562Y183960D01*
X276496D01*
X276437Y183951D01*
X276329D01*
X276104Y183960D01*
X275896Y183976D01*
X275713Y184001D01*
X275554Y184026D01*
X275430Y184051D01*
X275379Y184068D01*
X275338Y184076D01*
X275305Y184084D01*
X275280Y184093D01*
X275271Y184101D01*
X275263D01*
X275105Y184168D01*
X274955Y184234D01*
X274830Y184309D01*
X274722Y184384D01*
X274630Y184451D01*
X274563Y184501D01*
X274521Y184534D01*
X274505Y184551D01*
X274397Y184668D01*
X274297Y184784D01*
X274213Y184901D01*
X274147Y185009D01*
X274097Y185101D01*
X274063Y185176D01*
X274038Y185226D01*
X274030Y185234D01*
Y185242D01*
X273972Y185392D01*
X273930Y185551D01*
X273905Y185692D01*
X273880Y185826D01*
X273872Y185942D01*
X273864Y186034D01*
Y186067D01*
Y186092D01*
Y186100D01*
Y186109D01*
X273872Y186300D01*
X273897Y186484D01*
X273922Y186634D01*
X273955Y186767D01*
X273997Y186875D01*
X274022Y186958D01*
X274047Y187008D01*
X274055Y187025D01*
X274130Y187158D01*
X274222Y187275D01*
X274313Y187383D01*
X274397Y187467D01*
X274472Y187533D01*
X274538Y187583D01*
X274580Y187617D01*
X274597Y187625D01*
X274705Y187691D01*
X274813Y187741D01*
X274930Y187791D01*
X275030Y187825D01*
X275113Y187858D01*
X275188Y187875D01*
X275230Y187891D01*
X275246D01*
X275388Y187925D01*
X275530Y187941D01*
X275663Y187958D01*
X275779Y187975D01*
X275888D01*
X275971Y187983D01*
X276213D01*
X276254Y187975D01*
X276312D01*
X276429Y187966D01*
X276512D01*
X276546Y187958D01*
X276596D01*
Y188966D01*
X274030D01*
Y190099D01*
X278020D01*
Y186717D01*
D02*
G37*
G36*
X289424Y184076D02*
X287916D01*
Y186284D01*
X287383D01*
X285709Y184076D01*
X283859D01*
X285892Y186634D01*
X285709Y186733D01*
X285542Y186850D01*
X285401Y186958D01*
X285276Y187067D01*
X285184Y187167D01*
X285117Y187242D01*
X285092Y187275D01*
X285076Y187300D01*
X285059Y187308D01*
Y187317D01*
X284951Y187492D01*
X284876Y187675D01*
X284817Y187866D01*
X284784Y188041D01*
X284759Y188199D01*
X284751Y188266D01*
Y188324D01*
X284742Y188374D01*
Y188408D01*
Y188433D01*
Y188441D01*
X284751Y188616D01*
X284776Y188774D01*
X284801Y188916D01*
X284834Y189032D01*
X284876Y189124D01*
X284901Y189191D01*
X284926Y189233D01*
X284934Y189249D01*
X285009Y189366D01*
X285092Y189466D01*
X285184Y189557D01*
X285267Y189632D01*
X285334Y189691D01*
X285401Y189741D01*
X285434Y189766D01*
X285451Y189774D01*
X285567Y189841D01*
X285692Y189899D01*
X285809Y189941D01*
X285917Y189974D01*
X286009Y189999D01*
X286075Y190015D01*
X286125Y190032D01*
X286142D01*
X286283Y190057D01*
X286433Y190074D01*
X286575Y190082D01*
X286708Y190091D01*
X286833Y190099D01*
X289424D01*
Y184076D01*
D02*
G37*
G36*
X281844Y190024D02*
X281860Y189949D01*
X281877Y189874D01*
X281894Y189816D01*
X281919Y189766D01*
X281935Y189732D01*
X281944Y189707D01*
X281952Y189699D01*
X282044Y189591D01*
X282143Y189507D01*
X282185Y189482D01*
X282219Y189457D01*
X282243Y189449D01*
X282252Y189441D01*
X282318Y189416D01*
X282393Y189391D01*
X282535Y189349D01*
X282593Y189341D01*
X282643Y189332D01*
X282685Y189324D01*
X282693D01*
X282893Y189307D01*
X282985Y189299D01*
X283068D01*
X283143Y189291D01*
X283243D01*
Y188308D01*
X281977D01*
Y185126D01*
X283243D01*
Y184076D01*
X279270D01*
Y185126D01*
X280511D01*
Y190115D01*
X281835D01*
X281844Y190024D01*
D02*
G37*
G36*
X316250Y185840D02*
Y184724D01*
X313610D01*
Y183308D01*
X312143D01*
Y184724D01*
X311327D01*
Y185807D01*
X312143D01*
Y189347D01*
X313660D01*
X316250Y185840D01*
D02*
G37*
G36*
X319874Y189463D02*
X320107Y189438D01*
X320324Y189397D01*
X320532Y189339D01*
X320723Y189272D01*
X320898Y189205D01*
X321057Y189130D01*
X321198Y189047D01*
X321323Y188972D01*
X321440Y188889D01*
X321531Y188822D01*
X321615Y188756D01*
X321673Y188697D01*
X321723Y188655D01*
X321748Y188630D01*
X321756Y188622D01*
X321890Y188456D01*
X322015Y188281D01*
X322115Y188097D01*
X322206Y187906D01*
X322281Y187714D01*
X322340Y187531D01*
X322389Y187339D01*
X322431Y187164D01*
X322464Y186989D01*
X322489Y186831D01*
X322506Y186690D01*
X322523Y186573D01*
Y186473D01*
X322531Y186398D01*
Y186348D01*
Y186340D01*
Y186331D01*
X322523Y186073D01*
X322498Y185832D01*
X322464Y185607D01*
X322414Y185390D01*
X322364Y185190D01*
X322298Y185007D01*
X322239Y184840D01*
X322165Y184690D01*
X322098Y184549D01*
X322031Y184432D01*
X321973Y184332D01*
X321923Y184249D01*
X321873Y184182D01*
X321840Y184141D01*
X321815Y184107D01*
X321806Y184099D01*
X321665Y183957D01*
X321507Y183824D01*
X321348Y183707D01*
X321182Y183616D01*
X321015Y183533D01*
X320848Y183458D01*
X320682Y183399D01*
X320524Y183349D01*
X320374Y183308D01*
X320232Y183274D01*
X320107Y183258D01*
X319999Y183241D01*
X319915Y183224D01*
X319849D01*
X319807Y183216D01*
X319791D01*
X319782Y183091D01*
X319765Y182974D01*
X319749Y182875D01*
X319732Y182783D01*
X319707Y182700D01*
X319690Y182641D01*
X319682Y182608D01*
X319674Y182591D01*
X319624Y182483D01*
X319574Y182383D01*
X319516Y182300D01*
X319457Y182225D01*
X319407Y182158D01*
X319366Y182116D01*
X319341Y182083D01*
X319332Y182075D01*
X319249Y182000D01*
X319157Y181933D01*
X319066Y181875D01*
X318974Y181825D01*
X318899Y181792D01*
X318841Y181767D01*
X318799Y181750D01*
X318782Y181742D01*
X318649Y181700D01*
X318516Y181667D01*
X318383Y181650D01*
X318249Y181633D01*
X318141Y181625D01*
X318050Y181617D01*
X317791D01*
X317633Y181625D01*
X317500D01*
X317391Y181633D01*
X317308Y181642D01*
X317250D01*
X317216Y181650D01*
X317208D01*
X317033Y181675D01*
X316950Y181692D01*
X316875Y181708D01*
X316808Y181717D01*
X316758Y181733D01*
X316725Y181742D01*
X316717D01*
Y182808D01*
X316867D01*
X316908Y182791D01*
X316950Y182774D01*
X317050Y182741D01*
X317092Y182733D01*
X317133Y182716D01*
X317158Y182708D01*
X317166D01*
X317308Y182675D01*
X317375Y182666D01*
X317433Y182658D01*
X317483Y182650D01*
X317550D01*
X317708Y182658D01*
X317850Y182675D01*
X317966Y182708D01*
X318050Y182741D01*
X318125Y182766D01*
X318166Y182799D01*
X318199Y182816D01*
X318208Y182825D01*
X318274Y182899D01*
X318316Y182991D01*
X318349Y183091D01*
X318374Y183191D01*
X318391Y183283D01*
X318399Y183358D01*
Y183408D01*
Y183416D01*
Y183424D01*
X318249Y183491D01*
X318116Y183557D01*
X317991Y183641D01*
X317866Y183724D01*
X317758Y183816D01*
X317658Y183907D01*
X317558Y183991D01*
X317475Y184082D01*
X317408Y184166D01*
X317341Y184241D01*
X317283Y184316D01*
X317242Y184374D01*
X317200Y184424D01*
X317175Y184466D01*
X317166Y184491D01*
X317158Y184499D01*
X317075Y184649D01*
X317008Y184799D01*
X316950Y184949D01*
X316900Y185107D01*
X316817Y185415D01*
X316792Y185565D01*
X316767Y185707D01*
X316742Y185832D01*
X316733Y185957D01*
X316725Y186065D01*
X316717Y186156D01*
X316708Y186232D01*
Y186281D01*
Y186323D01*
Y186331D01*
X316717Y186598D01*
X316742Y186848D01*
X316783Y187081D01*
X316833Y187306D01*
X316892Y187514D01*
X316958Y187698D01*
X317025Y187873D01*
X317100Y188031D01*
X317175Y188164D01*
X317242Y188289D01*
X317308Y188389D01*
X317366Y188481D01*
X317416Y188547D01*
X317458Y188589D01*
X317483Y188622D01*
X317491Y188630D01*
X317641Y188780D01*
X317808Y188905D01*
X317974Y189022D01*
X318149Y189114D01*
X318333Y189197D01*
X318508Y189264D01*
X318683Y189322D01*
X318849Y189364D01*
X319007Y189405D01*
X319149Y189430D01*
X319282Y189447D01*
X319399Y189455D01*
X319491Y189463D01*
X319566Y189472D01*
X319624D01*
X319874Y189463D01*
D02*
G37*
G36*
X273591Y201705D02*
X271483D01*
X271267Y201722D01*
X271067Y201730D01*
X270892Y201746D01*
X270817Y201755D01*
X270750Y201763D01*
X270692Y201771D01*
X270634D01*
X270600Y201780D01*
X270567Y201788D01*
X270542D01*
X270334Y201830D01*
X270142Y201888D01*
X269975Y201946D01*
X269817Y202013D01*
X269692Y202080D01*
X269642Y202105D01*
X269601Y202130D01*
X269567Y202155D01*
X269542Y202163D01*
X269526Y202180D01*
X269517D01*
X269317Y202329D01*
X269134Y202488D01*
X268976Y202663D01*
X268843Y202821D01*
X268734Y202971D01*
X268693Y203029D01*
X268659Y203088D01*
X268626Y203129D01*
X268609Y203171D01*
X268593Y203187D01*
Y203196D01*
X268526Y203321D01*
X268468Y203454D01*
X268376Y203712D01*
X268309Y203962D01*
X268268Y204204D01*
X268251Y204304D01*
X268234Y204404D01*
X268226Y204487D01*
Y204562D01*
X268218Y204620D01*
Y204670D01*
Y204695D01*
Y204704D01*
X268234Y205020D01*
X268276Y205312D01*
X268301Y205445D01*
X268326Y205570D01*
X268359Y205686D01*
X268393Y205786D01*
X268426Y205887D01*
X268459Y205970D01*
X268484Y206045D01*
X268509Y206103D01*
X268534Y206153D01*
X268551Y206195D01*
X268559Y206211D01*
X268568Y206220D01*
X268709Y206453D01*
X268859Y206653D01*
X269009Y206836D01*
X269159Y206978D01*
X269292Y207094D01*
X269351Y207144D01*
X269401Y207186D01*
X269442Y207211D01*
X269476Y207236D01*
X269492Y207244D01*
X269501Y207253D01*
X269684Y207361D01*
X269867Y207444D01*
X270042Y207511D01*
X270200Y207561D01*
X270342Y207602D01*
X270400Y207619D01*
X270450Y207627D01*
X270484Y207636D01*
X270517Y207644D01*
X270542D01*
X270750Y207669D01*
X270958Y207694D01*
X271158Y207711D01*
X271342Y207719D01*
X271425D01*
X271492Y207727D01*
X273591D01*
Y201705D01*
D02*
G37*
G36*
X265752Y207652D02*
X265769Y207577D01*
X265786Y207503D01*
X265802Y207444D01*
X265827Y207394D01*
X265844Y207361D01*
X265852Y207336D01*
X265861Y207328D01*
X265952Y207219D01*
X266052Y207136D01*
X266094Y207111D01*
X266127Y207086D01*
X266152Y207078D01*
X266160Y207069D01*
X266227Y207044D01*
X266302Y207019D01*
X266444Y206978D01*
X266502Y206969D01*
X266552Y206961D01*
X266594Y206953D01*
X266602D01*
X266802Y206936D01*
X266893Y206928D01*
X266977D01*
X267052Y206919D01*
X267152D01*
Y205936D01*
X265885D01*
Y202754D01*
X267152D01*
Y201705D01*
X263178D01*
Y202754D01*
X264419D01*
Y207744D01*
X265744D01*
X265752Y207652D01*
D02*
G37*
G36*
X260479D02*
X260496Y207577D01*
X260513Y207503D01*
X260529Y207444D01*
X260554Y207394D01*
X260571Y207361D01*
X260579Y207336D01*
X260588Y207328D01*
X260679Y207219D01*
X260779Y207136D01*
X260821Y207111D01*
X260854Y207086D01*
X260879Y207078D01*
X260888Y207069D01*
X260954Y207044D01*
X261029Y207019D01*
X261171Y206978D01*
X261229Y206969D01*
X261279Y206961D01*
X261321Y206953D01*
X261329D01*
X261529Y206936D01*
X261620Y206928D01*
X261704D01*
X261779Y206919D01*
X261879D01*
Y205936D01*
X260613D01*
Y202754D01*
X261879D01*
Y201705D01*
X257905D01*
Y202754D01*
X259146D01*
Y207744D01*
X260471D01*
X260479Y207652D01*
D02*
G37*
%LPC*%
G36*
X277191Y219442D02*
X277133D01*
X277000Y219434D01*
X276933Y219426D01*
X276883Y219417D01*
X276841Y219409D01*
X276800Y219401D01*
X276783Y219392D01*
X276775D01*
X276658Y219351D01*
X276558Y219301D01*
X276525Y219276D01*
X276500Y219259D01*
X276483Y219251D01*
X276475Y219243D01*
X276383Y219143D01*
X276317Y219042D01*
X276300Y219001D01*
X276283Y218968D01*
X276267Y218943D01*
Y218934D01*
X276242Y218859D01*
X276225Y218784D01*
X276208Y218701D01*
X276200Y218626D01*
X276192Y218559D01*
Y218509D01*
Y218476D01*
Y218459D01*
Y218335D01*
X276200Y218226D01*
X276208Y218143D01*
X276225Y218068D01*
X276233Y218010D01*
X276250Y217968D01*
X276258Y217943D01*
Y217935D01*
X276308Y217818D01*
X276367Y217718D01*
X276392Y217676D01*
X276417Y217651D01*
X276425Y217635D01*
X276433Y217626D01*
X276517Y217543D01*
X276591Y217485D01*
X276625Y217468D01*
X276650Y217452D01*
X276666Y217443D01*
X276675D01*
X276775Y217410D01*
X276858Y217393D01*
X276891Y217385D01*
X276933D01*
X277041Y217393D01*
X277133Y217410D01*
X277175Y217418D01*
X277200Y217426D01*
X277216Y217435D01*
X277225D01*
X277316Y217493D01*
X277391Y217551D01*
X277441Y217601D01*
X277449Y217618D01*
X277458Y217626D01*
X277508Y217693D01*
X277558Y217768D01*
X277624Y217918D01*
X277658Y217985D01*
X277674Y218043D01*
X277683Y218076D01*
X277691Y218093D01*
X277716Y218218D01*
X277741Y218359D01*
X277758Y218493D01*
X277766Y218626D01*
Y218743D01*
X277774Y218843D01*
Y218876D01*
Y218901D01*
Y218918D01*
Y218926D01*
Y219026D01*
Y219092D01*
Y219143D01*
Y219159D01*
Y219226D01*
Y219268D01*
Y219292D01*
Y219301D01*
X277658Y219342D01*
X277558Y219376D01*
X277516Y219384D01*
X277483Y219392D01*
X277466Y219401D01*
X277458D01*
X277333Y219426D01*
X277233Y219434D01*
X277191Y219442D01*
D02*
G37*
G36*
X288828Y221408D02*
X288154D01*
X288087Y221400D01*
X287970D01*
X287937Y221392D01*
X287904D01*
X287779Y221375D01*
X287679Y221342D01*
X287637Y221333D01*
X287612Y221317D01*
X287595Y221308D01*
X287587D01*
X287520Y221275D01*
X287462Y221233D01*
X287412Y221192D01*
X287370Y221150D01*
X287337Y221117D01*
X287320Y221083D01*
X287304Y221067D01*
Y221058D01*
X287271Y220992D01*
X287254Y220925D01*
X287221Y220800D01*
Y220750D01*
X287212Y220708D01*
Y220675D01*
Y220667D01*
Y220575D01*
X287221Y220492D01*
X287237Y220425D01*
X287246Y220359D01*
X287262Y220317D01*
X287279Y220275D01*
X287287Y220259D01*
Y220250D01*
X287346Y220142D01*
X287421Y220051D01*
X287454Y220017D01*
X287479Y220001D01*
X287495Y219984D01*
X287504Y219975D01*
X287620Y219900D01*
X287745Y219842D01*
X287795Y219826D01*
X287837Y219817D01*
X287862Y219809D01*
X287870D01*
X287954Y219801D01*
X288045Y219792D01*
X288137Y219784D01*
X288220D01*
X288295Y219776D01*
X288828D01*
Y221408D01*
D02*
G37*
G36*
X287916Y188999D02*
X287242D01*
X287175Y188991D01*
X287058D01*
X287025Y188983D01*
X286992D01*
X286867Y188966D01*
X286767Y188933D01*
X286725Y188924D01*
X286700Y188908D01*
X286683Y188899D01*
X286675D01*
X286608Y188866D01*
X286550Y188824D01*
X286500Y188783D01*
X286458Y188741D01*
X286425Y188708D01*
X286408Y188674D01*
X286392Y188658D01*
Y188649D01*
X286358Y188583D01*
X286342Y188516D01*
X286309Y188391D01*
Y188341D01*
X286300Y188300D01*
Y188266D01*
Y188258D01*
Y188166D01*
X286309Y188083D01*
X286325Y188016D01*
X286333Y187950D01*
X286350Y187908D01*
X286367Y187866D01*
X286375Y187850D01*
Y187841D01*
X286433Y187733D01*
X286508Y187641D01*
X286542Y187608D01*
X286567Y187592D01*
X286583Y187575D01*
X286592Y187566D01*
X286708Y187492D01*
X286833Y187433D01*
X286883Y187417D01*
X286925Y187408D01*
X286950Y187400D01*
X286958D01*
X287041Y187391D01*
X287133Y187383D01*
X287225Y187375D01*
X287308D01*
X287383Y187367D01*
X287916D01*
Y188999D01*
D02*
G37*
G36*
X313610Y187856D02*
Y185807D01*
X315134D01*
X313610Y187856D01*
D02*
G37*
G36*
X319674Y188339D02*
X319624D01*
X319524Y188331D01*
X319432Y188322D01*
X319349Y188306D01*
X319266Y188289D01*
X319207Y188264D01*
X319157Y188247D01*
X319124Y188239D01*
X319116Y188231D01*
X319024Y188181D01*
X318941Y188131D01*
X318866Y188072D01*
X318808Y188014D01*
X318749Y187956D01*
X318708Y187914D01*
X318683Y187881D01*
X318674Y187873D01*
X318608Y187773D01*
X318549Y187673D01*
X318499Y187573D01*
X318458Y187473D01*
X318424Y187381D01*
X318399Y187314D01*
X318391Y187264D01*
X318383Y187256D01*
Y187248D01*
X318341Y187098D01*
X318316Y186948D01*
X318291Y186790D01*
X318283Y186648D01*
X318274Y186523D01*
X318266Y186465D01*
Y186423D01*
Y186381D01*
Y186356D01*
Y186340D01*
Y186331D01*
X318274Y186132D01*
X318283Y185948D01*
X318299Y185790D01*
X318316Y185665D01*
X318341Y185557D01*
X318358Y185482D01*
X318366Y185432D01*
X318374Y185415D01*
X318416Y185290D01*
X318466Y185174D01*
X318516Y185065D01*
X318566Y184974D01*
X318608Y184899D01*
X318641Y184849D01*
X318666Y184807D01*
X318674Y184799D01*
X318749Y184715D01*
X318816Y184640D01*
X318891Y184582D01*
X318957Y184532D01*
X319016Y184491D01*
X319066Y184466D01*
X319099Y184449D01*
X319107Y184441D01*
X319199Y184407D01*
X319291Y184382D01*
X319382Y184357D01*
X319457Y184349D01*
X319524Y184341D01*
X319574Y184332D01*
X319624D01*
X319715Y184341D01*
X319815Y184349D01*
X319899Y184366D01*
X319974Y184382D01*
X320040Y184399D01*
X320090Y184415D01*
X320124Y184432D01*
X320132D01*
X320224Y184482D01*
X320299Y184532D01*
X320374Y184590D01*
X320440Y184649D01*
X320498Y184707D01*
X320540Y184749D01*
X320565Y184782D01*
X320573Y184790D01*
X320640Y184890D01*
X320698Y184990D01*
X320748Y185099D01*
X320790Y185190D01*
X320823Y185282D01*
X320848Y185348D01*
X320857Y185390D01*
X320865Y185407D01*
X320898Y185548D01*
X320923Y185707D01*
X320948Y185857D01*
X320957Y186007D01*
X320965Y186140D01*
X320973Y186190D01*
Y186240D01*
Y186281D01*
Y186306D01*
Y186323D01*
Y186331D01*
X320965Y186523D01*
X320957Y186698D01*
X320940Y186856D01*
X320915Y186998D01*
X320898Y187106D01*
X320882Y187189D01*
X320873Y187214D01*
Y187239D01*
X320865Y187248D01*
Y187256D01*
X320815Y187398D01*
X320765Y187523D01*
X320715Y187623D01*
X320673Y187714D01*
X320632Y187789D01*
X320599Y187839D01*
X320573Y187873D01*
X320565Y187881D01*
X320482Y187972D01*
X320407Y188047D01*
X320332Y188106D01*
X320265Y188156D01*
X320207Y188197D01*
X320165Y188222D01*
X320132Y188231D01*
X320124Y188239D01*
X320040Y188272D01*
X319949Y188297D01*
X319865Y188314D01*
X319791Y188331D01*
X319724D01*
X319674Y188339D01*
D02*
G37*
G36*
X272075Y206603D02*
X271725D01*
X271591Y206594D01*
X271383D01*
X271308Y206586D01*
X271250D01*
X271125Y206570D01*
X271008Y206553D01*
X270900Y206520D01*
X270800Y206486D01*
X270725Y206453D01*
X270659Y206420D01*
X270625Y206403D01*
X270609Y206395D01*
X270459Y206303D01*
X270334Y206195D01*
X270225Y206086D01*
X270134Y205978D01*
X270067Y205887D01*
X270025Y205803D01*
X269992Y205753D01*
X269984Y205745D01*
Y205736D01*
X269917Y205570D01*
X269867Y205395D01*
X269826Y205228D01*
X269801Y205070D01*
X269784Y204928D01*
Y204870D01*
X269776Y204820D01*
Y204779D01*
Y204745D01*
Y204729D01*
Y204720D01*
X269784Y204504D01*
X269809Y204312D01*
X269842Y204146D01*
X269876Y203995D01*
X269909Y203879D01*
X269925Y203829D01*
X269942Y203787D01*
X269959Y203754D01*
X269967Y203729D01*
X269975Y203721D01*
Y203712D01*
X270051Y203571D01*
X270142Y203437D01*
X270234Y203329D01*
X270325Y203238D01*
X270409Y203163D01*
X270475Y203113D01*
X270517Y203079D01*
X270525Y203071D01*
X270534D01*
X270650Y203004D01*
X270767Y202954D01*
X270883Y202913D01*
X270983Y202888D01*
X271075Y202871D01*
X271142Y202863D01*
X271183Y202854D01*
X271200D01*
X271333Y202846D01*
X271617D01*
X271750Y202838D01*
X272075D01*
Y206603D01*
D02*
G37*
%LPD*%
D11*
X293894Y195724D02*
X293106D01*
X293894D01*
X279921Y193898D02*
X279134D01*
X279921D01*
D16*
X310102Y191339D02*
Y218110D01*
X334591D01*
X310102Y191339D02*
X334591D01*
X276575Y201260D02*
Y207795D01*
X282480Y201260D02*
Y207795D01*
D17*
X284842Y204724D02*
X291929D01*
X291142Y198031D02*
X291929D01*
Y211417D01*
X291142D02*
X291929D01*
X284842Y198031D02*
X285630D01*
X284842D02*
Y211417D01*
X285630D01*
X298602Y183465D02*
Y190551D01*
X305295Y189764D02*
Y190551D01*
X291910D02*
X305295D01*
X291910Y189764D02*
Y190551D01*
X305295Y183465D02*
Y184252D01*
X291910Y183465D02*
X305295D01*
X291910D02*
Y184252D01*
M02*
