G04*
G04 #@! TF.GenerationSoftware,Altium Limited,Altium Designer,19.1.8 (144)*
G04*
G04 Layer_Color=255*
%FSLAX25Y25*%
%MOIN*%
G70*
G01*
G75*
G04:AMPARAMS|DCode=40|XSize=60mil|YSize=70mil|CornerRadius=0mil|HoleSize=0mil|Usage=FLASHONLY|Rotation=270.000|XOffset=0mil|YOffset=0mil|HoleType=Round|Shape=Octagon|*
%AMOCTAGOND40*
4,1,8,0.03500,0.01500,0.03500,-0.01500,0.02000,-0.03000,-0.02000,-0.03000,-0.03500,-0.01500,-0.03500,0.01500,-0.02000,0.03000,0.02000,0.03000,0.03500,0.01500,0.0*
%
%ADD40OCTAGOND40*%

%ADD41O,0.07000X0.06000*%
%ADD42C,0.04795*%
%ADD43R,0.04795X0.04795*%
G04:AMPARAMS|DCode=44|XSize=75mil|YSize=60mil|CornerRadius=0mil|HoleSize=0mil|Usage=FLASHONLY|Rotation=270.000|XOffset=0mil|YOffset=0mil|HoleType=Round|Shape=Octagon|*
%AMOCTAGOND44*
4,1,8,-0.01500,-0.03750,0.01500,-0.03750,0.03000,-0.02250,0.03000,0.02250,0.01500,0.03750,-0.01500,0.03750,-0.03000,0.02250,-0.03000,-0.02250,-0.01500,-0.03750,0.0*
%
%ADD44OCTAGOND44*%

%ADD45P,0.07036X8X112.5*%
%ADD46C,0.06500*%
%ADD47P,0.07036X8X202.5*%
%ADD48O,0.06000X0.07000*%
G04:AMPARAMS|DCode=49|XSize=60mil|YSize=70mil|CornerRadius=0mil|HoleSize=0mil|Usage=FLASHONLY|Rotation=180.000|XOffset=0mil|YOffset=0mil|HoleType=Round|Shape=Octagon|*
%AMOCTAGOND49*
4,1,8,0.01500,-0.03500,-0.01500,-0.03500,-0.03000,-0.02000,-0.03000,0.02000,-0.01500,0.03500,0.01500,0.03500,0.03000,0.02000,0.03000,-0.02000,0.01500,-0.03500,0.0*
%
%ADD49OCTAGOND49*%

%ADD50R,0.04449X0.04449*%
%ADD51C,0.04449*%
%ADD52C,0.05150*%
%ADD53R,0.05150X0.05150*%
%ADD54R,0.04961X0.04961*%
%ADD55C,0.04961*%
%ADD56R,0.04795X0.04795*%
%ADD57C,0.19685*%
D40*
X178150Y46102D02*
D03*
X55551Y86614D02*
D03*
X54134Y106299D02*
D03*
X155197Y48150D02*
D03*
D41*
X178150Y56102D02*
D03*
X55551Y76614D02*
D03*
X54134Y116299D02*
D03*
X155197Y58150D02*
D03*
D42*
X71142Y154488D02*
D03*
X81142D02*
D03*
X182598Y98189D02*
D03*
Y108189D02*
D03*
X120197Y154449D02*
D03*
X130197D02*
D03*
D43*
X91142Y154488D02*
D03*
X140197Y154449D02*
D03*
D44*
X103268Y6890D02*
D03*
X113268D02*
D03*
X123268D02*
D03*
X133268D02*
D03*
X143268D02*
D03*
X73268D02*
D03*
X83268D02*
D03*
X93268D02*
D03*
D45*
X173898Y30732D02*
D03*
X166339Y149285D02*
D03*
X136496Y58150D02*
D03*
X30512Y118425D02*
D03*
Y78425D02*
D03*
X69331Y77992D02*
D03*
Y37992D02*
D03*
X164055Y129252D02*
D03*
Y89252D02*
D03*
X42874Y118425D02*
D03*
Y78425D02*
D03*
X151929Y129252D02*
D03*
Y89252D02*
D03*
X18701Y78425D02*
D03*
Y118425D02*
D03*
X200236Y49449D02*
D03*
Y9449D02*
D03*
D46*
X173898Y16732D02*
D03*
X94567Y80709D02*
D03*
X166339Y159285D02*
D03*
X136496Y48150D02*
D03*
D47*
X84567Y80709D02*
D03*
X97795Y22638D02*
D03*
X57795D02*
D03*
X87795Y136732D02*
D03*
X47795D02*
D03*
X58386Y58150D02*
D03*
X18386D02*
D03*
X147795Y22638D02*
D03*
X107795D02*
D03*
D48*
X108268Y84631D02*
D03*
X161929Y76693D02*
D03*
X107795Y136732D02*
D03*
D49*
X118268Y84631D02*
D03*
X151929Y76693D02*
D03*
X97795Y136732D02*
D03*
D50*
X137795Y126772D02*
D03*
D51*
X127795D02*
D03*
X117795D02*
D03*
X107795D02*
D03*
X97795D02*
D03*
X87795D02*
D03*
X77795D02*
D03*
X67795D02*
D03*
Y95512D02*
D03*
X77795D02*
D03*
X87795D02*
D03*
X97795D02*
D03*
X107795D02*
D03*
X117795D02*
D03*
X127795D02*
D03*
X137795D02*
D03*
D52*
X106378Y33957D02*
D03*
X96378D02*
D03*
X116378D02*
D03*
X86378D02*
D03*
Y64941D02*
D03*
X106378D02*
D03*
X96378D02*
D03*
D53*
X116378D02*
D03*
D54*
X26496Y14528D02*
D03*
D55*
X36496D02*
D03*
Y44528D02*
D03*
X26496D02*
D03*
D56*
X182598Y118189D02*
D03*
D57*
X12795Y164370D02*
D03*
X203740D02*
D03*
M02*
