G04*
G04 #@! TF.GenerationSoftware,Altium Limited,Altium Designer,19.1.8 (144)*
G04*
G04 Layer_Color=8388736*
%FSLAX25Y25*%
%MOIN*%
G70*
G01*
G75*
%ADD10C,0.01000*%
G36*
X105348Y-9756D02*
X102782D01*
Y-10764D01*
X102832D01*
X102865Y-10756D01*
X102949D01*
X103065Y-10748D01*
X103123D01*
X103165Y-10739D01*
X103407D01*
X103490Y-10748D01*
X103598D01*
X103715Y-10764D01*
X103848Y-10781D01*
X103990Y-10798D01*
X104131Y-10831D01*
X104148D01*
X104190Y-10848D01*
X104265Y-10864D01*
X104348Y-10898D01*
X104448Y-10931D01*
X104565Y-10981D01*
X104673Y-11031D01*
X104781Y-11097D01*
X104798Y-11106D01*
X104840Y-11139D01*
X104906Y-11189D01*
X104981Y-11256D01*
X105064Y-11339D01*
X105156Y-11447D01*
X105248Y-11564D01*
X105323Y-11697D01*
X105331Y-11714D01*
X105356Y-11764D01*
X105381Y-11847D01*
X105423Y-11955D01*
X105456Y-12089D01*
X105481Y-12239D01*
X105506Y-12422D01*
X105514Y-12614D01*
Y-12622D01*
Y-12630D01*
Y-12655D01*
Y-12688D01*
X105506Y-12780D01*
X105498Y-12897D01*
X105473Y-13030D01*
X105448Y-13172D01*
X105406Y-13330D01*
X105348Y-13480D01*
Y-13488D01*
X105339Y-13497D01*
X105314Y-13546D01*
X105281Y-13622D01*
X105231Y-13713D01*
X105164Y-13821D01*
X105081Y-13938D01*
X104981Y-14055D01*
X104873Y-14171D01*
X104856Y-14188D01*
X104815Y-14221D01*
X104748Y-14271D01*
X104656Y-14338D01*
X104548Y-14413D01*
X104423Y-14488D01*
X104273Y-14554D01*
X104115Y-14621D01*
X104106D01*
X104098Y-14629D01*
X104073Y-14638D01*
X104040Y-14646D01*
X103998Y-14654D01*
X103948Y-14671D01*
X103823Y-14696D01*
X103665Y-14721D01*
X103482Y-14746D01*
X103273Y-14763D01*
X103049Y-14771D01*
X102940D01*
X102882Y-14763D01*
X102815D01*
X102657Y-14754D01*
X102474Y-14738D01*
X102282Y-14721D01*
X102082Y-14688D01*
X101891Y-14654D01*
X101882D01*
X101866Y-14646D01*
X101841D01*
X101807Y-14638D01*
X101724Y-14613D01*
X101608Y-14579D01*
X101482Y-14546D01*
X101349Y-14504D01*
X101224Y-14463D01*
X101099Y-14413D01*
Y-13097D01*
X101241D01*
X101249Y-13105D01*
X101274Y-13122D01*
X101308Y-13138D01*
X101391Y-13188D01*
X101491Y-13247D01*
X101499D01*
X101516Y-13263D01*
X101549Y-13280D01*
X101591Y-13297D01*
X101641Y-13322D01*
X101707Y-13355D01*
X101774Y-13388D01*
X101857Y-13422D01*
X101866D01*
X101899Y-13438D01*
X101941Y-13455D01*
X101991Y-13472D01*
X102057Y-13497D01*
X102132Y-13513D01*
X102290Y-13563D01*
X102299D01*
X102332Y-13571D01*
X102374Y-13580D01*
X102441Y-13588D01*
X102515Y-13597D01*
X102599Y-13605D01*
X102690Y-13613D01*
X102882D01*
X102940Y-13605D01*
X103015Y-13597D01*
X103099Y-13588D01*
X103290Y-13555D01*
X103298D01*
X103340Y-13546D01*
X103390Y-13530D01*
X103448Y-13505D01*
X103590Y-13438D01*
X103665Y-13397D01*
X103732Y-13347D01*
X103740Y-13338D01*
X103757Y-13322D01*
X103773Y-13297D01*
X103807Y-13263D01*
X103865Y-13180D01*
X103923Y-13072D01*
Y-13063D01*
X103931Y-13047D01*
X103948Y-13013D01*
X103965Y-12963D01*
X103973Y-12905D01*
X103990Y-12839D01*
X103998Y-12764D01*
Y-12672D01*
Y-12664D01*
Y-12639D01*
X103990Y-12597D01*
Y-12547D01*
X103956Y-12422D01*
X103940Y-12364D01*
X103907Y-12305D01*
Y-12297D01*
X103890Y-12280D01*
X103873Y-12255D01*
X103848Y-12214D01*
X103773Y-12139D01*
X103682Y-12055D01*
X103673Y-12047D01*
X103648Y-12031D01*
X103598Y-12014D01*
X103540Y-11981D01*
X103465Y-11955D01*
X103382Y-11922D01*
X103290Y-11897D01*
X103182Y-11880D01*
X103165D01*
X103132Y-11872D01*
X103082Y-11864D01*
X103007Y-11856D01*
X102932D01*
X102849Y-11847D01*
X102674Y-11839D01*
X102549D01*
X102465Y-11847D01*
X102366Y-11856D01*
X102257Y-11864D01*
X102024Y-11897D01*
X102007D01*
X101974Y-11906D01*
X101916Y-11914D01*
X101841Y-11930D01*
X101757Y-11947D01*
X101666Y-11964D01*
X101482Y-12005D01*
X101358D01*
Y-8624D01*
X105348D01*
Y-9756D01*
D02*
G37*
G36*
X100075D02*
X97509D01*
Y-10764D01*
X97559D01*
X97592Y-10756D01*
X97676D01*
X97792Y-10748D01*
X97851D01*
X97892Y-10739D01*
X98134D01*
X98217Y-10748D01*
X98326D01*
X98442Y-10764D01*
X98575Y-10781D01*
X98717Y-10798D01*
X98859Y-10831D01*
X98875D01*
X98917Y-10848D01*
X98992Y-10864D01*
X99075Y-10898D01*
X99175Y-10931D01*
X99292Y-10981D01*
X99400Y-11031D01*
X99508Y-11097D01*
X99525Y-11106D01*
X99567Y-11139D01*
X99633Y-11189D01*
X99708Y-11256D01*
X99792Y-11339D01*
X99883Y-11447D01*
X99975Y-11564D01*
X100050Y-11697D01*
X100058Y-11714D01*
X100083Y-11764D01*
X100108Y-11847D01*
X100150Y-11955D01*
X100183Y-12089D01*
X100208Y-12239D01*
X100233Y-12422D01*
X100241Y-12614D01*
Y-12622D01*
Y-12630D01*
Y-12655D01*
Y-12688D01*
X100233Y-12780D01*
X100225Y-12897D01*
X100200Y-13030D01*
X100175Y-13172D01*
X100133Y-13330D01*
X100075Y-13480D01*
Y-13488D01*
X100066Y-13497D01*
X100041Y-13546D01*
X100008Y-13622D01*
X99958Y-13713D01*
X99892Y-13821D01*
X99808Y-13938D01*
X99708Y-14055D01*
X99600Y-14171D01*
X99583Y-14188D01*
X99542Y-14221D01*
X99475Y-14271D01*
X99383Y-14338D01*
X99275Y-14413D01*
X99150Y-14488D01*
X99000Y-14554D01*
X98842Y-14621D01*
X98834D01*
X98825Y-14629D01*
X98800Y-14638D01*
X98767Y-14646D01*
X98725Y-14654D01*
X98675Y-14671D01*
X98550Y-14696D01*
X98392Y-14721D01*
X98209Y-14746D01*
X98001Y-14763D01*
X97776Y-14771D01*
X97667D01*
X97609Y-14763D01*
X97542D01*
X97384Y-14754D01*
X97201Y-14738D01*
X97009Y-14721D01*
X96809Y-14688D01*
X96618Y-14654D01*
X96609D01*
X96593Y-14646D01*
X96568D01*
X96535Y-14638D01*
X96451Y-14613D01*
X96335Y-14579D01*
X96210Y-14546D01*
X96076Y-14504D01*
X95951Y-14463D01*
X95827Y-14413D01*
Y-13097D01*
X95968D01*
X95976Y-13105D01*
X96001Y-13122D01*
X96035Y-13138D01*
X96118Y-13188D01*
X96218Y-13247D01*
X96226D01*
X96243Y-13263D01*
X96276Y-13280D01*
X96318Y-13297D01*
X96368Y-13322D01*
X96435Y-13355D01*
X96501Y-13388D01*
X96584Y-13422D01*
X96593D01*
X96626Y-13438D01*
X96668Y-13455D01*
X96718Y-13472D01*
X96784Y-13497D01*
X96859Y-13513D01*
X97018Y-13563D01*
X97026D01*
X97059Y-13571D01*
X97101Y-13580D01*
X97168Y-13588D01*
X97243Y-13597D01*
X97326Y-13605D01*
X97417Y-13613D01*
X97609D01*
X97667Y-13605D01*
X97742Y-13597D01*
X97826Y-13588D01*
X98017Y-13555D01*
X98026D01*
X98067Y-13546D01*
X98117Y-13530D01*
X98176Y-13505D01*
X98317Y-13438D01*
X98392Y-13397D01*
X98459Y-13347D01*
X98467Y-13338D01*
X98484Y-13322D01*
X98500Y-13297D01*
X98534Y-13263D01*
X98592Y-13180D01*
X98650Y-13072D01*
Y-13063D01*
X98659Y-13047D01*
X98675Y-13013D01*
X98692Y-12963D01*
X98700Y-12905D01*
X98717Y-12839D01*
X98725Y-12764D01*
Y-12672D01*
Y-12664D01*
Y-12639D01*
X98717Y-12597D01*
Y-12547D01*
X98684Y-12422D01*
X98667Y-12364D01*
X98634Y-12305D01*
Y-12297D01*
X98617Y-12280D01*
X98600Y-12255D01*
X98575Y-12214D01*
X98500Y-12139D01*
X98409Y-12055D01*
X98400Y-12047D01*
X98375Y-12031D01*
X98326Y-12014D01*
X98267Y-11981D01*
X98192Y-11955D01*
X98109Y-11922D01*
X98017Y-11897D01*
X97909Y-11880D01*
X97892D01*
X97859Y-11872D01*
X97809Y-11864D01*
X97734Y-11856D01*
X97659D01*
X97576Y-11847D01*
X97401Y-11839D01*
X97276D01*
X97193Y-11847D01*
X97093Y-11856D01*
X96984Y-11864D01*
X96751Y-11897D01*
X96734D01*
X96701Y-11906D01*
X96643Y-11914D01*
X96568Y-11930D01*
X96485Y-11947D01*
X96393Y-11964D01*
X96210Y-12005D01*
X96085D01*
Y-8624D01*
X100075D01*
Y-9756D01*
D02*
G37*
G36*
X116551Y-8507D02*
X116610D01*
X116768Y-8523D01*
X116935Y-8548D01*
X117118Y-8590D01*
X117301Y-8640D01*
X117468Y-8707D01*
X117476D01*
X117484Y-8715D01*
X117509Y-8732D01*
X117543Y-8748D01*
X117618Y-8790D01*
X117718Y-8857D01*
X117834Y-8948D01*
X117951Y-9048D01*
X118076Y-9173D01*
X118184Y-9315D01*
Y-9323D01*
X118193Y-9331D01*
X118209Y-9357D01*
X118226Y-9390D01*
X118276Y-9473D01*
X118334Y-9590D01*
X118401Y-9731D01*
X118467Y-9898D01*
X118534Y-10090D01*
X118584Y-10298D01*
Y-10306D01*
X118592Y-10323D01*
Y-10356D01*
X118601Y-10398D01*
X118617Y-10456D01*
X118626Y-10523D01*
X118634Y-10598D01*
X118651Y-10681D01*
X118659Y-10781D01*
X118667Y-10881D01*
X118692Y-11106D01*
X118701Y-11364D01*
X118709Y-11639D01*
Y-11647D01*
Y-11672D01*
Y-11714D01*
Y-11772D01*
Y-11839D01*
X118701Y-11914D01*
Y-12005D01*
X118692Y-12097D01*
X118676Y-12314D01*
X118651Y-12539D01*
X118617Y-12780D01*
X118576Y-13005D01*
Y-13013D01*
X118567Y-13030D01*
X118559Y-13063D01*
X118551Y-13105D01*
X118542Y-13155D01*
X118526Y-13213D01*
X118476Y-13347D01*
X118426Y-13497D01*
X118351Y-13663D01*
X118276Y-13821D01*
X118176Y-13980D01*
Y-13988D01*
X118167Y-13996D01*
X118126Y-14046D01*
X118068Y-14113D01*
X117984Y-14196D01*
X117884Y-14296D01*
X117759Y-14396D01*
X117618Y-14488D01*
X117459Y-14571D01*
X117451D01*
X117443Y-14579D01*
X117418Y-14588D01*
X117385Y-14604D01*
X117343Y-14621D01*
X117293Y-14638D01*
X117160Y-14671D01*
X117010Y-14704D01*
X116826Y-14738D01*
X116618Y-14763D01*
X116385Y-14771D01*
X116277D01*
X116227Y-14763D01*
X116160D01*
X116010Y-14746D01*
X115843Y-14721D01*
X115668Y-14688D01*
X115485Y-14638D01*
X115310Y-14571D01*
X115302D01*
X115294Y-14563D01*
X115269Y-14546D01*
X115235Y-14529D01*
X115160Y-14488D01*
X115052Y-14421D01*
X114944Y-14338D01*
X114819Y-14230D01*
X114702Y-14113D01*
X114594Y-13971D01*
Y-13963D01*
X114586Y-13955D01*
X114569Y-13930D01*
X114552Y-13905D01*
X114502Y-13813D01*
X114444Y-13705D01*
X114377Y-13563D01*
X114311Y-13397D01*
X114244Y-13205D01*
X114194Y-12997D01*
Y-12988D01*
X114186Y-12972D01*
Y-12938D01*
X114177Y-12897D01*
X114169Y-12839D01*
X114153Y-12772D01*
X114144Y-12697D01*
X114136Y-12605D01*
X114119Y-12514D01*
X114111Y-12405D01*
X114086Y-12180D01*
X114077Y-11922D01*
X114069Y-11639D01*
Y-11631D01*
Y-11606D01*
Y-11564D01*
Y-11506D01*
Y-11439D01*
X114077Y-11356D01*
Y-11264D01*
X114086Y-11164D01*
X114094Y-10956D01*
X114119Y-10723D01*
X114144Y-10498D01*
X114186Y-10273D01*
Y-10265D01*
X114194Y-10248D01*
X114202Y-10215D01*
X114211Y-10181D01*
X114227Y-10131D01*
X114244Y-10073D01*
X114286Y-9940D01*
X114344Y-9790D01*
X114411Y-9623D01*
X114502Y-9456D01*
X114602Y-9298D01*
Y-9290D01*
X114619Y-9282D01*
X114652Y-9232D01*
X114719Y-9165D01*
X114802Y-9073D01*
X114902Y-8973D01*
X115027Y-8873D01*
X115169Y-8782D01*
X115327Y-8698D01*
X115335D01*
X115344Y-8690D01*
X115369Y-8682D01*
X115402Y-8665D01*
X115452Y-8648D01*
X115502Y-8632D01*
X115627Y-8598D01*
X115777Y-8565D01*
X115960Y-8532D01*
X116160Y-8507D01*
X116385Y-8499D01*
X116493D01*
X116551Y-8507D01*
D02*
G37*
G36*
X111279D02*
X111337D01*
X111495Y-8523D01*
X111662Y-8548D01*
X111845Y-8590D01*
X112028Y-8640D01*
X112195Y-8707D01*
X112203D01*
X112212Y-8715D01*
X112237Y-8732D01*
X112270Y-8748D01*
X112345Y-8790D01*
X112445Y-8857D01*
X112561Y-8948D01*
X112678Y-9048D01*
X112803Y-9173D01*
X112911Y-9315D01*
Y-9323D01*
X112920Y-9331D01*
X112936Y-9357D01*
X112953Y-9390D01*
X113003Y-9473D01*
X113061Y-9590D01*
X113128Y-9731D01*
X113195Y-9898D01*
X113261Y-10090D01*
X113311Y-10298D01*
Y-10306D01*
X113320Y-10323D01*
Y-10356D01*
X113328Y-10398D01*
X113345Y-10456D01*
X113353Y-10523D01*
X113361Y-10598D01*
X113378Y-10681D01*
X113386Y-10781D01*
X113394Y-10881D01*
X113419Y-11106D01*
X113428Y-11364D01*
X113436Y-11639D01*
Y-11647D01*
Y-11672D01*
Y-11714D01*
Y-11772D01*
Y-11839D01*
X113428Y-11914D01*
Y-12005D01*
X113419Y-12097D01*
X113403Y-12314D01*
X113378Y-12539D01*
X113345Y-12780D01*
X113303Y-13005D01*
Y-13013D01*
X113294Y-13030D01*
X113286Y-13063D01*
X113278Y-13105D01*
X113269Y-13155D01*
X113253Y-13213D01*
X113203Y-13347D01*
X113153Y-13497D01*
X113078Y-13663D01*
X113003Y-13821D01*
X112903Y-13980D01*
Y-13988D01*
X112895Y-13996D01*
X112853Y-14046D01*
X112795Y-14113D01*
X112711Y-14196D01*
X112611Y-14296D01*
X112487Y-14396D01*
X112345Y-14488D01*
X112187Y-14571D01*
X112178D01*
X112170Y-14579D01*
X112145Y-14588D01*
X112112Y-14604D01*
X112070Y-14621D01*
X112020Y-14638D01*
X111887Y-14671D01*
X111737Y-14704D01*
X111554Y-14738D01*
X111345Y-14763D01*
X111112Y-14771D01*
X111004D01*
X110954Y-14763D01*
X110887D01*
X110737Y-14746D01*
X110571Y-14721D01*
X110396Y-14688D01*
X110212Y-14638D01*
X110037Y-14571D01*
X110029D01*
X110021Y-14563D01*
X109996Y-14546D01*
X109962Y-14529D01*
X109888Y-14488D01*
X109779Y-14421D01*
X109671Y-14338D01*
X109546Y-14230D01*
X109429Y-14113D01*
X109321Y-13971D01*
Y-13963D01*
X109313Y-13955D01*
X109296Y-13930D01*
X109279Y-13905D01*
X109229Y-13813D01*
X109171Y-13705D01*
X109105Y-13563D01*
X109038Y-13397D01*
X108971Y-13205D01*
X108921Y-12997D01*
Y-12988D01*
X108913Y-12972D01*
Y-12938D01*
X108905Y-12897D01*
X108896Y-12839D01*
X108880Y-12772D01*
X108871Y-12697D01*
X108863Y-12605D01*
X108846Y-12514D01*
X108838Y-12405D01*
X108813Y-12180D01*
X108805Y-11922D01*
X108796Y-11639D01*
Y-11631D01*
Y-11606D01*
Y-11564D01*
Y-11506D01*
Y-11439D01*
X108805Y-11356D01*
Y-11264D01*
X108813Y-11164D01*
X108821Y-10956D01*
X108846Y-10723D01*
X108871Y-10498D01*
X108913Y-10273D01*
Y-10265D01*
X108921Y-10248D01*
X108930Y-10215D01*
X108938Y-10181D01*
X108955Y-10131D01*
X108971Y-10073D01*
X109013Y-9940D01*
X109071Y-9790D01*
X109138Y-9623D01*
X109229Y-9456D01*
X109329Y-9298D01*
Y-9290D01*
X109346Y-9282D01*
X109379Y-9232D01*
X109446Y-9165D01*
X109529Y-9073D01*
X109629Y-8973D01*
X109754Y-8873D01*
X109896Y-8782D01*
X110054Y-8698D01*
X110062D01*
X110071Y-8690D01*
X110096Y-8682D01*
X110129Y-8665D01*
X110179Y-8648D01*
X110229Y-8632D01*
X110354Y-8598D01*
X110504Y-8565D01*
X110687Y-8532D01*
X110887Y-8507D01*
X111112Y-8499D01*
X111220D01*
X111279Y-8507D01*
D02*
G37*
G36*
X106730Y-16137D02*
X105872D01*
X106664Y-13055D01*
X108147D01*
X106730Y-16137D01*
D02*
G37*
G36*
X235339Y99165D02*
X235431D01*
X235522Y99157D01*
X235739Y99141D01*
X235964Y99116D01*
X236205Y99082D01*
X236430Y99041D01*
X236439D01*
X236455Y99032D01*
X236489Y99024D01*
X236530Y99016D01*
X236580Y99007D01*
X236638Y98991D01*
X236772Y98941D01*
X236922Y98891D01*
X237088Y98816D01*
X237247Y98741D01*
X237405Y98641D01*
X237413D01*
X237421Y98632D01*
X237472Y98591D01*
X237538Y98532D01*
X237621Y98449D01*
X237721Y98349D01*
X237821Y98224D01*
X237913Y98083D01*
X237996Y97924D01*
Y97916D01*
X238005Y97908D01*
X238013Y97883D01*
X238030Y97849D01*
X238046Y97808D01*
X238063Y97758D01*
X238096Y97624D01*
X238130Y97474D01*
X238163Y97291D01*
X238188Y97083D01*
X238196Y96850D01*
Y96741D01*
X238188Y96692D01*
Y96625D01*
X238171Y96475D01*
X238146Y96308D01*
X238113Y96133D01*
X238063Y95950D01*
X237996Y95775D01*
Y95767D01*
X237988Y95759D01*
X237971Y95734D01*
X237955Y95700D01*
X237913Y95625D01*
X237846Y95517D01*
X237763Y95409D01*
X237655Y95284D01*
X237538Y95167D01*
X237397Y95059D01*
X237388D01*
X237380Y95051D01*
X237355Y95034D01*
X237330Y95017D01*
X237238Y94967D01*
X237130Y94909D01*
X236988Y94842D01*
X236822Y94776D01*
X236630Y94709D01*
X236422Y94659D01*
X236414D01*
X236397Y94651D01*
X236364D01*
X236322Y94642D01*
X236264Y94634D01*
X236197Y94617D01*
X236122Y94609D01*
X236030Y94601D01*
X235939Y94584D01*
X235830Y94576D01*
X235606Y94551D01*
X235347Y94542D01*
X235064Y94534D01*
X235056D01*
X235031D01*
X234989D01*
X234931D01*
X234864D01*
X234781Y94542D01*
X234689D01*
X234589Y94551D01*
X234381Y94559D01*
X234148Y94584D01*
X233923Y94609D01*
X233698Y94651D01*
X233690D01*
X233673Y94659D01*
X233640Y94667D01*
X233606Y94676D01*
X233556Y94692D01*
X233498Y94709D01*
X233365Y94751D01*
X233215Y94809D01*
X233048Y94876D01*
X232882Y94967D01*
X232723Y95067D01*
X232715D01*
X232707Y95084D01*
X232657Y95117D01*
X232590Y95184D01*
X232499Y95267D01*
X232399Y95367D01*
X232299Y95492D01*
X232207Y95634D01*
X232124Y95792D01*
Y95800D01*
X232115Y95809D01*
X232107Y95833D01*
X232090Y95867D01*
X232074Y95917D01*
X232057Y95967D01*
X232024Y96092D01*
X231990Y96242D01*
X231957Y96425D01*
X231932Y96625D01*
X231924Y96850D01*
Y96958D01*
X231932Y97016D01*
Y97075D01*
X231949Y97233D01*
X231974Y97400D01*
X232015Y97583D01*
X232065Y97766D01*
X232132Y97933D01*
Y97941D01*
X232140Y97949D01*
X232157Y97974D01*
X232174Y98008D01*
X232215Y98083D01*
X232282Y98183D01*
X232373Y98299D01*
X232473Y98416D01*
X232598Y98541D01*
X232740Y98649D01*
X232748D01*
X232757Y98657D01*
X232782Y98674D01*
X232815Y98691D01*
X232898Y98741D01*
X233015Y98799D01*
X233157Y98866D01*
X233323Y98932D01*
X233515Y98999D01*
X233723Y99049D01*
X233731D01*
X233748Y99057D01*
X233781D01*
X233823Y99066D01*
X233881Y99082D01*
X233948Y99091D01*
X234023Y99099D01*
X234106Y99116D01*
X234206Y99124D01*
X234306Y99132D01*
X234531Y99157D01*
X234789Y99165D01*
X235064Y99174D01*
X235072D01*
X235098D01*
X235139D01*
X235197D01*
X235264D01*
X235339Y99165D01*
D02*
G37*
G36*
Y93893D02*
X235431D01*
X235522Y93884D01*
X235739Y93868D01*
X235964Y93843D01*
X236205Y93809D01*
X236430Y93768D01*
X236439D01*
X236455Y93759D01*
X236489Y93751D01*
X236530Y93743D01*
X236580Y93734D01*
X236638Y93718D01*
X236772Y93668D01*
X236922Y93618D01*
X237088Y93543D01*
X237247Y93468D01*
X237405Y93368D01*
X237413D01*
X237421Y93360D01*
X237472Y93318D01*
X237538Y93260D01*
X237621Y93176D01*
X237721Y93076D01*
X237821Y92951D01*
X237913Y92810D01*
X237996Y92651D01*
Y92643D01*
X238005Y92635D01*
X238013Y92610D01*
X238030Y92576D01*
X238046Y92535D01*
X238063Y92485D01*
X238096Y92352D01*
X238130Y92202D01*
X238163Y92018D01*
X238188Y91810D01*
X238196Y91577D01*
Y91469D01*
X238188Y91419D01*
Y91352D01*
X238171Y91202D01*
X238146Y91035D01*
X238113Y90860D01*
X238063Y90677D01*
X237996Y90502D01*
Y90494D01*
X237988Y90486D01*
X237971Y90461D01*
X237955Y90427D01*
X237913Y90352D01*
X237846Y90244D01*
X237763Y90136D01*
X237655Y90011D01*
X237538Y89894D01*
X237397Y89786D01*
X237388D01*
X237380Y89778D01*
X237355Y89761D01*
X237330Y89744D01*
X237238Y89694D01*
X237130Y89636D01*
X236988Y89569D01*
X236822Y89503D01*
X236630Y89436D01*
X236422Y89386D01*
X236414D01*
X236397Y89378D01*
X236364D01*
X236322Y89369D01*
X236264Y89361D01*
X236197Y89345D01*
X236122Y89336D01*
X236030Y89328D01*
X235939Y89311D01*
X235830Y89303D01*
X235606Y89278D01*
X235347Y89270D01*
X235064Y89261D01*
X235056D01*
X235031D01*
X234989D01*
X234931D01*
X234864D01*
X234781Y89270D01*
X234689D01*
X234589Y89278D01*
X234381Y89286D01*
X234148Y89311D01*
X233923Y89336D01*
X233698Y89378D01*
X233690D01*
X233673Y89386D01*
X233640Y89394D01*
X233606Y89403D01*
X233556Y89419D01*
X233498Y89436D01*
X233365Y89478D01*
X233215Y89536D01*
X233048Y89603D01*
X232882Y89694D01*
X232723Y89794D01*
X232715D01*
X232707Y89811D01*
X232657Y89844D01*
X232590Y89911D01*
X232499Y89994D01*
X232399Y90094D01*
X232299Y90219D01*
X232207Y90361D01*
X232124Y90519D01*
Y90527D01*
X232115Y90536D01*
X232107Y90561D01*
X232090Y90594D01*
X232074Y90644D01*
X232057Y90694D01*
X232024Y90819D01*
X231990Y90969D01*
X231957Y91152D01*
X231932Y91352D01*
X231924Y91577D01*
Y91685D01*
X231932Y91743D01*
Y91802D01*
X231949Y91960D01*
X231974Y92127D01*
X232015Y92310D01*
X232065Y92493D01*
X232132Y92660D01*
Y92668D01*
X232140Y92677D01*
X232157Y92702D01*
X232174Y92735D01*
X232215Y92810D01*
X232282Y92910D01*
X232373Y93026D01*
X232473Y93143D01*
X232598Y93268D01*
X232740Y93376D01*
X232748D01*
X232757Y93384D01*
X232782Y93401D01*
X232815Y93418D01*
X232898Y93468D01*
X233015Y93526D01*
X233157Y93593D01*
X233323Y93659D01*
X233515Y93726D01*
X233723Y93776D01*
X233731D01*
X233748Y93784D01*
X233781D01*
X233823Y93793D01*
X233881Y93809D01*
X233948Y93818D01*
X234023Y93826D01*
X234106Y93843D01*
X234206Y93851D01*
X234306Y93859D01*
X234531Y93884D01*
X234789Y93893D01*
X235064Y93901D01*
X235072D01*
X235098D01*
X235139D01*
X235197D01*
X235264D01*
X235339Y93893D01*
D02*
G37*
G36*
X239562Y87195D02*
Y86337D01*
X236480Y87129D01*
Y88611D01*
X239562Y87195D01*
D02*
G37*
G36*
X236205Y85971D02*
X236322Y85962D01*
X236455Y85938D01*
X236597Y85913D01*
X236755Y85871D01*
X236905Y85812D01*
X236913D01*
X236922Y85804D01*
X236972Y85779D01*
X237047Y85746D01*
X237138Y85696D01*
X237247Y85629D01*
X237363Y85546D01*
X237480Y85446D01*
X237597Y85338D01*
X237613Y85321D01*
X237646Y85279D01*
X237696Y85213D01*
X237763Y85121D01*
X237838Y85013D01*
X237913Y84888D01*
X237980Y84738D01*
X238046Y84580D01*
Y84571D01*
X238055Y84563D01*
X238063Y84538D01*
X238071Y84505D01*
X238080Y84463D01*
X238096Y84413D01*
X238121Y84288D01*
X238146Y84130D01*
X238171Y83947D01*
X238188Y83738D01*
X238196Y83513D01*
Y83405D01*
X238188Y83347D01*
Y83280D01*
X238180Y83122D01*
X238163Y82939D01*
X238146Y82747D01*
X238113Y82547D01*
X238080Y82356D01*
Y82347D01*
X238071Y82331D01*
Y82306D01*
X238063Y82272D01*
X238038Y82189D01*
X238005Y82072D01*
X237971Y81947D01*
X237930Y81814D01*
X237888Y81689D01*
X237838Y81564D01*
X236522D01*
Y81706D01*
X236530Y81714D01*
X236547Y81739D01*
X236563Y81773D01*
X236613Y81856D01*
X236672Y81956D01*
Y81964D01*
X236688Y81981D01*
X236705Y82014D01*
X236722Y82056D01*
X236747Y82106D01*
X236780Y82172D01*
X236813Y82239D01*
X236847Y82322D01*
Y82331D01*
X236863Y82364D01*
X236880Y82406D01*
X236897Y82456D01*
X236922Y82522D01*
X236938Y82597D01*
X236988Y82755D01*
Y82764D01*
X236997Y82797D01*
X237005Y82839D01*
X237013Y82905D01*
X237022Y82980D01*
X237030Y83064D01*
X237038Y83155D01*
Y83347D01*
X237030Y83405D01*
X237022Y83480D01*
X237013Y83564D01*
X236980Y83755D01*
Y83763D01*
X236972Y83805D01*
X236955Y83855D01*
X236930Y83913D01*
X236863Y84055D01*
X236822Y84130D01*
X236772Y84197D01*
X236764Y84205D01*
X236747Y84222D01*
X236722Y84238D01*
X236688Y84272D01*
X236605Y84330D01*
X236497Y84388D01*
X236489D01*
X236472Y84396D01*
X236439Y84413D01*
X236389Y84430D01*
X236330Y84438D01*
X236264Y84455D01*
X236189Y84463D01*
X236097D01*
X236089D01*
X236064D01*
X236022Y84455D01*
X235972D01*
X235847Y84421D01*
X235789Y84405D01*
X235731Y84372D01*
X235722D01*
X235705Y84355D01*
X235681Y84338D01*
X235639Y84313D01*
X235564Y84238D01*
X235481Y84147D01*
X235472Y84138D01*
X235456Y84113D01*
X235439Y84063D01*
X235406Y84005D01*
X235381Y83930D01*
X235347Y83847D01*
X235322Y83755D01*
X235306Y83647D01*
Y83630D01*
X235297Y83597D01*
X235289Y83547D01*
X235281Y83472D01*
Y83397D01*
X235272Y83314D01*
X235264Y83139D01*
Y83014D01*
X235272Y82930D01*
X235281Y82830D01*
X235289Y82722D01*
X235322Y82489D01*
Y82472D01*
X235331Y82439D01*
X235339Y82381D01*
X235356Y82306D01*
X235372Y82222D01*
X235389Y82131D01*
X235431Y81947D01*
Y81823D01*
X232049D01*
Y85812D01*
X233182D01*
Y83247D01*
X234190D01*
Y83297D01*
X234181Y83330D01*
Y83413D01*
X234173Y83530D01*
Y83588D01*
X234165Y83630D01*
Y83872D01*
X234173Y83955D01*
Y84063D01*
X234190Y84180D01*
X234206Y84313D01*
X234223Y84455D01*
X234256Y84596D01*
Y84613D01*
X234273Y84655D01*
X234289Y84730D01*
X234323Y84813D01*
X234356Y84913D01*
X234406Y85030D01*
X234456Y85138D01*
X234523Y85246D01*
X234531Y85263D01*
X234564Y85304D01*
X234614Y85371D01*
X234681Y85446D01*
X234764Y85529D01*
X234873Y85621D01*
X234989Y85713D01*
X235122Y85788D01*
X235139Y85796D01*
X235189Y85821D01*
X235272Y85846D01*
X235381Y85887D01*
X235514Y85921D01*
X235664Y85946D01*
X235847Y85971D01*
X236039Y85979D01*
X236047D01*
X236055D01*
X236080D01*
X236114D01*
X236205Y85971D01*
D02*
G37*
G36*
X236672Y80098D02*
X238088D01*
Y78632D01*
X236672D01*
Y75991D01*
X235556D01*
X232049Y78582D01*
Y80098D01*
X235589D01*
Y80914D01*
X236672D01*
Y80098D01*
D02*
G37*
%LPC*%
G36*
X116385Y-9606D02*
X116368D01*
X116318Y-9615D01*
X116235Y-9631D01*
X116143Y-9665D01*
X116043Y-9715D01*
X115943Y-9798D01*
X115893Y-9848D01*
X115852Y-9915D01*
X115802Y-9981D01*
X115769Y-10065D01*
Y-10073D01*
X115760Y-10090D01*
X115752Y-10114D01*
X115744Y-10156D01*
X115727Y-10206D01*
X115710Y-10265D01*
X115693Y-10340D01*
X115677Y-10431D01*
X115660Y-10531D01*
X115644Y-10648D01*
X115627Y-10773D01*
X115610Y-10914D01*
X115602Y-11073D01*
X115594Y-11247D01*
X115585Y-11439D01*
Y-11639D01*
Y-11647D01*
Y-11689D01*
Y-11747D01*
Y-11822D01*
X115594Y-11906D01*
Y-12014D01*
X115602Y-12130D01*
X115610Y-12247D01*
X115627Y-12505D01*
X115660Y-12764D01*
X115685Y-12888D01*
X115710Y-13005D01*
X115735Y-13113D01*
X115769Y-13205D01*
Y-13213D01*
X115777Y-13222D01*
X115802Y-13280D01*
X115852Y-13347D01*
X115918Y-13430D01*
X116002Y-13521D01*
X116110Y-13588D01*
X116235Y-13646D01*
X116310Y-13655D01*
X116385Y-13663D01*
X116402D01*
X116460Y-13655D01*
X116535Y-13638D01*
X116627Y-13605D01*
X116726Y-13555D01*
X116826Y-13472D01*
X116876Y-13413D01*
X116926Y-13355D01*
X116968Y-13288D01*
X117001Y-13205D01*
Y-13197D01*
X117010Y-13180D01*
X117018Y-13155D01*
X117035Y-13113D01*
X117043Y-13063D01*
X117060Y-13005D01*
X117076Y-12922D01*
X117101Y-12839D01*
X117118Y-12739D01*
X117135Y-12622D01*
X117151Y-12497D01*
X117160Y-12347D01*
X117176Y-12197D01*
X117185Y-12022D01*
X117193Y-11839D01*
Y-11639D01*
Y-11622D01*
Y-11589D01*
Y-11531D01*
Y-11456D01*
X117185Y-11364D01*
Y-11256D01*
X117176Y-11147D01*
X117168Y-11022D01*
X117143Y-10756D01*
X117110Y-10498D01*
X117093Y-10373D01*
X117068Y-10265D01*
X117035Y-10156D01*
X117001Y-10065D01*
Y-10056D01*
X116993Y-10048D01*
X116968Y-9990D01*
X116918Y-9923D01*
X116860Y-9831D01*
X116768Y-9748D01*
X116668Y-9681D01*
X116535Y-9623D01*
X116460Y-9615D01*
X116385Y-9606D01*
D02*
G37*
G36*
X111112D02*
X111095D01*
X111045Y-9615D01*
X110962Y-9631D01*
X110870Y-9665D01*
X110770Y-9715D01*
X110670Y-9798D01*
X110620Y-9848D01*
X110579Y-9915D01*
X110529Y-9981D01*
X110496Y-10065D01*
Y-10073D01*
X110487Y-10090D01*
X110479Y-10114D01*
X110471Y-10156D01*
X110454Y-10206D01*
X110437Y-10265D01*
X110421Y-10340D01*
X110404Y-10431D01*
X110387Y-10531D01*
X110371Y-10648D01*
X110354Y-10773D01*
X110337Y-10914D01*
X110329Y-11073D01*
X110321Y-11247D01*
X110312Y-11439D01*
Y-11639D01*
Y-11647D01*
Y-11689D01*
Y-11747D01*
Y-11822D01*
X110321Y-11906D01*
Y-12014D01*
X110329Y-12130D01*
X110337Y-12247D01*
X110354Y-12505D01*
X110387Y-12764D01*
X110412Y-12888D01*
X110437Y-13005D01*
X110462Y-13113D01*
X110496Y-13205D01*
Y-13213D01*
X110504Y-13222D01*
X110529Y-13280D01*
X110579Y-13347D01*
X110645Y-13430D01*
X110729Y-13521D01*
X110837Y-13588D01*
X110962Y-13646D01*
X111037Y-13655D01*
X111112Y-13663D01*
X111129D01*
X111187Y-13655D01*
X111262Y-13638D01*
X111354Y-13605D01*
X111453Y-13555D01*
X111554Y-13472D01*
X111603Y-13413D01*
X111653Y-13355D01*
X111695Y-13288D01*
X111728Y-13205D01*
Y-13197D01*
X111737Y-13180D01*
X111745Y-13155D01*
X111762Y-13113D01*
X111770Y-13063D01*
X111787Y-13005D01*
X111803Y-12922D01*
X111828Y-12839D01*
X111845Y-12739D01*
X111862Y-12622D01*
X111878Y-12497D01*
X111887Y-12347D01*
X111903Y-12197D01*
X111912Y-12022D01*
X111920Y-11839D01*
Y-11639D01*
Y-11622D01*
Y-11589D01*
Y-11531D01*
Y-11456D01*
X111912Y-11364D01*
Y-11256D01*
X111903Y-11147D01*
X111895Y-11022D01*
X111870Y-10756D01*
X111837Y-10498D01*
X111820Y-10373D01*
X111795Y-10265D01*
X111762Y-10156D01*
X111728Y-10065D01*
Y-10056D01*
X111720Y-10048D01*
X111695Y-9990D01*
X111645Y-9923D01*
X111587Y-9831D01*
X111495Y-9748D01*
X111395Y-9681D01*
X111262Y-9623D01*
X111187Y-9615D01*
X111112Y-9606D01*
D02*
G37*
G36*
X235264Y97658D02*
X235064D01*
X235048D01*
X235014D01*
X234956D01*
X234881D01*
X234789Y97650D01*
X234681D01*
X234573Y97641D01*
X234448Y97633D01*
X234181Y97608D01*
X233923Y97575D01*
X233798Y97558D01*
X233690Y97533D01*
X233581Y97500D01*
X233490Y97466D01*
X233481D01*
X233473Y97458D01*
X233415Y97433D01*
X233348Y97383D01*
X233257Y97325D01*
X233173Y97233D01*
X233107Y97133D01*
X233048Y97000D01*
X233040Y96925D01*
X233032Y96850D01*
Y96833D01*
X233040Y96783D01*
X233057Y96700D01*
X233090Y96608D01*
X233140Y96508D01*
X233223Y96408D01*
X233273Y96358D01*
X233340Y96317D01*
X233406Y96267D01*
X233490Y96233D01*
X233498D01*
X233515Y96225D01*
X233540Y96217D01*
X233581Y96208D01*
X233631Y96192D01*
X233690Y96175D01*
X233765Y96158D01*
X233856Y96142D01*
X233956Y96125D01*
X234073Y96108D01*
X234198Y96092D01*
X234339Y96075D01*
X234498Y96067D01*
X234673Y96058D01*
X234864Y96050D01*
X235064D01*
X235072D01*
X235114D01*
X235172D01*
X235247D01*
X235331Y96058D01*
X235439D01*
X235556Y96067D01*
X235672Y96075D01*
X235930Y96092D01*
X236189Y96125D01*
X236314Y96150D01*
X236430Y96175D01*
X236539Y96200D01*
X236630Y96233D01*
X236638D01*
X236647Y96242D01*
X236705Y96267D01*
X236772Y96317D01*
X236855Y96383D01*
X236947Y96467D01*
X237013Y96575D01*
X237072Y96700D01*
X237080Y96775D01*
X237088Y96850D01*
Y96867D01*
X237080Y96925D01*
X237063Y97000D01*
X237030Y97091D01*
X236980Y97191D01*
X236897Y97291D01*
X236838Y97341D01*
X236780Y97391D01*
X236714Y97433D01*
X236630Y97466D01*
X236622D01*
X236605Y97474D01*
X236580Y97483D01*
X236539Y97500D01*
X236489Y97508D01*
X236430Y97524D01*
X236347Y97541D01*
X236264Y97566D01*
X236164Y97583D01*
X236047Y97600D01*
X235922Y97616D01*
X235772Y97624D01*
X235622Y97641D01*
X235447Y97650D01*
X235264Y97658D01*
D02*
G37*
G36*
Y92385D02*
X235064D01*
X235048D01*
X235014D01*
X234956D01*
X234881D01*
X234789Y92377D01*
X234681D01*
X234573Y92368D01*
X234448Y92360D01*
X234181Y92335D01*
X233923Y92302D01*
X233798Y92285D01*
X233690Y92260D01*
X233581Y92227D01*
X233490Y92193D01*
X233481D01*
X233473Y92185D01*
X233415Y92160D01*
X233348Y92110D01*
X233257Y92052D01*
X233173Y91960D01*
X233107Y91860D01*
X233048Y91727D01*
X233040Y91652D01*
X233032Y91577D01*
Y91560D01*
X233040Y91510D01*
X233057Y91427D01*
X233090Y91335D01*
X233140Y91235D01*
X233223Y91135D01*
X233273Y91085D01*
X233340Y91044D01*
X233406Y90994D01*
X233490Y90961D01*
X233498D01*
X233515Y90952D01*
X233540Y90944D01*
X233581Y90935D01*
X233631Y90919D01*
X233690Y90902D01*
X233765Y90886D01*
X233856Y90869D01*
X233956Y90852D01*
X234073Y90835D01*
X234198Y90819D01*
X234339Y90802D01*
X234498Y90794D01*
X234673Y90786D01*
X234864Y90777D01*
X235064D01*
X235072D01*
X235114D01*
X235172D01*
X235247D01*
X235331Y90786D01*
X235439D01*
X235556Y90794D01*
X235672Y90802D01*
X235930Y90819D01*
X236189Y90852D01*
X236314Y90877D01*
X236430Y90902D01*
X236539Y90927D01*
X236630Y90961D01*
X236638D01*
X236647Y90969D01*
X236705Y90994D01*
X236772Y91044D01*
X236855Y91110D01*
X236947Y91194D01*
X237013Y91302D01*
X237072Y91427D01*
X237080Y91502D01*
X237088Y91577D01*
Y91594D01*
X237080Y91652D01*
X237063Y91727D01*
X237030Y91818D01*
X236980Y91918D01*
X236897Y92018D01*
X236838Y92068D01*
X236780Y92118D01*
X236714Y92160D01*
X236630Y92193D01*
X236622D01*
X236605Y92202D01*
X236580Y92210D01*
X236539Y92227D01*
X236489Y92235D01*
X236430Y92252D01*
X236347Y92268D01*
X236264Y92293D01*
X236164Y92310D01*
X236047Y92327D01*
X235922Y92343D01*
X235772Y92352D01*
X235622Y92368D01*
X235447Y92377D01*
X235264Y92385D01*
D02*
G37*
G36*
X235589Y78632D02*
X233540D01*
X235589Y77108D01*
Y78632D01*
D02*
G37*
%LPD*%
D10*
X0Y-10827D02*
X6000Y-8827D01*
X0Y-10827D02*
X6000Y-12827D01*
X210535D02*
X216535Y-10827D01*
X210535Y-8827D02*
X216535Y-10827D01*
X0D02*
X94827D01*
X119709D02*
X216535D01*
X0Y-11827D02*
Y0D01*
X216535Y-11827D02*
Y-1969D01*
X234252Y177165D02*
X236252Y171165D01*
X232252D02*
X234252Y177165D01*
X232252Y6000D02*
X234252Y0D01*
X236252Y6000D01*
X234252Y100174D02*
Y177165D01*
Y0D02*
Y74992D01*
X218028Y177165D02*
X235252D01*
X218028Y0D02*
X235252D01*
M02*
