G04*
G04 #@! TF.GenerationSoftware,Altium Limited,Altium Designer,19.1.8 (144)*
G04*
G04 Layer_Color=8388736*
%FSLAX25Y25*%
%MOIN*%
G70*
G01*
G75*
G04:AMPARAMS|DCode=20|XSize=63.94mil|YSize=73.94mil|CornerRadius=0mil|HoleSize=0mil|Usage=FLASHONLY|Rotation=270.000|XOffset=0mil|YOffset=0mil|HoleType=Round|Shape=Octagon|*
%AMOCTAGOND20*
4,1,8,0.03697,0.01598,0.03697,-0.01598,0.02098,-0.03197,-0.02098,-0.03197,-0.03697,-0.01598,-0.03697,0.01598,-0.02098,0.03197,0.02098,0.03197,0.03697,0.01598,0.0*
%
%ADD20OCTAGOND20*%

%ADD21O,0.07394X0.06394*%
%ADD22C,0.05189*%
%ADD23R,0.05189X0.05189*%
G04:AMPARAMS|DCode=24|XSize=78.94mil|YSize=63.94mil|CornerRadius=0mil|HoleSize=0mil|Usage=FLASHONLY|Rotation=270.000|XOffset=0mil|YOffset=0mil|HoleType=Round|Shape=Octagon|*
%AMOCTAGOND24*
4,1,8,-0.01598,-0.03947,0.01598,-0.03947,0.03197,-0.02348,0.03197,0.02348,0.01598,0.03947,-0.01598,0.03947,-0.03197,0.02348,-0.03197,-0.02348,-0.01598,-0.03947,0.0*
%
%ADD24OCTAGOND24*%

%ADD25P,0.07462X8X112.5*%
%ADD26C,0.06894*%
%ADD27P,0.07462X8X202.5*%
%ADD28O,0.06394X0.07394*%
G04:AMPARAMS|DCode=29|XSize=63.94mil|YSize=73.94mil|CornerRadius=0mil|HoleSize=0mil|Usage=FLASHONLY|Rotation=180.000|XOffset=0mil|YOffset=0mil|HoleType=Round|Shape=Octagon|*
%AMOCTAGOND29*
4,1,8,0.01598,-0.03697,-0.01598,-0.03697,-0.03197,-0.02098,-0.03197,0.02098,-0.01598,0.03697,0.01598,0.03697,0.03197,0.02098,0.03197,-0.02098,0.01598,-0.03697,0.0*
%
%ADD29OCTAGOND29*%

%ADD30R,0.04842X0.04842*%
%ADD31C,0.04842*%
%ADD32C,0.05543*%
%ADD33R,0.05543X0.05543*%
%ADD34R,0.05354X0.05354*%
%ADD35C,0.05354*%
%ADD36R,0.05189X0.05189*%
%ADD37C,0.20079*%
D20*
X178150Y46102D02*
D03*
X55551Y86614D02*
D03*
X54134Y106299D02*
D03*
X155197Y48150D02*
D03*
D21*
X178150Y56102D02*
D03*
X55551Y76614D02*
D03*
X54134Y116299D02*
D03*
X155197Y58150D02*
D03*
D22*
X71142Y154488D02*
D03*
X81142D02*
D03*
X182598Y98189D02*
D03*
Y108189D02*
D03*
X120197Y154449D02*
D03*
X130197D02*
D03*
D23*
X91142Y154488D02*
D03*
X140197Y154449D02*
D03*
D24*
X103268Y6890D02*
D03*
X113268D02*
D03*
X123268D02*
D03*
X133268D02*
D03*
X143268D02*
D03*
X73268D02*
D03*
X83268D02*
D03*
X93268D02*
D03*
D25*
X173898Y30732D02*
D03*
X166339Y149285D02*
D03*
X136496Y58150D02*
D03*
X30512Y118425D02*
D03*
Y78425D02*
D03*
X69331Y77992D02*
D03*
Y37992D02*
D03*
X164055Y129252D02*
D03*
Y89252D02*
D03*
X42874Y118425D02*
D03*
Y78425D02*
D03*
X151929Y129252D02*
D03*
Y89252D02*
D03*
X18701Y78425D02*
D03*
Y118425D02*
D03*
X200236Y49449D02*
D03*
Y9449D02*
D03*
D26*
X173898Y16732D02*
D03*
X94567Y80709D02*
D03*
X166339Y159285D02*
D03*
X136496Y48150D02*
D03*
D27*
X84567Y80709D02*
D03*
X97795Y22638D02*
D03*
X57795D02*
D03*
X87795Y136732D02*
D03*
X47795D02*
D03*
X58386Y58150D02*
D03*
X18386D02*
D03*
X147795Y22638D02*
D03*
X107795D02*
D03*
D28*
X108268Y84631D02*
D03*
X161929Y76693D02*
D03*
X107795Y136732D02*
D03*
D29*
X118268Y84631D02*
D03*
X151929Y76693D02*
D03*
X97795Y136732D02*
D03*
D30*
X137795Y126772D02*
D03*
D31*
X127795D02*
D03*
X117795D02*
D03*
X107795D02*
D03*
X97795D02*
D03*
X87795D02*
D03*
X77795D02*
D03*
X67795D02*
D03*
Y95512D02*
D03*
X77795D02*
D03*
X87795D02*
D03*
X97795D02*
D03*
X107795D02*
D03*
X117795D02*
D03*
X127795D02*
D03*
X137795D02*
D03*
D32*
X106378Y33957D02*
D03*
X96378D02*
D03*
X116378D02*
D03*
X86378D02*
D03*
Y64941D02*
D03*
X106378D02*
D03*
X96378D02*
D03*
D33*
X116378D02*
D03*
D34*
X26496Y14528D02*
D03*
D35*
X36496D02*
D03*
Y44528D02*
D03*
X26496D02*
D03*
D36*
X182598Y118189D02*
D03*
D37*
X12795Y164370D02*
D03*
X203740D02*
D03*
M02*
