G04*
G04 #@! TF.GenerationSoftware,Altium Limited,Altium Designer,19.1.8 (144)*
G04*
G04 Layer_Color=2752767*
%FSLAX25Y25*%
%MOIN*%
G70*
G01*
G75*
%ADD60C,0.00200*%
%ADD61C,0.00267*%
D60*
X177350Y45302D02*
Y46902D01*
X178950D01*
Y45302D01*
X177350D01*
Y55302D02*
Y56902D01*
X178950D01*
Y55302D01*
X177350D01*
X102468Y6090D02*
Y7690D01*
X104068D01*
Y6090D01*
X102468D01*
X112468D02*
Y7690D01*
X114068D01*
Y6090D01*
X112468D01*
X122468D02*
Y7690D01*
X124068D01*
Y6090D01*
X122468D01*
X132468D02*
Y7690D01*
X134068D01*
Y6090D01*
X132468D01*
X142468D02*
Y7690D01*
X144068D01*
Y6090D01*
X142468D01*
X72468D02*
Y7690D01*
X74068D01*
Y6090D01*
X72468D01*
X82468D02*
Y7690D01*
X84068D01*
Y6090D01*
X82468D01*
X92468D02*
Y7690D01*
X94068D01*
Y6090D01*
X92468D01*
X173898Y29932D02*
X173098Y31532D01*
X174698D01*
X173898Y29932D01*
Y15932D02*
X173098Y17532D01*
X174698D01*
X173898Y15932D01*
X84567Y79909D02*
X83767Y81509D01*
X85367D01*
X84567Y79909D01*
X94567D02*
X93767Y81509D01*
X95367D01*
X94567Y79909D01*
X107468Y83830D02*
Y85431D01*
X109068D01*
Y83830D01*
X107468D01*
X117468D02*
Y85431D01*
X119068D01*
Y83830D01*
X117468D01*
X97795Y21838D02*
X96995Y23438D01*
X98595D01*
X97795Y21838D01*
X57795D02*
X56995Y23438D01*
X58595D01*
X57795Y21838D01*
X137795Y125972D02*
X138195Y126372D01*
X138595D01*
X138195Y126772D01*
X138595Y127172D01*
X138195D01*
X137795Y127572D01*
X137395Y127172D01*
X136995D01*
X137395Y126772D01*
X136995Y126372D01*
X137395D01*
X137795Y125972D01*
X127795D02*
X128195Y126372D01*
X128595D01*
X128195Y126772D01*
X128595Y127172D01*
X128195D01*
X127795Y127572D01*
X127395Y127172D01*
X126995D01*
X127395Y126772D01*
X126995Y126372D01*
X127395D01*
X127795Y125972D01*
X117795D02*
X118195Y126372D01*
X118595D01*
X118195Y126772D01*
X118595Y127172D01*
X118195D01*
X117795Y127572D01*
X117395Y127172D01*
X116995D01*
X117395Y126772D01*
X116995Y126372D01*
X117395D01*
X117795Y125972D01*
X107795D02*
X108195Y126372D01*
X108595D01*
X108195Y126772D01*
X108595Y127172D01*
X108195D01*
X107795Y127572D01*
X107395Y127172D01*
X106995D01*
X107395Y126772D01*
X106995Y126372D01*
X107395D01*
X107795Y125972D01*
X97795D02*
X98195Y126372D01*
X98595D01*
X98195Y126772D01*
X98595Y127172D01*
X98195D01*
X97795Y127572D01*
X97395Y127172D01*
X96995D01*
X97395Y126772D01*
X96995Y126372D01*
X97395D01*
X97795Y125972D01*
X87795D02*
X88195Y126372D01*
X88595D01*
X88195Y126772D01*
X88595Y127172D01*
X88195D01*
X87795Y127572D01*
X87395Y127172D01*
X86995D01*
X87395Y126772D01*
X86995Y126372D01*
X87395D01*
X87795Y125972D01*
X77795D02*
X78195Y126372D01*
X78595D01*
X78195Y126772D01*
X78595Y127172D01*
X78195D01*
X77795Y127572D01*
X77395Y127172D01*
X76995D01*
X77395Y126772D01*
X76995Y126372D01*
X77395D01*
X77795Y125972D01*
X67795D02*
X68195Y126372D01*
X68595D01*
X68195Y126772D01*
X68595Y127172D01*
X68195D01*
X67795Y127572D01*
X67395Y127172D01*
X66995D01*
X67395Y126772D01*
X66995Y126372D01*
X67395D01*
X67795Y125972D01*
Y94712D02*
X68195Y95112D01*
X68595D01*
X68195Y95512D01*
X68595Y95912D01*
X68195D01*
X67795Y96312D01*
X67395Y95912D01*
X66995D01*
X67395Y95512D01*
X66995Y95112D01*
X67395D01*
X67795Y94712D01*
X77795D02*
X78195Y95112D01*
X78595D01*
X78195Y95512D01*
X78595Y95912D01*
X78195D01*
X77795Y96312D01*
X77395Y95912D01*
X76995D01*
X77395Y95512D01*
X76995Y95112D01*
X77395D01*
X77795Y94712D01*
X87795D02*
X88195Y95112D01*
X88595D01*
X88195Y95512D01*
X88595Y95912D01*
X88195D01*
X87795Y96312D01*
X87395Y95912D01*
X86995D01*
X87395Y95512D01*
X86995Y95112D01*
X87395D01*
X87795Y94712D01*
X97795D02*
X98195Y95112D01*
X98595D01*
X98195Y95512D01*
X98595Y95912D01*
X98195D01*
X97795Y96312D01*
X97395Y95912D01*
X96995D01*
X97395Y95512D01*
X96995Y95112D01*
X97395D01*
X97795Y94712D01*
X107795D02*
X108195Y95112D01*
X108595D01*
X108195Y95512D01*
X108595Y95912D01*
X108195D01*
X107795Y96312D01*
X107395Y95912D01*
X106995D01*
X107395Y95512D01*
X106995Y95112D01*
X107395D01*
X107795Y94712D01*
X117795D02*
X118195Y95112D01*
X118595D01*
X118195Y95512D01*
X118595Y95912D01*
X118195D01*
X117795Y96312D01*
X117395Y95912D01*
X116995D01*
X117395Y95512D01*
X116995Y95112D01*
X117395D01*
X117795Y94712D01*
X127795D02*
X128195Y95112D01*
X128595D01*
X128195Y95512D01*
X128595Y95912D01*
X128195D01*
X127795Y96312D01*
X127395Y95912D01*
X126995D01*
X127395Y95512D01*
X126995Y95112D01*
X127395D01*
X127795Y94712D01*
X137795D02*
X138195Y95112D01*
X138595D01*
X138195Y95512D01*
X138595Y95912D01*
X138195D01*
X137795Y96312D01*
X137395Y95912D01*
X136995D01*
X137395Y95512D01*
X136995Y95112D01*
X137395D01*
X137795Y94712D01*
X105578Y33157D02*
X105978Y33957D01*
X105578Y34757D01*
X106378Y34357D01*
X107178Y34757D01*
X106778Y33957D01*
X107178Y33157D01*
X106378Y33557D01*
X105578Y33157D01*
X95578D02*
X95978Y33957D01*
X95578Y34757D01*
X96378Y34357D01*
X97178Y34757D01*
X96778Y33957D01*
X97178Y33157D01*
X96378Y33557D01*
X95578Y33157D01*
X115578D02*
X115978Y33957D01*
X115578Y34757D01*
X116378Y34357D01*
X117178Y34757D01*
X116778Y33957D01*
X117178Y33157D01*
X116378Y33557D01*
X115578Y33157D01*
X85578D02*
X85978Y33957D01*
X85578Y34757D01*
X86378Y34357D01*
X87178Y34757D01*
X86778Y33957D01*
X87178Y33157D01*
X86378Y33557D01*
X85578Y33157D01*
X115578Y64141D02*
X115978Y64941D01*
X115578Y65741D01*
X116378Y65341D01*
X117178Y65741D01*
X116778Y64941D01*
X117178Y64141D01*
X116378Y64541D01*
X115578Y64141D01*
X85578D02*
X85978Y64941D01*
X85578Y65741D01*
X86378Y65341D01*
X87178Y65741D01*
X86778Y64941D01*
X87178Y64141D01*
X86378Y64541D01*
X85578Y64141D01*
X105578D02*
X105978Y64941D01*
X105578Y65741D01*
X106378Y65341D01*
X107178Y65741D01*
X106778Y64941D01*
X107178Y64141D01*
X106378Y64541D01*
X105578Y64141D01*
X95578D02*
X95978Y64941D01*
X95578Y65741D01*
X96378Y65341D01*
X97178Y65741D01*
X96778Y64941D01*
X97178Y64141D01*
X96378Y64541D01*
X95578Y64141D01*
X26096Y14128D02*
Y13728D01*
X26896D01*
Y14128D01*
X27296D01*
Y14928D01*
X26896D01*
Y15328D01*
X26096D01*
Y14928D01*
X25696D01*
Y14128D01*
X26096D01*
X36096D02*
Y13728D01*
X36896D01*
Y14128D01*
X37296D01*
Y14928D01*
X36896D01*
Y15328D01*
X36096D01*
Y14928D01*
X35696D01*
Y14128D01*
X36096D01*
Y44128D02*
Y43728D01*
X36896D01*
Y44128D01*
X37296D01*
Y44928D01*
X36896D01*
Y45328D01*
X36096D01*
Y44928D01*
X35696D01*
Y44128D01*
X36096D01*
X26096D02*
Y43728D01*
X26896D01*
Y44128D01*
X27296D01*
Y44928D01*
X26896D01*
Y45328D01*
X26096D01*
Y44928D01*
X25696D01*
Y44128D01*
X26096D01*
X166339Y158485D02*
X165539Y160085D01*
X167139D01*
X166339Y158485D01*
Y148485D02*
X165539Y150085D01*
X167139D01*
X166339Y148485D01*
X161129Y75893D02*
Y77493D01*
X162729D01*
Y75893D01*
X161129D01*
X151129D02*
Y77493D01*
X152729D01*
Y75893D01*
X151129D01*
X54751Y75814D02*
Y77414D01*
X56351D01*
Y75814D01*
X54751D01*
Y85814D02*
Y87414D01*
X56351D01*
Y85814D01*
X54751D01*
X53334Y115499D02*
Y117099D01*
X54934D01*
Y115499D01*
X53334D01*
Y105499D02*
Y107099D01*
X54934D01*
Y105499D01*
X53334D01*
X106995Y135932D02*
Y137532D01*
X108595D01*
Y135932D01*
X106995D01*
X96995D02*
Y137532D01*
X98595D01*
Y135932D01*
X96995D01*
X136496Y47350D02*
X135696Y48950D01*
X137296D01*
X136496Y47350D01*
Y57350D02*
X135696Y58950D01*
X137296D01*
X136496Y57350D01*
X154397D02*
Y58950D01*
X155997D01*
Y57350D01*
X154397D01*
Y47350D02*
Y48950D01*
X155997D01*
Y47350D01*
X154397D01*
X30512Y117625D02*
X29712Y119225D01*
X31312D01*
X30512Y117625D01*
Y77625D02*
X29712Y79225D01*
X31312D01*
X30512Y77625D01*
X69331Y77192D02*
X68531Y78792D01*
X70131D01*
X69331Y77192D01*
Y37192D02*
X68531Y38792D01*
X70131D01*
X69331Y37192D01*
X164055Y128452D02*
X163255Y130052D01*
X164855D01*
X164055Y128452D01*
Y88452D02*
X163255Y90052D01*
X164855D01*
X164055Y88452D01*
X42874Y117625D02*
X42074Y119225D01*
X43674D01*
X42874Y117625D01*
Y77625D02*
X42074Y79225D01*
X43674D01*
X42874Y77625D01*
X151929Y128452D02*
X151129Y130052D01*
X152729D01*
X151929Y128452D01*
Y88452D02*
X151129Y90052D01*
X152729D01*
X151929Y88452D01*
X18701Y77625D02*
X17901Y79225D01*
X19501D01*
X18701Y77625D01*
Y117625D02*
X17901Y119225D01*
X19501D01*
X18701Y117625D01*
X200236Y48649D02*
X199436Y50249D01*
X201036D01*
X200236Y48649D01*
Y8649D02*
X199436Y10249D01*
X201036D01*
X200236Y8649D01*
X87795Y135932D02*
X86995Y137532D01*
X88595D01*
X87795Y135932D01*
X47795D02*
X46995Y137532D01*
X48595D01*
X47795Y135932D01*
X58386Y57350D02*
X57586Y58950D01*
X59186D01*
X58386Y57350D01*
X18386D02*
X17586Y58950D01*
X19186D01*
X18386Y57350D01*
X147795Y21838D02*
X146995Y23438D01*
X148595D01*
X147795Y21838D01*
X107795D02*
X106995Y23438D01*
X108595D01*
X107795Y21838D01*
X11995Y163570D02*
X12395D01*
X12795Y163970D01*
X13195Y163570D01*
X13595D01*
Y163970D01*
X13195Y164370D01*
X13595Y164770D01*
Y165170D01*
X13195D01*
X12795Y164770D01*
X12395Y165170D01*
X11995D01*
Y164770D01*
X12395Y164370D01*
X11995Y163970D01*
Y163570D01*
X202940D02*
X203340D01*
X203740Y163970D01*
X204140Y163570D01*
X204540D01*
Y163970D01*
X204140Y164370D01*
X204540Y164770D01*
Y165170D01*
X204140D01*
X203740Y164770D01*
X203340Y165170D01*
X202940D01*
Y164770D01*
X203340Y164370D01*
X202940Y163970D01*
Y163570D01*
D61*
X71942Y154488D02*
X71389Y155249D01*
X70495Y154958D01*
Y154018D01*
X71389Y153727D01*
X71942Y154488D01*
X81942D02*
X81389Y155249D01*
X80494Y154958D01*
Y154018D01*
X81389Y153727D01*
X81942Y154488D01*
X91942D02*
X91389Y155249D01*
X90495Y154958D01*
Y154018D01*
X91389Y153727D01*
X91942Y154488D01*
X183398Y98189D02*
X182846Y98950D01*
X181951Y98659D01*
Y97719D01*
X182846Y97428D01*
X183398Y98189D01*
Y108189D02*
X182846Y108950D01*
X181951Y108659D01*
Y107719D01*
X182846Y107428D01*
X183398Y108189D01*
Y118189D02*
X182846Y118950D01*
X181951Y118659D01*
Y117719D01*
X182846Y117428D01*
X183398Y118189D01*
X120997Y154449D02*
X120444Y155210D01*
X119550Y154919D01*
Y153979D01*
X120444Y153688D01*
X120997Y154449D01*
X130997D02*
X130444Y155210D01*
X129550Y154919D01*
Y153979D01*
X130444Y153688D01*
X130997Y154449D01*
X140997D02*
X140444Y155210D01*
X139550Y154919D01*
Y153979D01*
X140444Y153688D01*
X140997Y154449D01*
M02*
